<svg xmlns="http://www.w3.org/2000/svg" xmlns:xlink="http://www.w3.org/1999/xlink" viewBox="0 0 648 432" xmlns:v="https://vecta.io/nano"><style><![CDATA[.h{clip-path:url(#L)}.i{fill:#f05252}.j{clip-path:url(#J)}.k{fill:#b9d3ee}.l{fill:#fff}.m{clip-path:url(#N)}.n{fill:#92b3de}.o{fill:#243962}.p{fill:#fab17e}.q{fill:#d4e3f5}.r{fill:#c9dbf1}.s{fill:#182d4f}.t{fill:#e4e8ef}.u{fill:#9bbfe1}]]></style><defs><path id="A" d="M-44.5-43.3h737.1v518.5H-44.5z"/><path id="B" d="M246.9 370.2h.1c1 0 1.8-.9 1.7-1.8l-6.9-68.5-6 .5 9.8 68.8c.2.7.7 1.1 1.3 1"/><path id="C" d="M295.2 370.2h.1c1 0 1.8-.9 1.7-1.8l-6.9-68.5-6 .5 9.8 68.8c.3.7.8 1.1 1.3 1"/><path id="D" d="M182.9 290l-12.2-60.1c-1.6-8.1 5.2-15.6 13.9-15.4l23.5.5c8.1.2 15.1 5.6 17.4 13.4l17.8 61.5h-60.4z"/><path id="E" d="M111.2 310.7h-11c-.5 0-1-.4-1-1 0-.5.4-1 1-1h11c.5 0 1 .4 1 1a1.08 1.08 0 0 1-1 1"/><path id="F" d="M288 95.9c.3.3.3.8 0 1.2-.3.3-.8.3-1.2 0-.3-.3-.3-.8 0-1.2.3-.3.8-.3 1.2 0"/><path id="G" d="M262.5 95.9c-.3.3-.3.8 0 1.2.3.3.8.3 1.2 0 .3-.3.3-.8 0-1.2-.4-.3-.9-.3-1.2 0"/><path id="H" d="M257.98 149.992l-2.093.164-.164-2.093 2.093-.164z"/><path id="I" d="M253.827 150.34l-2.093.166-.166-2.093 2.093-.166z"/></defs><clipPath id="J"><use xlink:href="#A"/></clipPath><g class="j"><path d="M605.1 360.2h-.4l-259.7-.1V134.9l.2-.2c21.5-19.6 55-30.4 94.3-30.4 26.6 0 54.2 5.2 77.9 14.8 25.3 10.2 45.4 24.8 58 42.2 16 22.1 19.6 48.4 10.4 76.1-9.1 27.7 3.1 42.8 15 57.4 13.6 16.8 26.5 32.7 4.4 65.2l-.1.2zm-258.6-1.6l257.8.1c21.1-31.4 8.7-46.8-4.6-63.1-12.1-14.9-24.6-30.4-15.2-58.8 9.1-27.6 5.7-52.8-10.2-74.7-24.4-33.7-78.5-56.4-134.7-56.4-38.8 0-71.8 10.6-93.1 29.8v223.1z" fill="#1c478a"/><path d="M166.8 370.7H55.2l-.2-.3c-.1-.2-13-15.7-22.5-38.9-8.9-21.4-16.7-53.8-3.7-86.8 11.4-28.9 45.8-50.7 80-50.7 12.5 0 23.9 3.1 33 9.1 3.4 2.2 8.5 3.4 14.8 3.4 3 0 6.2-.3 9.5-.8l.9-.1v165.1zm-110.9-1.5h109.4v-162a55.98 55.98 0 0 1-8.9.7c-6.6 0-12-1.3-15.6-3.6-8.8-5.8-19.9-8.8-32.1-8.8-33.6 0-67.4 21.4-78.6 49.8-12.8 32.5-5.1 64.5 3.7 85.6 8.8 21.3 20.4 36.2 22.1 38.3z" fill="#1c478a"/><path d="M74.9 370.8s-71.4-68-36.5-138.1C61.1 187 146.4 162 194.5 187c20.5 10.7 86.3.4 121.4-43.8 68.2-85.7 306.3-33.7 263 98-21 63.7 63.8 66 20.6 129.7l-524.6-.1z" fill="#e9f1fa"/><g class="n"><use xlink:href="#B"/><path d="M180.9 370.2h-.1c-1 0-1.8-.9-1.7-1.8l6.9-68.5 6 .5-9.8 68.8c-.3.7-.8 1.1-1.3 1"/><use xlink:href="#C"/><use xlink:href="#D"/><path d="M190.3 290l-12.2-60.1c-1.6-8.1 5.2-15.6 13.9-15.4l23.5.5c8.1.2 15.1 5.6 17.4 13.4l17.8 61.5h-60.4z"/><path d="M187.4,301H278c2.5,0,4.5-2,4.5-4.5v-2c0-2.5-2-4.5-4.5-4.5h-95.1v6.5C182.9,298.9,184.9,301,187.4,301"/><path d="M231.6 301h55.6a4.48 4.48 0 0 0 4.5-4.5v-2a4.48 4.48 0 0 0-4.5-4.5h-55.6a4.48 4.48 0 0 0-4.5 4.5v2c0 2.4 2.1 4.5 4.5 4.5"/></g><g class="o"><path d="M272 369.1c-1.9-1.1-.8-9.6-.8-9.6s8.6-6.9 9.8-1.6 8.2 7.7 12.2 8.3c2.8.4 3.6 2 3.9 2.9H272z"/></g><g class="l"><path d="M202.8 268.9c-.2 3.2.8 6.4 2.7 9 1.3 1.8 2.6 3.4 3.1 3.6 2.5.7-.8-5.5 4.9-4.4 5.3 1.1 12.4 2.1 21.1 2.1h19.3c.6 0-.5-7.6-1.3-21.4-.3-4.7-.5-10.6-.7-18.1-.2-6.7-.3-14.8-.3-24.3 0-11.4-17.7-23.7-18.1-23.7h0c0 1.6-2.6 4.7-6.6 4.9-4.7.3-10.6-2.1-10.6-4.8 0 0-14.6 13.7-17.6 28.4-1.5 7.2 6.4 8.7 4.1 48.7"/><path d="M233.5 191.8s16.5-.1 20.4 5.4c4 5.6 12.7 35.5 8.1 45.4-4.5 9.9-13-4.1-17.7-10.2s-10.8-40.6-10.8-40.6"/><path d="M203.3 227.3c5 6 11.5 10.9 18.6 12h0c.1-.1 2.2-3.3 1.8-8-.2-2.2-.9-4.7-2.6-7.3-.5-.8-1-1.8-1.4-2.8-3.9-10-3.3-29.2-3.3-29.2s-16.6 1.7-21.8 9.1c-3.2 4.5.9 16.7 8.7 26.2"/></g><g class="o"><path d="M263.4 369.1s-.5-4.2-1.8-6.7c-1.2-2.5-9.1-.9-9.1-.9s-1.6 1.4-1.9 7.7l12.8-.1z"/></g><g class="p"><path d="M233.7 189.2v1.7s.5 5.3-6.1 6.1-11.4-1-11.2-5.1c.6-3.2 1.1-6.4 1.2-9.1 0-1-.1-2-.2-3.2l12.7-.3 3.7.6-.1 9.3z"/></g><path d="M233.7 180v9.2a11.11 11.11 0 0 1-4.6 1c-5.8 0-9.6-4.3-11.6-7.4 0-1-.1-2-.2-3.2l12.7-.3 3.7.7z" fill="#e3915a"/><g class="p"><path d="M216.3 177.6c1.5 7.9 11.7 7.7 16.1 7.2 1.2-.1 2-.3 2-.3 1.4-.4 2.2-2.6 2.5-5.5.7-5.7-.2-14.1-1.2-16.3-1.5-3.2-4.2-6.7-14.5-4.2-10.1 2.6-6.8 9-4.9 19.1"/></g><g class="t"><path d="M250.4 214s1.6 14.1 1.4 18.3c0 0 1.7-.1-1.4.8-5 1.5 0-19.1 0-19.1"/><path d="M214.2 240.4c2.7 10.8 31.8 16.4 38.4 17.5-.3-4.7-.5-10.6-.7-18.1l-37.7.6z"/></g><g class="p"><path d="M220.6 243.9c-.3 0-6.5-.9-7.6-1.5s-6.2-7.8-2.9-9.6 12.2 5.5 12.2 5.5l-1.7 5.6z"/></g><g class="l"><path d="M258.3 246s-23.9 1.3-40-2.1c0 0-.4-4.6 4.6-6.7 0 0 25-5.3 31-3.8 6.1 1.4 4.4 12.6 4.4 12.6"/></g><path d="M232.5 184.8c1.2-.1 2-.3 2-.3 1.4-.4 2.2-2.6 2.6-5.5-2.6.6-3.8 2.7-4.3 3.5-.3.5-.4 1.3-.3 2.3" fill="#e3915a"/><g class="p"><path d="M239.1 189.3s5.7-9.5 1.3-9.9c-4.5-.4-6.2 2.6-6.9 3.7-.6 1.1.2 6.1.2 6.1l5.4.1z"/></g><path d="M217.3 231c.2 1.2.5 2.3 1 3.3 1.4 3.1 3.6 5 3.6 5h0c14.9-6.7 17.9-29.8 18.4-42.5.2-5.1 0-8.5 0-8.5-6.7-2.2-8.6 1.6-8.6 1.6s-7.9 18.9-12 31.2c-1.6 4.7-2.6 8.5-2.4 9.9" fill="#f2f3f4"/><g class="t"><path d="M203.3 227.3c5 6 11.5 10.9 18.6 12h0c14.9-6.7 17.9-29.8 18.4-42.5 0 0-7 25.5-16.6 34.5-1.7 1.6-3.5 2.7-5.4 3 0 0-12.1-3.4-14.6-6.6-.2-.3-.3-.4-.4-.4"/></g><g class="q"><path d="M101.9 217.4s-7.8-9.1-.5-15c0 0 5.4-3.3 9.8-3 0 0-6.2 10.4-4.2 11.4s6.1-12.1 6.1-12.1 12.2-1.2 16.2.7c0 0-10.5 8.6-8.3 9.1s13.5-7.9 13.5-7.9 11.4 1.9 10.8 8.9c-.6 6.9-4.5 9.1-6.3 8.9-1.7-.2-11.8-4-12-2.6s5.8 6 10.1 6.2c0 0-8 8.8-13.4 6.3-5.3-2.6-5.8-6.6-9.1-8.1s-6.2-1.5-4.8 0 7.4 3.1 9.3 6.4c1.9 3.4 3.6 5.6-1.9 4.8s-14.5-4.9-14.9-9.5l-.4-4.5z"/></g><g class="r"><path d="M139.6 209.8s-30.9-1.2-37.7 7.6c0 0-1.5 4.5-6.2 8.6l-.7 2s5.4-5.6 7.3-6c0 0-3-10.9 37.3-12.2"/><path d="M95.8 226.1s-6.6 4.9-7.1 13.7l1.2.1s2.1-9.1 5.9-12.6c3.8-3.6 0-1.2 0-1.2"/><path d="M74.5 205.9s12.5-7 6.7-16.5c0 0-4.7-5.8-9.6-7.3 0 0 2.7 14.1 0 14.5-2.7.3-1.8-16-1.8-16s-13.1-6.3-18.3-5.8c0 0 8.1 13.8 5.5 13.5-2.8-.3-11.9-14.3-11.9-14.3s-13.5-2.5-15.6 5.5c-2.2 8 1.3 12 3.3 12.5s14.8.3 14.5 2-9 4.3-13.8 2.8c0 0 5.3 13.1 12.3 12.5 7-.7 9.1-5 13.5-5.3 4.3-.3 7.5.8 5.3 2s-9.5.4-13 3.3c-3.5 3-6.3 4.8.2 6.1s18.1.5 20.5-4.5l2.2-5z"/></g><g class="q"><path d="M35.6 182s34.9 11.3 38.9 23.9c0 0-.2 5.7 3.3 12.1v2.5s-3.7-8.5-5.7-9.6c.1 0 7.9-11-36.5-28.9"/></g><g class="r"><path d="M77.8 218s5.4 8.2 2.3 18.1l-1.4-.4s1.3-11-1.5-16.5c-2.7-5.4.6-1.2.6-1.2"/><path d="M94.3 196.3s-16.4-9.2-8.8-21.7c0 0 6.1-7.7 12.7-9.6 0 0-3.5 18.6 0 19.1 3.5.4 2.4-21 2.4-21s17.3-8.3 24.1-7.7c0 0-10.7 18.2-7.2 17.8s15.6-18.8 15.6-18.8 17.8-3.3 20.6 7.2-1.8 15.8-4.4 16.4c-2.6.7-19.5.4-19.1 2.6s11.8 5.7 18.2 3.7c0 0-7 17.3-16.2 16.4s-12.1-6.6-17.8-7-9.9 1.1-7 2.6c2.8 1.5 12.5.5 17.1 4.4s8.3 6.3-.2 8.1-23.9.7-27-5.9l-3-6.6z"/></g><g class="q"><path d="M145.6 164.7s-46 14.9-51.3 31.6c0 0 .2 7.5-4.4 16v3.3s4.8-11.2 7.5-12.7c0 0-10.3-14.5 48.2-38.2"/><path d="M90 212.3s-7.1 10.8-3.1 23.9l1.8-.5s-1.8-14.5 1.9-21.7c3.8-7.3-.6-1.7-.6-1.7"/><path d="M93.8 264.6c17.8 0 32.2-14.4 32.2-32.2H61.6c0 17.8 14.4 32.2 32.2 32.2"/><path d="M126.4,266.3H61.1v-1.4c0-1.4,1.2-2.6,2.6-2.6h60.1c1.4,0,2.6,1.2,2.6,2.6V266.3z"/></g><path d="M60.5 232.4h66.2v1H60.5z" fill="#a3c0e5"/><g class="u"><path d="M143.9 268.2v2.6c0 .9-.3 1.7-.7 1.7H48.5c-.4 0-.7-.7-.7-1.7v-2.6c0-.9.3-1.7.7-1.7h94.7c.4.1.7.8.7 1.7"/></g><path d="M143.9 268.2v2.6c0 .9-.3 1.7-.6 1.7H68.1c-.3 0-.6-.7-.6-1.7v-2.6c0-.9.3-1.7.6-1.7h75.2c.3.1.6.8.6 1.7" fill="#bcd4ef"/><g class="r"><path d="M52.7 272.5h67.2v98H52.7z"/></g><path d="M71.5 272.5h67.2v98H71.5z" fill="#e0eaf7"/><g class="k"><path d="M135.1 365.1h-60v-89.8h60v89.8zm-59.3-.7h58.7v-88.5H75.8v88.5z"/><path d="M75.4 305h59.4v.6H75.4z"/><path d="M75.4 335.3h59.4v.6H75.4z"/><path d="M111.2 281.1h-11c-.5 0-1-.4-1-1a.94.94 0 0 1 1-1h11c.5 0 1 .4 1 1s-.5 1-1 1"/><use xlink:href="#E"/><path d="M111.2 341.6h-11c-.5 0-1-.4-1-1 0-.5.4-1 1-1h11c.5 0 1 .4 1 1a1.08 1.08 0 0 1-1 1"/></g><path d="M279.2 108.3h-8c-8.6 0-15.7-7-15.7-15.7v-6.8c0-8.6 7-15.7 15.7-15.7h8c8.6 0 15.7 7 15.7 15.7v6.8c0 8.7-7.1 15.7-15.7 15.7" fill="#c3d7ef"/><path d="M278.9 106.7h-7.3a14.3 14.3 0 0 1-14.3-14.3v-6.2a14.3 14.3 0 0 1 14.3-14.3h7.3a14.3 14.3 0 0 1 14.3 14.3v6.2c0 7.8-6.5 14.3-14.3 14.3" fill="#e9f1fa"/><g class="k"><path d="M274.4 75.3c0-.4.4-.8.8-.8s.8.4.8.8-.4.8-.8.8-.8-.3-.8-.8"/><path d="M281 76.5c.2-.4.7-.5 1.1-.3s.5.7.3 1.1-.7.5-1.1.3-.5-.7-.3-1.1"/><path d="M286.6 81c.4-.2.9-.1 1.1.2.2.4.1.9-.2 1.1-.4.2-.9.1-1.1-.2-.3-.4-.2-.9.2-1.1"/><path d="M289.4 87.9c.4 0 .8.4.8.8s-.4.8-.8.8-.8-.4-.8-.8c0-.5.3-.8.8-.8"/><use xlink:href="#F"/><path d="M282.9 101c.3.3.3.8 0 1.2-.3.3-.8.3-1.2 0-.3-.3-.3-.8 0-1.2.3-.3.8-.3 1.2 0"/><path d="M274.4 103.7c0-.4.4-.8.8-.8s.8.4.8.8-.4.8-.8.8-.8-.4-.8-.8"/><path d="M269.4 76.5c-.2-.4-.7-.5-1.1-.3s-.5.7-.3 1.1.7.5 1.1.3.6-.7.3-1.1"/><path d="M263.8 81c-.4-.2-.9-.1-1.1.2-.2.4-.1.9.2 1.1.4.2.9.1 1.1-.2s.2-.9-.2-1.1"/><path d="M261 87.9c-.5 0-.8.4-.8.8s.4.8.8.8.8-.4.8-.8c0-.5-.3-.8-.8-.8"/><use xlink:href="#G"/><path d="M267.6 101c-.3.3-.3.8 0 1.2.3.3.8.3 1.2 0 .3-.3.3-.8 0-1.2-.4-.3-.9-.3-1.2 0"/><path d="M275 88.7c0-.4.4-.8.8-.8.5 0 .8.4.8.8s-.4.8-.8.8-.8-.4-.8-.8"/><path d="M275.7 78.5h.2v10.2h-.2z"/><path d="M280.948 84.177l.433.55-5.424 4.265-.433-.55z"/></g><g class="o"><path d="M282.2 251.9h-36.3c0-1.6 1.3-2.9 2.9-2.9h33.4v2.9z"/><path d="M282.1 212.4h56l-13.4 39.5h-56.4z"/></g><g class="s"><path d="M339 212.4l-13.5 39.5h-56.4l13.8-39.5z"/><path d="M216.1 259.8H457c1.5 0 2.8-1.2 2.8-2.8v-1.2c0-1.5-1.2-2.8-2.8-2.8H216.1c-1.5 0-2.8 1.2-2.8 2.8v1.2c0 1.6 1.3 2.8 2.8 2.8"/><path d="M462.2 370.7h0c1-.1 1.7-1 1.6-1.9l-16.6-112.3-6.1.2 19.5 113c.1.6.8 1.1 1.6 1"/></g><path d="M629 371.7H39c-.4 0-.8-.4-.8-.8v-.4c0-.4.4-.8.8-.8h590c.4 0 .8.4.8.8v.4c0 .4-.3.8-.8.8" fill="#2e3652"/><path d="M629 372.7H39a1.79 1.79 0 0 1-1.8-1.8v-.4a1.79 1.79 0 0 1 1.8-1.8h590a1.79 1.79 0 0 1 1.8 1.8v.4a1.79 1.79 0 0 1-1.8 1.8z" fill="#2e3652"/><g class="p"><path d="M412.8 220.9s-3.5-2.5-6.9-3l-5-1c-3.2-1.1-9.5-6.8-9-7.5 1.5-2.1 8.9 2.4 10.2 1.9s-2.5-3.2-1.2-4.1c.7-.5 2.3 2 3.6 2.2 1.8.3 3.1 2.8 3.7 3 1 .3 5.6 3.6 5.6 3.6l-1 4.9z"/></g><path d="M484.1 196.7c-2.4-6.2-10-8.3-15.3-4.2-2.8 2.2-6.3 5.3-10.5 9.8-15.5 16.5-18.7 16.4-21.6 16.1s-27.6-5.6-27.6-5.6-1.3.9-2 2.4c-1 2-.5 3.4-.5 3.4-1-.6 8.7 6.1 13.6 8.7 6.4 3.5 16 6.8 19.8 8.1 1.1.4 2.3.3 3.3-.1 5.7-2 24.8-9.5 40.3-22.4 4.2-3.4 2.7-10.5.5-16.2" fill="#1b2e4c"/><g class="o"><path d="M395.4 370.7h32.9c1.6-1.9 1-9.1.8-11.4 0-.5-.1-.7-.1-.7s-11.2-9-12.8-2.1c0 .2-.1.4-.2.6-1.9 6.4-10.7 9.4-15.7 10.2-3.2.5-4.4 2.2-4.9 3.4"/><path d="M485.3 263.6c-1.2 0-56.4 10.4-65.6 21.7-4.6 5.6-5.2 70.9-5.2 70.9s5.6 7 17.8 2.9c0 0 8.9-44.6 8.3-58.2-.2-3.7 37.7-.5 44.7-2.3 6.9-1.8 23.9-16.9 20.2-24.2-3.8-7.4-20.2-10.8-20.2-10.8"/></g><g class="p"><path d="M420 247.7s-11.1.2-13.8 1.3c-2.6 1.1-8 3.7-6.5 4.1 1.4.4 8.3-.2 9.7.1 1.5.2 3.3-.1 4.2-.1h5.1l1.3-5.4z"/></g><g class="o"><path d="M479.8 189.2s-8.5 2.6-16.8 25.6c-8.4 23-11.5 24.2-14.6 25.2-3 .9-29.7 6.2-29.7 6.2v6.8h41.1s15.4-14.7 20-24.5 0-39.3 0-39.3"/></g><path d="M380.9 370.7h32.9c1.6-1.9 1-9.1.8-11.4 0-.5-.1-.7-.1-.7s-11.2-9-12.8-2.1c0 .2-.1.4-.2.6-1.9 6.4-10.7 9.4-15.7 10.2-3.2.5-4.5 2.2-4.9 3.4" fill="#1b3051"/><path d="M469 263.6c-1.2 0-56.4 10.4-65.6 21.7-4.6 5.6-5.2 70.9-5.2 70.9s5.6 7 17.8 2.9c0 0 8.9-44.6 8.3-58.2-.2-3.7 37.7-.5 44.7-2.3 6.9-1.8 23.9-16.9 20.2-24.2-3.7-7.4-20.2-10.8-20.2-10.8" fill="#2c488c"/><g class="p"><path d="M472.5 196.5c4-.3 8.1-1.4 11.7-2.6 4.5-1.5 8.1-3.6 5.8-7.7-2.2-3.8-5.6-12.3-5.4-19.3l-8.4 6.7-5.7 4.6s0 2.7.6 7.4c.1.9.2 1.8.4 2.8.1.8-.2 1.6-.9 2l-.1.1c-2.8 1.9-1.3 6.3 2 6"/></g><path d="M470.6 177.2s-.3 1 .2 4.6c5.1-.8 9.8-4.9 9.8-4.9-2.6-.7-3.5-3.5-5.4-3.2l-4.6 3.5z" fill="#ee985e"/><g class="p"><path d="M465.9 178s19.5 3.2 21.3-8.9c1.8-12.2 5.6-20-6.8-22.5-12.4-2.6-15.5 1.7-17.1 5.6s-2.5 24.7 2.6 25.8"/></g><path d="M460.4 146.8c-.8 2.9 1.4 6.5 5.2 7.7 5.6 1.7 4.4 8.6 6.9 8.5s3.5-3.9 5.8-.9c1.9 2.6-1.6 5.7-1.4 7.2.4 2.5 4.3 7.5 7.8 7.3 3.5-.3 10-16.8 8.7-21.9s-6.5-10.5-11.5-11.3c-4.9-.7-11.8 1.4-13.4 1.4-1.6-.1-7.6.4-8.1 2" fill="#2c488c"/><g class="o"><path d="M505.7 206.1c-2.8-11.3-10.6-23.3-15.9-23.2-9 0-21.9 2.4-27.1 15.2-3.8 9.5-9 63.9-3.2 67.8 13.2 8.9 43.9 26.9 49.3 8.5 5.1-16.8 1.8-48.6-3.1-68.3"/></g><g class="l"><path d="M490.8 183l-2-4.6s-18.2 1.5-21.3 11.8c0 .1 14.1-7 23.3-7.2"/></g><g class="n"><path d="M534.9 370.2h.1c1 0 1.8-.9 1.7-1.8l-6.9-68.5-6 .5 9.8 68.8c.3.7.8 1.1 1.3 1"/><path d="M499.7 370.2h.1c1 0 1.8-.9 1.7-1.8l-6.9-68.5-6 .5 9.8 68.8c.2.7.7 1.1 1.3 1"/></g><path d="M433.4 370.2h-.1c-1 0-1.8-.9-1.7-1.8l6.9-68.5 6 .5-9.8 68.8c-.2.7-.7 1.1-1.3 1" fill="#78a1d5"/><g class="n"><path d="M533 290.3l6.5-57.2c.9-8.2-1.9-16.3-13.8-16.9l-20.9-1.3c-12.4-.5-18 9.8-19.6 17.7l-12.4 62.8 60.2-5.1z"/></g><path d="M528.4 301h-90.6a4.48 4.48 0 0 1-4.5-4.5v-2a4.48 4.48 0 0 1 4.5-4.5h95.1v6.5a4.55 4.55 0 0 1-4.5 4.5" fill="#78a1d5"/><g class="n"><path d="M528.4 301h-51.1a4.48 4.48 0 0 1-4.5-4.5v-2a4.48 4.48 0 0 1 4.5-4.5h55.6v6.5a4.55 4.55 0 0 1-4.5 4.5"/></g><g class="u"><path d="M148.6 126.9c1.9-.2 3.3-1.9 3.1-3.9-.2-1.9-1.9-3.3-3.9-3.1-1.9.2-3.3 1.9-3.1 3.9.2 1.9 1.9 3.3 3.9 3.1"/></g><g class="q"><path d="M210.1 125.7l-1.3-12.6c-.3-2.6-2.6-4.5-5.2-4.2l-12.6 1.3c-2.6.3-4.5 2.6-4.2 5.2l1.3 12.6c.3 2.6 2.6 4.5 5.2 4.2l12.6-1.3c2.6-.3 4.5-2.6 4.2-5.2"/></g><path d="M218 130l-1-9.4c-.2-2.3-2.3-3.9-4.5-3.7l-9.4 1c-2.3.2-3.9 2.3-3.7 4.5l1 9.4c.2 2.3 2.3 3.9 4.5 3.7l9.4-1c2.3-.2 3.9-2.2 3.7-4.5" fill="#ebf1fa"/><g class="l"><path d="M204.5 136h0c-2.4 0-4.3-1.8-4.6-4.1l-1-9.4c-.1-1.2.2-2.4 1-3.4s1.9-1.6 3.1-1.7l9.4-1c2.6-.3 4.8 1.6 5.1 4.1l1 9.4c.1 1.2-.2 2.4-1 3.4s-1.9 1.6-3.1 1.7l-9.4 1h-.5zm8.4-18.6h-.4l-9.4 1c-1 .1-1.8.6-2.4 1.3-.6.8-.9 1.7-.8 2.7l1 9.4c.2 1.8 1.7 3.2 3.6 3.2h.4l9.4-1c1-.1 1.8-.6 2.4-1.3.6-.8.9-1.7.8-2.7l-1-9.4c-.2-1.8-1.7-3.2-3.6-3.2z"/></g><path d="M212.8 78.4c2.3-.2 4-2.3 3.7-4.6-.2-2.3-2.3-4-4.6-3.7-2.3.2-4 2.3-3.7 4.6.2 2.3 2.3 4 4.6 3.7" fill="#183660"/><path d="M550.3 354.9c.9 2.2 3.3 3.3 5.5 2.4s3.3-3.3 2.4-5.5-3.3-3.3-5.5-2.4-3.3 3.3-2.4 5.5" fill="#183660"/><g class="q"><path d="M20.8 357.8l5.9-2.3c2.1-.8 3.2-3.2 2.4-5.3l-2.3-5.9c-.8-2.1-3.2-3.2-5.3-2.4l-5.9 2.3c-2.1.8-3.2 3.2-2.4 5.3l2.3 5.9c.8 2.2 3.2 3.3 5.3 2.4"/></g><g class="s"><path d="M253.4 335.9l14.6-79.2-6-.2-11.8 79.4z"/></g><g class="l"><path d="M247.1 260.8s32.6 11.1 37.2 28.3-1.6 65.8-1.6 65.8-6.5-5.7-7.6-9.9c0 0-14.2-32-8.4-39.2 3.6-4.4-52.7-15.3-59.5-25.9-6.9-10.7-2-19.7-2-19.7l41.9.6z"/><path d="M232.4 167.1c.8.2 1.7.3 2.5.4l5.1.8-.1-4.1c.1-.5.1-1.1 0-1.6-.6-3.9-4.7-6.6-8.2-8.4-4.3-2.1-14.6-2.3-18.1.9-1.9 1.8-3.2 4-4.2 6.4-1.7 4.1-2.2 8.5-1.8 12.9.8 8.5-1.5 15.7-10.3 24.4 2.8-2 8.1-1.1 10.7 1.2s8.8 15.2 10.2 18.4c-1.3-13.8-4-39.2 4.3-49.2.6-.7 1.2-1.3 2-1.8 2.3-1.5 5.1-.8 7.9-.3z"/></g></g><defs><path id="K" d="M213.6 154.9c-1.9 1.8-3.2 4-4.2 6.4-1.7 4.1-2.2 8.5-1.8 12.9.8 8.5-1.5 15.7-10.3 24.4 2.8-2 8.1-1.1 10.7 1.2s8.8 15.2 10.2 18.4c-1.3-13.8-4-39.2 4.3-49.2.6-.7 1.2-1.3 2-1.8 2.5-1.3 5.2-.6 8-.1h0c.8.2 1.7.3 2.5.4l5.1.8-.1-4.1c.1-.5.1-1.1 0-1.6-.6-3.9-4.7-6.6-8.2-8.4-2-1-5.3-1.6-8.7-1.6-3.9-.1-7.7.6-9.5 2.3"/></defs><clipPath id="L"><use xlink:href="#K"/></clipPath><g class="h i"><use xlink:href="#H"/></g><g class="h i"><path d="M256.14 152.287l-2.093.164-.164-2.093 2.093-.164z"/></g><g class="h i"><use xlink:href="#I"/></g><g class="h i"><path d="M251.9 152.55l-2.093.164-.164-2.093 2.093-.164z"/></g><g class="h i"><path d="M258.338 154.152l-2.093.164-.164-2.093 2.093-.164z"/></g><g class="h i"><path d="M256.398 156.455l-2.093.164-.164-2.093 2.093-.164z"/></g><g class="h i"><path d="M254.184 154.5l-2.093.166-.166-2.093 2.093-.166z"/></g><g class="h i"><path d="M252.255 156.8l-2.093.164-.164-2.093 2.093-.164z"/></g><g class="h i"><path d="M249.682 150.59l-2.093.164-.164-2.093 2.093-.164z"/></g><g class="h i"><path d="M247.74 152.89l-2.093.164-.164-2.093 2.093-.164z"/></g><g class="h i"><path d="M245.53 150.936l-2.093.166-.166-2.093 2.093-.166z"/></g><g class="h i"><path d="M243.58 153.14l-2.093.166-.166-2.093 2.093-.166z"/></g><g class="h i"><path d="M250.038 154.75l-2.093.164-.164-2.093 2.093-.164z"/></g><g class="h i"><path d="M248.1 157.052l-2.093.164-.164-2.093 2.093-.164z"/></g><g class="h i"><path d="M245.785 155.105l-2.093.166-.166-2.093 2.093-.166z"/></g><g class="h i"><path d="M243.945 157.4l-2.093.166-.166-2.093 2.093-.166z"/></g><g class="h i"><path d="M258.826 158.376l-2.093.164-.164-2.093 2.093-.164z"/></g><g class="h i"><path d="M256.878 160.58l-2.093.164-.164-2.093 2.093-.164z"/></g><g class="h i"><path d="M254.665 158.624l-2.093.166-.166-2.093 2.093-.166z"/></g><g class="h i"><path d="M252.736 160.935l-2.093.164-.164-2.093 2.093-.164z"/></g><g class="h i"><path d="M259.084 162.544l-2.093.164-.164-2.093 2.093-.164z"/></g><g class="h i"><path d="M257.223 164.732l-2.093.166-.166-2.093 2.093-.166z"/></g><g class="h i"><path d="M254.94 162.9l-2.093.164-.164-2.093 2.093-.164z"/></g><g class="h i"><path d="M252.992 165.102l-2.093.164-.164-2.093 2.093-.164z"/></g><g class="h i"><path d="M250.427 158.98l-2.093.164-.164-2.093 2.093-.164z"/></g><g class="h i"><path d="M248.48 161.184l-2.093.164-.164-2.093 2.093-.164z"/></g><g class="h i"><path d="M246.266 159.23l-2.093.166-.166-2.093 2.093-.166z"/></g><g class="h i"><path d="M244.326 161.53l-2.093.166-.166-2.093 2.093-.166z"/></g><g class="h i"><path d="M250.784 163.14l-2.093.164-.164-2.093 2.093-.164z"/></g><g class="h i"><path d="M248.836 165.344l-2.093.164-.164-2.093 2.093-.164z"/></g><g class="h i"><path d="M246.63 163.49l-2.093.166-.166-2.093 2.093-.166z"/></g><g class="h i"><path d="M244.693 165.7l-2.093.164-.164-2.093 2.093-.164z"/></g><g class="h i"><path d="M241.294 151.254l-2.093.164-.164-2.093 2.093-.164z"/></g><g class="h i"><path d="M239.453 153.55l-2.093.164-.164-2.093 2.093-.164z"/></g><g class="h i"><path d="M237.14 151.602l-2.093.166-.166-2.093 2.093-.166z"/></g><g class="h i"><path d="M235.21 153.912l-2.093.164-.164-2.093 2.093-.164z"/></g><g class="h i"><path d="M241.65 155.415l-2.093.164-.164-2.093 2.093-.164z"/></g><g class="h i"><path d="M239.7 157.7l-2.093.166-.166-2.093 2.093-.166z"/></g><g class="h i"><path d="M237.507 155.77l-2.093.164-.164-2.093 2.093-.164z"/></g><g class="h i"><path d="M235.568 158.072l-2.093.164-.164-2.093 2.093-.164z"/></g><g class="h i"><path d="M232.995 151.85l-2.093.164-.164-2.093 2.093-.164z"/></g><g class="h i"><path d="M231.054 154.154l-2.093.164-.164-2.093 2.093-.164z"/></g><g class="h i"><path d="M228.842 152.2l-2.093.166-.166-2.093 2.093-.166z"/></g><g class="h i"><path d="M226.9 154.5l-2.093.166-.166-2.093 2.093-.166z"/></g><g class="h i"><path d="M233.352 156.01l-2.093.164-.164-2.093 2.093-.164z"/></g><g class="h i"><path d="M231.41 158.314l-2.093.164-.164-2.093 2.093-.164z"/></g><g class="h i"><path d="M229.098 156.367l-2.093.166-.166-2.093 2.093-.166z"/></g><g class="h i"><path d="M227.268 158.67l-2.093.164-.164-2.093 2.093-.164z"/></g><g class="h i"><path d="M242.14 159.638l-2.093.164-.164-2.093 2.093-.164z"/></g><g class="h i"><path d="M240.18 161.834l-2.093.166-.166-2.093 2.093-.166z"/></g><g class="h i"><path d="M237.896 160.002l-2.093.164-.164-2.093 2.093-.164z"/></g><g class="h i"><path d="M236.048 162.196l-2.093.164-.164-2.093 2.093-.164z"/></g><g class="h i"><path d="M242.396 163.807l-2.093.164-.164-2.093 2.093-.164z"/></g><g class="h i"><path d="M240.546 166.094l-2.093.166-.166-2.093 2.093-.166z"/></g><g class="h i"><path d="M238.253 164.162l-2.093.164-.164-2.093 2.093-.164z"/></g><g class="h i"><path d="M236.304 166.364l-2.093.164-.164-2.093 2.093-.164z"/></g><g class="h i"><path d="M233.74 160.243l-2.093.164-.164-2.093 2.093-.164z"/></g><g class="h i"><path d="M231.792 162.446l-2.093.164-.164-2.093 2.093-.164z"/></g><g class="h i"><path d="M229.586 160.59l-2.093.166-.166-2.093 2.093-.166z"/></g><g class="h i"><path d="M227.65 162.802l-2.093.164-.164-2.093 2.093-.164z"/></g><g class="h i"><path d="M234.096 164.404l-2.093.164-.164-2.093 2.093-.164z"/></g><g class="h i"><path d="M232.147 166.7l-2.093.166-.166-2.093 2.093-.166z"/></g><g class="h i"><path d="M229.943 164.75l-2.093.166-.166-2.093 2.093-.166z"/></g><g class="h i"><path d="M228.006 166.962l-2.093.164-.164-2.093 2.093-.164z"/></g><g class="h i"><path d="M259.535 166.636l-2.093.166-.166-2.093 2.093-.166z"/></g><g class="h i"><path d="M257.607 168.947l-2.093.164-.164-2.093 2.093-.164z"/></g><g class="h i"><path d="M255.304 167.006l-2.093.164-.164-2.093 2.093-.164z"/></g><g class="h i"><path d="M253.464 169.3l-2.093.164-.164-2.093 2.093-.164z"/></g><g class="h i"><path d="M259.812 170.912l-2.093.164-.164-2.093 2.093-.164z"/></g><g class="h i"><path d="M257.964 173.106l-2.093.164-.164-2.093 2.093-.164z"/></g><g class="h i"><path d="M255.66 171.167l-2.093.164-.164-2.093 2.093-.164z"/></g><g class="h i"><path d="M253.72 173.47l-2.093.164-.164-2.093 2.093-.164z"/></g><g class="h i"><path d="M251.137 167.24l-2.093.166-.166-2.093 2.093-.166z"/></g><g class="h i"><path d="M249.197 169.544l-2.093.166-.166-2.093 2.093-.166z"/></g><g class="h i"><path d="M247.004 167.603l-2.093.164-.164-2.093 2.093-.164z"/></g><g class="h i"><path d="M245.065 169.906l-2.093.164-.164-2.093 2.093-.164z"/></g><g class="h i"><path d="M251.5 171.5l-2.093.166-.166-2.093 2.093-.166z"/></g><g class="h i"><path d="M249.565 173.713l-2.093.164-.164-2.093 2.093-.164z"/></g><g class="h i"><path d="M247.36 171.764l-2.093.164-.164-2.093 2.093-.164z"/></g><g class="h i"><path d="M245.42 174.066l-2.093.164-.164-2.093 2.093-.164z"/></g><g class="h i"><path d="M260.292 175.037l-2.093.164-.164-2.093 2.093-.164z"/></g><g class="h i"><path d="M258.344 177.24l-2.093.164-.164-2.093 2.093-.164z"/></g><g class="h i"><path d="M256.15 175.4l-2.093.164-.164-2.093 2.093-.164z"/></g><g class="h i"><path d="M254.2 177.594l-2.093.164-.164-2.093 2.093-.164z"/></g><g class="h i"><path d="M260.65 179.197l-2.093.164-.164-2.093 2.093-.164z"/></g><g class="h i"><path d="M258.708 181.5l-2.093.164-.164-2.093 2.093-.164z"/></g><g class="h i"><path d="M256.407 179.56l-2.093.164-.164-2.093 2.093-.164z"/></g><g class="h i"><path d="M254.557 181.754l-2.093.164-.164-2.093 2.093-.164z"/></g><g class="h i"><path d="M251.882 175.633l-2.093.166-.166-2.093 2.093-.166z"/></g><g class="h i"><path d="M250.045 177.837l-2.093.164-.164-2.093 2.093-.164z"/></g><g class="h i"><path d="M247.75 175.995l-2.093.164-.164-2.093 2.093-.164z"/></g><g class="h i"><path d="M245.802 178.198l-2.093.164-.164-2.093 2.093-.164z"/></g><g class="h i"><path d="M252.25 179.802l-2.093.164-.164-2.093 2.093-.164z"/></g><g class="h i"><path d="M250.3 182.103l-2.093.164-.164-2.093 2.093-.164z"/></g><g class="h i"><path d="M248.107 180.156l-2.093.164-.164-2.093 2.093-.164z"/></g><g class="h i"><path d="M246.158 182.36l-2.093.164-.164-2.093 2.093-.164z"/></g><g class="h i"><path d="M242.858 167.998l-2.093.166-.166-2.093 2.093-.166z"/></g><g class="h i"><path d="M240.92 170.2l-2.093.164-.164-2.093 2.093-.164z"/></g><g class="h i"><path d="M238.616 168.27l-2.093.164-.164-2.093 2.093-.164z"/></g><g class="h i"><path d="M236.776 170.564l-2.093.164-.164-2.093 2.093-.164z"/></g><g class="h i"><path d="M243.124 172.175l-2.093.164-.164-2.093 2.093-.164z"/></g><g class="h i"><path d="M241.276 174.37l-2.093.164-.164-2.093 2.093-.164z"/></g><g class="h i"><path d="M238.973 172.43l-2.093.164-.164-2.093 2.093-.164z"/></g><g class="h i"><path d="M237.034 174.732l-2.093.164-.164-2.093 2.093-.164z"/></g><g class="h i"><path d="M234.458 168.603l-2.093.166-.166-2.093 2.093-.166z"/></g><g class="h i"><path d="M232.52 170.814l-2.093.164-.164-2.093 2.093-.164z"/></g><g class="h i"><path d="M230.318 168.865l-2.093.164-.164-2.093 2.093-.164z"/></g><g class="h i"><path d="M228.377 171.168l-2.093.164-.164-2.093 2.093-.164z"/></g><g class="h i"><path d="M234.814 172.763l-2.093.166-.166-2.093 2.093-.166z"/></g><g class="h i"><path d="M232.877 174.975l-2.093.164-.164-2.093 2.093-.164z"/></g><g class="h i"><path d="M230.674 173.026l-2.093.164-.164-2.093 2.093-.164z"/></g><g class="h i"><path d="M228.734 175.33l-2.093.164-.164-2.093 2.093-.164z"/></g><g class="h i"><path d="M243.604 176.3l-2.093.164-.164-2.093 2.093-.164z"/></g><g class="h i"><path d="M241.665 178.6l-2.093.164-.164-2.093 2.093-.164z"/></g><g class="h i"><path d="M239.462 176.653l-2.093.164-.164-2.093 2.093-.164z"/></g><g class="h i"><path d="M237.514 178.856l-2.093.164-.164-2.093 2.093-.164z"/></g><g class="h i"><path d="M243.96 180.458l-2.093.164-.164-2.093 2.093-.164z"/></g><g class="h i"><path d="M242.022 182.76l-2.093.164-.164-2.093 2.093-.164z"/></g><g class="h i"><path d="M239.72 180.82l-2.093.164-.164-2.093 2.093-.164z"/></g><g class="h i"><path d="M237.86 183.008l-2.093.166-.166-2.093 2.093-.166z"/></g><g class="h i"><path d="M235.195 176.895l-2.093.166-.166-2.093 2.093-.166z"/></g><g class="h i"><path d="M233.365 179.2l-2.093.164-.164-2.093 2.093-.164z"/></g><g class="h i"><path d="M231.062 177.258l-2.093.164-.164-2.093 2.093-.164z"/></g><g class="h i"><path d="M229.115 179.46l-2.093.164-.164-2.093 2.093-.164z"/></g><g class="h i"><path d="M235.562 181.064l-2.093.164-.164-2.093 2.093-.164z"/></g><g class="h i"><path d="M233.622 183.366l-2.093.164-.164-2.093 2.093-.164z"/></g><g class="h i"><path d="M231.42 181.418l-2.093.164-.164-2.093 2.093-.164z"/></g><g class="h i"><path d="M229.472 183.62l-2.093.164-.164-2.093 2.093-.164z"/></g><g class="h i"><path d="M224.706 152.607l-2.093.164-.164-2.093 2.093-.164z"/></g><g class="h i"><path d="M222.848 154.795l-2.093.166-.166-2.093 2.093-.166z"/></g><g class="h i"><path d="M220.555 152.863l-2.093.164-.164-2.093 2.093-.164z"/></g><g class="h i"><path d="M218.614 155.164l-2.093.164-.164-2.093 2.093-.164z"/></g><g class="h i"><path d="M225.052 156.76l-2.093.166-.166-2.093 2.093-.166z"/></g><g class="h i"><path d="M223.105 158.963l-2.093.166-.166-2.093 2.093-.166z"/></g><g class="h i"><path d="M220.91 157.022l-2.093.164-.164-2.093 2.093-.164z"/></g><g class="h i"><path d="M218.97 159.325l-2.093.164-.164-2.093 2.093-.164z"/></g><g class="h i"><path d="M216.406 153.204l-2.093.164-.164-2.093 2.093-.164z"/></g><g class="h i"><path d="M214.45 155.4l-2.093.166-.166-2.093 2.093-.166z"/></g><g class="h i"><path d="M212.247 153.452l-2.093.166-.166-2.093 2.093-.166z"/></g><g class="h i"><path d="M210.315 155.762l-2.093.164-.164-2.093 2.093-.164z"/></g><g class="h i"><path d="M216.764 157.365l-2.093.164-.164-2.093 2.093-.164z"/></g><g class="h i"><path d="M214.806 159.56l-2.093.166-.166-2.093 2.093-.166z"/></g><g class="h i"><path d="M212.512 157.628l-2.093.164-.164-2.093 2.093-.164z"/></g><g class="h i"><path d="M210.672 159.922l-2.093.164-.164-2.093 2.093-.164z"/></g><g class="h i"><path d="M225.533 160.884l-2.093.166-.166-2.093 2.093-.166z"/></g><g class="h i"><path d="M223.593 163.187l-2.093.166-.166-2.093 2.093-.166z"/></g><g class="h i"><path d="M221.3 161.254l-2.093.164-.164-2.093 2.093-.164z"/></g><g class="h i"><path d="M219.452 163.45l-2.093.164-.164-2.093 2.093-.164z"/></g><g class="h i"><path d="M225.8 165.052l-2.093.166-.166-2.093 2.093-.166z"/></g><g class="h i"><path d="M223.96 167.355l-2.093.164-.164-2.093 2.093-.164z"/></g><g class="h i"><path d="M221.657 165.414l-2.093.164-.164-2.093 2.093-.164z"/></g><g class="h i"><path d="M219.71 167.617l-2.093.164-.164-2.093 2.093-.164z"/></g><g class="h i"><path d="M217.143 161.497l-2.093.164-.164-2.093 2.093-.164z"/></g><g class="h i"><path d="M215.194 163.792l-2.093.166-.166-2.093 2.093-.166z"/></g><g class="h i"><path d="M213 161.852l-2.093.164-.164-2.093 2.093-.164z"/></g><g class="h i"><path d="M211.052 164.054l-2.093.164-.164-2.093 2.093-.164z"/></g><g class="h i"><path d="M217.49 165.65l-2.093.166-.166-2.093 2.093-.166z"/></g><g class="h i"><path d="M215.55 167.952l-2.093.166-.166-2.093 2.093-.166z"/></g><g class="h i"><path d="M213.357 166.01l-2.093.164-.164-2.093 2.093-.164z"/></g><g class="h i"><path d="M211.4 168.214l-2.093.164-.164-2.093 2.093-.164z"/></g><g class="h i"><path d="M208 153.862l-2.093.166-.166-2.093 2.093-.166z"/></g><g class="h i"><path d="M206.162 156.057l-2.093.166-.166-2.093 2.093-.166z"/></g><g class="h i"><path d="M203.868 154.124l-2.093.164-.164-2.093 2.093-.164z"/></g><g class="h i"><path d="M201.927 156.427l-2.093.164-.164-2.093 2.093-.164z"/></g><g class="h i"><path d="M208.367 158.022l-2.093.166-.166-2.093 2.093-.166z"/></g><g class="h i"><path d="M206.418 160.225l-2.093.166-.166-2.093 2.093-.166z"/></g><g class="h i"><path d="M204.23 158.384l-2.093.164-.164-2.093 2.093-.164z"/></g><g class="h i"><path d="M202.284 160.587l-2.093.164-.164-2.093 2.093-.164z"/></g><g class="h i"><path d="M199.72 154.467l-2.093.164-.164-2.093 2.093-.164z"/></g><g class="h i"><path d="M197.763 156.662l-2.093.166-.166-2.093 2.093-.166z"/></g><g class="h i"><path d="M195.568 154.722l-2.093.164-.164-2.093 2.093-.164z"/></g><g class="h i"><path d="M193.628 157.024l-2.093.164-.164-2.093 2.093-.164z"/></g><g class="h i"><path d="M200.067 158.62l-2.093.166-.166-2.093 2.093-.166z"/></g><g class="h i"><path d="M198.12 160.822l-2.093.166-.166-2.093 2.093-.166z"/></g><g class="h i"><path d="M195.833 158.99l-2.093.164-.164-2.093 2.093-.164z"/></g><g class="h i"><path d="M193.885 161.192l-2.093.164-.164-2.093 2.093-.164z"/></g><g class="h i"><path d="M208.846 162.146l-2.093.166-.166-2.093 2.093-.166z"/></g><g class="h i"><path d="M206.906 164.45l-2.093.166-.166-2.093 2.093-.166z"/></g><g class="h i"><path d="M204.612 162.516l-2.093.164-.164-2.093 2.093-.164z"/></g><g class="h i"><path d="M202.764 164.71l-2.093.164-.164-2.093 2.093-.164z"/></g><g class="h i"><path d="M209.103 166.314l-2.093.166-.166-2.093 2.093-.166z"/></g><g class="h i"><path d="M207.272 168.618l-2.093.164-.164-2.093 2.093-.164z"/></g><g class="h i"><path d="M204.97 166.677l-2.093.164-.164-2.093 2.093-.164z"/></g><g class="h i"><path d="M203.03 168.98l-2.093.164-.164-2.093 2.093-.164z"/></g><g class="h i"><path d="M200.447 162.75l-2.093.166-.166-2.093 2.093-.166z"/></g><g class="h i"><path d="M198.507 165.054l-2.093.166-.166-2.093 2.093-.166z"/></g><g class="h i"><path d="M196.313 163.114l-2.093.164-.164-2.093 2.093-.164z"/></g><g class="h i"><path d="M194.365 165.316l-2.093.164-.164-2.093 2.093-.164z"/></g><g class="h i"><path d="M200.804 166.912l-2.093.166-.166-2.093 2.093-.166z"/></g><g class="h i"><path d="M198.864 169.214l-2.093.166-.166-2.093 2.093-.166z"/></g><g class="h i"><path d="M196.67 167.274l-2.093.164-.164-2.093 2.093-.164z"/></g><g class="h i"><path d="M194.73 169.576l-2.093.164-.164-2.093 2.093-.164z"/></g><g class="h i"><path d="M226.272 169.258l-2.093.164-.164-2.093 2.093-.164z"/></g><g class="h i"><path d="M224.323 171.462l-2.093.164-.164-2.093 2.093-.164z"/></g><g class="h i"><path d="M222.02 169.522l-2.093.164-.164-2.093 2.093-.164z"/></g><g class="h i"><path d="M220.07 171.816l-2.093.166-.166-2.093 2.093-.166z"/></g><g class="h i"><path d="M226.528 173.427l-2.093.164-.164-2.093 2.093-.164z"/></g><g class="h i"><path d="M224.58 175.63l-2.093.164-.164-2.093 2.093-.164z"/></g><g class="h i"><path d="M222.385 173.782l-2.093.164-.164-2.093 2.093-.164z"/></g><g class="h i"><path d="M220.428 175.977l-2.093.166-.166-2.093 2.093-.166z"/></g><g class="h i"><path d="M217.872 169.864l-2.093.164-.164-2.093 2.093-.164z"/></g><g class="h i"><path d="M215.924 172.066l-2.093.164-.164-2.093 2.093-.164z"/></g><g class="h i"><path d="M213.722 170.12l-2.093.164-.164-2.093 2.093-.164z"/></g><g class="h i"><path d="M211.78 172.422l-2.093.164-.164-2.093 2.093-.164z"/></g><g class="h i"><path d="M218.23 174.024l-2.093.164-.164-2.093 2.093-.164z"/></g><g class="h i"><path d="M216.28 176.227l-2.093.164-.164-2.093 2.093-.164z"/></g><g class="h i"><path d="M213.986 174.387l-2.093.164-.164-2.093 2.093-.164z"/></g><g class="h i"><path d="M212.138 176.582l-2.093.164-.164-2.093 2.093-.164z"/></g><g class="h i"><path d="M227.008 177.55l-2.093.164-.164-2.093 2.093-.164z"/></g><g class="h i"><path d="M225.068 179.854l-2.093.164-.164-2.093 2.093-.164z"/></g><g class="h i"><path d="M222.865 177.906l-2.093.164-.164-2.093 2.093-.164z"/></g><g class="h i"><path d="M220.916 180.2l-2.093.166-.166-2.093 2.093-.166z"/></g><g class="h i"><path d="M227.365 181.712l-2.093.164-.164-2.093 2.093-.164z"/></g><g class="h i"><path d="M225.426 184.015l-2.093.164-.164-2.093 2.093-.164z"/></g><g class="h i"><path d="M223.113 182.066l-2.093.166-.166-2.093 2.093-.166z"/></g><g class="h i"><path d="M221.172 184.37l-2.093.166-.166-2.093 2.093-.166z"/></g><g class="h i"><path d="M218.61 178.156l-2.093.164-.164-2.093 2.093-.164z"/></g><g class="h i"><path d="M216.77 180.45l-2.093.164-.164-2.093 2.093-.164z"/></g><g class="h i"><path d="M214.466 178.51l-2.093.164-.164-2.093 2.093-.164z"/></g><g class="h i"><path d="M212.526 180.814l-2.093.164-.164-2.093 2.093-.164z"/></g><g class="h i"><path d="M218.966 182.316l-2.093.164-.164-2.093 2.093-.164z"/></g><g class="h i"><path d="M217.026 184.62l-2.093.164-.164-2.093 2.093-.164z"/></g><g class="h i"><path d="M214.823 182.672l-2.093.164-.164-2.093 2.093-.164z"/></g><g class="h i"><path d="M212.874 184.965l-2.093.166-.166-2.093 2.093-.166z"/></g><g class="h i"><path d="M209.484 170.53l-2.093.164-.164-2.093 2.093-.164z"/></g><g class="h i"><path d="M207.635 172.724l-2.093.164-.164-2.093 2.093-.164z"/></g><g class="h i"><path d="M205.34 170.884l-2.093.164-.164-2.093 2.093-.164z"/></g><g class="h i"><path d="M203.384 173.08l-2.093.166-.166-2.093 2.093-.166z"/></g><g class="h i"><path d="M209.84 174.69l-2.093.164-.164-2.093 2.093-.164z"/></g><g class="h i"><path d="M207.9 176.992l-2.093.164-.164-2.093 2.093-.164z"/></g><g class="h i"><path d="M205.69 175.036l-2.093.166-.166-2.093 2.093-.166z"/></g><g class="h i"><path d="M203.74 177.24l-2.093.166-.166-2.093 2.093-.166z"/></g><g class="h i"><path d="M201.185 171.127l-2.093.164-.164-2.093 2.093-.164z"/></g><g class="h i"><path d="M199.237 173.33l-2.093.164-.164-2.093 2.093-.164z"/></g><g class="h i"><path d="M197.042 171.48l-2.093.164-.164-2.093 2.093-.164z"/></g><g class="h i"><path d="M195.093 173.684l-2.093.164-.164-2.093 2.093-.164z"/></g><g class="h i"><path d="M201.542 175.286l-2.093.164-.164-2.093 2.093-.164z"/></g><g class="h i"><path d="M199.6 177.59l-2.093.164-.164-2.093 2.093-.164z"/></g><g class="h i"><path d="M197.298 175.65l-2.093.164-.164-2.093 2.093-.164z"/></g><g class="h i"><path d="M195.442 177.836l-2.093.166-.166-2.093 2.093-.166z"/></g><g class="h i"><path d="M210.32 178.814l-2.093.164-.164-2.093 2.093-.164z"/></g><g class="h i"><path d="M208.38 181.116l-2.093.164-.164-2.093 2.093-.164z"/></g><g class="h i"><path d="M206.07 179.168l-2.093.166-.166-2.093 2.093-.166z"/></g><g class="h i"><path d="M204.23 181.463l-2.093.166-.166-2.093 2.093-.166z"/></g><g class="h i"><path d="M210.586 183.082l-2.093.164-.164-2.093 2.093-.164z"/></g><g class="h i"><path d="M208.738 185.277l-2.093.164-.164-2.093 2.093-.164z"/></g><g class="h i"><path d="M206.427 183.328l-2.093.166-.166-2.093 2.093-.166z"/></g><g class="h i"><path d="M204.487 185.63l-2.093.166-.166-2.093 2.093-.166z"/></g><g class="h i"><path d="M201.92 179.418l-2.093.164-.164-2.093 2.093-.164z"/></g><g class="h i"><path d="M199.982 181.72l-2.093.164-.164-2.093 2.093-.164z"/></g><g class="h i"><path d="M197.778 179.774l-2.093.164-.164-2.093 2.093-.164z"/></g><g class="h i"><path d="M195.83 182.067l-2.093.166-.166-2.093 2.093-.166z"/></g><g class="h i"><path d="M202.286 183.678l-2.093.164-.164-2.093 2.093-.164z"/></g><g class="h i"><path d="M200.34 185.882l-2.093.164-.164-2.093 2.093-.164z"/></g><g class="h i"><path d="M198.135 183.934l-2.093.164-.164-2.093 2.093-.164z"/></g><g class="h i"><path d="M196.187 186.228l-2.093.166-.166-2.093 2.093-.166z"/></g><g class="h i"><path d="M260.828 183.268l-2.093.164-.164-2.093 2.093-.164z"/></g><g class="h i"><path d="M258.88 185.47l-2.093.164-.164-2.093 2.093-.164z"/></g><g class="h i"><path d="M256.578 183.53l-2.093.164-.164-2.093 2.093-.164z"/></g><g class="h i"><path d="M254.738 185.825l-2.093.164-.164-2.093 2.093-.164z"/></g><g class="h i"><path d="M261.086 187.435l-2.093.164-.164-2.093 2.093-.164z"/></g><g class="h i"><path d="M259.238 189.63l-2.093.164-.164-2.093 2.093-.164z"/></g><g class="h i"><path d="M256.943 187.8l-2.093.164-.164-2.093 2.093-.164z"/></g><g class="h i"><path d="M254.984 189.984l-2.093.166-.166-2.093 2.093-.166z"/></g><g class="h i"><path d="M252.42 183.863l-2.093.166-.166-2.093 2.093-.166z"/></g><g class="h i"><path d="M250.48 186.076l-2.093.164-.164-2.093 2.093-.164z"/></g><g class="h i"><path d="M248.278 184.127l-2.093.164-.164-2.093 2.093-.164z"/></g><g class="h i"><path d="M246.338 186.43l-2.093.164-.164-2.093 2.093-.164z"/></g><g class="h i"><path d="M252.786 188.033l-2.093.164-.164-2.093 2.093-.164z"/></g><g class="h i"><path d="M250.838 190.235l-2.093.164-.164-2.093 2.093-.164z"/></g><g class="h i"><path d="M248.643 188.387l-2.093.164-.164-2.093 2.093-.164z"/></g><g class="h i"><path d="M246.695 190.6l-2.093.164-.164-2.093 2.093-.164z"/></g><g class="h i"><path d="M261.566 191.56l-2.093.164-.164-2.093 2.093-.164z"/></g><g class="h i"><path d="M259.626 193.862l-2.093.164-.164-2.093 2.093-.164z"/></g><g class="h i"><path d="M257.423 191.914l-2.093.164-.164-2.093 2.093-.164z"/></g><g class="h i"><path d="M255.464 194.108l-2.093.166-.166-2.093 2.093-.166z"/></g><g class="h i"><path d="M261.923 195.72l-2.093.164-.164-2.093 2.093-.164z"/></g><g class="h i"><path d="M259.982 198.022l-2.093.164-.164-2.093 2.093-.164z"/></g><g class="h i"><path d="M257.68 196.082l-2.093.164-.164-2.093 2.093-.164z"/></g><g class="h i"><path d="M255.828 198.368l-2.093.166-.166-2.093 2.093-.166z"/></g><g class="h i"><path d="M253.266 192.157l-2.093.164-.164-2.093 2.093-.164z"/></g><g class="h i"><path d="M251.327 194.46l-2.093.164-.164-2.093 2.093-.164z"/></g><g class="h i"><path d="M249.024 192.52l-2.093.164-.164-2.093 2.093-.164z"/></g><g class="h i"><path d="M247.076 194.722l-2.093.164-.164-2.093 2.093-.164z"/></g><g class="h i"><path d="M253.524 196.324l-2.093.164-.164-2.093 2.093-.164z"/></g><g class="h i"><path d="M251.584 198.627l-2.093.164-.164-2.093 2.093-.164z"/></g><g class="h i"><path d="M249.38 196.68l-2.093.164-.164-2.093 2.093-.164z"/></g><g class="h i"><path d="M247.44 198.982l-2.093.164-.164-2.093 2.093-.164z"/></g><g class="h i"><path d="M244.142 184.53l-2.093.164-.164-2.093 2.093-.164z"/></g><g class="h i"><path d="M242.193 186.732l-2.093.164-.164-2.093 2.093-.164z"/></g><g class="h i"><path d="M239.898 184.892l-2.093.164-.164-2.093 2.093-.164z"/></g><g class="h i"><path d="M238.05 187.087l-2.093.164-.164-2.093 2.093-.164z"/></g><g class="h i"><path d="M244.398 188.697l-2.093.164-.164-2.093 2.093-.164z"/></g><g class="h i"><path d="M242.558 190.992l-2.093.164-.164-2.093 2.093-.164z"/></g><g class="h i"><path d="M240.255 189.052l-2.093.164-.164-2.093 2.093-.164z"/></g><g class="h i"><path d="M238.297 191.246l-2.093.166-.166-2.093 2.093-.166z"/></g><g class="h i"><path d="M235.743 185.135l-2.093.164-.164-2.093 2.093-.164z"/></g><g class="h i"><path d="M233.794 187.337l-2.093.164-.164-2.093 2.093-.164z"/></g><g class="h i"><path d="M231.6 185.49l-2.093.164-.164-2.093 2.093-.164z"/></g><g class="h i"><path d="M229.65 187.692l-2.093.164-.164-2.093 2.093-.164z"/></g><g class="h i"><path d="M236.098 189.295l-2.093.164-.164-2.093 2.093-.164z"/></g><g class="h i"><path d="M234.16 191.597l-2.093.164-.164-2.093 2.093-.164z"/></g><g class="h i"><path d="M231.956 189.65l-2.093.164-.164-2.093 2.093-.164z"/></g><g class="h i"><path d="M230.008 191.853l-2.093.164-.164-2.093 2.093-.164z"/></g><g class="h i"><path d="M244.878 192.822l-2.093.164-.164-2.093 2.093-.164z"/></g><g class="h i"><path d="M242.94 195.124l-2.093.164-.164-2.093 2.093-.164z"/></g><g class="h i"><path d="M240.736 193.177l-2.093.164-.164-2.093 2.093-.164z"/></g><g class="h i"><path d="M238.786 195.47l-2.093.166-.166-2.093 2.093-.166z"/></g><g class="h i"><path d="M245.243 197.082l-2.093.164-.164-2.093 2.093-.164z"/></g><g class="h i"><path d="M243.296 199.285l-2.093.164-.164-2.093 2.093-.164z"/></g><g class="h i"><path d="M240.983 197.336l-2.093.166-.166-2.093 2.093-.166z"/></g><g class="h i"><path d="M239.14 199.63l-2.093.166-.166-2.093 2.093-.166z"/></g><g class="h i"><path d="M236.48 193.427l-2.093.164-.164-2.093 2.093-.164z"/></g><g class="h i"><path d="M234.64 195.72l-2.093.164-.164-2.093 2.093-.164z"/></g><g class="h i"><path d="M232.336 193.78l-2.093.164-.164-2.093 2.093-.164z"/></g><g class="h i"><path d="M230.396 196.084l-2.093.164-.164-2.093 2.093-.164z"/></g><g class="h i"><path d="M236.844 197.686l-2.093.164-.164-2.093 2.093-.164z"/></g><g class="h i"><path d="M234.897 199.89l-2.093.164-.164-2.093 2.093-.164z"/></g><g class="h i"><path d="M232.693 197.942l-2.093.164-.164-2.093 2.093-.164z"/></g><g class="h i"><path d="M230.744 200.235l-2.093.166-.166-2.093 2.093-.166z"/></g><g class="h i"><path d="M262.294 199.927l-2.093.164-.164-2.093 2.093-.164z"/></g><g class="h i"><path d="M260.347 202.13l-2.093.164-.164-2.093 2.093-.164z"/></g><g class="h i"><path d="M258.14 200.273l-2.093.166-.166-2.093 2.093-.166z"/></g><g class="h i"><path d="M256.204 202.485l-2.093.164-.164-2.093 2.093-.164z"/></g><g class="h i"><path d="M262.65 204.087l-2.093.164-.164-2.093 2.093-.164z"/></g><g class="h i"><path d="M260.7 206.38l-2.093.166-.166-2.093 2.093-.166z"/></g><g class="h i"><path d="M258.41 204.45l-2.093.164-.164-2.093 2.093-.164z"/></g><g class="h i"><path d="M256.56 206.645l-2.093.164-.164-2.093 2.093-.164z"/></g><g class="h i"><path d="M253.896 200.53l-2.093.164-.164-2.093 2.093-.164z"/></g><g class="h i"><path d="M252.047 202.727l-2.093.164-.164-2.093 2.093-.164z"/></g><g class="h i"><path d="M249.74 200.877l-2.093.166-.166-2.093 2.093-.166z"/></g><g class="h i"><path d="M247.794 203.08l-2.093.166-.166-2.093 2.093-.166z"/></g><g class="h i"><path d="M254.252 204.692l-2.093.164-.164-2.093 2.093-.164z"/></g><g class="h i"><path d="M252.312 206.995l-2.093.164-.164-2.093 2.093-.164z"/></g><g class="h i"><path d="M250.1 205.038l-2.093.166-.166-2.093 2.093-.166z"/></g><g class="h i"><path d="M248.162 207.25l-2.093.164-.164-2.093 2.093-.164z"/></g><g class="h i"><path d="M263.032 208.22l-2.093.164-.164-2.093 2.093-.164z"/></g><g class="h i"><path d="M261.08 210.512l-2.093.166-.166-2.093 2.093-.166z"/></g><g class="h i"><path d="M258.89 208.575l-2.093.164-.164-2.093 2.093-.164z"/></g><g class="h i"><path d="M256.948 210.876l-2.093.164-.164-2.093 2.093-.164z"/></g><g class="h i"><path d="M263.386 212.47l-2.093.166-.166-2.093 2.093-.166z"/></g><g class="h i"><path d="M261.437 214.673l-2.093.166-.166-2.093 2.093-.166z"/></g><g class="h i"><path d="M259.246 212.734l-2.093.164-.164-2.093 2.093-.164z"/></g><g class="h i"><path d="M257.305 215.037l-2.093.164-.164-2.093 2.093-.164z"/></g><g class="h i"><path d="M254.732 208.816l-2.093.164-.164-2.093 2.093-.164z"/></g><g class="h i"><path d="M252.792 211.12l-2.093.164-.164-2.093 2.093-.164z"/></g><g class="h i"><path d="M250.48 209.17l-2.093.166-.166-2.093 2.093-.166z"/></g><g class="h i"><path d="M248.65 211.475l-2.093.164-.164-2.093 2.093-.164z"/></g><g class="h i"><path d="M254.998 213.084l-2.093.164-.164-2.093 2.093-.164z"/></g><g class="h i"><path d="M253.14 215.27l-2.093.166-.166-2.093 2.093-.166z"/></g><g class="h i"><path d="M250.847 213.34l-2.093.164-.164-2.093 2.093-.164z"/></g><g class="h i"><path d="M248.906 215.64l-2.093.164-.164-2.093 2.093-.164z"/></g><g class="h i"><path d="M245.607 201.19l-2.093.164-.164-2.093 2.093-.164z"/></g><g class="h i"><path d="M243.656 203.482l-2.093.166-.166-2.093 2.093-.166z"/></g><g class="h i"><path d="M241.464 201.544l-2.093.164-.164-2.093 2.093-.164z"/></g><g class="h i"><path d="M239.516 203.746l-2.093.164-.164-2.093 2.093-.164z"/></g><g class="h i"><path d="M245.953 205.34l-2.093.166-.166-2.093 2.093-.166z"/></g><g class="h i"><path d="M244.014 207.642l-2.093.166-.166-2.093 2.093-.166z"/></g><g class="h i"><path d="M241.72 205.713l-2.093.164-.164-2.093 2.093-.164z"/></g><g class="h i"><path d="M239.88 208.007l-2.093.164-.164-2.093 2.093-.164z"/></g><g class="h i"><path d="M237.208 201.794l-2.093.164-.164-2.093 2.093-.164z"/></g><g class="h i"><path d="M235.367 204.09l-2.093.164-.164-2.093 2.093-.164z"/></g><g class="h i"><path d="M233.056 202.14l-2.093.166-.166-2.093 2.093-.166z"/></g><g class="h i"><path d="M231.117 204.352l-2.093.164-.164-2.093 2.093-.164z"/></g><g class="h i"><path d="M237.564 205.954l-2.093.164-.164-2.093 2.093-.164z"/></g><g class="h i"><path d="M235.614 208.247l-2.093.166-.166-2.093 2.093-.166z"/></g><g class="h i"><path d="M233.42 206.3l-2.093.164-.164-2.093 2.093-.164z"/></g><g class="h i"><path d="M231.482 208.61l-2.093.164-.164-2.093 2.093-.164z"/></g><g class="h i"><path d="M246.352 209.582l-2.093.164-.164-2.093 2.093-.164z"/></g><g class="h i"><path d="M244.394 211.774l-2.093.166-.166-2.093 2.093-.166z"/></g><g class="h i"><path d="M242.2 209.837l-2.093.164-.164-2.093 2.093-.164z"/></g><g class="h i"><path d="M240.262 212.14l-2.093.164-.164-2.093 2.093-.164z"/></g><g class="h i"><path d="M246.7 213.732l-2.093.166-.166-2.093 2.093-.166z"/></g><g class="h i"><path d="M244.75 215.935l-2.093.166-.166-2.093 2.093-.166z"/></g><g class="h i"><path d="M242.566 214.096l-2.093.164-.164-2.093 2.093-.164z"/></g><g class="h i"><path d="M240.618 216.3l-2.093.164-.164-2.093 2.093-.164z"/></g><g class="h i"><path d="M238.053 210.178l-2.093.164-.164-2.093 2.093-.164z"/></g><g class="h i"><path d="M236.095 212.37l-2.093.166-.166-2.093 2.093-.166z"/></g><g class="h i"><path d="M233.792 210.432l-2.093.166-.166-2.093 2.093-.166z"/></g><g class="h i"><path d="M231.962 212.737l-2.093.164-.164-2.093 2.093-.164z"/></g><g class="h i"><path d="M238.3 214.347l-2.093.164-.164-2.093 2.093-.164z"/></g><g class="h i"><path d="M236.452 216.532l-2.093.166-.166-2.093 2.093-.166z"/></g><g class="h i"><path d="M234.167 214.702l-2.093.164-.164-2.093 2.093-.164z"/></g><g class="h i"><path d="M232.22 216.904l-2.093.164-.164-2.093 2.093-.164z"/></g><g class="h i"><path d="M227.546 185.782l-2.093.164-.164-2.093 2.093-.164z"/></g><g class="h i"><path d="M225.605 188.085l-2.093.164-.164-2.093 2.093-.164z"/></g><g class="h i"><path d="M223.292 186.136l-2.093.166-.166-2.093 2.093-.166z"/></g><g class="h i"><path d="M221.445 188.33l-2.093.166-.166-2.093 2.093-.166z"/></g><g class="h i"><path d="M227.802 189.95l-2.093.164-.164-2.093 2.093-.164z"/></g><g class="h i"><path d="M225.962 192.245l-2.093.164-.164-2.093 2.093-.164z"/></g><g class="h i"><path d="M223.65 190.296l-2.093.166-.166-2.093 2.093-.166z"/></g><g class="h i"><path d="M221.7 192.6l-2.093.166-.166-2.093 2.093-.166z"/></g><g class="h i"><path d="M219.146 186.387l-2.093.164-.164-2.093 2.093-.164z"/></g><g class="h i"><path d="M217.206 188.7l-2.093.164-.164-2.093 2.093-.164z"/></g><g class="h i"><path d="M215.003 186.742l-2.093.164-.164-2.093 2.093-.164z"/></g><g class="h i"><path d="M213.046 188.936l-2.093.166-.166-2.093 2.093-.166z"/></g><g class="h i"><path d="M219.503 190.547l-2.093.164-.164-2.093 2.093-.164z"/></g><g class="h i"><path d="M217.562 192.85l-2.093.164-.164-2.093 2.093-.164z"/></g><g class="h i"><path d="M215.35 190.894l-2.093.166-.166-2.093 2.093-.166z"/></g><g class="h i"><path d="M213.41 193.196l-2.093.166-.166-2.093 2.093-.166z"/></g><g class="h i"><path d="M228.3 194.174l-2.093.164-.164-2.093 2.093-.164z"/></g><g class="h i"><path d="M226.343 196.378l-2.093.164-.164-2.093 2.093-.164z"/></g><g class="h i"><path d="M224.13 194.42l-2.093.166-.166-2.093 2.093-.166z"/></g><g class="h i"><path d="M222.2 196.723l-2.093.166-.166-2.093 2.093-.166z"/></g><g class="h i"><path d="M228.647 198.335l-2.093.164-.164-2.093 2.093-.164z"/></g><g class="h i"><path d="M226.7 200.538l-2.093.164-.164-2.093 2.093-.164z"/></g><g class="h i"><path d="M224.395 198.688l-2.093.166-.166-2.093 2.093-.166z"/></g><g class="h i"><path d="M222.556 200.893l-2.093.164-.164-2.093 2.093-.164z"/></g><g class="h i"><path d="M219.89 194.78l-2.093.164-.164-2.093 2.093-.164z"/></g><g class="h i"><path d="M218.043 196.975l-2.093.164-.164-2.093 2.093-.164z"/></g><g class="h i"><path d="M215.74 195.035l-2.093.164-.164-2.093 2.093-.164z"/></g><g class="h i"><path d="M213.79 197.328l-2.093.166-.166-2.093 2.093-.166z"/></g><g class="h i"><path d="M220.248 198.94l-2.093.164-.164-2.093 2.093-.164z"/></g><g class="h i"><path d="M218.3 201.143l-2.093.164-.164-2.093 2.093-.164z"/></g><g class="h i"><path d="M216.096 199.285l-2.093.166-.166-2.093 2.093-.166z"/></g><g class="h i"><path d="M214.148 201.488l-2.093.166-.166-2.093 2.093-.166z"/></g><g class="h i"><path d="M210.858 187.045l-2.093.164-.164-2.093 2.093-.164z"/></g><g class="h i"><path d="M208.917 189.347l-2.093.164-.164-2.093 2.093-.164z"/></g><g class="h i"><path d="M206.607 187.4l-2.093.166-.166-2.093 2.093-.166z"/></g><g class="h i"><path d="M204.766 189.694l-2.093.166-.166-2.093 2.093-.166z"/></g><g class="h i"><path d="M211.122 191.312l-2.093.164-.164-2.093 2.093-.164z"/></g><g class="h i"><path d="M209.274 193.508l-2.093.164-.164-2.093 2.093-.164z"/></g><g class="h i"><path d="M206.963 191.56l-2.093.166-.166-2.093 2.093-.166z"/></g><g class="h i"><path d="M205.032 193.87l-2.093.164-.164-2.093 2.093-.164z"/></g><g class="h i"><path d="M202.46 187.65l-2.093.164-.164-2.093 2.093-.164z"/></g><g class="h i"><path d="M200.52 189.952l-2.093.164-.164-2.093 2.093-.164z"/></g><g class="h i"><path d="M198.316 188.005l-2.093.164-.164-2.093 2.093-.164z"/></g><g class="h i"><path d="M196.368 190.298l-2.093.166-.166-2.093 2.093-.166z"/></g><g class="h i"><path d="M202.824 191.9l-2.093.164-.164-2.093 2.093-.164z"/></g><g class="h i"><path d="M200.875 194.113l-2.093.164-.164-2.093 2.093-.164z"/></g><g class="h i"><path d="M198.665 192.156l-2.093.166-.166-2.093 2.093-.166z"/></g><g class="h i"><path d="M196.724 194.46l-2.093.166-.166-2.093 2.093-.166z"/></g><g class="h i"><path d="M211.602 195.437l-2.093.164-.164-2.093 2.093-.164z"/></g><g class="h i"><path d="M209.655 197.64l-2.093.164-.164-2.093 2.093-.164z"/></g><g class="h i"><path d="M207.45 195.783l-2.093.166-.166-2.093 2.093-.166z"/></g><g class="h i"><path d="M205.503 197.986l-2.093.166-.166-2.093 2.093-.166z"/></g><g class="h i"><path d="M211.96 199.597l-2.093.164-.164-2.093 2.093-.164z"/></g><g class="h i"><path d="M210.02 201.9l-2.093.164-.164-2.093 2.093-.164z"/></g><g class="h i"><path d="M207.708 199.95l-2.093.166-.166-2.093 2.093-.166z"/></g><g class="h i"><path d="M205.87 202.156l-2.093.164-.164-2.093 2.093-.164z"/></g><g class="h i"><path d="M203.203 196.042l-2.093.164-.164-2.093 2.093-.164z"/></g><g class="h i"><path d="M201.355 198.237l-2.093.164-.164-2.093 2.093-.164z"/></g><g class="h i"><path d="M199.052 196.388l-2.093.166-.166-2.093 2.093-.166z"/></g><g class="h i"><path d="M197.104 198.6l-2.093.166-.166-2.093 2.093-.166z"/></g><g class="h i"><path d="M203.56 200.202l-2.093.164-.164-2.093 2.093-.164z"/></g><g class="h i"><path d="M201.62 202.505l-2.093.164-.164-2.093 2.093-.164z"/></g><g class="h i"><path d="M199.41 200.548l-2.093.166-.166-2.093 2.093-.166z"/></g><g class="h i"><path d="M197.462 202.75l-2.093.166-.166-2.093 2.093-.166z"/></g><g class="h i"><path d="M229.002 202.433l-2.093.166-.166-2.093 2.093-.166z"/></g><g class="h i"><path d="M227.06 204.736l-2.093.166-.166-2.093 2.093-.166z"/></g><g class="h i"><path d="M224.867 202.797l-2.093.164-.164-2.093 2.093-.164z"/></g><g class="h i"><path d="M222.928 205.1l-2.093.164-.164-2.093 2.093-.164z"/></g><g class="h i"><path d="M229.366 206.693l-2.093.166-.166-2.093 2.093-.166z"/></g><g class="h i"><path d="M227.428 208.906l-2.093.164-.164-2.093 2.093-.164z"/></g><g class="h i"><path d="M225.125 206.965l-2.093.164-.164-2.093 2.093-.164z"/></g><g class="h i"><path d="M223.185 209.268l-2.093.164-.164-2.093 2.093-.164z"/></g><g class="h i"><path d="M220.612 203.047l-2.093.164-.164-2.093 2.093-.164z"/></g><g class="h i"><path d="M218.762 205.332l-2.093.166-.166-2.093 2.093-.166z"/></g><g class="h i"><path d="M216.47 203.403l-2.093.164-.164-2.093 2.093-.164z"/></g><g class="h i"><path d="M214.528 205.704l-2.093.164-.164-2.093 2.093-.164z"/></g><g class="h i"><path d="M220.967 207.297l-2.093.166-.166-2.093 2.093-.166z"/></g><g class="h i"><path d="M219.02 209.5l-2.093.166-.166-2.093 2.093-.166z"/></g><g class="h i"><path d="M216.825 207.562l-2.093.164-.164-2.093 2.093-.164z"/></g><g class="h i"><path d="M214.885 209.865l-2.093.164-.164-2.093 2.093-.164z"/></g><g class="h i"><path d="M229.746 210.825l-2.093.166-.166-2.093 2.093-.166z"/></g><g class="h i"><path d="M227.808 213.038l-2.093.164-.164-2.093 2.093-.164z"/></g><g class="h i"><path d="M225.613 211.19l-2.093.164-.164-2.093 2.093-.164z"/></g><g class="h i"><path d="M223.665 213.392l-2.093.164-.164-2.093 2.093-.164z"/></g><g class="h i"><path d="M230.103 214.985l-2.093.166-.166-2.093 2.093-.166z"/></g><g class="h i"><path d="M228.173 217.298l-2.093.164-.164-2.093 2.093-.164z"/></g><g class="h i"><path d="M225.97 215.35l-2.093.164-.164-2.093 2.093-.164z"/></g><g class="h i"><path d="M224.02 217.552l-2.093.164-.164-2.093 2.093-.164z"/></g><g class="h i"><path d="M221.447 211.422l-2.093.166-.166-2.093 2.093-.166z"/></g><g class="h i"><path d="M219.5 213.625l-2.093.166-.166-2.093 2.093-.166z"/></g><g class="h i"><path d="M217.214 211.794l-2.093.164-.164-2.093 2.093-.164z"/></g><g class="h i"><path d="M215.366 213.99l-2.093.164-.164-2.093 2.093-.164z"/></g><g class="h i"><path d="M221.704 215.6l-2.093.166-.166-2.093 2.093-.166z"/></g><g class="h i"><path d="M219.864 217.885l-2.093.166-.166-2.093 2.093-.166z"/></g><g class="h i"><path d="M217.57 215.954l-2.093.164-.164-2.093 2.093-.164z"/></g><g class="h i"><path d="M215.623 218.157l-2.093.164-.164-2.093 2.093-.164z"/></g><g class="h i"><path d="M212.323 203.795l-2.093.166-.166-2.093 2.093-.166z"/></g><g class="h i"><path d="M210.374 205.998l-2.093.166-.166-2.093 2.093-.166z"/></g><g class="h i"><path d="M208.08 204.067l-2.093.164-.164-2.093 2.093-.164z"/></g><g class="h i"><path d="M206.24 206.362l-2.093.164-.164-2.093 2.093-.164z"/></g><g class="h i"><path d="M212.58 207.963l-2.093.166-.166-2.093 2.093-.166z"/></g><g class="h i"><path d="M210.74 210.168l-2.093.164-.164-2.093 2.093-.164z"/></g><g class="h i"><path d="M208.437 208.227l-2.093.164-.164-2.093 2.093-.164z"/></g><g class="h i"><path d="M206.498 210.53l-2.093.164-.164-2.093 2.093-.164z"/></g><g class="h i"><path d="M203.924 204.4l-2.093.166-.166-2.093 2.093-.166z"/></g><g class="h i"><path d="M201.976 206.603l-2.093.166-.166-2.093 2.093-.166z"/></g><g class="h i"><path d="M199.782 204.664l-2.093.164-.164-2.093 2.093-.164z"/></g><g class="h i"><path d="M197.84 206.967l-2.093.164-.164-2.093 2.093-.164z"/></g><g class="h i"><path d="M204.28 208.56l-2.093.166-.166-2.093 2.093-.166z"/></g><g class="h i"><path d="M202.332 210.763l-2.093.166-.166-2.093 2.093-.166z"/></g><g class="h i"><path d="M200.138 208.824l-2.093.164-.164-2.093 2.093-.164z"/></g><g class="h i"><path d="M198.198 211.127l-2.093.164-.164-2.093 2.093-.164z"/></g><g class="h i"><path d="M213.06 212.087l-2.093.166-.166-2.093 2.093-.166z"/></g><g class="h i"><path d="M211.13 214.4l-2.093.164-.164-2.093 2.093-.164z"/></g><g class="h i"><path d="M208.926 212.45l-2.093.164-.164-2.093 2.093-.164z"/></g><g class="h i"><path d="M206.978 214.654l-2.093.164-.164-2.093 2.093-.164z"/></g><g class="h i"><path d="M213.426 216.258l-2.093.164-.164-2.093 2.093-.164z"/></g><g class="h i"><path d="M211.486 218.56l-2.093.164-.164-2.093 2.093-.164z"/></g><g class="h i"><path d="M209.183 216.62l-2.093.164-.164-2.093 2.093-.164z"/></g><g class="h i"><path d="M207.335 218.815l-2.093.164-.164-2.093 2.093-.164z"/></g><g class="h i"><path d="M204.76 212.684l-2.093.166-.166-2.093 2.093-.166z"/></g><g class="h i"><path d="M202.82 214.987l-2.093.166-.166-2.093 2.093-.166z"/></g><g class="h i"><path d="M200.526 213.056l-2.093.164-.164-2.093 2.093-.164z"/></g><g class="h i"><path d="M198.58 215.26l-2.093.164-.164-2.093 2.093-.164z"/></g><g class="h i"><path d="M205.018 216.852l-2.093.166-.166-2.093 2.093-.166z"/></g><g class="h i"><path d="M203.086 219.165l-2.093.164-.164-2.093 2.093-.164z"/></g><g class="h i"><path d="M200.883 217.217l-2.093.164-.164-2.093 2.093-.164z"/></g><g class="h i"><path d="M198.936 219.42l-2.093.164-.164-2.093 2.093-.164z"/></g><defs><path id="M" d="M-44.5-43.3h737.1v518.5H-44.5z"/></defs><clipPath id="N"><use xlink:href="#M"/></clipPath><g class="m"><path d="M240.9 161.2l-30.5-2.5c-1.9-.2-1.9 2.8 0 3l30.5 2.5c1.9.2 1.9-2.8 0-3" fill="#102d4f"/><g class="l"><path d="M232.2 363.2s27.2-67.7-13.6-75.5l21.3-18 15.2 2.8 14.8 10.6 6.3 14.5 2.6 19 7-8.8 4.9 28.1c2.8 8.5 1.5 16.4-.5 24.3l-.6 2.3-57.4.7z"/></g><g class="s"><path d="M210.2 370.7h0c-1-.1-1.7-1-1.6-1.9l16.6-112.3 6.1.2-19.5 113c-.1.6-.8 1.1-1.6 1"/></g><g class="l"><path d="M284.2 289.1s12.1 41 10.3 73.2l-17.8.2 2.5-58.8 5-14.6z"/></g><g class="u"><path d="M529.9 248c2.3-.2 3.9-2.3 3.7-4.6s-2.3-3.9-4.6-3.7-3.9 2.3-3.7 4.6c.3 2.3 2.4 4 4.6 3.7"/></g><path d="M378.3 178s-19.8 14.3-28.3 14.7l28.3 37.1 25.2-15.3 1.4-1.5c-.1.1-25.8-30.1-26.6-35" fill="#fafbfb"/><path d="M378.2 230.1l-.1-.2-28.6-37.4h.5c8.3-.4 28-14.6 28.2-14.7l.3-.2.1.4c.8 4.8 26.2 34.6 26.5 34.9l.1.2-1.6 1.7-25.4 15.3zM350.4 193l27.9 36.5 24.9-15.1 1.2-1.3c-2.2-2.6-24.6-29-26.3-34.6-2.5 1.7-19.5 13.6-27.7 14.5z" fill="#e5e5e5"/><g class="o"><path d="M371.4 202.9c.7-.3.6-1.1-.2-2.3l1.7-.1c1.4 2 1.4 3.2 0 3.8-.8.4-1.8.3-3.1-.2-1.2-.5-2.5-1.5-3.8-2.8s-2.1-2.4-2.3-3.4.1-1.7 1-2.1c1.4-.6 3-.1 5 1.4l-.9.9c-.5-.4-.9-.6-1.4-.8-.5-.1-.9-.1-1.2 0-.5.2-.7.6-.5 1.2.1.6.7 1.3 1.6 2.2s1.7 1.5 2.4 1.9c.7.5 1.2.5 1.7.3"/><path d="M376.1 201.8c-.2-.2-.3-.4-.3-.6s0-.3.2-.4.4-.1.6 0c.3.1.5.3.7.5s.3.4.3.6 0 .3-.2.4-.4.1-.6 0c-.3-.2-.5-.3-.7-.5"/><path d="M381.4 200.4l-1.3.6-9.7-7.2 1.4-.6 7.1 5.3-3.9-6.7 1.4-.6z"/></g><g class="l"><path d="M318.9 236.5H302c-.7 0-2-.5-1.8-2v-.1l1.4-5.9h1.6l-1.3 5.8c0 .4.4.5.6.5h15c-.1-.5-.2-1-.6-1.4-.5-.6-1.2-.9-2-.9H312l3.4-4.4 1.2.9-1.4 1.9c1.2 0 2.4.5 3.1 1.4s1 2.1.9 3.3l-.3.9z"/><path d="M298.4 236.5h-5.8l.4-1.7h4.2l.3-1.2c0-.1 0-.3-.1-.4a1.75 1.75 0 0 0-1.4-.7h-1l.4-1.7h.9c1.1 0 2 .4 2.5 1.2a2.22 2.22 0 0 1 .3 1.6l-.7 2.9z"/><path d="M287.8 238.1h-.2l.5-1.7c.3 0 .7 0 1-.2s.4-.6.4-.6v-.1l1.4-4.9h1.6l-1.3 4.9c-.1.2-.3 1.1-1.1 1.8-.7.6-1.4.8-2.3.8"/></g></g></svg>