<?xml version="1.0" encoding="UTF-8"?><svg id="Layer_1" xmlns="http://www.w3.org/2000/svg" viewBox="0 0 612 430.53"><defs><style>.cls-1{fill:#fff;}.cls-2{fill:#1a1432;}.cls-3{fill:none;stroke:#fff;stroke-miterlimit:10;}.cls-4{fill:#e61a6c;}.cls-5{fill:#3384c2;}.cls-6{fill:#15110e;}.cls-7{fill:#f8c01a;}.cls-8{fill:#406dae;}.cls-9{fill:#0c0f10;}.cls-10{fill:#1d1d1b;}</style></defs><g><g><g><path class="cls-2" d="m331.21,186.43l5.5.11c.1,0,.19-.02.28-.07l21.07-12.16c1.29-.75,3.25-.83,4.37-.18l47.79,27.59s.06.03.1.04l15.86,5.33c.22.07.36.28.36.5v3.99c.13.56-.22,1.19-1.04,1.66l-26.33,15.2c-1.29.75-3.25.83-4.37.18l-63.39-36.6c-.51-.3-.75-.69-.74-1.11v-3.97c0-.3.24-.54.54-.53Z"/><path class="cls-2" d="m394.54,229.07l-63.39-36.6c-.65-.37-1-.92-1-1.54v-3.97c0-.28.11-.54.31-.74.2-.2.44-.33.75-.3l5.52.11,21.07-12.16c1.46-.84,3.59-.92,4.87-.18l47.79,27.59,15.86,5.33c.42.14.71.54.71.98v3.93c.15.79-.32,1.59-1.29,2.15l-26.33,15.2c-.79.46-1.77.69-2.72.69-.8,0-1.57-.17-2.15-.51Zm-36.23-54.32l-21.07,12.16c-.16.09-.32.17-.54.14l-5.5-.11v-.5s-.03,4.5-.03,4.5c0,.31.26.53.49.66l63.39,36.6c.96.56,2.73.47,3.86-.18l26.33-15.2c.58-.33.88-.76.8-1.11l-.03-4.13-15.87-5.33c-.06-.02-.13-.05-.19-.08l-47.79-27.59c-.43-.25-1.02-.37-1.64-.37-.77,0-1.6.19-2.22.55Z"/></g><g><path class="cls-1" d="m331.41,187.67l63.39,36.6c1.12.65,3.07.57,4.37-.18l26.33-15.2c1.29-.75,1.43-1.87.31-2.52l-63.39-36.6c-1.12-.65-3.07-.57-4.37.18l-26.33,15.2c-1.29.75-1.43,1.87-.31,2.52Z"/><path class="cls-2" d="m394.54,224.7l-63.39-36.6c-.65-.37-1.01-.92-1.01-1.53,0-.7.48-1.38,1.32-1.86l26.33-15.2c1.45-.84,3.59-.92,4.87-.18l63.39,36.6c.65.37,1.01.92,1.01,1.53,0,.7-.48,1.38-1.32,1.86l-26.33,15.2c-.79.45-1.77.69-2.72.69-.8,0-1.57-.17-2.15-.51Zm-36.23-54.32l-26.33,15.2c-.51.29-.82.66-.82.99,0,.3.27.53.5.66l63.39,36.6c.96.55,2.73.47,3.86-.18l26.33-15.2c.51-.3.82-.67.82-.99,0-.3-.27-.53-.5-.66l-63.39-36.6c-.43-.25-1.02-.37-1.64-.37-.77,0-1.6.19-2.22.55Z"/></g><rect class="cls-7" x="396.32" y="225" width=".78" height="3.76"/><rect class="cls-7" x="423.29" y="210.03" width=".78" height="3.76"/><rect class="cls-7" x="333.11" y="189" width=".78" height="3.76"/></g><path class="cls-2" d="m340.53,190.92l.58-1.05-4.81-2.68c-.19-.1-.21-.28-.21-.35,0-.07.02-.25.2-.36l6.69-3.92-.6-1.03-6.69,3.92c-.5.29-.8.82-.8,1.4,0,.58.31,1.1.83,1.39l4.81,2.68Z"/></g><rect class="cls-2" x="284.99" y="46.01" width="1.2" height="31.16"/><rect class="cls-2" x="284.99" y="33.23" width="1.2" height="10.9"/><rect class="cls-2" x="285.59" y="128.75" width="1.2" height="10.9"/><g><path class="cls-1" d="m291.07,12.97c-.06-.08-.03-.2.05-.24l5.58-3.1c.3-.23.71-.24,1.17.02l168.8,97.46c.91.53,1.65,1.94,1.65,3.15v129.17c0,.61-.18,1.05-.48,1.28l-5.89,3.26-5.86-7.06,2.31-1.01-160.53-92.68c-.91-.53-1.65-1.94-1.65-3.15V19.97l-5.16-7Z"/><path class="cls-2" d="m455.13,236.68l1.95-.85-159.5-92.09c-1.09-.63-1.95-2.24-1.95-3.67V20.17l-5.04-6.84c-.13-.18-.18-.4-.13-.62.05-.22.18-.4.38-.51l5.51-3.05c.51-.4,1.18-.41,1.84-.02l168.8,97.46c1.09.63,1.95,2.24,1.95,3.67v129.17c0,.78-.26,1.4-.79,1.8l-6.32,3.5-6.69-8.06ZM296.99,10.15l-5.15,2.86,4.99,6.76v120.29c0,1,.62,2.21,1.35,2.63l161.55,93.27-2.66,1.16,5.04,6.07,5.38-2.98c.12-.09.25-.35.25-.8V110.26c0-1.01-.62-2.21-1.35-2.63L297.58,10.17c-.09-.05-.21-.1-.33-.1-.08,0-.17.02-.26.09Z"/></g><g><g><path class="cls-2" d="m291.98,146.49l168.8,97.46c.91.53,1.65-.03,1.65-1.25V113.54c0-1.22-.74-2.63-1.65-3.15L291.98,12.92c-.91-.53-1.65.03-1.65,1.25v129.17c0,1.21.74,2.63,1.65,3.15Z"/><path class="cls-2" d="m460.48,244.47l-168.8-97.46c-1.09-.63-1.95-2.24-1.95-3.67V14.17c0-.86.32-1.53.87-1.85.49-.28,1.09-.25,1.68.09l168.8,97.46c1.09.63,1.95,2.24,1.95,3.67v129.17c0,.86-.32,1.53-.87,1.85-.22.13-.47.19-.72.19-.31,0-.63-.09-.96-.28ZM291.2,13.36c-.12.07-.27.33-.27.82v129.17c0,1,.62,2.21,1.35,2.63l168.8,97.46c.1.05.34.18.48.09.13-.07.27-.33.27-.82V113.54c0-1.01-.62-2.21-1.35-2.63L291.68,13.44c-.07-.04-.22-.12-.35-.12-.04,0-.09,0-.12.03Z"/></g><g><path class="cls-5" d="m292.22,144.08l168.31,97.18c.27.15.48,0,.48-.37v-127.98c0-.36-.22-.77-.48-.93L292.22,14.8c-.27-.15-.48,0-.48.37v127.98c0,.36.22.77.48.93Z"/><path class="cls-2" d="m460.24,241.77l-168.31-97.18h0c-.45-.26-.78-.87-.78-1.44V15.17c0-.41.17-.74.47-.91.28-.16.61-.15.92.03l168.31,97.17c.46.26.79.87.79,1.45v127.98c0,.41-.17.74-.47.91-.13.08-.28.11-.42.11-.16,0-.33-.05-.49-.14Zm-167.9-98.62c0,.17.12.37.18.41l167.9,96.94v-127.59c0-.17-.12-.37-.19-.41L292.34,15.56v127.59Z"/></g><g><path class="cls-2" d="m290.33,143.49v-7.39l172.1,99.36v7.39c0,1.13-.79,1.59-1.77,1.02l-168.56-97.32c-.98-.57-1.77-1.94-1.77-3.07Z"/><path class="cls-2" d="m460.36,244.4l-168.56-97.32c-1.16-.67-2.07-2.25-2.07-3.59v-8.43l173,99.88.3.17v7.73c0,.76-.3,1.37-.82,1.67-.23.13-.49.2-.76.2-.35,0-.73-.11-1.1-.32Zm-169.43-107.26v6.35c0,.92.67,2.09,1.47,2.55l168.56,97.32c.27.16.52.2.66.12.14-.08.22-.31.22-.63v-7.04l-170.91-98.67Z"/></g><rect class="cls-7" x="375.92" y="177.92" width=".92" height="25.17" transform="translate(23.13 421.09) rotate(-59.98)"/></g><rect class="cls-2" x="462.07" y="109.51" width="6.75" height="1.2" transform="translate(9.72 255.28) rotate(-30.98)"/><rect class="cls-2" x="301.05" y="16.12" width="6.74" height="1.2" transform="translate(34.82 159.08) rotate(-30.98)"/><rect class="cls-2" x="462.07" y="231.89" width="6.74" height="1.2" transform="translate(-53.28 272.71) rotate(-30.98)"/><polygon class="cls-7" points="421.98 222.73 422.44 221.93 418.79 219.81 418.33 220.6 421.98 222.73"/><rect class="cls-2" x="462.39" y="227.44" width="6.74" height="1.2" transform="translate(-50.94 272.28) rotate(-30.98)"/><rect class="cls-2" x="304.78" y="18.22" width="6.74" height="1.2" transform="translate(34.28 161.32) rotate(-30.98)"/><rect class="cls-2" x="462.37" y="115.65" width="6.74" height="1.2" transform="translate(6.6 256.31) rotate(-30.98)"/><path class="cls-2" d="m461.95,248.98l-.67-1.08,7.09-4.35c1.49-.92,2.42-2.57,2.42-4.32v-28.05h1.27v28.05c0,2.19-1.16,4.26-3.03,5.41l-7.09,4.35Z"/><g><polygon class="cls-4" points="370.86 176.96 344.81 161.91 344.81 151.42 370.86 166.46 370.86 176.96"/><path class="cls-2" d="m371.5,178.06l-27.33-15.78v-11.97l27.33,15.78v11.97Zm-26.05-16.51l24.78,14.31v-9.03l-24.78-14.31v9.03Z"/></g><g><polygon class="cls-7" points="329.17 71.96 312.11 62.11 312.11 57.85 329.17 67.7 329.17 71.96"/><path class="cls-2" d="m329.81,73.07l-18.33-10.59v-5.74l18.33,10.59v5.74Zm-17.06-11.32l15.79,9.11v-2.8l-15.79-9.11v2.8Z"/></g><g><polygon class="cls-1" points="359.43 89.43 333.22 74.3 333.22 70.04 359.43 85.16 359.43 89.43"/><path class="cls-2" d="m360.06,90.53l-27.48-15.86v-5.74l27.48,15.86v5.74Zm-26.2-16.6l24.93,14.39v-2.8l-24.93-14.39v2.8Z"/></g><g><polygon class="cls-7" points="359.43 80.54 312.11 53.22 312.11 42.73 359.43 70.04 359.43 80.54"/><path class="cls-2" d="m360.06,81.64l-48.59-28.05v-11.97l48.59,28.05v11.97Zm-47.31-28.79l46.04,26.58v-9.03l-46.04-26.58v9.03Z"/></g><g><polygon class="cls-7" points="359.28 65.18 312.11 37.95 312.11 33.37 359.28 60.61 359.28 65.18"/><path class="cls-2" d="m359.92,66.28l-48.44-27.97v-6.04l48.44,27.97v6.04Zm-47.17-28.7l45.89,26.5v-3.1l-45.89-26.5v3.1Z"/></g><g><g><polygon class="cls-1" points="371.53 162.63 319.31 132.21 319.31 124.63 371.53 155.05 371.53 162.63"/><path class="cls-2" d="m371.9,163.29l-53.5-31.16v-9.05l53.5,31.16v9.06Zm-52.22-31.89l50.95,29.68v-6.11l-50.95-29.67v6.11Z"/></g><g><polygon class="cls-1" points="307.65 103.26 383.48 146.78 383.48 136.06 307.65 92.53 307.65 103.26"/><path class="cls-2" d="m384.12,147.88l-77.11-44.25v-12.19l77.11,44.25v12.19Zm-75.83-44.99l74.56,42.79v-9.26l-74.56-42.79v9.26Z"/></g><g><polygon class="cls-7" points="307.26 111.83 383.09 155.35 383.09 151.49 307.26 107.96 307.26 111.83"/><path class="cls-2" d="m383.73,156.45l-77.11-44.25v-5.33l77.11,44.25v5.33Zm-75.83-44.99l74.56,42.79v-2.4l-74.56-42.79v2.4Z"/></g></g><g><g><path class="cls-7" d="m362.31,152.57l-23.28,13.42c-8.95,5.16-15.7,13.42-18.97,23.22l-8.36,25.05c-4.34,13.01-13.32,23.98-25.22,30.8l-18.9,10.8-36.61-21.53,19.25-11.15c11.64-6.75,20.46-17.48,24.83-30.22l8.83-25.72c3.3-9.6,9.94-17.7,18.71-22.8l22.48-13.08,37.25,21.21Z"/><path class="cls-2" d="m267.57,256.6l-37.87-22.27,20.19-11.7c11.51-6.68,20.23-17.29,24.55-29.87l8.83-25.72c3.34-9.74,10.09-17.96,18.99-23.14l22.8-13.26,38.53,21.94-24.24,13.98c-8.82,5.09-15.46,13.21-18.69,22.87l-8.36,25.05c-4.4,13.18-13.46,24.24-25.51,31.15l-19.22,10.98Zm-35.34-22.26l35.35,20.79,18.58-10.61c11.78-6.76,20.64-17.57,24.94-30.45l8.36-25.05c3.32-9.96,10.16-18.33,19.26-23.57l22.32-12.87-35.96-20.47-22.16,12.89c-8.64,5.03-15.19,13-18.43,22.46l-8.83,25.72c-4.42,12.88-13.34,23.73-25.12,30.56l-18.31,10.61Z"/></g><g><path class="cls-7" d="m258.58,232.51c2.92-1.44,7.49-1.15,10.2.66,2.71,1.81,2.54,4.44-.38,5.89-2.92,1.44-7.49,1.15-10.2-.66-2.71-1.81-2.54-4.44.38-5.89Z"/><g><polygon class="cls-1" points="341.45 160.04 312.34 143.23 315.65 141.32 344.77 158.13 341.45 160.04"/><path class="cls-2" d="m341.45,160.78l-.32-.18-30.07-17.36,4.59-2.65.32.18,30.07,17.36-4.59,2.65Zm-27.84-17.54l27.84,16.07,2.04-1.18-27.84-16.08-2.04,1.18Z"/></g><g><polygon class="cls-1" points="347.93 156.23 318.81 139.42 322.13 137.51 351.24 154.32 347.93 156.23"/><path class="cls-2" d="m347.93,156.97l-.32-.18-30.07-17.36,4.59-2.65.32.18,30.07,17.36-4.59,2.65Zm-27.84-17.54l27.84,16.07,2.04-1.18-27.84-16.08-2.04,1.18Z"/></g><g><polygon class="cls-1" points="334.96 163.94 305.84 147.13 309.16 145.21 338.28 162.02 334.96 163.94"/><path class="cls-2" d="m334.96,164.67l-.32-.18-30.07-17.36,4.59-2.65.32.18,30.07,17.36-4.59,2.65Zm-27.84-17.55l27.84,16.08,2.04-1.18-27.84-16.08-2.04,1.18Z"/></g><g><path class="cls-1" d="m296.48,153.44c-.78.81-1.54,1.65-2.25,2.53l29.28,16.74c.73-.87,1.49-1.7,2.29-2.51l-29.31-16.76Z"/><path class="cls-2" d="m323.65,173.52l-30.4-17.38.48-.58c.7-.85,1.47-1.71,2.29-2.57l.34-.36,30.47,17.42-.58.59c-.75.76-1.49,1.57-2.25,2.47l-.34.41Zm-28.45-17.73l28.17,16.1c.47-.55.93-1.06,1.4-1.55l-28.17-16.11c-.49.52-.95,1.04-1.4,1.55Z"/></g><g><path class="cls-1" d="m290.08,162.92l29.18,16.68c.54-.97,1.12-1.91,1.73-2.83l-29.21-16.7c-.6.93-1.17,1.88-1.69,2.85Z"/><path class="cls-2" d="m319.5,180.47l-30.27-17.31.3-.55c.53-.98,1.11-1.95,1.72-2.89l.33-.5,30.33,17.34-.38.57c-.6.9-1.18,1.84-1.71,2.79l-.31.56Zm-28.56-17.79l28.08,16.05c.34-.59.7-1.17,1.07-1.74l-28.1-16.07c-.36.58-.71,1.16-1.04,1.76Z"/></g><g><polygon class="cls-1" points="283.56 180.9 312.07 197.4 313.14 194.19 284.66 177.7 283.56 180.9"/><path class="cls-2" d="m312.42,198.34l-29.63-17.15,1.52-4.42,29.6,17.13-1.48,4.44Zm-28.09-17.73l27.38,15.85.66-1.98-27.36-15.84-.68,1.97Z"/></g><g><polygon class="cls-1" points="281.08 188.66 309.58 205.16 310.66 201.95 282.18 185.46 281.08 188.66"/><path class="cls-2" d="m309.94,206.1l-29.63-17.15,1.52-4.42,29.6,17.13-1.48,4.44Zm-28.09-17.73l27.38,15.85.66-1.98-27.36-15.84-.68,1.97Z"/></g><g><polygon class="cls-1" points="278.36 195.96 306.86 212.46 307.93 209.25 279.45 192.76 278.36 195.96"/><path class="cls-2" d="m307.22,213.4l-29.63-17.15,1.52-4.42,29.6,17.13-1.48,4.44Zm-28.09-17.73l27.38,15.85.66-1.98-27.36-15.84-.68,1.97Z"/></g><rect class="cls-2" x="283.54" y="199.49" width="1.27" height="42.5" transform="translate(-50.78 352.21) rotate(-59.27)"/><rect class="cls-2" x="275.38" y="209.59" width="1.27" height="24.47" transform="translate(-55.71 345.72) rotate(-59.27)"/><rect class="cls-2" x="301.19" y="157.1" width="1.27" height="42.5" transform="translate(-5.72 346.64) rotate(-59.27)"/><rect class="cls-2" x="286.39" y="195.11" width="1.27" height="24.48" transform="translate(-37.88 348.11) rotate(-59.27)"/></g></g><g><path class="cls-10" d="m265.03,225.24c.16.09.29.19.39.3.1.11.16.22.19.32.03.11.03.21-.02.31-.04.1-.13.19-.25.26l-3.18,1.98c-.17.1-.39.15-.66.15-.27,0-.54-.06-.79-.17-.46-.17-.91-.36-1.35-.57-.44-.21-.87-.43-1.28-.67-.17-.1-.37-.21-.58-.34-.21-.13-.43-.26-.63-.4-.21-.14-.4-.28-.58-.43-.18-.15-.32-.29-.43-.44-.11-.14-.17-.28-.19-.41-.01-.13.04-.25.16-.36l1.73-1.06c.32-.19.7-.33,1.15-.41.45-.08.92-.1,1.41-.06.5.04,1,.13,1.5.27.5.14.98.34,1.42.59l2,1.14Zm-2.65-3.1c.1-.06.23-.11.37-.14.14-.03.29-.03.45-.02.16.01.32.04.48.09.16.05.31.11.45.19s.26.17.35.26c.09.09.14.19.17.28.03.09.02.18-.02.27-.04.09-.11.16-.21.23s-.22.11-.37.13c-.14.02-.3.03-.46.02-.16-.01-.32-.04-.48-.09-.16-.05-.32-.11-.46-.19s-.25-.17-.33-.26c-.08-.09-.14-.19-.16-.28-.03-.09-.02-.18.02-.27.04-.08.11-.16.21-.22Zm-2.91,4.15c.42.24.86.46,1.34.67l2.09-1.29c-.21-.12-.41-.24-.62-.36-.21-.12-.42-.24-.63-.36-.17-.1-.36-.17-.56-.23-.2-.06-.41-.09-.61-.11-.2-.01-.39,0-.56.03-.18.03-.33.09-.45.16l-1.17.73c.2.16.38.29.55.39.17.1.35.21.55.33l.08.04Zm5.21-2.84c.1-.06.23-.11.37-.14.14-.03.29-.03.45-.02.16.01.32.04.48.09.16.05.31.11.45.19s.26.17.35.26c.09.09.14.19.17.28.03.09.02.18-.02.27-.04.09-.11.16-.21.23s-.22.11-.37.13c-.14.02-.3.03-.46.02-.16-.01-.32-.04-.48-.09-.16-.05-.32-.11-.46-.19s-.25-.17-.33-.26c-.08-.09-.14-.19-.16-.28-.03-.09-.02-.18.02-.27.04-.08.11-.16.21-.22Z"/><path class="cls-10" d="m270.38,229.31c-.32.21-.65.43-.97.65-.33.23-.66.45-1.01.67-.12.07-.21.13-.29.18-.08.05-.18.1-.3.17l1.1.63-1.39.87-1.34-.77c-.49.17-1.01.29-1.56.36-.55.08-1.12.09-1.72.03-.6-.05-1.22-.18-1.87-.39-.65-.21-1.32-.51-2.01-.91l1.39-.86c.43.25.85.43,1.24.55.4.12.78.19,1.14.21.37.02.72,0,1.05-.06.34-.06.66-.15.97-.27.31-.12.61-.25.89-.41.28-.16.56-.31.82-.48.35-.22.7-.45,1.04-.68.34-.23.68-.46,1.02-.67l1.92,1.1-.12.06Z"/><path class="cls-10" d="m270.18,232.35l3.31-2.08,1.9,1.09-3.31,2.08,1.37.79-1.39.88-4.79-2.75,1.39-.87,1.51.87Zm-4.19,1.06c.1-.07.23-.11.37-.14.14-.03.29-.03.45-.02.16.01.32.04.48.09.16.05.31.11.45.19s.26.17.35.27c.09.09.14.19.17.29.03.1.02.19-.02.27-.04.09-.11.16-.21.23s-.22.11-.37.13c-.14.03-.3.03-.46.02-.16-.01-.32-.04-.48-.09-.16-.05-.32-.11-.46-.19s-.25-.17-.33-.26c-.08-.1-.14-.19-.16-.29-.03-.1-.02-.19.02-.27.04-.09.11-.16.21-.22Zm2.3,1.33c.1-.07.23-.11.37-.14.14-.03.29-.03.45-.02.16.01.32.04.48.09.16.05.31.11.45.19s.26.17.35.27c.09.09.14.19.17.29.03.1.02.19-.02.27-.04.09-.11.16-.21.23s-.22.11-.37.13c-.14.03-.3.03-.46.02-.16-.01-.32-.04-.48-.09-.16-.05-.32-.11-.46-.19s-.25-.17-.33-.26c-.08-.1-.14-.19-.16-.29-.03-.1-.02-.19.02-.27.04-.09.11-.16.21-.22Z"/><path class="cls-10" d="m273.21,234.09l1.59.91,3.31-2.09,1.92,1.1-3.31,2.1,1.38.79,3.31-2.1,1.9,1.09-3.31,2.11,1.39.8,3.31-2.11,1.9,1.09-4.01,2.56c-.1.06-.21.11-.35.13-.14.02-.28.03-.43.02-.15,0-.3-.03-.45-.08-.15-.05-.29-.1-.42-.18l-9.13-5.25,1.39-.88Z"/><path class="cls-10" d="m248.72,238.17l-2.24-1.32c-.15-.09-.26-.18-.34-.27-.08-.09-.13-.19-.14-.28-.01-.09,0-.18.05-.26.05-.08.12-.15.22-.22l2.74-1.71c-.22-.13-.43-.25-.63-.37-.21-.12-.42-.25-.63-.37-.17-.1-.36-.18-.56-.24-.2-.06-.4-.09-.6-.11-.2-.02-.39,0-.57.02-.18.03-.33.08-.45.16l-1.16.72c.08.06.19.14.33.24.14.1.28.2.43.3.15.1.3.2.44.29.14.09.26.17.35.22l-1.39.86c-.2-.11-.41-.25-.66-.41-.24-.16-.48-.33-.72-.49-.24-.17-.46-.34-.68-.5-.21-.16-.39-.31-.52-.43h0c-.18-.14-.28-.29-.3-.45-.02-.16.06-.3.23-.4l1.73-1.06c.32-.19.7-.33,1.15-.41.45-.08.92-.09,1.41-.06.5.04,1,.13,1.5.28.51.15.98.35,1.42.61l2,1.17c.15.09.28.19.38.3.1.11.16.22.19.33.03.11.03.22,0,.31-.03.1-.11.18-.22.25l-2.64,1.66,1.29.76-1.39.86Zm-.13-7.56c.1-.06.23-.11.37-.13.14-.03.29-.03.45-.02.16.01.32.04.48.09.16.05.31.11.45.19s.26.17.35.27c.09.09.14.19.17.29.03.1.02.19-.02.27-.04.09-.11.16-.21.23s-.22.11-.37.13c-.14.02-.3.03-.46.02-.16-.01-.32-.04-.48-.09-.16-.05-.32-.11-.46-.2s-.25-.17-.33-.27c-.08-.1-.14-.19-.16-.29-.03-.1-.02-.19.02-.27.04-.09.11-.16.21-.22Zm2.3,1.34c.1-.06.23-.11.37-.14.14-.03.29-.03.45-.02.16.01.32.04.48.09.16.05.31.11.45.19s.26.17.35.27c.09.09.14.19.17.29.03.1.02.19-.02.27-.04.09-.11.16-.21.23s-.22.11-.37.13c-.14.02-.3.03-.46.02-.16-.01-.32-.04-.48-.09-.16-.05-.32-.11-.46-.2s-.25-.17-.33-.27c-.08-.1-.14-.19-.16-.29-.03-.1-.02-.19.02-.27.04-.09.11-.16.21-.22Z"/><path class="cls-10" d="m251.38,238.06l3.31-2.06,1.9,1.11-3.31,2.06,1.37.81-1.39.87-4.79-2.82,1.39-.86,1.51.89Zm-4.19,1.03c.1-.06.23-.11.37-.14.14-.03.29-.03.45-.02.16.01.32.04.48.09.16.05.31.12.45.2s.26.18.35.27c.09.1.14.19.17.29.03.1.02.19-.02.28-.04.09-.11.16-.21.23s-.22.11-.37.13c-.14.02-.3.03-.46.02-.16-.01-.32-.04-.48-.09-.16-.05-.32-.12-.46-.2s-.25-.17-.33-.27c-.08-.1-.14-.19-.16-.29-.03-.1-.02-.19.02-.27.04-.09.11-.16.21-.22Zm2.3,1.36c.1-.07.23-.11.37-.14.14-.03.29-.03.45-.02.16.01.32.04.48.09.16.05.31.12.45.2s.26.18.35.27c.09.1.14.19.17.29.03.1.02.19-.02.28-.04.09-.11.16-.21.23s-.22.11-.37.13c-.14.02-.3.03-.46.02-.16-.01-.32-.04-.48-.09-.16-.05-.32-.12-.46-.2s-.25-.17-.33-.27c-.08-.1-.14-.19-.16-.29-.03-.1-.02-.19.02-.27.04-.09.11-.16.21-.22Z"/><path class="cls-10" d="m254.46,239.87l2.11,1.24,3.31-2.08,1.9,1.11-3.95,2.48s-.01.02-.03.03l-.03.02c-.1.06-.21.1-.35.13-.13.02-.27.03-.43.02-.15-.01-.3-.04-.45-.09-.15-.05-.29-.11-.43-.19l-3.06-1.8,1.39-.87Zm5.05-2.89c.1-.07.23-.11.37-.14.14-.03.29-.03.45-.02.16.01.32.04.48.09.16.05.31.11.45.19s.26.17.35.27c.09.1.14.19.17.29.03.1.02.19-.02.28-.04.09-.11.16-.21.23s-.22.11-.37.13c-.14.02-.3.03-.46.02-.16-.01-.32-.04-.48-.09-.16-.05-.32-.11-.46-.2s-.25-.17-.33-.27c-.08-.1-.14-.19-.16-.29-.03-.1-.02-.19.02-.27.04-.09.11-.16.21-.22Zm2.3,1.34c.1-.07.23-.11.37-.14.14-.03.29-.03.45-.02.16.01.32.04.48.09.16.05.31.11.45.19s.26.17.35.27c.09.1.14.19.17.29.03.1.02.19-.02.28-.04.09-.11.16-.21.23s-.22.11-.37.13c-.14.02-.3.03-.46.02-.16-.01-.32-.04-.48-.09-.16-.05-.32-.11-.46-.2s-.25-.17-.33-.27c-.08-.1-.14-.19-.16-.29-.03-.1-.02-.19.02-.27.04-.09.11-.16.21-.22Z"/><path class="cls-10" d="m260.61,245.16l-1.91-1.13,6.81-4.29,1.91,1.11-6.81,4.3Z"/><path class="cls-10" d="m267.62,243.36c1.13.64,1.98,1.24,2.55,1.79.57.55.9,1.06,1,1.53.05.46-.11.91-.47,1.35-.36.44-.89.88-1.59,1.33-.1.06-.21.1-.35.13-.14.02-.28.03-.42.02-.15-.01-.3-.04-.45-.08-.16-.05-.3-.11-.43-.18l-5.22-3.07,1.39-.88,4.24,2.49c.31-.24.55-.48.72-.71.17-.23.25-.45.22-.65-.04-.26-.27-.57-.68-.92-.41-.35-1.04-.77-1.88-1.25l1.37-.89Zm2.1-.44c.1-.07.23-.11.37-.14.14-.03.29-.04.45-.02.16.01.32.04.48.09.16.05.31.11.45.19s.26.17.34.27c.09.1.14.19.17.29.03.1.02.19-.02.28-.04.09-.11.17-.21.23s-.22.11-.37.14c-.14.03-.3.03-.46.02-.16-.01-.32-.04-.48-.09-.16-.05-.31-.11-.46-.2s-.25-.17-.34-.27c-.09-.1-.14-.19-.17-.29-.03-.1-.02-.19.02-.28.04-.09.11-.16.21-.23Z"/></g><path class="cls-9" d="m427.46,322.85l-1.1-1.67,2.03-1.33,1.1,1.67-2.03,1.33Zm4.54-2.98l-1.1-1.67,2.51-1.65,1.1,1.67-2.51,1.65Zm5.02-3.29l-1.1-1.67,2.51-1.65,1.1,1.67-2.51,1.65Zm5.02-3.29l-1.1-1.67,2.51-1.65,1.1,1.67-2.51,1.65Zm5.02-3.29l-1.1-1.67,2.51-1.65,1.1,1.67-2.51,1.65Zm5.02-3.29l-1.1-1.67,2.51-1.65,1.1,1.67-2.51,1.65Zm5.02-3.29l-1.1-1.67,2.51-1.65,1.1,1.67-2.51,1.65Zm5.02-3.29l-1.1-1.67,2.51-1.65,1.1,1.67-2.51,1.65Zm5.02-3.29l-1.1-1.67,2.51-1.65,1.1,1.67-2.51,1.65Zm5.02-3.29l-1.1-1.67,2.51-1.65,1.1,1.67-2.51,1.65Zm5.02-3.29l-1.1-1.67,2.51-1.65,1.1,1.67-2.51,1.65Zm5.01-3.29l-1.1-1.67,2.51-1.65,1.1,1.67-2.51,1.65Zm5.02-3.29l-1.1-1.67,2.51-1.65,1.1,1.67-2.51,1.65Zm5.02-3.29l-1.1-1.67,2.51-1.65,1.1,1.67-2.51,1.65Zm5.02-3.29l-1.1-1.67,2.51-1.65,1.1,1.67-2.51,1.65Zm5.02-3.29l-1.1-1.67,2.51-1.65,1.1,1.67-2.51,1.65Zm2.87-3.27l-2.54-1.6,1.07-1.69,2.54,1.6-1.07,1.69Zm-5.08-3.2l-2.54-1.6,1.07-1.69,2.54,1.6-1.07,1.69Zm-5.08-3.2l-2.54-1.6,1.07-1.69,2.54,1.6-1.07,1.69Zm-5.08-3.2l-2.54-1.6,1.07-1.69,2.54,1.6-1.07,1.69Zm-5.08-3.2l-2.54-1.6,1.07-1.69,2.54,1.6-1.07,1.69Zm-5.08-3.2l-2.54-1.6,1.07-1.69,2.54,1.6-1.07,1.69Zm-5.08-3.2l-2.54-1.6,1.07-1.69,2.54,1.6-1.07,1.69Zm-5.08-3.2l-2.54-1.6,1.07-1.69,2.54,1.6-1.07,1.69Z"/><path class="cls-9" d="m355.27,369.23l-1.08-1.68,2.53-1.62,1.08,1.68-2.53,1.62Zm-3.6-.27l-2.49-1.68,1.12-1.66,2.49,1.68-1.12,1.66Zm8.66-2.97l-1.08-1.68,2.53-1.62,1.08,1.68-2.53,1.62Zm-13.63-.4l-2.48-1.68,1.12-1.66,2.48,1.68-1.12,1.66Zm18.68-2.84l-1.08-1.68,2.53-1.62,1.08,1.68-2.53,1.62Zm-23.65-.52l-2.48-1.68,1.12-1.66,2.48,1.68-1.12,1.66Zm28.7-2.71l-1.08-1.68,2.53-1.62,1.08,1.68-2.53,1.62Zm-33.67-.65l-2.49-1.68,1.12-1.66,2.49,1.68-1.12,1.66Zm38.72-2.58l-1.08-1.68,2.53-1.62,1.08,1.68-2.53,1.62Zm-43.69-.78l-2.49-1.68,1.12-1.66,2.49,1.68-1.12,1.66Zm48.75-2.46l-1.08-1.68,2.53-1.62,1.08,1.68-2.53,1.62Zm-53.72-.91l-2.48-1.68,1.12-1.66,2.48,1.68-1.12,1.66Zm58.77-2.33l-1.08-1.68,2.53-1.62,1.08,1.68-2.53,1.62Zm-63.74-1.03l-2.48-1.68,1.12-1.66,2.48,1.68-1.12,1.66Zm68.79-2.2l-1.08-1.68,2.53-1.62,1.08,1.68-2.53,1.62Zm-73.76-1.16l-2.49-1.68,1.12-1.66,2.49,1.68-1.12,1.66Zm78.82-2.07l-1.08-1.68,2.53-1.62,1.08,1.68-2.53,1.62Zm-83.79-1.29l-2.49-1.68,1.12-1.66,2.49,1.68-1.12,1.66Zm88.84-1.94l-1.08-1.68,2.53-1.62,1.08,1.68-2.53,1.62Zm-93.81-1.42l-2.48-1.68,1.12-1.66,2.49,1.68-1.12,1.66Zm98.86-1.82l-1.08-1.68,2.53-1.62,1.08,1.68-2.53,1.62Zm-103.83-1.55l-2.48-1.68,1.12-1.66,2.48,1.68-1.12,1.66Zm108.89-1.69l-1.08-1.68,2.53-1.62,1.08,1.68-2.53,1.62Zm-113.86-1.67l-2.48-1.68,1.12-1.66,2.48,1.68-1.12,1.66Zm118.91-1.56l-1.08-1.68,2.53-1.62,1.08,1.68-2.53,1.62Zm-123.88-1.8l-2.48-1.68,1.12-1.66,2.48,1.68-1.12,1.66Zm128.93-1.43l-1.08-1.68,2.53-1.62,1.08,1.68-2.53,1.62Zm-133.9-1.93l-2.48-1.68,1.12-1.66,2.48,1.68-1.12,1.66Zm138.96-1.3l-1.08-1.68,2.53-1.62,1.08,1.68-2.53,1.62Zm-143.93-2.06l-2.48-1.68,1.12-1.66,2.48,1.68-1.12,1.66Zm-4.97-3.36l-2.48-1.68,1.12-1.66,2.48,1.68-1.12,1.66Zm-4.97-3.36l-2.48-1.68,1.12-1.66,2.48,1.68-1.12,1.66Zm-4.97-3.36l-2.48-1.68,1.12-1.66,2.48,1.68-1.12,1.66Zm-4.97-3.36l-2.48-1.68,1.12-1.66,2.48,1.68-1.12,1.66Zm-4.97-3.36l-2.48-1.68,1.12-1.66,2.48,1.68-1.12,1.66Zm-4.97-3.36l-2.48-1.68,1.12-1.66,2.48,1.68-1.12,1.66Zm-4.97-3.36l-2.48-1.68,1.12-1.66,2.48,1.68-1.12,1.66Zm-4.97-3.36l-2.48-1.68,1.12-1.66,2.48,1.68-1.12,1.66Zm-4.97-3.36l-2.48-1.68,1.12-1.66,2.48,1.68-1.12,1.66Zm-4.97-3.36l-2.48-1.68,1.12-1.66,2.48,1.68-1.12,1.66Zm-4.97-3.36l-2.48-1.68,1.12-1.66,2.48,1.68-1.12,1.66Zm-4.97-3.36l-2.48-1.68,1.12-1.66,2.48,1.68-1.12,1.66Zm-4.97-3.36l-2.48-1.68,1.12-1.66,2.48,1.68-1.12,1.66Zm-4.97-3.36l-2.48-1.68,1.12-1.66,2.48,1.68-1.12,1.66Zm-4.97-3.36l-2.48-1.68,1.12-1.66,2.48,1.68-1.12,1.66Zm-4.97-3.36l-2.48-1.68,1.12-1.66,2.48,1.68-1.12,1.66Zm-4.98-3.39l-2.45-1.73,1.15-1.63,2.45,1.73-1.15,1.63Zm-4.9-3.46l-2.45-1.73,1.15-1.63,2.45,1.73-1.15,1.63Zm-4.9-3.46l-2.45-1.73,1.15-1.63,2.45,1.73-1.15,1.63Zm-4.9-3.46l-2.45-1.73,1.15-1.63,2.45,1.73-1.15,1.63Zm-4.9-3.46l-2.45-1.73,1.15-1.63,2.45,1.73-1.15,1.63Zm-4.9-3.46l-2.45-1.73,1.15-1.63,2.45,1.73-1.15,1.63Zm-4.9-3.46l-2.45-1.73,1.15-1.63,2.45,1.73-1.15,1.63Zm-4.9-3.46l-2.45-1.73,1.15-1.63,2.45,1.73-1.15,1.63Zm-4.9-3.46l-2.45-1.73,1.15-1.63,2.45,1.73-1.15,1.63Zm-4.9-3.46l-2.45-1.73,1.15-1.63,2.45,1.73-1.15,1.63Zm-4.9-3.46l-2.45-1.73,1.15-1.63,2.45,1.73-1.15,1.63Zm-4.9-3.46l-2.45-1.73,1.15-1.63,2.45,1.73-1.15,1.63Zm-4.9-3.46l-2.45-1.73,1.15-1.63,2.45,1.73-1.15,1.63Zm-4.9-3.46l-2.45-1.73,1.15-1.63,2.45,1.73-1.15,1.63Zm-4.9-3.46l-2.45-1.73,1.15-1.63,2.45,1.73-1.15,1.63Zm-4.9-3.46l-2.45-1.73,1.15-1.63,2.45,1.73-1.15,1.63Zm-4.9-3.46l-2.45-1.73,1.15-1.63,2.45,1.73-1.15,1.63Zm-4.9-3.46l-2.45-1.73,1.15-1.63,2.45,1.73-1.15,1.63Zm-4.9-3.46l-2.45-1.73,1.15-1.63,2.45,1.73-1.15,1.63Zm-4.9-3.46l-2.45-1.73,1.15-1.63,2.45,1.73-1.15,1.63Zm-4.9-3.46l-2.45-1.73,1.15-1.63,2.45,1.73-1.15,1.63Zm-4.9-3.46l-2.45-1.73,1.15-1.63,2.45,1.73-1.15,1.63Zm-4.9-3.46l-2.45-1.73,1.15-1.63,2.45,1.73-1.15,1.63Zm-4.9-3.46l-2.45-1.73,1.1-1.56-.04.02-.96-1.75,2.63-1.44.96,1.75-2.49,1.37,2.41,1.7-1.15,1.63Zm3.86-6.15l-.96-1.75,2.63-1.44.96,1.75-2.63,1.44Zm5.26-2.89l-.96-1.75,2.63-1.44.96,1.75-2.63,1.44Zm5.26-2.89l-.96-1.75,2.63-1.44.96,1.75-2.63,1.44Zm5.26-2.89l-.96-1.75,2.63-1.44.96,1.75-2.63,1.44Zm5.26-2.89l-.96-1.75,2.63-1.44.96,1.75-2.63,1.44Zm5.26-2.89l-.96-1.75,2.63-1.44.96,1.75-2.63,1.44Zm5.26-2.89l-.96-1.75,2.63-1.44.96,1.75-2.63,1.44Zm5.26-2.89l-.96-1.75,2.63-1.44.96,1.75-2.63,1.44Zm5.26-2.89l-.96-1.75,2.63-1.44.96,1.75-2.63,1.44Zm5.26-2.89l-.96-1.75,2.63-1.44.96,1.75-2.63,1.44Zm5.26-2.89l-.96-1.75,2.63-1.44.96,1.75-2.63,1.44Zm5.26-2.89l-.96-1.75,2.63-1.44.96,1.75-2.63,1.44Zm5.26-2.89l-.96-1.75,2.63-1.44.96,1.75-2.63,1.44Zm5.26-2.89l-.96-1.75,2.63-1.44.96,1.75-2.63,1.44Zm5.26-2.89l-.96-1.75,2.63-1.44.96,1.75-2.63,1.44Zm5.26-2.89l-.96-1.75,2.63-1.44.96,1.75-2.63,1.44Zm5.26-2.89l-.96-1.75,2.63-1.44.96,1.75-2.63,1.44Zm5.26-2.89l-.96-1.75,2.63-1.44.96,1.75-2.63,1.44Zm5.26-2.89l-.96-1.75,2.63-1.44.96,1.75-2.63,1.44Zm5.26-2.89l-.96-1.75,2.63-1.44.96,1.75-2.63,1.44Zm103.45-2.44l-.11-.07,1.02-1.72.11.07-1.02,1.72Zm-98.19-.44l-.96-1.75,2.63-1.44.96,1.75-2.63,1.44Zm95.5-1.15l-2.58-1.52,1.02-1.72,2.58,1.52-1.02,1.72Zm-90.24-1.74l-.96-1.75,2.63-1.44.96,1.75-2.63,1.44Zm85.07-1.3l-2.58-1.52,1.02-1.72,2.58,1.52-1.02,1.72Zm-79.81-1.59l-.96-1.75,2.63-1.44.96,1.75-2.63,1.44Zm74.64-1.46l-2.58-1.52,1.02-1.72,2.58,1.52-1.02,1.72Zm-69.39-1.43l-.96-1.75,2.63-1.44.96,1.75-2.63,1.44Zm64.22-1.62l-2.58-1.52,1.02-1.72,2.58,1.52-1.02,1.72Zm-58.96-1.27l-.96-1.75,2.63-1.44.96,1.75-2.63,1.44Zm53.79-1.78l-2.58-1.52,1.02-1.72,2.58,1.52-1.02,1.72Zm-48.53-1.11l-.96-1.75,2.63-1.44.96,1.75-2.63,1.44Zm43.36-1.94l-2.58-1.52,1.02-1.72,2.58,1.52-1.02,1.72Zm-38.1-.95l-.96-1.75,2.63-1.44.96,1.75-2.63,1.44Zm32.94-2.1l-2.58-1.52,1.02-1.72,2.58,1.52-1.02,1.72Zm-27.68-.79l-.96-1.75,2.63-1.44.96,1.75-2.63,1.44Zm22.51-2.26l-2.58-1.52,1.02-1.72,2.58,1.52-1.02,1.72Zm-17.25-.63l-.96-1.75,2.63-1.44.96,1.75-2.63,1.44Zm12.08-2.41l-2.58-1.52,1.02-1.72,2.58,1.52-1.02,1.72Zm-6.83-.48l-.96-1.75,2.63-1.44.96,1.75-2.63,1.44Z"/><g><g><g><path class="cls-2" d="m209.51,166l-59.87-37.24c-1.76-1.02-3.19-3.74-3.19-6.09l-2.47-91.88c0-2.35,3.9-3.79,5.66-2.77l62.05,35.82c1.76,1.02,3.19,3.74,3.19,6.09v92.25c0,2.35-3.61,4.84-5.37,3.83Z"/><path class="cls-2" d="m210.46,166.89c-.47,0-.91-.11-1.28-.32h-.02s-59.87-37.25-59.87-37.25c-1.95-1.13-3.49-4.05-3.49-6.64l-2.47-91.86c0-1.17.73-2.24,1.99-2.98,1.56-.9,3.47-1.06,4.64-.38l62.05,35.82c1.97,1.14,3.51,4.06,3.51,6.65v92.24c0,1.66-1.4,3.22-2.79,4.02-.79.46-1.57.69-2.27.69Zm-.62-1.45c.5.28,1.36.14,2.24-.37,1.26-.73,2.14-1.92,2.14-2.89v-92.24c0-2.1-1.31-4.63-2.86-5.53l-62.05-35.82c-.75-.43-2.22-.27-3.34.38-.4.23-1.34.88-1.34,1.83l2.47,91.86c0,2.12,1.31,4.65,2.86,5.54l59.88,37.25Z"/></g><g><path class="cls-7" d="m209.14,165.82l-62.05-35.82c-1.76-1.02-3.19-3.74-3.19-6.09V31.66c0-2.35,1.43-3.43,3.19-2.41l62.05,35.82c1.76,1.02,3.19,3.74,3.19,6.09v92.25c0,2.35-1.43,3.43-3.19,2.41Z"/><path class="cls-2" d="m210.41,166.86c-.51,0-1.05-.16-1.59-.47l-62.05-35.82c-1.97-1.14-3.51-4.06-3.51-6.65V31.66c0-1.47.52-2.62,1.43-3.14.79-.46,1.76-.4,2.74.17l62.05,35.82c1.97,1.14,3.51,4.06,3.51,6.65v92.25c0,1.47-.52,2.62-1.43,3.14-.35.2-.74.3-1.14.3Zm-.94-1.6c.39.23.96.44,1.43.17.49-.28.78-1.03.78-2.01v-92.25c0-2.1-1.31-4.63-2.86-5.53l-62.05-35.82c-.39-.23-.96-.44-1.43-.17-.49.28-.78,1.03-.78,2.01v92.25c0,2.1,1.31,4.63,2.86,5.53l62.05,35.82Z"/></g><rect class="cls-7" x="211.16" y="66.45" width="2.82" height=".75" transform="translate(-3.19 122.48) rotate(-31.92)"/><polygon class="cls-7" points="215.4 118.67 214.64 118.66 214.66 105.58 215.42 105.59 215.4 118.67"/><rect class="cls-7" x="148.58" y="29.24" width="2.82" height=".75" transform="translate(7.01 83.75) rotate(-31.91)"/><rect class="cls-7" x="212.35" y="161.09" width="2.82" height=".75" transform="translate(-53.05 137.42) rotate(-31.92)"/></g><g><g><g><path class="cls-1" d="m157.46,108.04l.83,2.42c.08.23.23.44.4.57l1.85,1.38c.44.33.62,1.05.3,1.23l-1.34.74c-.13.07-.18.24-.15.46l.32,2.31c.08.55-.38.67-.78.2l-1.66-1.96c-.16-.19-.34-.29-.5-.29l-1.66.05c-.39.01-.85-.64-.78-1.1l.32-1.95c.03-.18-.03-.42-.15-.64l-1.34-2.28c-.32-.54-.14-1.07.3-.88l1.85.76c.17.07.33.03.4-.11l.83-1.46c.2-.35.77-.02.96.56Z"/><path class="cls-1" d="m159.37,117.89c-.23,0-.47-.13-.68-.38l-1.66-1.96c-.12-.14-.24-.2-.3-.2l-1.66.05c-.26.01-.47-.12-.68-.35-.27-.31-.41-.71-.35-1.04l.32-1.95c.02-.12-.03-.31-.12-.47l-1.34-2.28c-.25-.42-.26-.87-.04-1.12.15-.18.4-.23.65-.12l1.85.76c.08.03.09,0,.09,0l.83-1.46c.11-.19.3-.29.51-.27.36.03.75.4.9.86l.83,2.42c.06.18.18.35.32.45l1.85,1.38c.35.26.59.74.56,1.15-.02.23-.12.41-.29.5l-1.34.74s-.04.07-.03.21l.32,2.32c.05.35-.07.62-.32.73-.07.03-.14.05-.22.05Zm-2.63-3.04c.23,0,.48.14.68.38l1.66,1.96c.15.18.29.21.31.2.01,0,.04-.07.03-.2l-.32-2.32c-.04-.32.06-.59.28-.71l1.34-.74s.03-.04.03-.1c.01-.2-.12-.53-.36-.71l-1.85-1.38c-.22-.16-.4-.41-.49-.69l-.83-2.42c-.09-.26-.27-.44-.4-.51-.06-.03-.09-.02-.09-.02l-.84,1.48c-.14.25-.42.34-.72.21l-1.85-.76c-.05-.02-.08-.02-.08-.02-.04.02-.08.24.09.54l1.34,2.28c.16.27.22.56.18.8l-.32,1.95c-.03.18.07.44.24.63.12.14.23.19.29.18l1.66-.05h.02Z"/></g><g><path class="cls-1" d="m168.03,114.14l.83,2.42c.08.23.23.44.4.57l1.85,1.38c.44.33.62,1.05.3,1.23l-1.34.74c-.13.07-.18.24-.15.46l.32,2.31c.08.55-.38.67-.78.2l-1.66-1.96c-.16-.19-.34-.29-.5-.29l-1.66.05c-.39.01-.85-.64-.78-1.1l.32-1.95c.03-.18-.03-.42-.15-.64l-1.34-2.28c-.32-.54-.14-1.07.3-.88l1.85.76c.17.07.33.03.4-.11l.83-1.46c.2-.35.77-.02.96.56Z"/><path class="cls-1" d="m169.94,124c-.23,0-.47-.13-.68-.38l-1.66-1.96c-.12-.14-.22-.19-.3-.2l-1.66.05c-.26.02-.47-.12-.68-.35-.27-.31-.41-.71-.35-1.04l.32-1.95c.02-.12-.03-.31-.12-.47l-1.34-2.28c-.25-.42-.26-.87-.04-1.12.16-.18.4-.23.65-.12l1.85.76c.07.03.09,0,.09,0l.83-1.46c.11-.19.3-.29.51-.27.36.03.75.4.91.86h0s.83,2.42.83,2.42c.06.18.18.35.32.45l1.85,1.38c.35.26.59.74.56,1.15-.02.23-.12.41-.29.5l-1.34.74s-.05.07-.03.21l.32,2.32c.05.35-.07.62-.32.73-.07.03-.14.05-.22.05Zm-2.64-3.04c.23,0,.48.14.68.38l1.66,1.96c.16.19.29.21.31.2.01,0,.04-.07.03-.2l-.32-2.32c-.05-.32.06-.59.28-.71l1.34-.74s.03-.04.03-.1c.01-.2-.12-.53-.36-.71l-1.85-1.38c-.22-.16-.4-.41-.49-.69l-.83-2.42c-.09-.26-.27-.44-.4-.51-.05-.03-.09-.02-.09-.02l-.84,1.48c-.14.25-.42.33-.72.21l-1.85-.76c-.05-.02-.08-.02-.08-.02-.04.02-.08.24.1.54l1.34,2.29c.16.27.22.56.19.8l-.32,1.95c-.03.18.07.44.24.63.12.14.22.18.29.18l1.66-.05h.02Z"/></g><g><path class="cls-1" d="m178.6,120.25l.83,2.42c.08.23.23.44.4.57l1.85,1.38c.44.33.62,1.05.3,1.23l-1.34.74c-.13.07-.18.24-.15.46l.32,2.31c.08.55-.38.67-.78.2l-1.66-1.96c-.16-.19-.34-.29-.5-.29l-1.66.05c-.39.01-.85-.64-.78-1.1l.32-1.95c.03-.18-.03-.42-.15-.64l-1.34-2.28c-.32-.54-.14-1.07.3-.88l1.85.76c.17.07.33.03.4-.11l.83-1.46c.2-.35.77-.02.96.56Z"/><path class="cls-1" d="m180.51,130.1c-.23,0-.47-.13-.68-.38l-1.66-1.96c-.12-.14-.23-.2-.3-.2h0l-1.66.05c-.26,0-.47-.12-.68-.35-.27-.31-.41-.71-.35-1.04l.32-1.95c.02-.12-.03-.31-.12-.47l-1.34-2.28c-.25-.42-.26-.87-.04-1.12.16-.18.4-.23.65-.12l1.85.76c.07.03.09,0,.09,0l.83-1.46c.11-.19.29-.29.51-.27.36.03.74.4.9.86l.83,2.42c.06.18.18.35.32.45l1.85,1.38c.35.26.59.74.56,1.15-.02.23-.12.41-.29.5l-1.34.74s-.04.07-.03.21l.32,2.31c.05.35-.07.62-.32.73-.07.03-.14.05-.22.05Zm-2.64-3.04c.23,0,.48.14.68.38l1.66,1.96c.16.19.29.21.31.2.01,0,.05-.07.03-.2l-.32-2.32c-.04-.32.06-.59.28-.71l1.34-.74s.03-.04.03-.1c.01-.2-.12-.53-.36-.71l-1.85-1.38c-.21-.16-.4-.42-.49-.69l-.83-2.42c-.09-.26-.27-.44-.41-.51-.06-.03-.09-.02-.09-.02l-.84,1.48c-.14.25-.42.34-.72.21l-1.85-.76s-.08-.02-.08-.02c-.04.02-.08.24.09.54l1.34,2.29c.16.27.22.56.19.8l-.32,1.95c-.03.18.07.44.24.63.12.14.23.19.29.18l1.66-.05h.02Z"/></g><g><path class="cls-1" d="m189.17,126.35l.83,2.42c.08.23.23.44.4.57l1.85,1.38c.44.33.62,1.05.3,1.23l-1.34.74c-.13.07-.18.24-.15.46l.32,2.31c.08.55-.38.67-.78.2l-1.66-1.96c-.16-.19-.34-.29-.5-.29l-1.66.05c-.39.01-.85-.64-.78-1.1l.32-1.95c.03-.18-.03-.42-.15-.64l-1.34-2.28c-.32-.54-.14-1.07.3-.88l1.85.76c.17.07.33.03.4-.11l.83-1.46c.2-.35.77-.02.96.56Z"/><path class="cls-1" d="m191.08,136.2c-.23,0-.47-.13-.68-.38l-1.66-1.96c-.12-.14-.23-.2-.3-.2h0l-1.66.05h-.02c-.22,0-.46-.12-.66-.35-.27-.31-.41-.71-.36-1.04l.32-1.95c.02-.12-.03-.31-.12-.47l-1.34-2.29c-.25-.42-.26-.87-.04-1.12.15-.18.4-.23.65-.12l1.85.76c.07.03.09,0,.09,0l.83-1.46c.11-.19.3-.29.51-.27.36.03.75.4.9.86l.83,2.42c.06.18.18.35.32.45l1.85,1.38c.35.26.59.75.56,1.15-.02.23-.12.41-.29.5l-1.34.74s-.05.07-.03.21l.32,2.31c.05.35-.07.62-.32.73-.07.03-.14.05-.22.05Zm-2.64-3.04c.23,0,.48.14.68.38l1.66,1.96c.15.18.29.21.31.2.01,0,.04-.07.03-.2l-.32-2.32c-.04-.32.06-.59.28-.71l1.34-.74s.03-.04.03-.1c.01-.2-.12-.53-.36-.71l-1.85-1.38c-.21-.16-.4-.42-.49-.69l-.83-2.42c-.09-.26-.27-.44-.4-.51-.06-.03-.09-.02-.09-.02l-.84,1.48c-.14.25-.42.33-.72.21l-1.85-.76s-.08-.02-.08-.02c-.04.02-.08.24.09.54l1.34,2.28c.16.27.23.56.19.8l-.32,1.95c-.03.18.07.44.24.63.12.14.23.18.29.18l1.66-.05h.02Z"/></g><g><path class="cls-1" d="m199.74,132.45l.83,2.42c.08.23.23.44.4.57l1.85,1.38c.44.33.62,1.05.3,1.23l-1.34.74c-.13.07-.18.24-.15.46l.32,2.31c.08.55-.38.67-.78.2l-1.66-1.96c-.16-.19-.34-.29-.5-.29l-1.66.05c-.39.01-.85-.64-.78-1.1l.32-1.95c.03-.18-.03-.42-.15-.64l-1.34-2.28c-.32-.54-.14-1.07.3-.88l1.85.76c.17.07.33.03.4-.11l.83-1.46c.2-.35.77-.02.96.56Z"/><path class="cls-1" d="m201.66,142.31c-.23,0-.47-.13-.68-.38l-1.66-1.96c-.12-.14-.23-.19-.3-.2l-1.66.05h-.02c-.23,0-.46-.13-.66-.35-.27-.31-.41-.71-.35-1.04l.32-1.95c.02-.12-.03-.31-.12-.47l-1.34-2.28c-.25-.42-.26-.87-.04-1.12.15-.18.4-.23.65-.12l1.85.76c.07.03.09.01.09,0l.83-1.46c.11-.19.3-.29.51-.27.36.03.75.4.9.86l.83,2.42c.06.18.18.35.32.45l1.85,1.38c.35.26.59.74.56,1.15-.02.23-.12.41-.29.5l-1.34.74s-.04.07-.03.2l.32,2.32c.05.35-.07.62-.32.73-.07.03-.14.05-.22.05Zm-2.63-3.04c.23,0,.48.14.68.38l1.66,1.96c.15.18.29.21.31.2.01,0,.05-.07.03-.21l-.32-2.32c-.04-.32.06-.59.28-.71l1.34-.74s.03-.04.03-.1c.01-.2-.12-.53-.36-.71l-1.85-1.38c-.22-.16-.4-.41-.49-.69l-.83-2.42c-.09-.26-.27-.44-.4-.51-.06-.03-.09-.02-.09-.02l-.84,1.48c-.14.25-.42.33-.72.21l-1.85-.76s-.08-.02-.08-.02c-.04.02-.08.24.09.54l1.34,2.28c.16.27.23.56.18.8l-.32,1.95c-.03.18.07.44.24.63.12.14.23.2.29.18l1.66-.05h.02Z"/></g></g><g><path class="cls-7" d="m189.78,145.62l-23.33-13.47c-.87-.5-1.58-1.85-1.58-3.01h0c0-1.16.71-1.69,1.58-1.19l23.33,13.47c.87.5,1.58,1.85,1.58,3.01h0c0,1.16-.71,1.69-1.58,1.19Z"/><path class="cls-1" d="m190.41,146.31c-.28,0-.58-.09-.88-.26l-23.33-13.47c-1.02-.59-1.83-2.1-1.83-3.44,0-.79.29-1.42.8-1.71.45-.26.99-.23,1.53.08l23.33,13.47c1.02.59,1.83,2.1,1.83,3.44,0,.79-.29,1.42-.79,1.71-.2.12-.42.17-.66.17Zm-.38-1.12c.13.07.36.18.53.08.14-.08.29-.35.29-.84,0-.98-.61-2.16-1.33-2.58l-23.33-13.47c-.13-.07-.36-.18-.53-.08-.14.08-.29.35-.29.84,0,.98.61,2.16,1.33,2.58l23.33,13.47Z"/></g><g><g><path class="cls-7" d="m158.97,101.87l38.3,22.11c3.17,1.83,5.75-.11,5.75-4.35v-42.18c0-4.23-2.57-9.15-5.75-10.98l-38.3-22.11c-3.17-1.83-5.75.11-5.75,4.35v42.18c0,4.23,2.57,9.15,5.75,10.98Z"/><path class="cls-1" d="m199.56,125.18c-.8,0-1.66-.25-2.54-.76l-38.3-22.11c-3.31-1.91-6-7.03-6-11.42v-42.18c0-2.41.82-4.26,2.24-5.08,1.2-.7,2.72-.59,4.26.3l38.3,22.12c3.31,1.91,6,7.03,6,11.42v42.18c0,2.41-.82,4.26-2.24,5.08-.52.3-1.11.45-1.73.45Zm-40.34-23.74l38.3,22.11c1.22.7,2.38.81,3.26.3,1.1-.64,1.74-2.17,1.74-4.21v-42.18c0-4.07-2.47-8.8-5.5-10.55l-38.3-22.12c-1.22-.7-2.38-.81-3.26-.3-1.1.64-1.74,2.17-1.74,4.21v42.18c0,4.07,2.47,8.8,5.5,10.55Z"/></g><path class="cls-1" d="m198.04,121.1c-.5,0-1.02-.15-1.56-.46l-37.22-21.49c-1.98-1.14-3.53-4.09-3.53-6.7v-41.81c0-1.45.5-2.58,1.39-3.09.76-.44,1.7-.38,2.65.17l37.22,21.49c1.98,1.14,3.53,4.09,3.53,6.7v41.81c0,1.45-.5,2.58-1.39,3.09-.33.19-.7.29-1.09.29Zm-38.28-22.82l37.22,21.49c.44.26,1.09.5,1.65.17.56-.32.88-1.13.88-2.22v-41.81c0-2.25-1.36-4.87-3.03-5.84l-37.22-21.49c-.44-.26-1.09-.49-1.65-.17-.56.32-.88,1.13-.88,2.22v41.81c0,2.25,1.36,4.87,3.03,5.84h0Z"/><g><path class="cls-7" d="m180.89,98.72s8.57,2.27,14.21,20.54l-35.35-20.41s-1.26-14.04,12.05-6.11l7.73,5.37,1.36.62Z"/><path class="cls-1" d="m195.95,120.33l-36.68-21.18-.02-.26c-.02-.25-.51-6.18,2.91-8.34,2.25-1.41,5.58-.83,9.89,1.74l7.76,5.38,1.24.55c.75.22,9.01,3,14.52,20.87l.38,1.22Zm-35.72-21.78l33.99,19.63c-5.46-16.61-13.39-18.96-13.47-18.98l-.08-.03-1.36-.62-7.81-5.41c-3.94-2.34-6.91-2.94-8.82-1.74-2.55,1.6-2.51,6.03-2.46,7.14Z"/></g><g><path class="cls-7" d="m172.22,80.78c-.55-3.65,2.4-5.94,5.46-7.32,3.8-1.71,9.94,4.41,10.6,10.62.22,2.09.12,4.06-.33,5.77-.67,2.54-1.84,4.98-3.85,6.56,0,0-1.88-.42-3.98-2.3,0,0-.36,3.55,1.01,6.78,0,0,.14,3.27-4.2,1.3s-6.16-8.12-6.16-8.12c0,0,2.54-6.06,1.45-13.3Z"/><path class="cls-1" d="m179.29,103.32c-.72,0-1.57-.22-2.57-.67-4.5-2.04-6.35-8.17-6.43-8.43l-.05-.17.07-.16c.03-.06,2.47-6.03,1.42-13.03-.48-3.22,1.5-5.94,5.75-7.85,1.33-.6,2.95-.4,4.66.58,2.93,1.68,6.16,5.81,6.65,10.44.23,2.21.12,4.21-.35,5.96-.81,3.06-2.16,5.36-4.03,6.83l-.19.15-.23-.05c-.07-.02-1.58-.36-3.42-1.76,0,1.25.13,3.48,1.02,5.55l.04.17c0,.06.05,1.38-.97,2.07-.38.25-.83.38-1.37.38Zm-7.98-9.23c.32.96,2.13,5.96,5.83,7.64,1.37.62,2.4.76,2.96.38.45-.3.52-.91.53-1.12-1.36-3.27-1.03-6.78-1.01-6.92l.1-.98.73.66c1.56,1.4,3,1.95,3.54,2.12,1.59-1.34,2.76-3.4,3.48-6.14.43-1.63.54-3.51.32-5.59-.45-4.25-3.5-8.16-6.15-9.68-.99-.57-2.45-1.12-3.75-.54-3.85,1.73-5.59,4.01-5.17,6.78h0c1.01,6.7-1,12.32-1.41,13.39Z"/></g><path class="cls-1" d="m185.55,92.55l-.65-.2c-.06-.02-1.58-.5-2.25-1.96l.91-.42c.24.52.64.88.99,1.1v-2.91h1v4.39Z"/><path class="cls-1" d="m179.76,94.47s-1.05-1.08-2.13-2.68l.83-.56c1.02,1.51,2,2.52,2.01,2.53l-.72.7Z"/><path class="cls-1" d="m182.63,85.45c0,.82-.35,1.29-.77,1.05s-.77-1.11-.77-1.94.35-1.29.77-1.05.77,1.11.77,1.94Z"/><path class="cls-1" d="m187.89,88.49c0,.82-.35,1.29-.77,1.05-.43-.25-.77-1.11-.77-1.94s.35-1.29.77-1.05c.43.25.77,1.11.77,1.94Z"/><path class="cls-1" d="m175.08,104.04c-.32-.27-.63-.54-.92-.81l.67-.74c.29.26.59.53.9.79l-.65.76Zm-1.66-1.51c-.5-.49-.97-.98-1.41-1.46l.74-.67c.43.47.88.94,1.37,1.42l-.7.72Zm-2.09-2.23c-.46-.54-.88-1.07-1.27-1.59l.8-.6c.38.5.79,1.02,1.23,1.54l-.76.65Zm-1.86-2.42c-.39-.56-.76-1.13-1.11-1.71l.86-.51c.34.56.7,1.12,1.07,1.65l-.82.57Zm-1.62-2.6c-.33-.6-.64-1.22-.92-1.82l.91-.42c.27.58.57,1.17.89,1.76l-.88.48Zm-1.33-2.76c-.49-1.2-.67-1.93-.68-1.97l.97-.24s.18.7.63,1.83l-.93.38Z"/><g><path class="cls-7" d="m188.23,83.64s3.41,1.37,3.7-3.2c.29-4.57-3.3-9.55-3.3-9.55,0,0-.75,4.99-5.33.24-4.58-4.74-12.03-6.74-13.55-1.86-1.16,3.7-.03,7.88.58,9.68.21.62.28,1.22.2,1.71h0c-.24,1.47.58,3.51,1.92,4.8h0l.52-1.56c.42-1.27.62-2.75.48-4.42-.09-1,0-2.04.7-2.25,1.4-.41,2.97,3.07,2.97,3.07,0,0,5.37-2.93,11.1,3.34Z"/><path class="cls-1" d="m172.67,86.36l-.57-.54c-1.47-1.4-2.34-3.61-2.07-5.24.07-.41,0-.93-.18-1.47-.58-1.71-1.79-6.11-.58-9.99.5-1.59,1.61-2.63,3.21-3.01,3.14-.74,7.85,1.22,11.18,4.68,1.38,1.43,2.55,2.08,3.31,1.84.91-.29,1.16-1.8,1.16-1.81l.18-1.21.72.99c.15.21,3.7,5.18,3.4,9.88-.11,1.69-.64,2.85-1.58,3.44-1.27.8-2.75.22-2.81.19l-.18-.13c-5.37-5.88-10.29-3.35-10.49-3.24l-.47.25-.22-.49c-.58-1.29-1.72-2.98-2.38-2.8-.3.09-.43.75-.35,1.73.14,1.64-.03,3.19-.51,4.62l-.77,2.31Zm1.23-19.41c-.42,0-.82.04-1.19.13-1.26.3-2.09,1.08-2.48,2.34-1.13,3.6.03,7.75.57,9.37.24.7.32,1.38.22,1.96-.18,1.1.33,2.6,1.22,3.74l.25-.75c.43-1.29.59-2.71.46-4.22-.14-1.59.22-2.53,1.06-2.77,1.48-.43,2.81,1.82,3.36,2.9,1.5-.56,6.24-1.73,11.14,3.55.28.09,1.13.29,1.81-.14.65-.41,1.02-1.31,1.11-2.66.21-3.24-1.66-6.76-2.64-8.35-.27.6-.73,1.28-1.52,1.53-1.17.38-2.63-.33-4.34-2.1-2.65-2.74-6.3-4.53-9.04-4.53Z"/></g><path class="cls-1" d="m183.28,94.13s-1.07-.48-1.63-1.52l.88-.47c.39.72,1.14,1.07,1.15,1.08l-.4.92Z"/><path class="cls-1" d="m175.19,84.22c-.07-.03-1.78-.86-2.2-3.97l.99-.13c.35,2.53,1.58,3.18,1.64,3.2l-.43.9Z"/><path class="cls-1" d="m173.99,80.84h-1c0-.8.25-1.32.72-1.55.81-.39,1.81.34,2,.5l-.62.79c-.34-.26-.81-.45-.95-.38-.05.02-.15.19-.16.64Z"/><path class="cls-1" d="m189.91,79.1c-.48,0-1.05-.14-1.71-.42-4.42-1.86-12.49-9.59-12.83-9.92l.69-.72c.08.08,8.28,7.92,12.52,9.72.9.38,1.55.44,1.83.18.51-.49.18-2.18-.22-3.22l.94-.36c.12.32,1.16,3.16-.02,4.3-.31.29-.71.44-1.2.44Z"/><path class="cls-1" d="m170.01,79.74c-.36-3.97.14-6.44,1.47-7.33,1.06-.71,2.2-.13,2.24-.11l-.46.89s-.67-.33-1.23.06c-.56.38-1.44,1.72-1.02,6.4l-1,.09Z"/><path class="cls-1" d="m180.63,106.62l-.06-1c.33-.02.64-.06.94-.13l.22.98c-.35.08-.72.13-1.1.15Zm2.13-.48l-.38-.93c.56-.23,1.07-.56,1.51-.99l.69.72c-.53.51-1.14.91-1.82,1.19Zm2.54-2.01l-.81-.59c.61-.83.81-1.61.81-1.61l.97.24s-.24.97-.97,1.96Z"/></g></g></g><g><g><g><path class="cls-2" d="m444.5,218.6l-43.8-29.44c-1.44-.83-3.88-1.95-3.88-3.88l-2.03-34.23c0-1.92,3.19-3.1,4.64-2.27l46.86,27.17c1.44.83,2.61,3.07,2.61,4.99v34.53c0,1.92-2.96,3.97-4.4,3.14Z"/><path class="cls-2" d="m445.28,219.33c-.39,0-.74-.09-1.05-.26l-.03-.02-43.8-29.44c-.13-.07-.29-.16-.47-.26-1.54-.86-3.65-2.03-3.65-4.06l-2.02-34.2c0-.97.59-1.86,1.63-2.46,1.28-.74,2.84-.87,3.8-.31l46.86,27.17c1.61.93,2.88,3.33,2.88,5.45v34.53c0,1.36-1.15,2.64-2.29,3.3-.65.38-1.29.57-1.86.57Zm-.5-1.18c.41.23,1.11.11,1.83-.31,1.03-.6,1.76-1.57,1.76-2.37v-34.53c0-1.72-1.07-3.79-2.35-4.53l-46.86-27.17c-.62-.36-1.82-.22-2.74.31-.33.19-1.1.72-1.1,1.5l2.02,34.2c0,1.43,1.79,2.43,3.1,3.16.18.1.35.2.51.29l43.81,29.45Z"/></g><g><path class="cls-4" d="m444.2,218.46l-46.86-27.17c-1.44-.83-2.61-3.07-2.61-4.99v-34.53c0-1.92,1.17-2.81,2.61-1.97l46.86,27.17c1.44.83,2.61,3.07,2.61,4.99v34.53c0,1.92-1.17,2.81-2.61,1.97Z"/><path class="cls-2" d="m445.24,219.3c-.42,0-.86-.13-1.31-.39h0s-46.86-27.17-46.86-27.17c-1.61-.93-2.88-3.33-2.88-5.45v-34.53c0-1.21.43-2.15,1.17-2.58.65-.37,1.44-.32,2.24.14l46.86,27.17c1.61.93,2.88,3.33,2.88,5.45v34.53c0,1.21-.43,2.15-1.17,2.57-.29.17-.6.25-.94.25Zm-.77-1.31c.32.19.79.36,1.18.14.4-.23.64-.85.64-1.65v-34.53c0-1.72-1.07-3.79-2.35-4.53l-46.86-27.17c-.32-.19-.79-.36-1.17-.14-.4.23-.64.85-.64,1.65v34.53c0,1.72,1.07,3.79,2.35,4.53l46.86,27.17h0Z"/></g><rect class="cls-7" x="445.85" y="178.08" width="2.31" height=".62" transform="translate(-26.75 263.21) rotate(-31.91)"/><rect class="cls-7" x="398.56" y="149.78" width="2.31" height=".62" transform="translate(-18.95 233.89) rotate(-31.9)"/><rect class="cls-7" x="446.83" y="214.58" width="2.31" height=".62" transform="translate(-45.88 269.33) rotate(-31.92)"/></g><g><g><g><path class="cls-7" d="m411.99,173.1l23.01,13.28c.77.44,1.39-.03,1.39-1.05h0c0-1.03-.62-2.22-1.39-2.66l-23.01-13.28c-.77-.44-1.39.03-1.39,1.05h0c0,1.03.62,2.22,1.39,2.66Z"/><path class="cls-1" d="m435.56,186.96c-.24,0-.5-.07-.76-.22l-23.01-13.28c-.9-.52-1.6-1.84-1.6-3.02,0-.69.25-1.23.69-1.48.39-.22.86-.2,1.32.07l23.01,13.28c.9.52,1.6,1.84,1.6,3.02,0,.69-.25,1.23-.69,1.48-.17.1-.36.15-.56.15Zm-24.12-17.34c-.05,0-.11.01-.15.04-.17.1-.28.39-.28.77,0,.88.55,1.94,1.19,2.31l23.01,13.28c.12.07.34.17.5.07.17-.1.28-.39.28-.77,0-.88-.54-1.94-1.19-2.31l-23.01-13.28c-.08-.05-.22-.11-.35-.11Z"/></g><g><path class="cls-7" d="m404.48,167.02c0,1.05.73,2.32,1.64,2.84s1.64.1,1.64-.95-.73-2.32-1.64-2.84-1.64-.1-1.64.95Z"/><path class="cls-1" d="m406.85,170.5c-.3,0-.62-.09-.94-.28-1.04-.6-1.85-2-1.85-3.2,0-.66.24-1.16.69-1.42.44-.26,1-.21,1.57.11,1.04.6,1.85,2,1.85,3.2,0,.66-.24,1.16-.69,1.42-.19.11-.41.17-.63.17Zm-1.47-4.24c-.08,0-.16.02-.22.05-.18.1-.28.36-.28.71,0,.9.66,2.04,1.44,2.49.3.17.57.22.75.12.17-.1.27-.36.27-.71,0-.9-.66-2.04-1.44-2.49-.19-.11-.38-.17-.53-.17Z"/></g></g><g><g><path class="cls-1" d="m411.99,181.26l23.01,13.28c.77.44,1.39-.03,1.39-1.05h0c0-1.03-.62-2.22-1.39-2.66l-23.01-13.28c-.77-.44-1.39.03-1.39,1.05h0c0,1.03.62,2.22,1.39,2.66Z"/><path class="cls-1" d="m435.56,195.13c-.24,0-.5-.07-.76-.22l-23.01-13.28c-.9-.52-1.6-1.85-1.6-3.02,0-.69.25-1.23.69-1.48.39-.22.86-.2,1.32.07l23.01,13.28c.9.52,1.6,1.84,1.6,3.02,0,.69-.25,1.23-.69,1.48-.17.1-.36.15-.56.15Zm-23.36-14.22l23.01,13.28c.12.07.34.17.5.07.17-.1.28-.39.28-.77,0-.88-.54-1.94-1.19-2.31l-23.01-13.28c-.12-.07-.34-.17-.5-.07-.17.1-.28.39-.28.77,0,.88.55,1.94,1.19,2.31h0Z"/></g><g><path class="cls-1" d="m404.48,175.18c0,1.05.73,2.32,1.64,2.84.91.52,1.64.1,1.64-.95s-.73-2.32-1.64-2.84-1.64-.1-1.64.95Z"/><path class="cls-1" d="m406.85,178.66c-.3,0-.62-.09-.94-.28-1.04-.6-1.85-2-1.85-3.2,0-.66.24-1.16.69-1.42.44-.25,1-.21,1.57.12,1.04.6,1.85,2,1.85,3.2,0,.66-.24,1.16-.69,1.42-.19.11-.41.17-.63.17Zm-1.47-4.24c-.08,0-.16.02-.22.05-.18.1-.28.36-.28.71,0,.9.66,2.04,1.44,2.49.3.17.57.22.75.12.17-.1.27-.36.27-.71,0-.9-.66-2.04-1.44-2.49-.19-.11-.38-.17-.53-.17Z"/></g></g><g><g><path class="cls-7" d="m411.99,189.42l23.01,13.28c.77.44,1.39-.03,1.39-1.05h0c0-1.03-.62-2.22-1.39-2.66l-23.01-13.28c-.77-.44-1.39.03-1.39,1.05h0c0,1.03.62,2.22,1.39,2.66Z"/><path class="cls-1" d="m435.56,203.28c-.24,0-.5-.07-.76-.22l-23.01-13.28c-.9-.52-1.6-1.84-1.6-3.02,0-.69.25-1.23.69-1.48.39-.22.86-.2,1.32.07l23.01,13.28c.9.52,1.6,1.84,1.6,3.02,0,.69-.25,1.23-.69,1.48-.17.1-.36.15-.56.15Zm-24.12-17.34c-.05,0-.11.01-.15.04-.17.1-.28.39-.28.77,0,.88.55,1.94,1.19,2.31l23.01,13.28c.12.07.34.17.5.07.17-.1.28-.39.28-.77,0-.88-.54-1.94-1.19-2.31l-23.01-13.28c-.08-.05-.22-.11-.35-.11Z"/></g><g><path class="cls-7" d="m404.48,183.34c0,1.05.73,2.32,1.64,2.84.91.52,1.64.1,1.64-.95s-.73-2.32-1.64-2.84-1.64-.1-1.64.95Z"/><path class="cls-1" d="m406.85,186.82c-.3,0-.62-.09-.94-.28-1.04-.6-1.85-2-1.85-3.2,0-.66.24-1.16.69-1.42.44-.26,1-.21,1.57.11,1.04.6,1.85,2,1.85,3.2,0,.66-.24,1.16-.69,1.42-.19.11-.41.17-.63.17Zm-1.47-4.24c-.08,0-.16.02-.22.05-.18.1-.28.36-.28.71,0,.9.66,2.04,1.44,2.49.3.17.58.22.75.12.17-.1.27-.36.27-.71,0-.9-.66-2.04-1.44-2.49-.19-.11-.38-.17-.53-.17Z"/></g></g></g></g><g><g><g><path class="cls-2" d="m409.77,368.75l-57.08-35.51c-1.68-.97-3.04-3.57-3.04-5.81l-2.36-87.6c0-2.24,3.72-3.61,5.39-2.64l59.16,34.16c1.68.97,3.04,3.57,3.04,5.81v87.95c0,2.24-3.44,4.62-5.12,3.65Z"/><path class="cls-2" d="m410.68,369.6c-.45,0-.86-.1-1.22-.31h-.02s-57.08-35.52-57.08-35.52c-1.86-1.07-3.33-3.86-3.33-6.33l-2.36-87.59c0-1.11.69-2.14,1.9-2.84,1.49-.86,3.31-1.01,4.42-.36l59.16,34.16c1.88,1.08,3.35,3.87,3.35,6.34v87.95c0,1.59-1.34,3.07-2.66,3.83-.76.44-1.5.66-2.17.66Zm-.59-1.38c.48.27,1.29.13,2.14-.36,1.2-.69,2.04-1.83,2.04-2.76v-87.95c0-2-1.25-4.41-2.73-5.27l-59.16-34.16c-.72-.41-2.11-.26-3.18.36-.39.22-1.28.84-1.28,1.74l2.36,87.59c0,2.02,1.25,4.43,2.73,5.29l57.09,35.51Z"/></g><g><path class="cls-7" d="m409.42,368.58l-59.16-34.16c-1.68-.97-3.04-3.57-3.04-5.81v-87.95c0-2.24,1.36-3.27,3.04-2.3l59.16,34.16c1.68.97,3.04,3.57,3.04,5.81v87.95c0,2.24-1.36,3.27-3.04,2.3Z"/><path class="cls-2" d="m410.63,369.56c-.49,0-1-.15-1.52-.45l-59.16-34.16c-1.88-1.08-3.35-3.87-3.35-6.34v-87.95c0-1.4.5-2.5,1.36-2.99.75-.44,1.68-.38,2.61.16l59.16,34.16c1.88,1.08,3.35,3.87,3.35,6.34v87.95c0,1.4-.5,2.5-1.36,2.99-.33.19-.7.29-1.09.29Zm-.9-1.52c.37.22.91.42,1.37.16.46-.27.74-.98.74-1.92v-87.95c0-2-1.25-4.41-2.73-5.27l-59.16-34.16c-.37-.22-.92-.42-1.37-.16-.46.27-.74.98-.74,1.92v87.95c0,2,1.25,4.41,2.73,5.27l59.16,34.16Z"/></g><rect class="cls-7" x="411.34" y="273.83" width="2.69" height=".72" transform="translate(-82.57 259.63) rotate(-31.92)"/><polygon class="cls-7" points="415.38 323.62 414.66 323.61 414.68 311.14 415.4 311.15 415.38 323.62"/><rect class="cls-7" x="351.67" y="238.36" width="2.69" height=".72" transform="translate(-72.83 222.66) rotate(-31.91)"/><rect class="cls-7" x="412.48" y="364.06" width="2.69" height=".72" transform="translate(-130.1 273.87) rotate(-31.92)"/></g><g><g><path class="cls-1" d="m360.14,313.49l.79,2.31c.07.22.22.42.38.55l1.77,1.32c.42.31.59,1,.28,1.17l-1.28.7c-.12.07-.18.23-.15.44l.3,2.21c.07.52-.37.64-.74.19l-1.58-1.87c-.15-.18-.33-.28-.48-.27l-1.58.05c-.38.01-.81-.61-.74-1.05l.3-1.86c.03-.18-.03-.4-.15-.61l-1.28-2.18c-.3-.52-.14-1.02.28-.84l1.77.72c.17.07.31.03.38-.1l.79-1.39c.19-.33.73-.02.92.53Z"/><path class="cls-1" d="m361.97,322.88c-.22,0-.45-.13-.65-.36l-1.58-1.87c-.11-.13-.23-.19-.29-.19l-1.58.05c-.25.01-.45-.11-.65-.34-.26-.29-.39-.68-.34-.99l.3-1.86c.02-.12-.03-.29-.12-.45l-1.28-2.18c-.23-.4-.25-.83-.04-1.07.15-.17.38-.21.62-.12l1.77.72c.07.03.08,0,.09,0l.79-1.39c.1-.18.29-.28.49-.25.35.03.71.38.86.82l.79,2.31c.06.17.17.34.3.43l1.77,1.32c.33.25.56.71.53,1.09-.01.22-.11.39-.28.48l-1.28.7s-.04.07-.02.2l.3,2.21c.04.33-.07.59-.3.7-.07.03-.14.04-.21.04Zm-2.51-2.9c.22,0,.46.13.65.36l1.58,1.87c.15.17.27.2.3.19.01,0,.04-.06.02-.2l-.3-2.21c-.04-.31.06-.56.27-.68l1.28-.7s.03-.03.03-.09c.01-.19-.11-.51-.34-.68l-1.77-1.32c-.21-.15-.38-.39-.47-.66l-.79-2.31c-.09-.25-.26-.42-.39-.48-.05-.03-.08-.02-.09-.02l-.8,1.41c-.13.24-.4.32-.68.2l-1.77-.72s-.07-.02-.08-.02c-.04.02-.08.23.09.52l1.28,2.18c.15.26.21.54.18.77l-.3,1.86c-.03.17.07.42.22.6.12.13.22.19.27.17l1.58-.05h.02Z"/></g><g><path class="cls-1" d="m370.22,319.31l.79,2.31c.07.22.22.42.38.55l1.77,1.32c.42.31.59,1,.28,1.17l-1.28.7c-.12.07-.18.23-.15.44l.3,2.21c.07.52-.37.64-.74.19l-1.58-1.87c-.15-.18-.33-.28-.48-.27l-1.58.05c-.38.01-.81-.61-.74-1.05l.3-1.86c.03-.18-.03-.4-.15-.61l-1.28-2.18c-.3-.52-.14-1.02.28-.84l1.77.72c.17.07.31.03.38-.1l.79-1.39c.19-.33.73-.02.92.53Z"/><path class="cls-1" d="m372.05,328.7c-.22,0-.45-.13-.65-.36l-1.58-1.87c-.11-.13-.21-.19-.29-.19l-1.58.05c-.25.01-.45-.11-.65-.34-.26-.29-.39-.68-.34-.99l.3-1.86c.02-.12-.03-.29-.12-.45l-1.28-2.18c-.23-.4-.25-.83-.04-1.07.15-.17.38-.21.62-.12l1.77.72c.07.03.08,0,.09,0l.79-1.39c.1-.18.29-.27.49-.25.35.03.71.38.86.82h0s.79,2.31.79,2.31c.06.17.17.34.3.43l1.77,1.32c.34.25.56.71.53,1.09-.01.22-.11.39-.28.48l-1.28.7s-.04.07-.03.2l.3,2.21c.04.33-.07.59-.3.7-.07.03-.14.04-.21.04Zm-2.51-2.9c.22,0,.46.13.65.36l1.58,1.87c.15.18.27.2.3.19.01,0,.04-.06.02-.2l-.3-2.21c-.04-.31.06-.56.27-.68l1.28-.7s.03-.04.03-.09c.01-.19-.11-.51-.34-.68l-1.77-1.32c-.21-.15-.38-.39-.47-.66l-.79-2.31c-.09-.25-.26-.42-.39-.48-.05-.02-.08-.02-.09-.02l-.8,1.41c-.14.24-.4.32-.68.2l-1.77-.72c-.05-.02-.07-.02-.08-.02-.04.02-.08.23.09.52l1.28,2.18c.15.26.21.53.18.77l-.3,1.86c-.03.17.07.42.22.6.12.13.21.17.27.17l1.58-.05h.02Z"/></g><g><path class="cls-1" d="m380.3,325.12l.79,2.31c.07.22.22.42.38.55l1.77,1.32c.42.31.59,1,.28,1.17l-1.28.7c-.12.07-.18.23-.15.44l.3,2.21c.07.52-.37.64-.74.19l-1.58-1.87c-.15-.18-.33-.28-.48-.27l-1.58.05c-.38.01-.81-.61-.74-1.05l.3-1.86c.03-.18-.03-.4-.15-.61l-1.28-2.18c-.3-.52-.14-1.02.28-.84l1.77.72c.17.07.31.03.38-.1l.79-1.39c.19-.33.73-.02.92.53Z"/><path class="cls-1" d="m382.12,334.52c-.22,0-.45-.13-.65-.36l-1.58-1.87c-.11-.13-.22-.19-.28-.19h0l-1.58.05c-.25,0-.45-.11-.65-.34-.26-.29-.39-.68-.34-.99l.3-1.86c.02-.12-.03-.29-.12-.45l-1.28-2.18c-.23-.4-.25-.83-.04-1.07.15-.17.38-.22.62-.12l1.77.72c.07.03.08,0,.09,0l.79-1.39c.1-.18.28-.27.49-.25.35.03.71.38.86.82l.79,2.31c.06.17.17.34.3.43l1.77,1.32c.34.25.56.71.53,1.09-.01.22-.11.39-.28.48l-1.28.7s-.04.07-.03.2l.3,2.21c.04.33-.07.59-.3.7-.07.03-.14.04-.21.04Zm-2.51-2.9c.22,0,.46.13.65.36l1.58,1.87c.15.18.27.2.3.19.01,0,.04-.06.02-.2l-.3-2.21c-.04-.31.06-.56.27-.68l1.28-.7s.03-.04.03-.09c.01-.19-.11-.51-.34-.68l-1.77-1.32c-.2-.15-.38-.4-.47-.66l-.79-2.31c-.09-.25-.26-.42-.39-.48-.05-.02-.08-.02-.09-.02l-.8,1.41c-.14.24-.4.32-.68.2l-1.77-.72s-.07-.02-.08-.02c-.04.02-.08.23.09.52l1.28,2.18c.15.26.21.53.18.77l-.3,1.86c-.03.17.07.42.22.6.12.13.22.18.27.18l1.58-.05h.02Z"/></g><path class="cls-3" d="m392.2,340.34c-.22,0-.45-.13-.65-.36l-1.58-1.87c-.11-.13-.22-.19-.28-.19h0l-1.58.05h-.02c-.21,0-.44-.12-.63-.34-.26-.29-.39-.68-.34-.99l.3-1.86c.02-.12-.03-.29-.12-.45l-1.28-2.18c-.23-.4-.25-.83-.04-1.07.15-.17.38-.22.62-.12l1.77.72c.07.03.08,0,.09,0l.79-1.39c.1-.18.28-.28.49-.25.35.03.71.38.86.82l.79,2.31c.06.17.17.34.3.43l1.77,1.32c.33.25.56.71.53,1.09-.02.22-.11.39-.28.48l-1.28.7s-.04.07-.03.2l.3,2.21c.04.33-.07.59-.3.7-.07.03-.14.04-.21.04Zm-2.51-2.9c.22,0,.46.13.65.36l1.58,1.87c.15.17.28.2.3.19.01,0,.04-.06.02-.2l-.3-2.21c-.04-.31.06-.56.27-.68l1.28-.7s.03-.03.03-.09c.01-.19-.11-.51-.34-.68l-1.77-1.32c-.2-.15-.38-.4-.47-.66l-.79-2.31c-.09-.25-.26-.42-.39-.48-.06-.03-.08-.02-.09-.02l-.8,1.41c-.14.24-.4.32-.68.2l-1.77-.72s-.07-.02-.08-.02c-.04.02-.08.23.09.52l1.28,2.18c.15.26.22.53.18.77l-.3,1.86c-.03.17.07.42.23.6.11.13.22.17.27.17l1.58-.05h.02Z"/><path class="cls-3" d="m402.28,346.16c-.22,0-.45-.13-.65-.36l-1.58-1.87c-.11-.13-.22-.18-.29-.19l-1.58.05h-.02c-.22,0-.44-.12-.63-.34-.26-.29-.39-.68-.34-.99l.3-1.86c.02-.12-.03-.29-.12-.45l-1.28-2.18c-.23-.4-.25-.83-.04-1.07.15-.17.38-.22.62-.12l1.77.72c.07.03.08.01.09,0l.79-1.39c.1-.18.28-.27.49-.25.35.03.71.38.86.82l.79,2.31c.06.17.17.34.3.43l1.77,1.32c.33.25.56.71.53,1.09-.01.22-.11.39-.28.48l-1.28.7s-.04.07-.02.2l.3,2.21c.04.33-.07.59-.3.7-.07.03-.14.04-.21.04Zm-2.51-2.9c.22,0,.45.13.65.36l1.58,1.87c.15.17.28.2.3.19.01,0,.04-.06.03-.2l-.3-2.21c-.04-.31.06-.56.27-.68l1.28-.7s.03-.04.03-.09c.01-.19-.11-.51-.34-.68l-1.77-1.32c-.21-.15-.38-.39-.47-.66l-.79-2.31c-.09-.25-.26-.42-.39-.48-.06-.02-.08-.02-.09-.02l-.8,1.41c-.14.24-.4.32-.68.2l-1.77-.72s-.07-.02-.08-.02c-.04.02-.08.23.09.52l1.28,2.18c.15.26.21.54.18.77l-.3,1.86c-.03.17.07.42.22.6.12.13.22.19.27.17l1.58-.05h.02Z"/></g><g><path class="cls-7" d="m390.96,349.32l-22.24-12.84c-.83-.48-1.5-1.76-1.5-2.87h0c0-1.11.67-1.61,1.5-1.14l22.24,12.84c.83.48,1.5,1.76,1.5,2.87h0c0,1.11-.67,1.61-1.5,1.14Z"/><path class="cls-1" d="m391.56,349.98c-.27,0-.55-.08-.84-.25l-22.24-12.84c-.98-.56-1.74-2.01-1.74-3.28,0-.76.28-1.35.76-1.63.43-.25.94-.22,1.46.08l22.24,12.84c.98.56,1.74,2.01,1.74,3.28,0,.76-.28,1.35-.76,1.63-.19.11-.4.17-.62.17Zm-.36-1.07c.12.07.35.17.51.08.14-.08.28-.33.28-.8,0-.94-.58-2.06-1.26-2.46l-22.24-12.84c-.12-.07-.35-.17-.51-.08-.14.08-.28.33-.28.8,0,.94.58,2.06,1.26,2.46l22.24,12.84Z"/></g><g><g><path class="cls-7" d="m360.29,306.27l36.52,21.09c3.03,1.75,5.48-.11,5.48-4.14v-40.21c0-4.04-2.45-8.72-5.48-10.47l-36.52-21.09c-3.03-1.75-5.48.11-5.48,4.14v40.21c0,4.04,2.45,8.72,5.48,10.47Z"/><path class="cls-1" d="m398.99,328.49c-.76,0-1.59-.24-2.42-.72l-36.52-21.09c-3.15-1.82-5.72-6.7-5.72-10.89v-40.21c0-2.3.78-4.06,2.13-4.85,1.15-.66,2.59-.56,4.06.29l36.52,21.09c3.15,1.82,5.72,6.7,5.72,10.89v40.21c0,2.3-.78,4.06-2.13,4.85-.5.29-1.06.43-1.65.43Zm-38.46-22.63l36.52,21.09c1.16.67,2.27.78,3.11.29,1.05-.61,1.66-2.07,1.66-4.02v-40.21c0-3.88-2.35-8.39-5.24-10.06l-36.52-21.09c-1.16-.67-2.27-.77-3.11-.29-1.05.61-1.66,2.07-1.66,4.02v40.21c0,3.88,2.35,8.39,5.24,10.06Z"/></g><path class="cls-1" d="m397.54,324.6c-.47,0-.98-.15-1.48-.44l-35.49-20.49c-1.89-1.09-3.37-3.9-3.37-6.39v-39.86c0-1.39.48-2.46,1.32-2.94.72-.42,1.62-.36,2.52.17l35.49,20.49c1.89,1.09,3.37,3.9,3.37,6.39v39.86c0,1.39-.48,2.46-1.32,2.94-.32.18-.67.28-1.04.28Zm-36.49-21.76l35.49,20.49c.42.25,1.04.47,1.57.17.54-.31.84-1.08.84-2.12v-39.86c0-2.15-1.3-4.64-2.89-5.56l-35.49-20.49c-.42-.24-1.04-.47-1.57-.17-.54.31-.84,1.08-.84,2.12v39.86c0,2.15,1.3,4.64,2.89,5.56h0Z"/><g><path class="cls-7" d="m370.88,271.72l-1.52-1.79s.82-3.04,7.04.54c6.22,3.58-.89,3.17-.89,3.17l-4.63-1.92Z"/><path class="cls-1" d="m376.24,274.14c-.29,0-.55-.01-.76-.02l-.16-.04-4.74-1.96-1.76-2.07.06-.24c.09-.33.46-.98,1.28-1.32,1.44-.6,3.61-.07,6.46,1.57,2.15,1.24,3,2.15,2.75,2.97-.28.94-1.95,1.11-3.15,1.11Zm-.62-.97c1.46.07,2.75-.16,2.86-.42,0,0,.03-.52-2.31-1.87-3.18-1.83-4.79-1.84-5.59-1.53-.35.14-.55.35-.65.5l1.25,1.47,4.45,1.84Z"/></g><g><path class="cls-7" d="m381.2,303.26s8.18,2.16,13.55,19.59l-33.7-19.46s-1.2-13.39,11.49-5.83l7.37,5.12,1.29.59Z"/><path class="cls-1" d="m395.56,323.87l-34.97-20.19-.02-.25c-.02-.24-.49-5.89,2.78-7.95,2.14-1.35,5.32-.79,9.43,1.66l7.4,5.13,1.18.53c.71.21,8.59,2.86,13.84,19.89l.36,1.16Zm-34.06-20.76l32.41,18.71c-5.21-15.84-12.77-18.07-12.84-18.09l-.07-.03-1.29-.59-7.45-5.16c-3.76-2.24-6.59-2.8-8.4-1.66-2.43,1.53-2.4,5.75-2.35,6.81Z"/></g><g><g><path class="cls-7" d="m372.93,286.16c-1.04-6.9,11.05-8.71,11.05-8.71,3.61,5.9,5.2,12.63,3.95,17.37-.64,2.42-1.76,4.74-3.67,6.25,0,0-1.8-.4-3.8-2.19,0,0-.35,3.39.97,6.46,0,0,.14,3.11-4.01,1.24-4.14-1.88-5.87-7.74-5.87-7.74,0,0,2.42-5.78,1.38-12.68Z"/><path class="cls-1" d="m379.67,307.65c-.68,0-1.5-.21-2.45-.64-4.29-1.94-6.06-7.79-6.13-8.04l-.05-.16.07-.16c.02-.06,2.35-5.75,1.35-12.43h0c-.46-3.05,1.41-5.63,5.41-7.45,2.92-1.33,5.92-1.79,6.04-1.81l.31-.05.17.27c3.75,6.12,5.28,12.92,4,17.74-.77,2.92-2.07,5.11-3.84,6.51l-.18.14-.22-.05c-.07-.02-1.51-.35-3.26-1.68,0,1.19.13,3.32.97,5.29l.04.17c0,.05.05,1.31-.92,1.97-.36.24-.8.36-1.31.36Zm-7.61-8.8c.3.92,2.03,5.69,5.56,7.28,1.32.6,2.29.72,2.83.36.43-.29.5-.86.5-1.07-1.3-3.12-.98-6.46-.96-6.6l.1-.93.7.63c1.48,1.33,2.86,1.86,3.37,2.02,1.51-1.27,2.63-3.24,3.32-5.85,1.19-4.51-.23-10.89-3.73-16.72-1.84.34-11.2,2.36-10.34,8.12h0c.96,6.38-.95,11.75-1.35,12.77Z"/></g><path class="cls-1" d="m385.64,297.38l-.62-.19c-.06-.02-1.5-.48-2.15-1.87l.87-.4c.23.5.61.84.94,1.05v-2.77h.96v4.18Z"/><path class="cls-1" d="m380.12,299.21s-1.01-1.03-2.03-2.55l.79-.53c.97,1.44,1.91,2.41,1.92,2.41l-.68.67Z"/><g><path class="cls-7" d="m379.48,284.33c1.88,1.25,6.59,4.1,10.6,4.11,0,0-1.11-9.14-7.8-14.69-5.44-4.51-11.45-5.32-12.75.99-.48,2.32.16,6.11,1.2,9.1.7,2.02,1.5,4.68,1.4,6.08,0,0,.63,1.36,2.12,1.22,0,0,.57-3.11-.23-5.76,0,0-.57-2.33,1.32-1.8,1.89.53,1.43,4.77,1.43,4.77l1.14.66s1.54-1.35,1-4.25c-.09-.46.19-.69.58-.43Z"/><path class="cls-1" d="m374.02,291.63c-1.61,0-2.3-1.44-2.33-1.51l-.05-.11v-.12c.08-1.04-.41-3.13-1.37-5.89-.98-2.83-1.74-6.82-1.22-9.36.63-3.03,2.25-4.19,3.5-4.63,2.62-.92,6.37.34,10.03,3.37,6.76,5.61,7.93,14.62,7.97,15l.07.54h-.54c-4.02,0-8.66-2.74-10.67-4.06.44,3.04-1.13,4.45-1.19,4.51l-.26.23-1.71-.99.03-.31c.11-1,.14-3.92-1.08-4.26-.18-.05-.5-.11-.63.02-.22.21-.17.89-.09,1.21.82,2.7.26,5.82.24,5.96l-.07.35-.36.03c-.09,0-.18.01-.27.01Zm-1.41-1.82c.13.22.52.76,1.22.85.12-.9.32-3.17-.27-5.14-.04-.17-.34-1.48.35-2.15.25-.24.73-.48,1.56-.25,1.95.54,1.88,3.86,1.8,4.97l.54.31c.36-.47.99-1.62.63-3.56-.08-.42.05-.79.33-.98.28-.18.64-.16.98.06h0c1.72,1.15,6.01,3.76,9.77,4.01-.37-2.04-2.02-9.24-7.54-13.83-3.39-2.82-6.8-4.01-9.1-3.21-1.48.52-2.45,1.84-2.88,3.92-.49,2.35.24,6.14,1.18,8.85.99,2.85,1.47,4.91,1.43,6.13Z"/></g><path class="cls-1" d="m383.04,290.72c0,.59-.41.82-.92.53s-.92-1.01-.92-1.59.41-.82.92-.53c.51.29.92,1.01.92,1.59Z"/><path class="cls-1" d="m387.85,293.5c0,.59-.41.82-.92.53s-.92-1.01-.92-1.59.41-.82.92-.53c.51.29.92,1.01.92,1.59Z"/><path class="cls-1" d="m375.24,289.02c-1.38-.94-1.41-2.22-1.41-2.27h.96s-.48,0-.48,0h.48s.04.84,1,1.49l-.54.79Z"/><path class="cls-1" d="m375.73,286.34l-.93-.21c.01-.07.17-.71.75-1,.27-.13.72-.22,1.34.09l-.42.86c-.13-.06-.36-.15-.5-.09-.14.07-.22.28-.24.34Z"/><path class="cls-1" d="m386.46,288.02c-.64-4.47-3.48-7.64-3.51-7.67l.71-.64c.13.14,3.06,3.42,3.74,8.18l-.95.14Z"/><path class="cls-1" d="m371.32,279.77c-.81-3.54.59-4.53.75-4.63l.51.81-.25-.4.27.4s-1,.76-.34,3.62l-.93.21Z"/></g></g></g><g><g><g><path class="cls-7" d="m90.35,198.89l23.65-13.75c.24-.14.35-.33.34-.52h0s0-.02,0-.04l-.04-4.68c0-.11-.09-.2-.2-.2l-15.96-4.83s-.07,0-.1-.03l-7.49-4.23c-.58-.34-1.47-.38-1.97-.09l-16.08,9.42s-.07.03-.1.03l-7.63-.06c-.11,0-.21.09-.21.21l.03,4.7c.02.21.18.43.48.61l23.32,13.39c.58.34,1.47.38,1.97.09Z"/><path class="cls-2" d="m88.14,199.21l-23.32-13.39c-.43-.25-.68-.6-.71-1.02l-.03-4.7c0-.18.07-.36.2-.49.13-.13.3-.2.48-.2h0l7.56.06,16.01-9.38c.66-.38,1.71-.34,2.44.09l7.44,4.2,15.97,4.83c.33.05.58.33.59.67l.04,4.69c.02.39-.19.74-.57.96l-23.65,13.75h0c-.3.18-.69.26-1.09.26-.47,0-.96-.12-1.36-.35Zm25.62-14.49c.07-.04.1-.08.1-.14l-.04-4.47-15.78-4.77c-.09-.01-.17-.04-.24-.08l-7.5-4.24c-.44-.25-1.14-.29-1.49-.09l-16.08,9.42c-.1.06-.22.09-.34.09l-7.36-.06.03,4.39s.05.12.24.23l23.32,13.39c.44.25,1.13.3,1.5.09l23.65-13.75Z"/></g><g><path class="cls-2" d="m71.51,179.9s-6.7,0-6.7,0c-.15,0-.27.12-.27.27l.03,4.64c.02.21.18.43.48.61l23.23,13.33s.09,0,.09-.05l-.04-4.85s0,0,0,0h0c.59-1.54-16.82-13.93-16.82-13.93Z"/><path class="cls-2" d="m64.81,185.83c-.43-.25-.68-.6-.71-1.02l-.03-4.64c0-.2.08-.39.22-.53.14-.14.33-.2.53-.22q6.76,0,6.85.03l.12.06s4.41,3.14,8.64,6.4c8.25,6.34,8.54,7.44,8.38,7.98l.04,4.8c0,.19-.1.37-.27.47l-.3.14-23.47-13.47Zm22.97,8.08l.07-.18c-.38-1.27-8.62-7.73-16.5-13.35-.78,0-4.57,0-6.33,0l.03,4.39s.05.12.24.23l22.6,12.97-.03-3.97-.07-.09Z"/></g><g><path class="cls-1" d="m64.87,179.31l23.65-13.75c.51-.29,1.39-.25,1.97.09l23.32,13.39c.58.34.64.85.14,1.14l-23.65,13.75c-.51.29-1.39.25-1.97-.09l-23.32-13.39c-.58-.34-.64-.85-.14-1.14Z"/><path class="cls-2" d="m88.09,194.25l-23.32-13.39c-.46-.27-.72-.65-.72-1.06,0-.36.21-.69.58-.9l23.65-13.75c.66-.38,1.71-.34,2.45.09l23.32,13.39c.46.27.72.65.72,1.06,0,.36-.21.69-.58.9l-23.65,13.76c-.3.17-.69.26-1.09.26-.47,0-.96-.12-1.36-.35Zm.67-28.28l-23.65,13.75h0c-.07.04-.1.08-.1.08,0,.02.05.12.24.23l23.32,13.39c.44.25,1.13.3,1.49.09l23.65-13.76c.07-.04.1-.08.1-.08,0-.02-.05-.12-.24-.23l-23.32-13.39c-.25-.14-.58-.22-.89-.22-.23,0-.45.04-.6.13Z"/></g></g><rect class="cls-2" x="110.64" y="181.92" width=".95" height="4.83" transform="translate(-5.5 3.43) rotate(-1.72)"/><rect class="cls-7" x="68.47" y="183.09" width=".73" height="4.21" transform="translate(-2.88 1.1) rotate(-.89)"/></g><g><g><g><path class="cls-7" d="m86.56,177.66l15.21-8.83c.24-.14.35-.33.34-.52h0s0-.02,0-.04l-.04-4.68c0-.11-.09-.2-.2-.2l-7.67-.06s-.07,0-.1-.03l-7.49-4.23c-.58-.34-1.47-.38-1.97-.09l-7.64,4.49s-.07.03-.1.03l-7.63-.06c-.11,0-.21.09-.21.21l.03,4.7c.02.21.18.43.48.61l15.03,8.62c.58.34,1.47.38,1.97.09Z"/><path class="cls-2" d="m84.35,177.98l-15.03-8.62c-.43-.25-.68-.6-.71-1.02l-.03-4.7c0-.18.07-.36.2-.49.13-.13.3-.2.48-.2h0l7.56.06,7.57-4.46c.66-.38,1.71-.34,2.44.09l7.43,4.2,7.6.06c.37,0,.67.3.68.67l.04,4.69c.02.39-.19.74-.57.96l-15.21,8.83h0c-.3.18-.69.26-1.09.26-.47,0-.96-.12-1.36-.35Zm17.18-9.57c.07-.04.1-.08.1-.14l-.04-4.41-7.41-.06c-.12,0-.23-.03-.33-.09l-7.5-4.24c-.44-.25-1.14-.29-1.49-.09l-7.64,4.5c-.1.06-.22.09-.34.09l-7.36-.06.03,4.39s.05.12.24.23l15.03,8.62c.44.25,1.13.29,1.5.09l15.21-8.83Z"/></g><g><path class="cls-2" d="m76.01,163.44s-6.7,0-6.7,0c-.15,0-.27.12-.27.27l.03,4.64c.02.21.18.43.48.61l14.94,8.57s.09,0,.09-.05l-.04-4.85s0,0,0,0h0c.59-1.54-8.53-9.16-8.53-9.16Z"/><path class="cls-2" d="m69.31,169.36c-.43-.25-.68-.6-.71-1.02l-.03-4.64c0-.2.08-.39.22-.53.14-.14.34-.23.52-.22q6.76,0,6.85.03l.15.09c3.4,2.84,8.95,7.79,8.7,9.55l.04,4.84c0,.19-.1.37-.27.47l-.3.14-15.18-8.71Zm14.69,3.3l.08-.22c.11-.9-4.17-5.11-8.25-8.54-.82,0-4.56,0-6.31,0l.03,4.39s.05.12.24.23l14.31,8.21-.03-3.99-.06-.09Z"/></g><g><path class="cls-1" d="m69.37,162.84l15.21-8.83c.51-.29,1.39-.25,1.97.09l15.03,8.62c.58.34.64.85.14,1.14l-15.21,8.83c-.51.29-1.39.25-1.97-.09l-15.03-8.62c-.58-.34-.64-.85-.14-1.14Z"/><path class="cls-2" d="m84.3,173.02l-15.03-8.62c-.46-.27-.72-.65-.72-1.06,0-.36.21-.69.58-.9l15.21-8.83c.66-.38,1.71-.34,2.45.09l15.03,8.62c.46.27.72.65.72,1.06,0,.36-.21.69-.58.9l-15.21,8.83c-.3.17-.69.26-1.09.26-.47,0-.96-.12-1.36-.35Zm.52-18.59l-15.21,8.83h0c-.07.04-.1.08-.1.08,0,.02.05.12.24.23l15.03,8.62c.44.25,1.14.29,1.5.09l15.21-8.83c.07-.04.1-.08.1-.08,0-.02-.05-.12-.24-.23l-15.03-8.62c-.25-.14-.58-.22-.89-.22-.23,0-.45.04-.61.13Z"/></g></g><rect class="cls-2" x="98.41" y="165.61" width=".95" height="4.83" transform="translate(-5.01 3.05) rotate(-1.72)"/><rect class="cls-7" x="72.97" y="166.63" width=".73" height="4.21" transform="translate(-2.62 1.17) rotate(-.89)"/></g><g><g><g><path class="cls-7" d="m124.35,237.95h0l.2-11.57h95.49s-.13,11.27-.13,11.27c.03.29,0,0-.04.29h0s0,0,0,0c-.22,1.67-1.53,3.39-3.9,4.75l-35.63,20.57c-4.76,2.75-11.95,3.04-16.07.67l-37.18-21.47c-2.07-1.19-2.97-2.84-2.75-4.52Z"/><path class="cls-6" d="m163.86,264.65l-37.18-21.47c-2.26-1.3-3.41-3.23-3.16-5.3l.11-10.73,97.24-1.61-.14,12.01c.02.15.04.35-.05.55-.29,1.98-1.81,3.86-4.3,5.3l-35.63,20.57c-2.71,1.57-6.19,2.37-9.51,2.37-2.77,0-5.41-.56-7.39-1.7Zm55.34-37.45h-93.84s-.19,10.76-.19,10.76v.09c-.19,1.41.64,2.73,2.34,3.7l37.18,21.47c3.89,2.25,10.73,1.95,15.25-.67l35.63-20.57c2.03-1.17,3.31-2.68,3.5-4.15,0-.06.02-.12.03-.17l.12-10.47Z"/></g><g><path class="cls-7" d="m127.24,231.19l37.18,21.47c4.12,2.38,11.31,2.08,16.07-.67l35.63-20.57c4.76-2.75,5.27-6.9,1.15-9.28l-37.18-21.47c-4.12-2.38-11.31-2.08-16.07.67l-35.63,20.57c-4.76,2.75-5.27,6.9-1.15,9.28Z"/><path class="cls-1" d="m128.39,221.43l35.63-20.57c4.76-2.75,11.95-3.04,16.07-.67l37.18,21.47c.84.49,1.48,1.05,1.94,1.66v4.9c-.66.97-1.69,1.91-3.09,2.72l-35.63,20.57c-4.76,2.75-11.95,3.04-16.07.67l-37.18-21.47c-4.12-2.38-3.6-6.53,1.15-9.28Z"/><path class="cls-6" d="m164,253.37l-37.18-21.46c-2.06-1.19-3.19-2.87-3.19-4.74,0-2.19,1.59-4.37,4.35-5.96l35.63-20.57c4.98-2.87,12.55-3.17,16.9-.67l37.18,21.47c2.06,1.19,3.19,2.87,3.19,4.74,0,2.19-1.58,4.37-4.35,5.96l-35.63,20.57c-2.71,1.57-6.19,2.37-9.51,2.37-2.77,0-5.41-.56-7.39-1.7Zm.43-51.31l-35.63,20.57c-2.24,1.29-3.52,2.95-3.52,4.54,0,1.26.84,2.43,2.37,3.32l37.18,21.46c3.88,2.24,10.73,1.95,15.25-.67l35.63-20.57c2.24-1.29,3.52-2.95,3.52-4.53,0-1.26-.84-2.43-2.37-3.32l-37.18-21.47c-1.75-1.01-4.1-1.5-6.57-1.5-3.01,0-6.2.74-8.68,2.17Z"/></g><g><g><path class="cls-8" d="m176.36,225.52l-1.96-13.84s.11.05.15.07l25.59,14.77c.23.13.43.27.61.42l-24.39-1.43Z"/><path class="cls-6" d="m174.97,225.5l-2.05-14.51-.13-1.43,1.36.6,25.75,14.85c.27.16.51.33.72.5l1.95,1.61-27.59-1.62Zm1.44-1.57l20.38,1.2-22.01-12.71,1.63,11.51Z"/></g><g><path class="cls-8" d="m171.07,228.5l29.68,1.74c-.12.09-.22.18-.36.26l-20.63,11.91c-1.83,1.06-4.92.99-6.89-.15l-25.59-14.77c-1.97-1.14-2.08-2.92-.25-3.98l20.63-11.91c.29-.17.62-.3.96-.41l2.45,17.3Z"/><path class="cls-6" d="m171.8,242.18l-25.59-14.77c-1.25-.72-1.97-1.76-1.97-2.84s.61-1.93,1.72-2.57l20.63-11.91c.31-.18.66-.33,1.12-.48l.93-.3,2.49,17.61,29.01,1.7,2.1.19-1.73,1.34c-.11.09-.23.18-.37.26l-20.63,11.91c-1,.58-2.3.86-3.63.86-1.44,0-2.92-.34-4.08-1.01Zm-2.12-13.7l-2.39-16.9-20.51,11.84c-.58.33-.89.74-.89,1.14,0,.47.43.99,1.14,1.41l25.59,14.77c1.71.99,4.49,1.06,6.06.15l18.69-10.79-27.69-1.62Z"/></g></g></g><polygon class="cls-6" points="171.64 254.26 171.64 265.89 167.67 265.54 162.72 263.32 125.14 241.54 124.35 237.95 123.87 228.61 166.17 253.45 170.86 254.26 171.64 254.26"/></g><g><path class="cls-1" d="m315.65,88.24c-.65-.37-1.2-.82-1.65-1.36-.45-.54-.81-1.13-1.09-1.77-.28-.64-.48-1.29-.6-1.98-.12-.68-.19-1.34-.19-1.98,0-.36.02-.7.06-1.04.04-.34.09-.66.15-.97.06-.31.13-.6.22-.87.08-.27.17-.51.26-.71l1.85,2.53c-.12.28-.22.62-.31,1.02-.09.41-.14.84-.14,1.29,0,.25.02.5.06.76.04.25.1.49.2.72.1.23.23.44.41.65.17.2.4.39.68.56.02,0,.03,0,.05.02l.05.03.88.5c-.11-.43-.18-.85-.23-1.26-.04-.41-.07-.83-.07-1.24,0-.69.07-1.33.22-1.9.15-.57.36-1.02.65-1.36.29-.34.64-.54,1.07-.59.42-.05.92.09,1.47.42l2.16,1.29c.18.11.35.26.5.45.16.2.29.41.41.65.11.24.21.5.27.77.07.27.1.54.1.79v5.72l1.24.71v3.03l-8.68-4.86Zm2.79-2.78c.09.41.23.79.43,1.14.2.35.45.62.77.8l1.36.77v-4.61l-1.36-.8c-.23-.14-.43-.18-.59-.14-.17.04-.3.14-.41.3-.11.16-.19.37-.24.61-.05.25-.08.51-.08.79,0,.36.04.73.13,1.13Zm.21-9.33c0-.23.03-.43.08-.6.06-.17.13-.29.24-.38.1-.09.22-.13.35-.13.14,0,.28.05.43.14s.3.23.44.39c.13.16.25.35.35.56.1.21.18.43.24.67.06.23.09.47.09.7s-.03.41-.09.58c-.06.16-.14.29-.24.37-.1.09-.22.13-.35.13-.13,0-.28-.05-.44-.14s-.3-.22-.43-.38c-.13-.16-.25-.35-.35-.56-.1-.21-.18-.43-.24-.66-.06-.23-.08-.46-.08-.69Z"/><path class="cls-1" d="m324.17,89.99l2.31,1.32v-4.98l2.08,1.22v6.3s0,.05,0,.08v.06c0,.21-.03.39-.08.54-.06.15-.13.26-.23.35-.1.08-.21.13-.33.13-.13,0-.26-.03-.41-.11l-3.35-1.88v-3.03Zm1.39-6.74c-.03-.13-.06-.27-.08-.42-.02-.14-.03-.28-.03-.42,0-.27.04-.51.11-.73.07-.22.17-.39.31-.51.13-.12.3-.18.5-.19.2,0,.43.07.7.23l1.44.87v1.36l-1.44-.87c-.24-.14-.41-.16-.51-.05-.1.11-.16.26-.16.45s.05.4.14.61c.1.21.25.39.46.53l1.63.97v1.36l-3.56-2.1v-1.38l.49.29Z"/><path class="cls-1" d="m333.78,98.4l-2.66-1.49c-.15-.08-.28-.2-.41-.34-.13-.15-.24-.31-.33-.5-.1-.19-.17-.39-.23-.6-.06-.21-.08-.42-.08-.63,0-.02,0-.03,0-.05,0-.02,0-.04.01-.08v-12.91l2.08,1.27v11.48l1.62.92v2.93Z"/><path class="cls-1" d="m337.1,91.5c.24-.27.55-.42.95-.45.4-.02.84.11,1.34.41l3.23,1.97c.14.08.27.2.4.35.13.15.24.32.33.5.1.18.17.37.22.58.05.2.08.4.08.59v6.96c0,.21-.02.39-.07.55-.05.16-.12.28-.21.37-.09.09-.2.13-.33.14-.13,0-.27-.03-.43-.12l-9.01-5.04v-2.93l1.4.8v-11.36l2.08,1.27v5.42Zm2.25,2.8c-.28-.16-.55-.27-.82-.33-.27-.05-.5-.04-.7.04-.21.08-.37.24-.5.46-.13.22-.2.53-.22.93v1.96l4.46,2.55v-4.28c-.76-.46-1.31-.79-1.66-1-.35-.21-.53-.32-.56-.33Zm-1.24-6.38c0-.22.03-.4.08-.55.06-.15.13-.27.24-.34.1-.08.22-.11.35-.11.13,0,.28.05.43.15s.3.22.44.38c.13.16.25.34.35.54.1.2.18.41.24.63.06.22.09.44.09.65s-.03.39-.09.54c-.06.15-.14.26-.24.34-.1.08-.22.11-.35.11-.14,0-.28-.05-.44-.15s-.3-.22-.43-.37c-.13-.16-.25-.34-.35-.54-.1-.2-.18-.41-.24-.63-.06-.22-.08-.44-.08-.64Z"/><path class="cls-1" d="m350.42,98.03c.18.11.35.25.5.43.15.18.29.38.41.6.12.22.21.45.27.7.07.25.1.49.1.72,0,.17,0,.41,0,.71,0,.3,0,.63,0,.99s0,.73,0,1.11c0,.39,0,.74,0,1.07,0,.33,0,.62-.02.87,0,.25-.02.42-.03.51-.04,1.53-.18,2.74-.43,3.63-.25.89-.58,1.52-1.02,1.89-.43.37-.95.52-1.56.44-.61-.08-1.29-.32-2.05-.73v-2.8c.84.46,1.49.61,1.95.43.46-.17.74-.67.85-1.49-.28-.1-.59-.23-.93-.38-.34-.15-.69-.35-1.04-.61-.35-.25-.69-.57-1.03-.94-.33-.37-.62-.83-.88-1.38-.25-.54-.45-1.18-.59-1.92-.14-.74-.19-1.59-.16-2.56,0-.64.09-1.2.27-1.66.18-.46.43-.81.74-1.05.31-.24.68-.35,1.1-.35.42,0,.87.15,1.35.44l2.19,1.3Zm-.78,2.3c-.24-.14-.47-.28-.7-.42-.23-.14-.46-.28-.7-.42-.19-.11-.36-.16-.53-.16-.17,0-.31.05-.44.15-.13.1-.23.23-.3.42-.07.18-.11.4-.11.65-.02.52-.02.97.02,1.34.04.37.11.69.22.96.11.27.26.51.46.7.19.2.43.39.71.57.3.17.55.28.73.35.19.07.33.07.43.01.1-.06.16-.19.2-.39.03-.2.05-.49.05-.86l-.04-2.92Z"/></g><g><path class="cls-1" d="m447.76,138.8l-37.06-22.27c-1.62-1.09-4.56-4.05-4.97-8v-.31s.18-14.72.18-14.72l3.65,2.16-.22,14.55c.18,1.16,1.2,1.98,1.51,2.21l33.32,19.96c-.23-1.48-.78-3.06-1.61-4.58-1.26-2.3-2.97-4.17-4.83-5.28l-6.56-3.91,6.33-7.56,3.04,4.04-2.72,3.24.03.02c2.8,1.66,5.49,4.6,7.39,8.06,1.86,3.42,2.81,7.02,2.67,10.15l-.15,2.26Z"/><path class="cls-1" d="m402.6,111.65l-12.84-7.72.02-4.14,9.25,5.54.03-3.07c0-.3-.18-.79-.51-1.4-.86-1.59-2.18-2.99-3.61-3.84l-1.98-1.18.03-4.14,1.99,1.18c2.44,1.45,4.72,3.91,6.26,6.74,1,1.84,1.49,3.47,1.45,4.85l-.08,7.19Z"/><path class="cls-1" d="m380.45,102.27c-.13-.08-.26-.16-.39-.24l.14-4.04c.65.43,1.53.87,1.98.61.45-.26.42-1.18.42-1.19v-.17s.01-12.25.01-12.25l3.64,2.16-.04,12.19c.03.61.02,2.81-1.4,3.67-1.04.63-2.5.38-4.36-.74Z"/></g><g><polygon class="cls-7" points="416.54 152.41 399.48 142.56 399.48 138.29 416.54 148.14 416.54 152.41"/><path class="cls-2" d="m417.17,153.51l-18.33-10.59v-5.74l18.33,10.59v5.74Zm-17.06-11.32l15.79,9.11v-2.8l-15.79-9.11v2.8Z"/></g><g><polygon class="cls-1" points="446.79 169.87 420.59 154.75 420.59 150.48 446.79 165.61 446.79 169.87"/><path class="cls-2" d="m447.43,170.98l-27.48-15.86v-5.74l27.48,15.86v5.74Zm-26.2-16.6l24.93,14.39v-2.8l-24.93-14.39v2.8Z"/></g><g><polygon class="cls-7" points="446.79 160.98 399.48 133.67 399.48 123.17 446.79 150.49 446.79 160.98"/><path class="cls-2" d="m447.43,162.09l-48.59-28.05v-11.97l48.59,28.05v11.97Zm-47.31-28.79l46.04,26.58v-9.03l-46.04-26.58v9.03Z"/></g><g><polygon class="cls-4" points="384.02 131.28 357.97 116.23 357.97 105.74 384.02 120.78 384.02 131.28"/><path class="cls-2" d="m384.66,132.38l-27.33-15.78v-11.97l27.33,15.78v11.97Zm-26.05-16.51l24.78,14.31v-9.03l-24.78-14.31v9.03Z"/></g></svg>