<?xml version="1.0" encoding="UTF-8"?><svg xmlns="http://www.w3.org/2000/svg" xmlns:xlink="http://www.w3.org/1999/xlink" viewBox="0 0 487.91 430.53"><defs><style>.cls-1{fill:#fff;}.cls-2{fill:#1a1432;}.cls-3{fill:#37b2b5;}.cls-4{isolation:isolate;}.cls-5{fill:#15110e;}.cls-6{mix-blend-mode:multiply;opacity:.8;}.cls-7{fill:#f8c01a;}.cls-8{fill:#16110f;}.cls-9{fill:url(#linear-gradient);}.cls-10{fill:#0c0f10;}.cls-11{fill:#6f4192;}</style><linearGradient id="linear-gradient" x1="53.32" y1="152.89" x2="222.87" y2="152.89" gradientUnits="userSpaceOnUse"><stop offset=".02" stop-color="#442680"/><stop offset=".29" stop-color="#3a235a"/><stop offset="1" stop-color="#25204e"/></linearGradient></defs><g class="cls-4"><g id="Layer_1"><g><rect class="cls-2" x="226.9" y="76.16" width="1.14" height="29.59"/><rect class="cls-2" x="226.33" y="154.75" width="1.14" height="10.36"/><g><g><path class="cls-2" d="m180.4,215.05l-4.08.08c-.07,0-.14-.02-.2-.05l-15.62-9.02c-.96-.55-2.41-.61-3.24-.13l-35.42,20.45s-.05.02-.07.03l-11.76,3.95c-.16.05-.27.2-.27.37v2.96c-.1.42.16.88.77,1.23l19.52,11.27c.96.55,2.41.61,3.24.13l46.98-27.13c.38-.22.55-.51.55-.82v-2.94c0-.22-.18-.4-.4-.39Z"/><path class="cls-2" d="m131.86,247.02c-.7,0-1.43-.17-2.01-.51l-19.52-11.27c-.72-.41-1.07-1.01-.96-1.6v-2.91c0-.33.21-.62.52-.73l11.76-3.95,35.43-20.45c.95-.55,2.53-.49,3.61.13l15.62,9.02,4.09-.08c.23-.03.4.07.55.22.15.15.23.34.23.55v2.94c0,.46-.26.87-.74,1.14l-46.98,27.13c-.43.25-1,.38-1.6.38Zm26.81-41.05c-.46,0-.9.09-1.21.27l-35.42,20.45s-.09.05-.14.06l-11.76,3.95-.02,3.06c-.06.26.16.57.59.82l19.52,11.27c.84.48,2.15.55,2.86.13l46.98-27.13c.17-.1.37-.26.36-.49l-.03-3.34v.37s-4.07.08-4.07.08c-.16.02-.28-.03-.4-.1l-15.62-9.02c-.47-.27-1.08-.41-1.65-.41Z"/></g><g><path class="cls-1" d="m180.25,215.96l-46.98,27.13c-.83.48-2.28.42-3.24-.13l-19.52-11.27c-.96-.55-1.06-1.39-.23-1.87l46.98-27.13c.83-.48,2.28-.42,3.24.13l19.52,11.27c.96.55,1.06,1.39.23,1.87Z"/><path class="cls-2" d="m131.86,243.79c-.7,0-1.43-.17-2.01-.51l-19.52-11.27c-.62-.36-.98-.86-.98-1.38,0-.45.27-.86.75-1.13l46.98-27.13c.95-.55,2.53-.49,3.61.13l19.52,11.27c.62.36.98.86.98,1.38,0,.45-.27.86-.75,1.14l-46.98,27.13c-.43.25-1,.37-1.6.37Zm26.81-41.05c-.46,0-.9.09-1.21.27l-46.98,27.13c-.17.1-.37.26-.37.49s.23.51.61.73l19.52,11.27c.84.48,2.15.55,2.86.13l46.98-27.13c.17-.1.37-.26.37-.49,0-.24-.23-.51-.61-.73l-19.52-11.27c-.46-.27-1.08-.41-1.65-.41Z"/></g><rect class="cls-1" x="131.57" y="243.64" width=".57" height="2.78"/><rect class="cls-7" x="111.57" y="232.54" width=".57" height="2.78"/><rect class="cls-1" x="178.42" y="216.95" width=".57" height="2.79"/></g><g><path class="cls-11" d="m222.27,44.78c.06-.08.03-.19-.05-.23l-5.3-2.94c-.28-.22-.68-.23-1.12.02L55.45,134.2c-.87.5-1.57,1.84-1.57,2.99v122.69c0,.58.18,1,.46,1.21l5.59,3.1,5.57-6.71-2.19-.96,152.48-88.03c.87-.5,1.57-1.84,1.57-2.99V51.43s4.9-6.65,4.9-6.65Z"/><path class="cls-9" d="m60.07,264.92l-6-3.33c-.51-.38-.75-.97-.75-1.71v-122.69c0-1.36.81-2.89,1.85-3.49L215.51,41.13c.63-.36,1.26-.35,1.75.02l5.23,2.9c.18.1.31.28.36.48.04.2,0,.42-.13.59l-4.79,6.5v113.88c0,1.36-.81,2.89-1.85,3.49l-151.51,87.47,1.85.81-6.35,7.65ZM216.39,42.02c-.12,0-.22.05-.31.1L55.74,134.69c-.7.4-1.28,1.55-1.28,2.5v122.69c0,.43.12.67.23.76l5.11,2.83,4.79-5.76-2.53-1.11,153.45-88.6c.7-.4,1.28-1.55,1.28-2.5V51.24s4.74-6.42,4.74-6.42l-4.9-2.72c-.08-.06-.17-.08-.25-.08Z"/></g><g><g><path class="cls-2" d="m221.4,171.61l-160.34,92.57c-.87.5-1.57-.03-1.57-1.18v-122.69c0-1.15.7-2.49,1.57-2.99L221.4,44.73c.87-.5,1.57.03,1.57,1.18v122.69c0,1.15-.7,2.49-1.57,2.99Z"/><path class="cls-2" d="m60.43,264.94c-.24,0-.47-.06-.69-.18-.52-.3-.83-.94-.83-1.76v-122.69c0-1.36.81-2.89,1.85-3.49L221.11,44.24c.56-.32,1.12-.35,1.59-.08.52.3.83.94.83,1.76v122.69c0,1.36-.81,2.89-1.85,3.49l-160.34,92.57c-.31.18-.62.27-.91.27ZM222.02,45.11c-.13,0-.27.07-.34.11L61.34,137.8c-.7.4-1.28,1.55-1.28,2.5v122.69c0,.46.14.71.26.77.14.08.37-.03.46-.08l160.34-92.57c.69-.4,1.28-1.55,1.28-2.5V45.92c0-.46-.14-.71-.26-.78-.04-.02-.08-.03-.12-.03Z"/></g><g><path class="cls-1" d="m221.17,169.32l-159.88,92.3c-.25.15-.46,0-.46-.35v-121.57c0-.34.21-.73.46-.88L221.17,46.52c.25-.15.46,0,.46.35v121.57c0,.34-.21.73-.46.88Z"/><path class="cls-2" d="m61.11,262.24c-.14,0-.28-.04-.4-.11-.28-.16-.44-.48-.44-.87v-121.57c0-.55.31-1.12.75-1.37L220.88,46.03c.29-.17.6-.18.87-.02.28.16.44.48.44.87v121.57c0,.55-.31,1.12-.74,1.37h0s-159.88,92.3-159.88,92.3c-.15.09-.31.13-.47.13ZM221.06,47.24L61.58,139.32c-.06.04-.18.23-.18.39v121.2s159.48-92.08,159.48-92.08c.06-.04.18-.23.18-.39V47.24Z"/></g><g><path class="cls-2" d="m222.97,168.76v-7.02s-163.48,94.38-163.48,94.38v7.02c0,1.07.75,1.51,1.68.97l160.11-92.44c.93-.54,1.68-1.84,1.68-2.92Z"/><path class="cls-2" d="m60.42,264.91c-.26,0-.5-.06-.72-.19-.49-.29-.78-.86-.78-1.58v-7.35s.28-.16.28-.16l164.33-94.88v8c0,1.27-.86,2.77-1.97,3.41l-160.11,92.44c-.35.2-.71.31-1.04.31Zm-.36-8.46v6.69c0,.3.08.52.21.6.13.07.36.03.62-.12l160.11-92.44c.76-.44,1.4-1.55,1.4-2.43v-6.03s-162.34,93.73-162.34,93.73Z"/></g><rect class="cls-3" x="129.28" y="212.97" width="23.9" height=".87" transform="translate(-87.82 99.28) rotate(-30.02)"/></g><rect class="cls-2" x="56.06" y="133.84" width="1.14" height="6.41" transform="translate(-90.01 115.06) rotate(-59.02)"/><rect class="cls-2" x="56.06" y="250.09" width="1.14" height="6.41" transform="translate(-189.69 171.49) rotate(-59.02)"/><path class="cls-2" d="m131.66,241.69c-.39,0-.78-.11-1.12-.32l-4.09-2.52.39-.64,4.09,2.52c.43.27.97.28,1.41.02l40.46-23.08.37.65-40.46,23.08c-.33.19-.69.28-1.06.28Z"/><path class="cls-2" d="m174.34,217.66l-.36-.65,3-1.67c.12-.07.13-.18.13-.22,0-.04-.01-.16-.13-.22l-4.18-2.45.38-.64,4.18,2.45c.31.18.5.51.5.88,0,.36-.2.69-.51.87l-3,1.67Z"/><rect class="cls-2" x="55.76" y="245.87" width="1.14" height="6.41" transform="translate(-186.2 169.16) rotate(-59.02)"/><rect class="cls-2" x="55.78" y="139.68" width="1.14" height="6.41" transform="translate(-95.16 117.65) rotate(-59.02)"/><path class="cls-2" d="m59.95,268.96l.63-1.03-6.73-4.13c-1.42-.87-2.3-2.44-2.3-4.11v-26.65s-1.21,0-1.21,0v26.65c0,2.08,1.1,4.05,2.87,5.14l6.73,4.13Z"/></g><g class="cls-6"><path class="cls-10" d="m282.74,364.57l-.84-.52.58-.95-.41-.54,2.15-1.63,1.21,1.59-2.69,2.04Zm-3.4-2.08l-2.56-1.57,1.05-1.71,2.56,1.57-1.05,1.71Zm8.48-1.77l-1.21-1.59,2.39-1.81,1.21,1.59-2.39,1.81Zm-13.6-1.37l-2.56-1.57,1.04-1.71,2.56,1.57-1.04,1.71Zm18.38-2.25l-1.21-1.59,2.39-1.81,1.21,1.59-2.39,1.81Zm-23.49-.89l-2.56-1.57,1.05-1.7,2.56,1.57-1.05,1.7Zm28.28-2.74l-1.21-1.59,2.39-1.81,1.21,1.59-2.39,1.81Zm-33.39-.4l-2.56-1.57,1.05-1.7,2.56,1.57-1.05,1.7Zm-5.11-3.14l-2.56-1.57,1.04-1.71,2.56,1.57-1.04,1.71Zm43.29-.08l-1.21-1.59,2.39-1.81,1.21,1.59-2.39,1.81Zm-48.4-3.05l-2.56-1.57,1.05-1.71,2.56,1.57-1.05,1.71Zm53.18-.57l-1.21-1.59,2.39-1.81,1.21,1.59-2.39,1.81Zm-58.3-2.57l-2.56-1.57,1.05-1.71,2.56,1.57-1.05,1.71Zm63.08-1.05l-1.21-1.59,2.39-1.81,1.21,1.59-2.39,1.81Zm-68.19-2.08l-2.56-1.57,1.04-1.71,2.56,1.57-1.04,1.71Zm72.98-1.54l-1.21-1.59,2.39-1.81,1.21,1.59-2.39,1.81Zm-78.09-1.6l-2.56-1.57,1.05-1.7,2.56,1.57-1.05,1.7Zm82.87-2.02l-1.21-1.59,2.39-1.81,1.21,1.59-2.39,1.81Zm-87.99-1.12l-2.56-1.57,1.05-1.7,2.56,1.57-1.05,1.7Zm92.77-2.51l-1.21-1.59,2.39-1.81,1.21,1.59-2.39,1.81Zm-97.88-.63l-2.56-1.57,1.04-1.71,2.56,1.57-1.04,1.71Zm102.67-2.99l-1.21-1.59,2.39-1.81,1.21,1.59-2.39,1.81Zm-107.78-.15l-2.56-1.57,1.05-1.71,2.56,1.57-1.05,1.71Zm-5.11-3.14l-2.56-1.57,1.05-1.71,2.56,1.57-1.05,1.71Zm117.68-.34l-1.21-1.59,2.39-1.81,1.21,1.59-2.39,1.81Zm-122.79-2.8l-2.56-1.57,1.04-1.71,2.56,1.57-1.04,1.71Zm127.57-.82l-1.21-1.59,2.39-1.81,1.21,1.59-2.39,1.81Zm-132.69-2.31l-2.56-1.57,1.05-1.7,2.56,1.57-1.05,1.7Zm137.47-1.31l-1.21-1.59,2.39-1.81,1.21,1.59-2.39,1.81Zm-142.59-1.83l-2.56-1.57,1.05-1.7,2.56,1.57-1.05,1.7Zm147.37-1.79l-1.21-1.59,2.39-1.81,1.21,1.59-2.39,1.81Zm-152.48-1.35l-2.56-1.57,1.04-1.71,2.56,1.57-1.04,1.71Zm157.26-2.28l-1.21-1.59,2.39-1.81,1.21,1.59-2.39,1.81Zm-162.38-.86l-2.56-1.57,1.05-1.71,2.56,1.57-1.05,1.71Zm167.16-2.76l-1.21-1.59,2.39-1.81,1.21,1.59-2.39,1.81Zm-172.28-.38l-2.56-1.57,1.05-1.71,2.56,1.57-1.05,1.71Zm-5.11-3.14l-2.56-1.57,1.05-1.71,2.56,1.57-1.05,1.71Zm182.17-.11l-1.21-1.59,2.39-1.81,1.21,1.59-2.39,1.81Zm-187.29-3.03l-2.56-1.57,1.05-1.7,2.56,1.57-1.05,1.7Zm192.07-.59l-1.21-1.59,2.39-1.81,1.21,1.59-2.39,1.81Zm-197.18-2.54l-2.56-1.57,1.05-1.7,2.56,1.57-1.05,1.7Zm201.97-1.08l-1.21-1.59,2.39-1.81,1.21,1.59-2.39,1.81Zm-207.08-2.06l-2.56-1.57,1.04-1.71,2.56,1.57-1.04,1.71Zm211.86-1.56l-1.21-1.59,2.39-1.81,1.21,1.59-2.39,1.81Zm-216.98-1.57l-2.56-1.57,1.05-1.71,2.56,1.57-1.05,1.71Zm221.76-2.05l-1.21-1.59,2.39-1.81,1.21,1.59-2.39,1.81Zm-226.87-1.09l-2.56-1.57,1.05-1.71,2.56,1.57-1.05,1.71Zm231.66-2.53l-1.21-1.59,2.39-1.81,1.21,1.59-2.39,1.81Zm-236.77-.6l-2.56-1.57,1.05-1.71,2.56,1.57-1.05,1.71Zm241.55-3.02l-1.21-1.59,2.39-1.81,1.21,1.59-2.39,1.81Zm-246.67-.12l-2.56-1.57,1.05-1.7,2.56,1.57-1.05,1.7Zm-5.11-3.14l-2.56-1.57,1.05-1.7,2.56,1.57-1.05,1.7Zm256.56-.36l-1.21-1.59,2.39-1.81,1.21,1.59-2.39,1.81Zm-261.68-2.77l-2.56-1.57,1.04-1.71,2.56,1.57-1.04,1.71Zm266.46-.85l-1.21-1.59,2.39-1.81,1.21,1.59-2.39,1.81Zm-271.57-2.29l-2.56-1.57,1.05-1.71,2.56,1.57-1.05,1.71Zm276.36-1.33l-1.21-1.59,2.39-1.81,1.21,1.59-2.39,1.81Zm-281.47-1.8l-2.56-1.57,1.05-1.71,2.56,1.57-1.05,1.71Zm286.25-1.82l-1.21-1.59,2.39-1.81,1.21,1.59-2.39,1.81Zm-291.37-1.32l-2.56-1.57,1.05-1.71,2.56,1.57-1.05,1.71Zm296.15-2.3l-1.21-1.59,2.39-1.81,1.21,1.59-2.39,1.81Zm-301.26-.84l-2.56-1.57,1.05-1.7,2.56,1.57-1.05,1.7Zm306.05-2.79l-1.21-1.59,2.39-1.81,1.21,1.59-2.39,1.81Zm-311.16-.35l-2.56-1.57,1.05-1.7,2.56,1.57-1.05,1.7Zm-5.11-3.14l-2.56-1.57,1.04-1.71,2.56,1.57-1.04,1.71Zm321.06-.13l-.44-.59-1.64-.92.98-1.74,3.1,1.74-1.99,1.51Zm-4.7-2.97l-2.62-1.47.98-1.74,2.62,1.47-.98,1.74Zm-321.47-.03l-2.56-1.57,1.05-1.71,2.56,1.57-1.05,1.71Zm316.24-2.91l-2.62-1.47.98-1.74,2.62,1.47-.98,1.74Zm-321.36-.23l-2.56-1.57,1.05-1.71,2.56,1.57-1.05,1.71Zm316.12-2.71l-2.62-1.47.98-1.74,2.62,1.47-.98,1.74Zm-5.23-2.94l-2.62-1.47.98-1.74,2.62,1.47-.98,1.74Zm-5.23-2.94l-2.62-1.47.98-1.74,2.62,1.47-.98,1.74Zm-5.23-2.94l-2.62-1.47.98-1.74,2.62,1.47-.98,1.74Zm-5.23-2.94l-2.62-1.47.98-1.74,2.62,1.47-.98,1.74Zm-5.23-2.94l-2.62-1.47.98-1.74,2.62,1.47-.98,1.74Zm-5.23-2.94l-2.62-1.47.98-1.74,2.62,1.47-.98,1.74Zm-5.23-2.94l-2.62-1.47.98-1.74,2.62,1.47-.98,1.74Zm-5.23-2.94l-2.62-1.47.98-1.74,2.62,1.47-.98,1.74Zm-5.23-2.94l-2.62-1.47.98-1.74,2.62,1.47-.98,1.74Zm-5.23-2.94l-2.62-1.47.98-1.74,2.62,1.47-.98,1.74Zm-5.23-2.94l-2.62-1.47.98-1.74,2.62,1.47-.98,1.74Zm-5.23-2.94l-2.62-1.47.98-1.74,2.62,1.47-.98,1.74Zm-5.23-2.94l-2.62-1.47.98-1.74,2.62,1.47-.98,1.74Zm-5.23-2.94l-2.62-1.47.98-1.74,2.62,1.47-.98,1.74Zm-5.23-2.94l-2.62-1.47.98-1.74,2.62,1.47-.98,1.74Zm-5.23-2.94l-2.62-1.47.98-1.74,2.62,1.47-.98,1.74Zm-5.23-2.94l-2.62-1.47.98-1.74,2.62,1.47-.98,1.74Zm-5.23-2.94l-2.62-1.47.98-1.74,2.62,1.47-.98,1.74Zm-5.23-2.94l-2.62-1.47.98-1.74,2.62,1.47-.98,1.74Zm-5.23-2.94l-2.62-1.47.98-1.74,2.62,1.47-.98,1.74Zm-5.23-2.94l-2.62-1.47.98-1.74,2.62,1.47-.98,1.74Zm-5.23-2.94l-2.62-1.47.98-1.74,2.62,1.47-.98,1.74Zm-5.23-2.94l-2.62-1.47.98-1.74,2.62,1.47-.98,1.74Zm-5.23-2.94l-2.62-1.47.98-1.74,2.62,1.47-.98,1.74Zm-5.23-2.94l-2.62-1.47.98-1.74,2.62,1.47-.98,1.74Zm-5.23-2.94l-2.62-1.47.98-1.74,2.62,1.47-.98,1.74Zm-5.23-2.94l-2.62-1.47.98-1.74,2.62,1.47-.98,1.74Zm-5.23-2.94l-2.62-1.47.98-1.74,2.62,1.47-.98,1.74Zm-5.23-2.94l-2.62-1.47.98-1.74,2.62,1.47-.98,1.74Zm-5.23-2.94l-2.62-1.47.98-1.74,2.62,1.47-.98,1.74Zm-5.23-2.94l-2.62-1.47.98-1.74,2.62,1.47-.98,1.74Zm-5.23-2.94l-2.62-1.47.98-1.74,2.62,1.47-.98,1.74Zm-5.23-2.94l-2.62-1.47.98-1.74,2.62,1.47-.98,1.74Zm-5.23-2.94l-2.62-1.47.98-1.74,2.62,1.47-.98,1.74Zm-5.23-2.94l-2.62-1.47.98-1.74,2.62,1.47-.98,1.74Z"/></g><g><g><g><g><path class="cls-11" d="m257.28,321.45s0-.06,0-.08v-7.94s-8.92.2-8.92.2l-82.05-46.89c-3.61-2.08-8.05-2.08-11.65,0l-35.02,20.55-15.01,2.8v8.11c-.14,1.66.6,3.38,2.25,4.33l88.7,50.73c3.61,2.08,8.05,2.08,11.65,0l47.79-27.91c1.48-.85,2.23-2.34,2.27-3.83h0v-.06Z"/><path class="cls-2" d="m201.4,355.33c-2.11,0-4.21-.54-6.09-1.63l-88.69-50.73c-1.72-.99-2.68-2.84-2.51-4.82v-8.5s15.35-2.87,15.35-2.87l34.95-20.51c3.76-2.17,8.42-2.17,12.18,0l81.92,46.82,9.31-.21v9.07h-.03c-.17,1.61-1.09,3.02-2.5,3.83l-47.78,27.91c-1.88,1.08-3.98,1.62-6.09,1.62Zm-96.25-64.81v7.67c-.13,1.62.63,3.09,1.99,3.88l88.69,50.73c3.44,1.98,7.7,1.98,11.13,0l47.78-27.91c1.23-.71,1.98-1.98,2.01-3.39v-.18s0-7.36,0-7.36l-8.53.19-82.17-46.96c-3.43-1.98-7.7-1.98-11.13,0l-35.1,20.6-14.68,2.74Z"/></g><g><path class="cls-1" d="m106.87,294.43l88.7,50.73c3.61,2.08,8.05,2.08,11.65,0l47.79-27.91c3.03-1.75,3.03-6.13,0-7.88l-88.7-50.73c-3.61-2.08-8.05-2.08-11.65,0l-47.79,27.91c-3.03,1.75-3.03,6.13,0,7.88Z"/><path class="cls-2" d="m201.4,347.24c-2.11,0-4.21-.54-6.09-1.63l-88.7-50.73c-1.59-.92-2.53-2.56-2.53-4.39,0-1.83.95-3.47,2.54-4.39l47.78-27.91c3.76-2.17,8.42-2.16,12.18,0l88.69,50.73c1.59.92,2.54,2.56,2.54,4.39,0,1.83-.95,3.47-2.54,4.39l-47.78,27.91c-1.88,1.08-3.98,1.62-6.09,1.62Zm-94.27-53.26l88.7,50.73c3.44,1.98,7.7,1.98,11.13,0l47.78-27.91c1.26-.73,2.02-2.03,2.02-3.49,0-1.46-.75-2.76-2.01-3.49l-88.69-50.73c-3.43-1.98-7.7-1.99-11.13,0l-47.78,27.91c-1.26.73-2.02,2.03-2.02,3.49,0,1.46.75,2.76,2.01,3.49h0Z"/></g></g><g><rect class="cls-2" x="108.62" y="295.65" width="1.04" height="8.41"/><rect class="cls-2" x="200.65" y="346.52" width="1.04" height="8.41"/><rect class="cls-2" x="205.8" y="345.34" width="1.04" height="8.41"/><rect class="cls-2" x="253.09" y="317.94" width="1.04" height="8.41"/><rect class="cls-2" x="193.66" y="344.35" width="1.04" height="8.41"/></g></g><polygon class="cls-2" points="208.21 344.59 208.21 352.68 251.53 327.37 251.53 319.28 208.21 344.59"/></g><g><g><g><path class="cls-11" d="m125.97,300.51l-13.51-7.58c-.21-.12-.31-.28-.3-.45h0s0-.02,0-.03l.04-4.01c0-.1.08-.17.18-.17l6.81-.05s.06,0,.09-.02l6.66-3.63c.52-.29,1.3-.33,1.75-.08l6.78,3.86s.06.02.09.02l6.78-.05c.1,0,.18.08.18.18l-.03,4.03c-.01.18-.16.37-.42.52l-13.35,7.4c-.52.29-1.3.33-1.75.08Z"/><path class="cls-2" d="m126.73,301.09c-.36,0-.7-.07-.97-.22h0s-13.51-7.58-13.51-7.58c-.34-.19-.53-.49-.51-.82l.04-4.02c0-.32.27-.58.6-.58l6.75-.05,6.6-3.6c.65-.37,1.58-.4,2.17-.08l6.73,3.83,6.71-.05h0c.16,0,.31.06.43.17.11.11.18.26.18.42l-.03,4.03c-.03.36-.25.66-.63.87l-13.36,7.4c-.35.2-.79.3-1.2.3Zm-.55-.93c.32.18.94.14,1.33-.07l13.36-7.4c.17-.1.21-.18.21-.2l.03-3.77-6.54.05c-.11,0-.21-.03-.31-.08l-6.79-3.86c-.32-.18-.94-.14-1.33.08l-6.66,3.64c-.08.05-.19.07-.29.08l-6.58.05-.04,3.78c0,.06.02.09.09.12l13.51,7.58Z"/></g><g><path class="cls-2" d="m135.34,288.31s5.95,0,5.95,0c.13,0,.24.1.24.23l-.03,3.98c-.01.18-.16.37-.42.52l-13.27,7.35s-.08,0-.08-.05l.04-4.16s0,0,0,0h0c-.52-1.32,7.57-7.86,7.57-7.86Z"/><path class="cls-2" d="m127.8,300.86l-.27-.12c-.15-.08-.24-.24-.24-.4l.04-4.15c-.22-1.51,4.71-5.75,7.73-8.2l.14-.07q.08-.03,6.08-.02c.16-.01.34.06.47.19.13.12.2.28.19.46l-.03,3.98c-.03.36-.25.66-.63.87l-13.49,7.47Zm.38-4.56l-.03,3.42,12.71-7.04c.17-.1.21-.18.21-.2l.03-3.77c-1.55,0-4.88,0-5.61,0-3.63,2.94-7.43,6.55-7.33,7.32l.07.19-.06.08Z"/></g><g><path class="cls-1" d="m141.24,287.8l-13.51-7.58c-.45-.25-1.24-.22-1.75.08l-13.35,7.4c-.52.29-.57.73-.12.98l13.51,7.58c.45.25,1.24.21,1.75-.08l13.35-7.4c.52-.29.57-.73.12-.98Z"/><path class="cls-2" d="m126.77,296.83c-.36,0-.7-.07-.97-.22l-13.51-7.58c-.33-.18-.51-.46-.52-.78,0-.35.23-.68.64-.91l13.36-7.4c.65-.37,1.59-.4,2.17-.08l13.51,7.58c.33.18.52.46.52.78,0,.35-.23.68-.64.91l-13.36,7.4c-.35.2-.79.3-1.2.3Zm.21-16.37c-.27,0-.57.06-.79.19l-13.36,7.4c-.17.1-.21.18-.22.2,0,0,.03.03.09.07l13.51,7.58c.32.18.94.14,1.33-.08l13.36-7.4c.17-.1.21-.18.21-.2,0,0-.03-.03-.09-.07h0s-13.51-7.58-13.51-7.58c-.14-.08-.33-.11-.54-.11Z"/></g></g><polygon class="cls-2" points="115.37 294.33 114.53 294.3 114.66 290.16 115.5 290.18 115.37 294.33"/><rect class="cls-11" x="135.91" y="292.53" width="3.62" height=".65" transform="translate(-157.18 426.14) rotate(-89.14)"/></g><g><g><g><g><path class="cls-2" d="m169.76,276.8c-1.36-1.71-2.86-1.37-6.64-2.21-3.25-.73-6.64-.69-9.87.14-3.2.82-5.15,1.36-6.48,2.86l-1.71.89v3.55s.02.09.02.09c.07,2.39,2.02,4.63,5.91,6.23,3.86,1.59,8.17,1.84,12.23.86,5.74-1.38,8.62-4.27,8.71-7.17v-.14s.01-3.41.01-3.41l-2.18-1.67Z"/><path class="cls-2" d="m158.39,290.36c-2.64,0-5.25-.5-7.63-1.48-3.97-1.63-6.2-4.04-6.28-6.76l-.02-4.01,1.93-1c1.48-1.61,3.68-2.18,6.7-2.96,3.28-.84,6.79-.89,10.15-.14,1.05.23,1.91.37,2.67.5,1.96.32,3.15.51,4.26,1.87l2.35,1.81v3.89c-.12,3.46-3.55,6.35-9.18,7.71-1.64.39-3.31.59-4.97.59Zm-12.72-11.53v3.18c.08,2.3,2.05,4.32,5.55,5.77,3.64,1.5,7.85,1.8,11.86.83,5-1.2,8.16-3.74,8.25-6.61v-.17s.01-3.07.01-3.07l-2.05-1.59c-.84-1.05-1.69-1.18-3.57-1.49-.74-.12-1.65-.27-2.74-.51-3.18-.71-6.49-.66-9.59.13-3.25.84-5,1.34-6.18,2.68l-.17.14-1.39.72Z"/></g><g><path class="cls-1" d="m168,272.98c5.25,3.03,5.25,7.94,0,10.97-5.25,3.03-13.75,3.03-19,0-5.25-3.03-5.25-7.94,0-10.97,5.25-3.03,13.75-3.03,19,0Z"/><path class="cls-2" d="m158.5,286.81c-3.55,0-7.1-.78-9.8-2.34-2.73-1.58-4.23-3.71-4.23-6s1.5-4.43,4.23-6c5.4-3.12,14.2-3.12,19.6,0,2.73,1.58,4.23,3.71,4.23,6s-1.5,4.43-4.23,6c-2.7,1.56-6.25,2.34-9.8,2.34Zm0-15.51c-3.33,0-6.66.73-9.2,2.2-2.35,1.35-3.64,3.12-3.64,4.97s1.29,3.61,3.64,4.97c5.07,2.93,13.33,2.93,18.4,0,2.35-1.35,3.64-3.12,3.64-4.97s-1.29-3.61-3.64-4.97h0c-2.54-1.46-5.87-2.2-9.2-2.2Z"/></g><g><path class="cls-2" d="m165.14,275.12c-3.66-1.85-9.61-1.85-13.27,0-3.66,1.85-3.66,4.84,0,6.69,3.66,1.85,9.61,1.85,13.27,0,3.66-1.85,3.66-4.84,0-6.69Z"/><path class="cls-2" d="m158.5,283.79c-2.5,0-5-.48-6.9-1.44-1.98-1-3.08-2.38-3.08-3.88s1.09-2.88,3.08-3.88c3.81-1.92,10-1.92,13.81,0,1.98,1,3.08,2.38,3.08,3.88s-1.09,2.88-3.08,3.88c-1.9.96-4.4,1.44-6.9,1.44Zm0-9.46c-2.31,0-4.61.44-6.37,1.33-1.54.77-2.42,1.8-2.42,2.81s.88,2.04,2.42,2.81c3.51,1.77,9.22,1.77,12.73,0,1.54-.78,2.42-1.8,2.42-2.81s-.88-2.04-2.42-2.81c-1.76-.89-4.06-1.33-6.37-1.33Z"/></g><g><path class="cls-7" d="m165.14,277.13c-3.66-1.85-9.61-1.85-13.27,0-1.32.67-2.16,1.49-2.53,2.34.37.86,1.21,1.68,2.53,2.34,3.66,1.85,9.61,1.85,13.27,0,1.32-.67,2.16-1.49,2.53-2.34-.37-.86-1.21-1.68-2.53-2.34Z"/><path class="cls-2" d="m158.5,283.79c-2.5,0-5-.48-6.9-1.44-1.4-.71-2.37-1.62-2.81-2.64l-.1-.24.1-.24c.44-1.02,1.41-1.94,2.81-2.64,3.81-1.92,10-1.92,13.81,0h0c1.4.71,2.37,1.62,2.81,2.64l.1.24-.1.24c-.44,1.02-1.41,1.94-2.81,2.64-1.9.96-4.4,1.44-6.9,1.44Zm-8.5-4.32c.38.67,1.11,1.29,2.13,1.81,3.51,1.77,9.22,1.77,12.73,0,1.03-.52,1.76-1.14,2.13-1.81-.38-.67-1.11-1.29-2.13-1.81-3.51-1.77-9.22-1.77-12.73,0-1.03.52-1.76,1.14-2.13,1.81Z"/></g></g><rect class="cls-7" x="165.56" y="285.17" width=".92" height="2.92"/><rect class="cls-7" x="146.58" y="282.7" width=".92" height="2.92"/><rect class="cls-7" x="159.3" y="273.85" width=".92" height="1.89"/><g><g><path class="cls-2" d="m151.59,277.48v1.6l2.22.82,1.04-1.68.03-.02,7.81,4.51c.67-.17,1.31-.38,1.9-.63l.84-.49v-1.6l-10.36-4.38-3.47,1.88Z"/><path class="cls-2" d="m162.61,283.19l-7.59-4.38-1.01,1.65-2.87-1.06v-2.2l3.91-2.11,10.84,4.58v2.17l-1.07.62c-.65.28-1.32.51-2.02.68l-.18.05Zm-7.77-5.51l.26.11,7.64,4.41c.59-.16,1.14-.35,1.65-.56l.56-.33v-1.03l-9.87-4.18-3.04,1.64v1.01l1.56.58.9-1.46.33-.19Z"/></g><g><path class="cls-1" d="m154.87,276.6l-.03.02-1.04,1.68-2.22-.82,1.48-2.33,1.99-1.15,10.36,5.98s0,0,0,0l-2.34,1.35-8.21-4.74Z"/><path class="cls-2" d="m163.08,281.87l-8.07-4.66-1.02,1.65-3.1-1.15,1.85-2.9,2.32-1.34,10.82,6.24v.51s-.2.14-.2.14l-2.59,1.5Zm-8.24-5.78l.26.11,7.98,4.61,1.42-.82-9.44-5.45-1.66.96-1.12,1.75,1.33.49.9-1.46.33-.19Z"/></g></g></g><g><g><g><path class="cls-2" d="m186.12,283.48c-.67-2.08-2.19-2.29-5.42-4.43-2.78-1.83-5.97-3.01-9.27-3.38-3.29-.37-5.3-.56-7.07.37l-1.91.22-1.26,3.32-.02.09c-.78,2.26.25,5.05,3.31,7.92,3.05,2.86,6.98,4.62,11.13,5.15,5.85.75,9.57-.93,10.69-3.61l.06-.13,1.21-3.19-1.44-2.34Z"/><path class="cls-2" d="m178.3,293.52c-.88,0-1.8-.06-2.77-.18-4.34-.55-8.41-2.44-11.46-5.3-3.13-2.94-4.36-5.97-3.47-8.55l.03-.1,1.38-3.66,2.16-.25c1.96-.98,4.21-.73,7.31-.39,3.37.38,6.66,1.58,9.54,3.47.9.59,1.65,1.03,2.32,1.41,1.72.99,2.77,1.6,3.32,3.26l1.56,2.53-1.39,3.63c-1.1,2.66-4.22,4.13-8.54,4.13Zm-15.42-16.7l-1.13,2.98c-.74,2.18.38,4.77,3.14,7.36,2.87,2.7,6.7,4.47,10.79,4.99,5.1.65,8.96-.59,10.06-3.25l.07-.15,1.09-2.87-1.35-2.22c-.41-1.27-1.16-1.71-2.81-2.66-.65-.37-1.45-.84-2.38-1.45-2.72-1.79-5.83-2.93-9.01-3.28-3.33-.37-5.14-.53-6.73.31l-.21.07-1.55.18Z"/></g><g><path class="cls-1" d="m185.83,279.3c3.83,4.7,2.08,9.29-3.9,10.26-5.98.97-13.93-2.05-17.76-6.75-3.83-4.7-2.08-9.29,3.9-10.26,5.98-.97,13.93,2.05,17.76,6.75Z"/><path class="cls-2" d="m179.63,290.33c-5.75,0-12.47-2.92-15.92-7.15-1.99-2.44-2.64-4.97-1.83-7.12.81-2.15,2.98-3.6,6.09-4.11,6.16-.99,14.38,2.13,18.32,6.96h0c1.99,2.44,2.64,4.97,1.83,7.12-.82,2.15-2.98,3.6-6.09,4.11-.77.12-1.58.19-2.4.19Zm-9.2-17.37c-.78,0-1.53.06-2.26.17-2.67.43-4.51,1.62-5.16,3.35-.66,1.73-.08,3.84,1.63,5.94,3.7,4.54,11.42,7.47,17.2,6.54,2.67-.43,4.51-1.62,5.16-3.35.66-1.73.08-3.84-1.63-5.94-3.24-3.97-9.55-6.71-14.95-6.71Z"/></g><g><path class="cls-2" d="m182.39,280.28c-2.77-3.03-8.32-5.14-12.4-4.71-4.08.43-5.15,3.23-2.38,6.26,2.77,3.03,8.32,5.14,12.4,4.71,4.08-.43,5.15-3.23,2.38-6.26Z"/><path class="cls-2" d="m178.95,287.18c-4.09,0-9.15-2.09-11.78-4.96-1.5-1.64-2.03-3.32-1.5-4.72.53-1.4,2.04-2.3,4.25-2.53,4.25-.45,10.03,1.76,12.91,4.91,1.5,1.64,2.03,3.32,1.5,4.72s-2.04,2.3-4.25,2.53c-.36.04-.74.06-1.13.06Zm-7.86-11.08c-.36,0-.7.02-1.04.05-1.71.18-2.9.82-3.26,1.77-.36.95.1,2.22,1.26,3.49,2.65,2.9,7.99,4.93,11.9,4.52,1.71-.18,2.9-.82,3.26-1.77.36-.95-.1-2.22-1.26-3.49-2.42-2.65-7.09-4.57-10.86-4.57Z"/></g><g><path class="cls-7" d="m181.68,282.15c-2.77-3.03-8.32-5.14-12.4-4.71-1.47.15-2.55.62-3.2,1.29.04.93.53,2,1.53,3.09,2.77,3.03,8.32,5.14,12.4,4.71,1.47-.15,2.55-.62,3.2-1.29-.04-.93-.53-2-1.53-3.09Z"/><path class="cls-2" d="m178.95,287.18c-4.09,0-9.15-2.09-11.78-4.96-1.06-1.16-1.64-2.36-1.69-3.47v-.26s.17-.18.17-.18c.77-.8,2.01-1.31,3.57-1.47,4.24-.44,10.03,1.76,12.91,4.91,1.06,1.16,1.64,2.36,1.69,3.47v.26s-.17.18-.17.18c-.77.8-2,1.31-3.57,1.47-.36.04-.74.06-1.13.06Zm-12.25-8.22c.11.76.57,1.6,1.35,2.45,2.65,2.9,7.99,4.93,11.9,4.52,1.14-.12,2.05-.44,2.64-.93-.11-.76-.57-1.6-1.35-2.45h0c-2.65-2.9-7.99-4.93-11.9-4.52-1.14.12-2.05.44-2.64.93Z"/></g></g><rect class="cls-7" x="177.67" y="290.89" width="2.92" height=".92" transform="translate(-156.88 355.17) rotate(-69.17)"/><rect class="cls-7" x="160.8" y="281.84" width="2.92" height=".92" transform="translate(-159.28 333.59) rotate(-69.17)"/><rect class="cls-7" x="176.54" y="277.6" width="1.89" height=".92" transform="translate(-145.51 345.11) rotate(-69.18)"/><g><g><path class="cls-2" d="m168.89,277.67l-.57,1.5,1.78,1.55,1.57-1.21h.04s5.7,6.98,5.7,6.98c.69.08,1.36.11,2,.08l.96-.16.57-1.5-8.13-7.77-3.91.52Z"/><path class="cls-2" d="m178.9,287.04c-.52,0-1.03-.03-1.55-.09l-.19-.02-5.54-6.8-1.54,1.18-2.31-2.01.78-2.05,4.4-.59,8.51,8.14-.77,2.03-1.22.2c-.19,0-.39.01-.58.01Zm-1.26-.99c.61.06,1.19.08,1.75.06l.64-.11.37-.96-7.75-7.41-3.42.45-.36.94,1.25,1.09,1.36-1.05.38-.06.2.2,5.58,6.84Z"/></g><g><path class="cls-1" d="m172.27,278.01h-.04s-1.57,1.21-1.57,1.21l-1.78-1.55,2.21-1.65,2.27-.37,7.56,9.27s0,0,0,0l-2.67.43-5.99-7.35Z"/><path class="cls-2" d="m178.07,285.85l-5.89-7.22-1.54,1.18-2.49-2.18,2.76-2.06,2.64-.43,8.23,10.09-3.72.6Zm-5.65-8.33l.2.2,5.82,7.14,1.62-.26-6.89-8.45-1.9.31-1.66,1.24,1.07.93,1.36-1.05.38-.06Z"/></g></g></g></g><path class="cls-1" d="m358.77,265.89h-2.14v-.93h2.14v.93Zm-4.29,0h-2.14v-.93h2.14v.93Z"/><g><g><g><g><path class="cls-1" d="m185.6,313.33l-9.6-1.95c-2.34-.47-4.61-.5-6.54-.08l-26.44,5.75c-.7.15-.87.7-.39,1.23l14.94,16.44c.48.53,1.43.83,2.13.68l15.41-3.35c1.17-.25,2.56-.24,3.97.06l9.97,2.04c2.67.55,5.28.58,7.48.1l26.59-5.79c.7-.15.87-.7.39-1.23l-14.95-16.44c-.48-.53-1.43-.83-2.13-.68l-15.32,3.3c-1.63.35-3.55.32-5.53-.08Z"/><path class="cls-2" d="m159.32,335.82c-.74,0-1.57-.33-2.04-.85l-14.94-16.44c-.32-.36-.44-.77-.33-1.13.12-.36.45-.63.92-.73l26.44-5.75c1.98-.43,4.3-.4,6.69.08l9.6,1.95c1.93.39,3.79.42,5.37.08l15.32-3.3c.83-.18,1.92.17,2.49.8l14.95,16.44c.32.36.44.77.33,1.13-.12.36-.45.63-.92.73l-26.59,5.79c-2.26.49-4.9.46-7.63-.1l-9.97-2.04c-1.37-.28-2.69-.3-3.82-.06l-15.41,3.35c-.15.03-.3.05-.46.05Zm13.04-24.44c-1,0-1.95.1-2.82.29l-26.44,5.75c-.19.04-.33.12-.36.22-.03.09.03.24.16.38l14.95,16.44c.39.43,1.2.69,1.77.57l15.41-3.35c1.23-.27,2.66-.25,4.13.05l9.97,2.04c2.63.54,5.16.57,7.32.1l26.59-5.79c.19-.04.33-.12.36-.22.03-.09-.03-.24-.16-.38l-14.95-16.44c-.39-.43-1.19-.69-1.76-.57l-15.32,3.3c-1.69.36-3.65.34-5.68-.08l-9.6-1.95c-1.22-.25-2.42-.37-3.56-.37Z"/></g><g><path class="cls-3" d="m215.38,322.75l-5.39-5.93c-.19-.21-.56-.35-.85-.31-2.19.26-4.97-.67-6.6-2.17-.22-.2-.6-.31-.88-.25l-9.06,1.97c-1.59.35-3.46.33-5.39-.05l-11.54-2.27c-1.46-.29-2.88-.3-4.08-.04l-19.75,4.3c-.28.06-.38.27-.22.48,1.09,1.47.74,2.92-.81,3.61-.21.09-.22.3-.05.49,1.1,1.21,4.71,5.18,5.81,6.39.17.19.5.33.78.31,2.06-.1,4.47.73,5.97,2.08.22.2.59.3.87.24l9.51-2.07c1.44-.31,3.15-.28,4.9.09l10.22,2.17c1.8.38,3.57.41,5.06.09l19.95-4.34c-1.87-2.06-1.18-4.2,1.53-4.79Z"/><path class="cls-2" d="m191.71,332.49c-.94,0-1.94-.11-2.95-.32l-10.22-2.17c-1.71-.36-3.35-.39-4.74-.09l-9.5,2.07c-.4.09-.9-.05-1.21-.33-1.42-1.28-3.73-2.08-5.69-1.98-.39.02-.83-.16-1.09-.44l-5.81-6.39c-.18-.2-.25-.43-.21-.65.04-.2.18-.36.38-.45.63-.28,1.03-.7,1.16-1.21.14-.55-.03-1.18-.51-1.82-.15-.2-.19-.44-.11-.65.08-.22.29-.38.56-.44l19.75-4.3c1.26-.27,2.72-.26,4.24.04l11.54,2.27c1.88.37,3.69.39,5.23.05l9.06-1.97c.41-.09.91.05,1.22.34,1.55,1.43,4.26,2.32,6.29,2.07.43-.05.9.13,1.18.43l5.83,6.42-.65.14c-1.17.26-1.96.82-2.2,1.59-.25.77.06,1.68.87,2.57l.45.49-20.6,4.48c-.71.15-1.47.23-2.27.23Zm-15.87-3.55c.92,0,1.88.1,2.86.31l10.22,2.17c1.76.37,3.45.4,4.9.09l19.34-4.21c-.69-.95-.91-1.94-.63-2.82.28-.88,1.04-1.56,2.15-1.93l-4.97-5.46c-.11-.12-.35-.21-.52-.19-2.27.28-5.18-.68-6.9-2.27-.13-.12-.37-.19-.54-.15l-9.06,1.97c-1.64.36-3.56.34-5.54-.05l-11.54-2.27c-1.41-.28-2.77-.29-3.92-.04l-19.66,4.28c.55.8.75,1.63.56,2.37-.18.7-.69,1.27-1.46,1.65l5.76,6.34c.1.11.33.2.48.19,2.17-.1,4.68.77,6.24,2.17.13.11.37.18.53.15l9.5-2.07c.69-.15,1.43-.22,2.2-.22Z"/></g><g><path class="cls-1" d="m177.45,317.24c-4.09.89-5.12,4.13-2.29,7.24,2.82,3.11,8.43,4.9,12.52,4.01,4.09-.89,5.12-4.13,2.29-7.24-2.82-3.11-8.43-4.9-12.52-4.01Zm8.28,9.11c-2.55.55-6.04-.57-7.8-2.5-1.76-1.94-1.12-3.96,1.43-4.51s6.04.57,7.8,2.5c1.76,1.94,1.12,3.96-1.43,4.51Z"/><path class="cls-2" d="m185.46,329.1c-3.82,0-8.19-1.72-10.59-4.36-1.46-1.61-2.01-3.33-1.53-4.83.48-1.5,1.91-2.58,4.02-3.04h0c4.2-.92,9.98.94,12.89,4.13,1.46,1.61,2.01,3.33,1.53,4.83-.48,1.5-1.91,2.58-4.02,3.04-.73.16-1.5.23-2.3.23Zm-7.93-11.49c-1.83.4-3.06,1.29-3.45,2.52-.39,1.23.09,2.68,1.36,4.08,2.74,3.01,8.19,4.76,12.15,3.9,1.83-.4,3.06-1.29,3.45-2.52.39-1.23-.09-2.68-1.36-4.08-2.74-3.01-8.19-4.76-12.15-3.9h0Zm6.82,9.26c-2.42,0-5.19-1.09-6.71-2.77-.95-1.04-1.3-2.16-.98-3.15.31-.99,1.24-1.69,2.61-1.99,2.67-.58,6.33.6,8.17,2.62.95,1.04,1.3,2.16.98,3.15-.32.99-1.24,1.69-2.61,1.99h0c-.46.1-.95.15-1.46.15Zm-3.59-7.3c-.46,0-.91.04-1.33.13-1.09.24-1.82.76-2.04,1.47-.23.72.06,1.57.82,2.4,1.68,1.84,5.01,2.91,7.44,2.39h0c1.09-.24,1.82-.76,2.04-1.47.23-.72-.06-1.57-.82-2.4-1.39-1.52-3.91-2.52-6.11-2.52Z"/></g><path class="cls-2" d="m183.62,325.45c-1.52,0-3.21-.68-4.18-1.74-.62-.68-.84-1.41-.63-2.07.21-.65.81-1.12,1.7-1.31,1.7-.37,3.95.35,5.12,1.64.62.68.84,1.41.63,2.07-.21.65-.81,1.12-1.7,1.31-.3.07-.62.1-.94.1Zm-2.18-4.45c-.26,0-.52.02-.76.08-.61.13-1.01.42-1.13.8-.12.38.04.85.47,1.32.97,1.07,2.98,1.71,4.39,1.41.61-.13,1.01-.42,1.13-.8.12-.38-.04-.85-.47-1.32-.81-.89-2.33-1.48-3.63-1.48Z"/><path class="cls-2" d="m149.1,321.31l-1.27-1.4c-.26-.29-.35-.62-.26-.92.1-.3.37-.52.75-.6l1.32-.29.16.75-1.32.29c-.13.03-.18.08-.18.08,0,0,0,.07.1.17l1.28,1.4-.57.52Z"/><path class="cls-2" d="m208.15,315.37l-1.27-1.4c-.25-.28-.8-.46-1.18-.38l-1.32.29-.16-.75,1.32-.29c.63-.14,1.47.13,1.91.61l1.27,1.4-.57.52Z"/><path class="cls-2" d="m160.52,332.81c-.57,0-1.2-.25-1.56-.65l-1.27-1.4.57-.52,1.27,1.4c.25.28.8.46,1.18.38l1.32-.29.16.75-1.32.29c-.11.02-.23.04-.35.04Z"/><path class="cls-2" d="m216.6,327.33l-.16-.75,1.32-.29c.13-.03.18-.08.18-.09,0,0,0-.07-.1-.17l-1.27-1.4.57-.52,1.27,1.4c.26.29.35.62.26.92-.1.3-.37.52-.75.6l-1.32.29Z"/><path class="cls-2" d="m171.43,322.63c-.04-.08-1.03-1.86-.28-3.76.57-1.46,1.99-2.56,4.21-3.26l.23.73c-1.99.63-3.24,1.57-3.73,2.81-.62,1.57.23,3.09.23,3.1l-.67.38Z"/><path class="cls-2" d="m192.47,328.64l-.4-.65.2.33-.2-.33c.1-.06,2.33-1.5,1.17-4.3l.71-.29c1.42,3.41-1.45,5.23-1.48,5.24Z"/><path class="cls-2" d="m162,329.61c-2.14-1.12-4.05-1.03-4.07-1.02h-.18s-5.41-5.94-5.41-5.94l.45-.23c.05-.03,1.27-.65,1.1-1.78l.76-.11c.17,1.17-.6,1.94-1.1,2.32l4.52,4.97c.57,0,2.33.1,4.28,1.11l-.36.68Z"/><path class="cls-2" d="m162.67,328.25l-7.63-8.14c-.26-.28-.35-.66-.23-1.02.11-.36.4-.62.77-.7l14.72-3.2.16.75-14.72,3.2c-.14.03-.19.14-.2.18-.01.05-.04.16.06.26l7.63,8.14-.56.52Z"/><path class="cls-2" d="m164.03,330.37l-.17-.75,8.09-1.82c.22-.05.3-.22.32-.29.02-.07.06-.26-.09-.43l-7.18-8.12.58-.51,7.18,8.12c.29.32.38.76.24,1.17-.13.41-.46.71-.88.81l-8.09,1.82Z"/><path class="cls-2" d="m199.75,327.09l-7.09-8c-.29-.32-.38-.76-.24-1.18.13-.41.47-.71.89-.81l8.04-1.74.16.75-8.04,1.74c-.22.05-.3.22-.33.29-.02.07-.06.26.09.43l7.09,8-.57.51Z"/><path class="cls-2" d="m195.12,330.42l-.16-.75,14.73-3.2c.14-.03.19-.14.2-.18.01-.05.04-.16-.06-.26l-7-7.56.56-.52,7,7.56c.26.28.34.66.23,1.01-.11.36-.4.62-.77.7l-14.73,3.2Z"/><path class="cls-2" d="m210.45,324.49c-.23-1.4.73-2.27,1.56-2.69l-3.4-3.74c-2.74.28-5.07-1.15-5.17-1.21l.41-.65s2.31,1.41,4.87,1.08l.2-.03,4.45,4.89-.59.17c-.07.02-1.81.56-1.57,2.05l-.76.12Z"/></g><g><path class="cls-1" d="m166.46,325.49l-.56.12c-.72.16-1.77-.23-2.35-.86l-2.08-2.29c-.57-.63-.45-1.27.27-1.43l.56-.12c.72-.16,1.77.23,2.35.86l2.08,2.29c.57.63.45,1.27-.27,1.43Z"/><path class="cls-2" d="m165.55,326.03c-.79,0-1.72-.4-2.29-1.02l-2.08-2.29c-.4-.44-.55-.92-.42-1.34.12-.37.43-.62.89-.72l.56-.12c.86-.19,2.05.24,2.71.98l2.08,2.29c.4.44.55.92.42,1.34-.12.37-.43.62-.89.72l-.56.12c-.13.03-.28.04-.43.04Zm-2.9-4.77c-.1,0-.19,0-.27.03l-.56.12c-.1.02-.28.08-.32.21-.04.11.01.32.25.59l2.08,2.29c.48.53,1.39.87,1.98.74l.56-.12c.1-.02.28-.08.32-.21.04-.11-.01-.32-.25-.59l-2.08-2.29c-.41-.45-1.14-.77-1.71-.77Z"/></g><g><path class="cls-1" d="m203.72,324.11l-.56.12c-.72.16-1.77-.23-2.35-.86l-2.08-2.29c-.57-.63-.45-1.27.27-1.43l.56-.12c.72-.16,1.77.23,2.35.86l2.08,2.29c.57.63.45,1.27-.27,1.43Z"/><path class="cls-2" d="m202.82,324.65c-.79,0-1.73-.4-2.29-1.02l-2.08-2.29c-.4-.44-.55-.92-.42-1.34.12-.37.43-.62.89-.72l.56-.12c.85-.19,2.04.24,2.71.98l2.08,2.29c.4.44.55.92.42,1.34-.12.37-.43.62-.89.72l-.56.12c-.13.03-.28.04-.43.04Zm-2.9-4.77c-.1,0-.19,0-.27.03l-.56.12c-.1.02-.28.08-.32.21-.04.11.01.32.25.59l2.08,2.29c.48.53,1.39.87,1.98.74l.56-.12c.1-.02.28-.08.32-.21.04-.11-.01-.32-.25-.59l-2.08-2.29c-.41-.45-1.14-.77-1.71-.77Z"/></g></g><g><g><g><path class="cls-1" d="m192.82,298.69l-9.78.6c-2.38.15-4.59.71-6.34,1.61l-24.05,12.4c-.63.33-.66.91-.06,1.29l18.69,12.01c.6.39,1.6.43,2.24.11l14.01-7.22c1.06-.55,2.41-.89,3.85-.98l10.16-.61c2.72-.16,5.25-.8,7.25-1.83l24.19-12.47c.63-.33.66-.91.06-1.29l-18.69-12.01c-.6-.39-1.6-.43-2.23-.11l-13.94,7.15c-1.48.76-3.35,1.23-5.36,1.36Z"/><path class="cls-2" d="m172.52,327.31c-.52,0-1.05-.13-1.44-.38l-18.69-12.01c-.4-.26-.63-.63-.61-1.01.02-.38.27-.73.7-.95l24.05-12.4c1.8-.93,4.05-1.5,6.49-1.65l9.78-.6c1.97-.12,3.77-.58,5.21-1.32l13.94-7.15c.76-.39,1.9-.33,2.62.13l18.69,12.01c.4.26.63.63.61,1.01-.02.38-.27.73-.7.95l-24.19,12.47c-2.06,1.06-4.62,1.71-7.4,1.88l-10.16.61c-1.4.08-2.68.41-3.7.93l-14.01,7.22c-.34.17-.75.26-1.18.26Zm20.32-28.24l-9.78.6c-2.33.14-4.47.69-6.18,1.57l-24.05,12.4c-.17.09-.28.2-.29.3,0,.1.09.22.26.33l18.69,12.01c.49.31,1.34.35,1.85.09l14.01-7.22c1.12-.57,2.5-.93,4.01-1.02l10.16-.61c2.68-.16,5.13-.78,7.1-1.79l24.19-12.47c.17-.09.28-.2.29-.3,0-.1-.09-.22-.26-.33l-18.69-12.01c-.49-.31-1.33-.35-1.85-.09l-13.94,7.15c-1.53.79-3.44,1.27-5.51,1.4h0Z"/></g><g><path class="cls-3" d="m224.03,300.09l-6.74-4.33c-.24-.15-.63-.19-.9-.08-2.05.82-4.98.64-6.93-.39-.26-.14-.66-.14-.91,0l-8.24,4.25c-1.44.74-3.26,1.21-5.22,1.34l-11.74.79c-1.48.1-2.86.45-3.95,1.02l-17.96,9.26c-.25.13-.3.35-.09.52,1.43,1.13,1.47,2.63.15,3.7-.18.14-.13.35.08.49,1.37.88,5.89,3.79,7.27,4.67.22.14.57.19.84.1,1.96-.63,4.5-.45,6.3.46.26.13.65.13.9,0l8.65-4.46c1.31-.68,2.97-1.09,4.76-1.18l10.44-.55c1.84-.1,3.56-.52,4.91-1.22l18.15-9.36c-2.34-1.5-2.23-3.75.24-5.03Z"/><path class="cls-2" d="m176.45,322.36c-.22,0-.44-.05-.63-.14-1.7-.87-4.12-1.04-6.01-.44-.38.12-.84.06-1.16-.14l-7.27-4.67c-.23-.15-.36-.35-.37-.57-.01-.2.08-.4.25-.54.53-.43.82-.94.81-1.47,0-.57-.34-1.14-.96-1.63-.2-.16-.3-.37-.28-.59.02-.23.18-.44.42-.57l17.96-9.26c1.14-.59,2.56-.95,4.1-1.06l11.74-.79c1.91-.13,3.67-.58,5.07-1.3l8.24-4.25c.36-.19.9-.18,1.27.01,1.87.98,4.71,1.14,6.61.37.39-.16.91-.11,1.25.11l7.3,4.69-.59.31c-1.07.55-1.68,1.3-1.72,2.1s.5,1.61,1.51,2.26l.56.36-18.74,9.66c-1.41.72-3.16,1.16-5.06,1.26l-10.44.55c-1.74.09-3.33.49-4.6,1.14l-8.65,4.46c-.18.09-.4.14-.62.14Zm-4.23-1.7c1.4,0,2.82.3,3.95.87.15.08.41.08.55,0l8.65-4.46c1.37-.7,3.07-1.13,4.91-1.23l10.44-.55c1.8-.1,3.44-.5,4.75-1.18l17.59-9.07c-.91-.74-1.38-1.63-1.34-2.56.04-.93.6-1.77,1.57-2.42l-6.21-3.99c-.14-.09-.4-.11-.55-.04-2.13.85-5.18.68-7.26-.41-.15-.08-.41-.08-.56,0l-8.24,4.25c-1.49.77-3.35,1.25-5.37,1.38l-11.74.79c-1.44.1-2.75.43-3.8.98l-17.88,9.22c.74.63,1.15,1.38,1.15,2.15,0,.73-.34,1.4-.98,1.97l7.2,4.63c.13.08.36.11.51.06.82-.26,1.73-.39,2.64-.39Z"/></g><g><path class="cls-1" d="m185.97,304.58c-3.72,1.92-3.87,5.31-.34,7.58,3.53,2.27,9.41,2.56,13.13.64,3.72-1.92,3.87-5.31.34-7.58-3.53-2.27-9.41-2.56-13.13-.64Zm10.36,6.66c-2.32,1.2-5.98,1.02-8.19-.4-2.2-1.42-2.11-3.53.21-4.73s5.98-1.02,8.19.4c2.2,1.42,2.11,3.53-.21,4.73Z"/><path class="cls-2" d="m192.91,314.45c-2.72,0-5.48-.67-7.49-1.96-1.83-1.18-2.8-2.7-2.73-4.27.07-1.57,1.17-2.98,3.1-3.97h0c3.82-1.97,9.89-1.68,13.51.66,1.83,1.18,2.8,2.7,2.72,4.27-.08,1.57-1.17,2.98-3.1,3.97-1.7.88-3.84,1.3-6.02,1.3Zm-6.77-9.53c-1.67.86-2.62,2.04-2.68,3.33-.06,1.29.78,2.57,2.37,3.59,3.42,2.2,9.14,2.48,12.75.62,1.67-.86,2.62-2.04,2.68-3.33.06-1.29-.78-2.57-2.37-3.59-3.42-2.2-9.14-2.48-12.75-.62h0Zm6.54,7.48c-1.72,0-3.47-.42-4.75-1.24-1.19-.76-1.81-1.76-1.76-2.79.05-1.03.76-1.96,2.01-2.6,2.42-1.25,6.27-1.06,8.57.42,1.19.76,1.81,1.76,1.76,2.79-.05,1.03-.76,1.96-2.01,2.6h0c-1.08.56-2.44.83-3.82.83Zm-.68-6.71c-1.26,0-2.49.25-3.48.75-.99.51-1.56,1.2-1.59,1.95-.04.75.47,1.5,1.41,2.11,2.1,1.35,5.6,1.52,7.8.38h0c.99-.51,1.56-1.2,1.59-1.95.04-.75-.47-1.5-1.41-2.11-1.16-.75-2.76-1.13-4.33-1.13Z"/></g><path class="cls-2" d="m192.54,311.1c-1.07,0-2.16-.27-2.97-.79-.77-.5-1.18-1.15-1.14-1.84.03-.69.5-1.29,1.31-1.71,1.54-.8,3.91-.68,5.37.26.77.5,1.18,1.15,1.14,1.84-.03.69-.5,1.29-1.31,1.71h0c-.69.36-1.54.53-2.4.53Zm-.4-4.1c-.74,0-1.47.15-2.05.44-.55.29-.87.66-.89,1.06-.02.4.26.81.79,1.15,1.24.8,3.3.9,4.61.22.55-.29.87-.66.89-1.06.02-.4-.26-.81-.79-1.15-.69-.44-1.63-.67-2.55-.67Z"/><path class="cls-2" d="m159.63,315.85l-1.59-1.02c-.33-.21-.5-.51-.49-.82.02-.31.22-.6.56-.77l1.2-.62.35.68-1.2.62c-.12.06-.15.12-.15.13,0,0,.02.07.14.14l1.59,1.02-.42.65Z"/><path class="cls-2" d="m215.14,294.83l-1.59-1.02c-.32-.21-.9-.23-1.23-.06l-1.2.62-.35-.68,1.2-.62c.58-.3,1.46-.25,2,.1l1.59,1.02-.42.65Z"/><path class="cls-2" d="m173.07,324.07c-.4,0-.8-.1-1.1-.29l-1.59-1.02.42-.65,1.59,1.02c.32.21.9.23,1.23.06l1.2-.62.35.68-1.2.62c-.26.13-.58.2-.9.2Z"/><path class="cls-2" d="m226.39,304.2l-.35-.68,1.2-.62c.12-.06.15-.12.15-.13,0,0-.02-.07-.14-.14l-1.59-1.02.42-.65,1.59,1.02c.33.21.5.51.49.82-.02.31-.22.6-.57.77l-1.2.62Z"/><path class="cls-2" d="m181.55,311.34c-.06-.06-1.47-1.53-1.24-3.56.18-1.56,1.26-2.98,3.22-4.24l.41.65c-1.75,1.12-2.72,2.36-2.87,3.67-.19,1.67,1.02,2.93,1.03,2.94l-.55.54Z"/><path class="cls-2" d="m203.43,311.71l-.56-.53.28.26-.28-.26c.08-.08,1.87-2.05.02-4.45l.61-.47c2.25,2.93-.05,5.42-.07,5.45Z"/><path class="cls-2" d="m169.87,320.64l-6.76-4.34.38-.34s1.05-.96.6-2.01l.71-.3c.46,1.08-.07,2.03-.47,2.52l5.65,3.63c.55-.15,2.28-.51,4.42-.03l-.17.75c-2.35-.53-4.18.06-4.19.06l-.17.06Z"/><path class="cls-2" d="m174.54,319.04l-9.47-5.89c-.32-.2-.5-.54-.49-.92.02-.38.22-.71.56-.88l13.39-6.9.35.68-13.39,6.9c-.13.06-.14.18-.15.23,0,.05,0,.16.13.24l9.47,5.89-.4.65Z"/><path class="cls-2" d="m176.4,320.73l-.36-.68,7.35-3.85c.2-.1.23-.29.24-.37,0-.08,0-.26-.2-.39l-9.04-5.98.42-.64,9.04,5.98c.36.24.56.64.54,1.07-.02.43-.26.81-.65,1.01l-7.35,3.85Z"/><path class="cls-2" d="m210.05,308.32l-8.92-5.9c-.36-.24-.56-.64-.54-1.07.02-.43.27-.81.65-1.01l7.32-3.76.35.68-7.32,3.76c-.2.1-.23.29-.24.37,0,.08,0,.27.2.39l8.92,5.9-.42.64Z"/><path class="cls-2" d="m206.44,312.74l-.35-.68,13.4-6.91c.13-.06.14-.18.15-.23,0-.05,0-.16-.13-.24l-8.71-5.49.41-.65,8.71,5.49c.32.2.5.55.48.92-.02.38-.23.7-.56.88l-13.4,6.91Z"/><path class="cls-2" d="m219.71,303.05c-.58-1.29.12-2.39.81-3l-4.25-2.73c-2.58.98-5.19.2-5.31.17l.22-.73s2.6.76,4.98-.22l.19-.08,5.56,3.57-.52.32c-.07.04-1.6,1.01-.98,2.38l-.7.31Z"/></g><g><path class="cls-1" d="m177.48,315.39l-.51.26c-.66.34-1.77.24-2.49-.22l-2.6-1.67c-.72-.46-.77-1.11-.11-1.45l.51-.26c.66-.34,1.77-.24,2.49.22l2.6,1.67c.72.46.77,1.11.11,1.45Z"/><path class="cls-2" d="m176.02,316.24c-.6,0-1.25-.17-1.74-.48l-2.6-1.67c-.5-.32-.77-.75-.75-1.18.02-.39.26-.72.67-.93l.51-.26c.78-.4,2.04-.29,2.87.24l2.6,1.67c.5.32.77.75.75,1.19-.02.39-.26.72-.67.93l-.51.26c-.32.16-.72.24-1.13.24Zm-2.78-4.01c-.29,0-.57.05-.78.16l-.51.26c-.09.05-.25.15-.25.28,0,.12.1.31.4.5l2.6,1.67c.6.39,1.57.48,2.11.2l.51-.26c.09-.05.25-.15.25-.28,0-.12-.1-.31-.4-.5l-2.6-1.67c-.37-.24-.87-.36-1.33-.36Z"/></g><g><path class="cls-1" d="m213.12,304.41l-.51.26c-.66.34-1.77.24-2.49-.22l-2.6-1.67c-.72-.46-.77-1.11-.11-1.45l.51-.26c.66-.34,1.77-.24,2.49.22l2.6,1.67c.72.46.77,1.11.11,1.45Z"/><path class="cls-2" d="m211.66,305.26c-.6,0-1.25-.17-1.74-.48l-2.6-1.67c-.5-.32-.77-.75-.75-1.18.02-.39.26-.72.67-.93l.51-.26c.78-.4,2.04-.3,2.87.24l2.6,1.67c.5.32.77.75.75,1.18-.02.39-.26.72-.67.93l-.51.26c-.32.16-.72.24-1.13.24Zm-2.79-4.01c-.29,0-.57.05-.78.16l-.51.26c-.09.05-.25.15-.25.28,0,.12.1.31.4.5l2.6,1.67c.6.39,1.57.48,2.11.2l.51-.26c.09-.05.25-.15.25-.28,0-.12-.1-.31-.4-.5l-2.6-1.67c-.37-.24-.87-.36-1.33-.36Z"/></g></g></g><g><g><path class="cls-3" d="m120.36,184.91h0c1.36-.79,2.45-2.92,2.44-4.75l-.27-27.8c-.02-1.83-1.14-2.58-2.51-1.67h0c-1.37.91-2.46,3.11-2.45,4.92l.28,27.47c.02,1.81,1.14,2.63,2.5,1.84Z"/><path class="cls-3" d="m148.65,139.69c1.59-1.03,2.91-3.79,2.9-6.07s-1.35-3.25-2.95-2.19-2.91,3.82-2.9,6.02,1.36,3.27,2.95,2.24Z"/><path class="cls-3" d="m155.77,135.09c1.55-1,2.88-3.8,2.87-6.11s-1.35-3.31-2.91-2.28-2.91,3.85-2.9,6.08,1.35,3.34,2.94,2.31Z"/><path class="cls-3" d="m188.25,109.3l.02,32.25c0,2.12,1.11,3.2,2.47,2.41h0c1.36-.79,2.47-3.18,2.47-5.32v-32.58c0-2.15-1.11-3.15-2.48-2.24h0c-1.37.91-2.48,3.37-2.48,5.49Z"/></g><path class="cls-3" d="m140.61,172.41c-.79,3.45-2.83,6.75-5.23,8.13-.61.35-1.19.55-1.74.61-1.11.13-2.31,1.58-2.7,3.32-.46,2.05.26,3.63,1.59,3.43.92-.14,1.89-.47,2.9-1.03,4.75-2.65,8.72-9.51,9.8-16.41l.27-.16,1.44-.84.37-.21,3.32-1.93c2.43-1.41,4.12-3.63,5.25-6.11,1.22,1.11,2.81,1.42,4.55.41l4.07-2.37.4-.24,10.14-5.83v-.03s1.25-.73,1.25-.73c.08-.04.16-.08.23-.13.97-.57,1.93-1.44,2.85-2.59.98-1.23,1.86-2.65,2.62-4.23.77-1.59,1.38-3.29,1.83-5.06.42-1.66.65-3.53.63-5.19,0-.04,0-.07,0-.11v-.44c.03-1.76-.2-3.46-.65-4.67-.45-1.22-1.07-2.17-1.84-2.83-.77-.65-1.65-.99-2.63-1.03-1-.03-2.04.32-3.1,1.04l-5.8,3.68c-1.37.87-2.48,3.24-2.48,5.28,0,1,.26,1.77.73,2.18.47.41,1.1.42,1.77,0l5.81-3.6.03-.02c.39-.26.75-.37,1.11-.35.38.02.73.17,1.03.44.3.27.54.65.71,1.13.12.33.2.88.22,1.41v.73s0,.05,0,.05c.01.62-.08,1.45-.22,2.03-.17.69-.41,1.36-.7,1.99-.3.64-.63,1.19-1.02,1.69-.36.46-.72.79-1.11,1l-5.22,3.12v.03s-6.22,3.72-6.22,3.72l-.41.24-3.41,2.04c-2.21,1.32-2.77-.34-2.78-2.7v-1.24c.03-.61.03-1.15.02-1.69l-.03-7.41c0-2-1.13-2.91-2.5-2.03h0c-1.38.88-2.49,3.21-2.47,5.19l.04,3.51.03,6.65c.01,2.34-.46,4.59-2.71,5.94l-3.39,2.03-.37.22-3.52,2.11"/><g><path class="cls-3" d="m138.79,165.63h0c-.09-.02-.2.04-.28.17-.32.48-.67.91-1.05,1.29-1.04,1.03-2.11,1.42-2.99,1.23-.09-.02-.21.06-.29.2,0,0-.01.02-.02.03-.14.23-.12.52.03.55.99.22,2.21-.22,3.41-1.39.44-.43.84-.92,1.2-1.47.16-.24.16-.56,0-.61"/><path class="cls-3" d="m137.83,150.22c-1.07-2.2-3.23-2.77-5.71-1.17-3.51,2.27-6.33,7.97-6.28,12.7.02,2.24.68,3.88,1.73,4.77-.09.75-.13,1.49-.12,2.21.06,6.63,4.08,9.72,8.96,6.88s8.82-10.78,8.78-17.69c-.04-6.14-3.21-9.27-7.35-7.69m-10.07,14.98c-.74-.83-1.19-2.17-1.2-3.91-.04-4.2,2.46-9.25,5.57-11.25,2.01-1.3,3.79-.98,4.81.59-.23.12-.47.26-.71.41-.5.32-.99.69-1.46,1.1-.03.03-.06.06-.1.08-2.58,2.28-4.76,5.82-6.03,9.6.52,1.5,1.75,2.08,3.21,1.38.71-2.6,2.24-5.09,4.04-6.41.03-.02.05-.04.08-.06.1-.07.2-.14.3-.2.5-.31.99-.51,1.44-.6-.52,3.86-2.76,7.9-5.46,9.55-.28.17-.56.31-.84.42-1.48.6-2.77.31-3.65-.7m8.6,4.91c-2.56,1.52-4.68.07-4.93-3.22.27-.12.55-.26.82-.43,3-1.83,5.5-6.28,6.13-10.59,1.65.08,2.81,1.73,2.83,4.46.03,3.79-2.15,8.18-4.85,9.78"/><path class="cls-11" d="m135.96,156.73s-.05.04-.08.06c-.42,2.53-1.89,5.11-3.65,6.2-.13.08-.26.15-.39.21-1.46.7-2.69.12-3.21-1.38-.16-.47-.26-1.02-.26-1.67-.02-2.86,1.67-6.28,3.77-7.63.96-.61,1.84-.68,2.52-.3.03-.03.06-.06.1-.08.48-.41.96-.78,1.46-1.1.24-.15.48-.29.71-.41-1.01-1.56-2.79-1.89-4.81-.59-3.11,2.01-5.61,7.06-5.57,11.25.02,1.74.46,3.07,1.2,3.91.88,1,2.18,1.3,3.65.7.27-.11.55-.25.84-.42,2.7-1.65,4.94-5.68,5.46-9.55-.46.09-.94.29-1.44.6-.1.06-.2.13-.3.2"/></g><polygon class="cls-3" points="145.19 157.91 142.16 159.76 142.24 172.08 145.27 170.32 145.19 157.91"/><polygon class="cls-3" points="136.18 173.72 145.92 168.01 147.26 169.21 136.19 175.7 136.18 173.72"/><path class="cls-3" d="m107.04,186.28c-1.67.54-2.94-.63-2.97-2.92-.03-2.63,1.58-5.78,3.6-7.04.5-.31.99-.48,1.45-.51.81-.04,1.73-.81,2.34-2h0c1.03-2.01.68-4.11-.67-4.05-.99.05-2.07.44-3.18,1.14-4.33,2.75-7.8,9.47-7.73,15,.02,1.66.36,3.04.95,4.08l-.16.1c-1.35.8-2.42,2.83-2.4,4.53h0c.02,1.7,1.13,2.44,2.48,1.66l10.81-6.29c1.35-.78,2.42-2.85,2.4-4.62h0c-.02-1.77-1.13-2.55-2.47-1.74l-4.44,2.66Z"/></g><g><g><g><g><path class="cls-11" d="m219.61,200.83l2.25,16.11s.01.01.02,0l8.27-19.63s0,0,0,0l.05-7.03s0,0,0,0l-47.04-25.86s-.02,0-.01.01l18.37,28.96s0,0,0,0l18.09,7.43s0,0,0,0Z"/><path class="cls-2" d="m222.26,217.63l-.96-.16-.06-.48-2.2-15.74-17.94-7.37-.11-.16-18.63-29.38.67-.71.43.23,47.36,26.04v.37s-.09,7.27-.09,7.27l-8.46,20.08Zm-2.03-16.85l1.94,13.87,7.36-17.47.04-6.55-44.63-24.54,16.99,26.8,18.29,7.51v.38Z"/></g><g><g><path class="cls-1" d="m183.18,164.43l46.96,32.87s0,0,0,0l20.18-6.91s0-.01,0-.02l-67.15-25.97s-.02,0,0,.02Z"/><path class="cls-2" d="m230.04,198l-.27-.2-47.39-33.18.5-.97.52.18,67.56,26.13v.86s-.4.16-.4.16l-20.51,7.02Zm-42.38-31.19l42.58,29.81,18.3-6.26-60.89-23.55Z"/></g><rect class="cls-2" x="222.03" y="205.65" width="3.43" height="1.24" transform="translate(-52.06 334.88) rotate(-67.67)"/><rect class="cls-2" x="222.61" y="198.85" width="7.86" height="1.24" transform="translate(-44.03 333.25) rotate(-67.67)"/><rect class="cls-2" x="220.04" y="195.71" width="6.44" height="1.24" transform="translate(-44.57 325.4) rotate(-67.06)"/></g></g><g><rect class="cls-2" x="187.19" y="193.19" width="1.24" height="4.45" transform="translate(-41.93 51.61) rotate(-14.09)"/><rect class="cls-2" x="185.24" y="183.63" width="1.24" height="8.07" transform="translate(-40.1 50.9) rotate(-14.09)"/></g><g><g><g><path class="cls-2" d="m217.74,172.85c-2.1.21-2.61,1.6-5.28,4.21-2.3,2.25-4.05,5.01-5.08,8.06-1.02,3.02-1.61,4.88-1.09,6.74l-.18,1.85,2.87,1.86.08.04c1.97,1.2,4.81.8,8.15-1.5,3.32-2.29,5.78-5.64,7.12-9.44,1.9-5.37,1.08-9.21-1.22-10.82l-.11-.08-2.76-1.79-2.5.88Z"/><path class="cls-2" d="m211.51,196.88c-1.02,0-1.96-.25-2.78-.75l-.09-.05-3.19-2.07.21-2.11c-.53-2.06.17-4.14,1.13-6.99,1.04-3.1,2.85-5.97,5.23-8.3.74-.72,1.31-1.35,1.8-1.89,1.25-1.37,2.08-2.29,3.77-2.48l2.72-.96,3.16,2.07c2.76,1.91,3.3,6.22,1.43,11.51-1.41,3.99-4.02,7.45-7.36,9.75-2.18,1.5-4.25,2.27-6.04,2.27Zm-4.75-3.49l2.55,1.66c1.88,1.14,4.54.61,7.53-1.46,3.12-2.15,5.57-5.4,6.89-9.14,1.65-4.66,1.27-8.53-.99-10.1l-.13-.1-2.46-1.6-2.36.81c-1.27.12-1.83.74-3.05,2.09-.48.53-1.09,1.2-1.86,1.95-2.24,2.19-3.94,4.89-4.92,7.81-1.03,3.06-1.54,4.73-1.08,6.38l.03.11-.16,1.59Z"/></g><g><path class="cls-1" d="m213.73,172.27c5.21-2.65,9.18-.07,8.87,5.77-.31,5.84-4.78,12.72-9.99,15.37-5.21,2.65-9.18.07-8.87-5.77.31-5.84,4.78-12.72,9.99-15.37Z"/><path class="cls-2" d="m208.76,195.07c-1.11,0-2.12-.28-2.99-.85-1.87-1.22-2.81-3.57-2.65-6.62.32-6.03,4.95-13.15,10.33-15.89h0c2.73-1.39,5.26-1.48,7.13-.27,1.87,1.22,2.81,3.57,2.65,6.62-.32,6.03-4.95,13.15-10.33,15.89-1.46.74-2.86,1.11-4.13,1.11Zm8.82-23.23c-1.08,0-2.29.33-3.57.98h0c-5.03,2.56-9.36,9.22-9.65,14.85-.14,2.59.6,4.55,2.09,5.52,1.48.96,3.57.85,5.89-.33,5.02-2.56,9.36-9.22,9.65-14.85.14-2.59-.6-4.55-2.09-5.51-.66-.43-1.45-.65-2.32-.65Z"/></g><g><path class="cls-2" d="m213.96,175.71c-3.42,1.99-6.55,6.8-6.98,10.73-.43,3.94,1.99,5.51,5.41,3.52,3.42-1.99,6.55-6.8,6.98-10.73.43-3.94-1.99-5.51-5.41-3.52Z"/><path class="cls-2" d="m209.68,191.45c-.66,0-1.26-.17-1.78-.5-1.23-.8-1.77-2.42-1.54-4.57.45-4.1,3.72-9.13,7.28-11.2h0c1.87-1.09,3.57-1.25,4.8-.45,1.23.8,1.78,2.42,1.54,4.57-.45,4.1-3.72,9.13-7.28,11.2-1.08.63-2.11.95-3.03.95Zm4.59-15.2c-3.27,1.9-6.26,6.51-6.67,10.27-.18,1.63.18,2.87.98,3.39.8.52,2.08.35,3.5-.48,3.27-1.9,6.26-6.51,6.67-10.27.18-1.63-.18-2.87-.98-3.39-.8-.52-2.08-.35-3.5.48h0Z"/></g><g><path class="cls-7" d="m215.58,176.77c-3.42,1.99-6.55,6.8-6.98,10.73-.16,1.42.06,2.53.57,3.28.89.15,1.99-.09,3.23-.81,3.42-1.99,6.55-6.8,6.98-10.73.16-1.42-.06-2.53-.57-3.28-.89-.15-1.99.09-3.23.81Z"/><path class="cls-2" d="m209.69,191.44c-.22,0-.43-.02-.63-.05l-.26-.05-.15-.22c-.6-.9-.83-2.18-.67-3.69.45-4.1,3.72-9.13,7.28-11.2h0c1.32-.77,2.58-1.07,3.64-.89l.26.05.15.22c.6.9.83,2.18.67,3.69-.45,4.1-3.72,9.13-7.28,11.2-1.07.62-2.1.94-3.02.94Zm-.14-1.24c.72.04,1.6-.22,2.54-.77,3.27-1.9,6.26-6.51,6.67-10.27.12-1.08,0-1.98-.33-2.63-.71-.04-1.6.22-2.54.77h0c-3.27,1.9-6.26,6.51-6.67,10.27-.12,1.08,0,1.98.33,2.63Z"/></g></g><rect class="cls-7" x="223.26" y="179.64" width=".95" height="2.82" transform="translate(-50.01 269.94) rotate(-56.97)"/><rect class="cls-7" x="211.28" y="193.7" width=".95" height="2.82" transform="translate(-67.23 266.34) rotate(-56.98)"/><rect class="cls-7" x="210.39" y="178.98" width=".95" height="1.82" transform="translate(-54.89 258.62) rotate(-56.97)"/><g><g><path class="cls-2" d="m208.74,187.91l1.3.84,1.83-1.36-.82-1.72v-.04s7.75-3.94,7.75-3.94c.22-.63.38-1.26.49-1.87l.05-.94-1.3-.84-8.99,6.08-.31,3.8Z"/><path class="cls-2" d="m210.05,189.34l-1.81-1.18.35-4.31,9.44-6.38,1.79,1.17-.06,1.21c-.11.68-.28,1.34-.51,2l-.06.18-7.52,3.83.8,1.69-2.41,1.79Zm-.82-1.67l.78.51,1.25-.93-.7-1.48.02-.4.25-.16,7.58-3.86c.18-.55.32-1.1.41-1.62l.03-.61-.8-.52-8.54,5.77-.27,3.28Z"/></g><g><path class="cls-1" d="m209.75,184.79v.04s.82,1.72.82,1.72l-1.83,1.36-1.1-2.42.12-2.22,10.28-5.23s0,0,0,0l-.14,2.6-8.15,4.15Z"/><path class="cls-2" d="m208.55,188.65l-1.4-3.07.14-2.61,11.26-5.73-.19,3.7-8,4.07.8,1.69-2.61,1.95Zm-.43-3.25l.81,1.78,1.04-.77-.7-1.48.02-.4.25-.16,7.9-4.02.08-1.51-9.3,4.73-.1,1.82Z"/></g></g></g><g><g><path class="cls-11" d="m221.85,216.95l-22.23-18.48s0-.02,0-.02l19.98,2.36s0,0,0,0l2.26,16.12s0,.01-.01,0Z"/><path class="cls-2" d="m221.76,217.7l-.31-.28-22.57-18.76.33-.87.48.04,20.53,2.43v.56s2.32,16.47,2.32,16.47l-.78.41Zm-20.16-18.38l19.43,16.15-1.97-14.08-17.46-2.06Z"/></g><g><path class="cls-1" d="m183.13,164.42l11.71,45.23s0,0,.01,0l24.74-8.83s0,0,0-.01l-36.45-36.4s-.02,0-.01,0Z"/><path class="cls-2" d="m194.8,210.33l-.51-.28-.06-.29-11.81-45.65.8-.46.34.31,36.71,36.65-.15.67-.33.12-25,8.92Zm-10.51-43.9l10.98,42.41,23.2-8.28-34.18-34.13Z"/></g><rect class="cls-2" x="186.62" y="177.16" width="5.26" height="1.24" transform="translate(-51.52 80.57) rotate(-21.22)"/><rect class="cls-2" x="187.45" y="180.34" width="2.41" height="1.24" transform="translate(-49.55 73.29) rotate(-19.48)"/><rect class="cls-2" x="211.62" y="203.57" width="1.24" height="5.77" transform="translate(-27.57 32.79) rotate(-8.3)"/><rect class="cls-2" x="214.02" y="204.05" width="1.24" height="2.42" transform="translate(-27.06 32.68) rotate(-8.19)"/><rect class="cls-2" x="214.65" y="207.55" width="1.24" height="4.14" transform="translate(-27.71 32.87) rotate(-8.21)"/></g></g><g><path class="cls-2" d="m220.46,259.65c-1.84,0-3.66-.58-5.2-1.71-1.7-1.25-2.71-3.25-2.71-5.35,0-2.32,1.23-4.5,3.22-5.69l6.16-3.7c2.65-1.59,4.94-3.8,6.63-6.38,2.82-4.31,2.56-9.92-.66-13.95l-2.96-3.71.97-.77,2.96,3.71c3.55,4.45,3.85,10.64.73,15.4-1.79,2.74-4.22,5.08-7.03,6.77l-6.16,3.7c-1.62.97-2.62,2.74-2.62,4.63,0,1.71.82,3.34,2.2,4.35,2.23,1.64,5.18,1.92,7.69.74l.99-.47.53,1.12-.99.47c-1.19.56-2.47.84-3.75.84Z"/><path class="cls-2" d="m234.08,239.4l-1.11-.56.28-.57c1.52-3.04,2.04-6.43,1.51-9.79-.39-2.41-1.34-4.75-2.75-6.75l-4.05-5.74,1.01-.71,4.05,5.74c1.52,2.15,2.54,4.67,2.96,7.26.58,3.62.02,7.26-1.62,10.54l-.28.57Z"/><path class="cls-2" d="m235.63,268.27l-.84-2.76c-.39-1.29-1.44-2.29-2.75-2.63-.61-.15-1.25-.16-1.86-.01l-1.61.39c-3.52.85-7.18.62-10.58-.66l-5.06-1.92.44-1.16,5.06,1.92c3.16,1.2,6.56,1.41,9.84.62l1.61-.39c.8-.2,1.65-.19,2.46.01,1.72.44,3.11,1.77,3.63,3.47l.84,2.76-1.19.36Z"/><path class="cls-2" d="m240.18,270.05l-1.23-.13c.29-2.76-1.19-5.69-1.21-5.72l1.1-.57c.07.13,1.67,3.28,1.34,6.42Z"/><path class="cls-2" d="m234.12,218.81c-1.84-3.05-4.55-6.26-4.58-6.3l.95-.8c.11.13,2.8,3.33,4.69,6.46l-1.06.64Z"/></g></g><g><g><g><g><path class="cls-3" d="m395.43,174.6l-77.12-44.53c-1.53-.88-1.95-1.58-3.05-1.02l-.98.6c-.15.08-.29.17-.43.26l-11.16,6.73c-.44.27-.59.83-.34,1.28l6.03,10.89v42.2c0,4.71,2.86,10.17,6.39,12.21l60.76,35.08,6.36,5.33,12.83-2.52c1.43-.73,7.08,2.43,7.08-.24v-54.09c0-4.71-2.86-10.17-6.39-12.21Z"/><path class="cls-5" d="m387.33,255.24l-12.51-15.82-60.54-34.95c-3.97-2.29-7.07-8.17-7.07-13.39v-41.84s-5.86-10.59-5.86-10.59c-.6-1.09-.25-2.46.81-3.11l11.17-6.74c.11-.08.3-.21.52-.31,1.56-.79,3.45-.63,5.33.45l77.12,44.53c3.97,2.29,7.07,8.17,7.07,13.39v54.09c0,3.1-1.13,5.45-3.09,6.46l-12.96,7.84Zm-85.07-117.58l7.69,10.86v42.55c0,4.19,2.61,9.24,5.71,11.03l61.16,35.42,11.17,14.13,10.97-6.63c1.09-.56,1.69-2.07,1.69-4.07v-54.09c0-4.19-2.61-10.92-5.71-12.7l-77.12-44.52c-.74-.43-.99-.84-1.89-.38-.09.05-1.01.1-1.1.16l-12.58,8.26Z"/></g><g><path class="cls-5" d="m385.98,255.28c-1.03,0-2.13-.32-3.23-.95h0s-77.12-44.53-77.12-44.53c-3.97-2.29-7.07-8.17-7.07-13.39v-54.09c0-2.98,1.05-5.29,2.89-6.35,1.6-.92,3.57-.81,5.55.34l77.12,44.53c3.97,2.29,7.08,8.17,7.08,13.4v54.09c0,2.98-1.05,5.29-2.89,6.35-.71.41-1.5.62-2.33.62Zm-1.86-3.33c.77.45,1.89.88,2.81.34.95-.55,1.52-2.04,1.52-3.98v-54.09c0-4.19-2.61-9.24-5.71-11.03l-77.12-44.52c-.77-.45-1.88-.87-2.81-.34-.95.55-1.52,2.04-1.52,3.98v54.09c0,4.19,2.61,9.24,5.71,11.03l77.12,44.53h0Z"/><path class="cls-11" d="m383.44,253.14l-77.12-44.53c-3.53-2.04-6.39-7.5-6.39-12.21v-54.09c0-4.71,2.86-6.87,6.39-4.83l77.12,44.53c3.53,2.04,6.39,7.5,6.39,12.21v54.09c0,4.71-2.86,6.87-6.39,4.83Z"/></g></g><polygon class="cls-8" points="389.46 188.89 400.69 181.53 402.06 187.58 401.88 243.56 399.71 246.91 388.94 252.92 389.88 198.84 389.46 188.89"/></g><g><g><path class="cls-7" d="m352.12,198.2l-5.02-8.47c-.16-.27-.42-.29-.42-.04v1.48c0,.34-.24.48-.53.31l-7.17-4.14c-.14-.08-.25-.01-.25.14v6.38c0,.16.11.35.25.43l7.17,4.14c.29.17.53.58.53.92v1.48c0,.25.26.53.42.45l5.02-2.68c.1-.05.1-.24,0-.41Z"/><path class="cls-7" d="m347.04,201.47c-.06,0-.13-.02-.19-.06-.18-.11-.32-.35-.32-.57v-1.48c0-.28-.21-.65-.45-.79l-7.17-4.14c-.19-.11-.33-.35-.33-.57v-6.38c0-.13.06-.24.15-.3.1-.06.22-.05.33.02l7.17,4.14c.09.05.17.06.22.04.05-.03.08-.11.08-.21v-1.48c0-.2.11-.3.22-.32.17-.05.37.07.5.28l5.02,8.47c.09.15.12.32.08.45-.02.08-.07.15-.14.19l-5.02,2.68s-.09.03-.14.03Z"/></g><g><g><g><path class="cls-11" d="m330.37,209.96l-15.68-9.05c-1.58-.91-2.86-3.36-2.86-5.47v-37.44c0-2.11,1.28-3.08,2.86-2.16l15.68,9.05c1.58.91,2.86,3.36,2.86,5.47v37.44c0,2.11-1.28,3.08-2.86,2.16Z"/><path class="cls-1" d="m331.51,210.62c-.41,0-.85-.13-1.3-.39l-15.68-9.05c-1.67-.96-3.02-3.54-3.02-5.75v-37.44c0-1.23.42-2.17,1.15-2.59.62-.36,1.4-.31,2.19.15l15.68,9.05c1.67.96,3.02,3.54,3.02,5.75v37.44c0,1.23-.42,2.17-1.15,2.59-.27.16-.57.24-.89.24Zm-.98-.94c.59.34,1.14.39,1.55.15.53-.3.83-1.05.83-2.04v-37.44c0-2-1.21-4.33-2.7-5.19l-15.68-9.05c-.59-.34-1.14-.39-1.55-.15-.53.3-.83,1.05-.83,2.04v37.44c0,2,1.21,4.33,2.7,5.19l15.68,9.05Z"/></g><g><path class="cls-11" d="m329.99,166.94l-5.33-3.08c-.43-.25-.82-.2-1.02.12h0c-.2.32-.59.36-1.02.12l-.17-.1c-.43-.25-.82-.75-1.02-1.3h0c-.2-.55-.6-1.05-1.02-1.3l-5.33-3.08c-.75-.43-1.35-.08-1.35.78v37.4c0,.86.61,1.91,1.35,2.34l14.93,8.62c.75.43,1.35.08,1.35-.78v-37.4c0-.86-.61-1.91-1.35-2.34Z"/><path class="cls-1" d="m330.6,207.98c-.24,0-.5-.08-.76-.23l-14.93-8.62c-.85-.49-1.51-1.64-1.51-2.62v-37.4c0-.54.2-.95.56-1.15.36-.21.81-.17,1.28.09l5.33,3.08c.49.28.94.84,1.16,1.46.18.48.52.92.88,1.13l.17.1c.13.07.44.22.59-.01.29-.46.88-.55,1.45-.22l5.33,3.08c.85.49,1.51,1.64,1.51,2.62v37.4c0,.54-.2.95-.56,1.15-.15.09-.33.13-.51.13Zm-16.13-49.52c-.07,0-.14.02-.19.05-.15.09-.24.31-.24.6v37.4c0,.75.55,1.69,1.19,2.07l14.93,8.62c.26.15.49.18.64.09.15-.09.24-.31.24-.6v-37.4c0-.75-.55-1.69-1.19-2.07l-5.33-3.08c-.13-.07-.44-.22-.59.01-.3.46-.88.55-1.45.22l-.17-.1c-.49-.28-.94-.84-1.16-1.46-.17-.48-.52-.92-.88-1.13l-5.33-3.08c-.16-.09-.32-.14-.44-.14Z"/></g></g><path class="cls-1" d="m325.24,177.87c0,.64-.2,1.03-.6,1.19-.4.16-.96.06-1.67-.27v1.23l-.71-.41v-1.2c-.84-.51-1.58-1.11-2.22-1.8v-1.58c.3.35.66.71,1.09,1.08.42.38.8.67,1.13.89v-1.86l-.35-.36c-.69-.71-1.17-1.33-1.46-1.86-.29-.53-.43-1.07-.43-1.6,0-.58.2-.94.59-1.09.39-.15.94-.06,1.64.27v-.92l.71.41v.89c.79.5,1.51,1.09,2.15,1.79l-.49,1.12c-.54-.57-1.09-1.04-1.66-1.43v1.77c.67.69,1.16,1.23,1.44,1.61.29.38.49.75.63,1.09.13.34.2.69.2,1.04Zm-3.65-5.65c0,.18.05.35.16.53.1.17.28.39.51.65v-1.41c-.45-.18-.67-.1-.67.24Zm2.09,4.84c0-.17-.06-.34-.18-.53-.12-.18-.29-.41-.53-.67v1.49c.47.18.71.08.71-.3Z"/><g><path class="cls-1" d="m315.95,181.82v14.67c0,.16.11.35.25.43l12.57,7.26c.14.08.25.01.25-.14v-13.91c0-.25-.24-.54-.42-.5-.55.12-1.66.13-3.3-.9-2.43-1.53-5.49-7.04-9.2-7.1-.09,0-.15.08-.15.2Z"/><path class="cls-1" d="m328.88,204.45c-.08,0-.15-.02-.23-.07l-12.57-7.26c-.21-.12-.37-.39-.37-.63v-14.67c0-.13.04-.25.13-.33.07-.07.18-.1.27-.11,2.52.04,4.69,2.43,6.6,4.54.98,1.08,1.9,2.09,2.72,2.6,1.59,1,2.64.98,3.12.87.13-.03.27.01.4.11.18.15.31.4.31.62v13.91c0,.16-.07.3-.19.37-.06.03-.12.05-.18.05Zm-12.69-22.59v14.63c0,.07.06.18.13.22l12.46,7.19v-13.78c0-.11-.1-.25-.16-.26-.52.12-1.71.16-3.45-.94-.87-.55-1.82-1.59-2.82-2.69-1.83-2.01-3.89-4.28-6.17-4.38Z"/></g></g><g><g><g><path class="cls-11" d="m375.01,235.89l-15.68-9.05c-1.58-.91-2.86-3.36-2.86-5.47v-37.44c0-2.11,1.28-3.08,2.86-2.16l15.68,9.05c1.58.91,2.86,3.36,2.86,5.47v37.44c0,2.11-1.28,3.08-2.86,2.16Z"/><path class="cls-1" d="m376.15,236.56c-.41,0-.85-.13-1.3-.39l-15.68-9.05c-1.67-.96-3.02-3.54-3.02-5.75v-37.44c0-1.23.42-2.17,1.15-2.59.62-.36,1.4-.31,2.19.15l15.68,9.05c1.67.96,3.02,3.54,3.02,5.75v37.44c0,1.23-.42,2.17-1.15,2.59-.27.16-.57.24-.89.24Zm-.98-.94c.59.34,1.14.39,1.55.15.53-.3.83-1.05.83-2.04v-37.44c0-2-1.21-4.33-2.7-5.19l-15.68-9.05c-.58-.34-1.14-.39-1.55-.15-.53.3-.83,1.05-.83,2.04v37.44c0,2,1.21,4.33,2.7,5.19l15.68,9.05Z"/></g><g><path class="cls-11" d="m374.63,192.87l-5.33-3.08c-.43-.25-.82-.2-1.02.12h0c-.2.32-.6.36-1.02.12l-.17-.1c-.43-.25-.82-.75-1.02-1.3h0c-.2-.55-.6-1.05-1.02-1.3l-5.33-3.08c-.75-.43-1.35-.08-1.35.78v37.4c0,.86.61,1.91,1.35,2.34l14.93,8.62c.75.43,1.35.08,1.35-.78v-37.4c0-.86-.61-1.91-1.35-2.34Z"/><path class="cls-1" d="m375.24,233.91c-.24,0-.5-.08-.76-.23l-14.93-8.62c-.85-.49-1.51-1.64-1.51-2.62v-37.4c0-.54.2-.95.56-1.15.36-.21.81-.17,1.28.09l5.33,3.08c.49.28.94.84,1.16,1.46.18.48.52.92.88,1.13l.17.1c.13.07.44.22.59-.01.29-.46.88-.55,1.45-.22l5.33,3.08c.85.49,1.51,1.64,1.51,2.62v37.4c0,.54-.2.95-.56,1.15-.15.09-.33.13-.51.13Zm-16.13-49.52c-.07,0-.14.02-.19.05-.15.09-.24.31-.24.6v37.4c0,.75.55,1.69,1.19,2.07l14.93,8.62c.25.15.49.18.64.09.15-.09.24-.31.24-.6v-37.4c0-.75-.55-1.69-1.19-2.07l-5.33-3.08c-.13-.07-.44-.22-.59.01-.3.46-.88.55-1.45.22l-.17-.1c-.49-.28-.94-.84-1.16-1.46-.18-.48-.52-.92-.88-1.13l-5.33-3.08c-.16-.09-.32-.14-.44-.14Z"/></g></g><path class="cls-1" d="m369.89,203.8c0,.64-.2,1.03-.6,1.19-.4.16-.96.07-1.67-.27v1.23l-.71-.41v-1.2c-.84-.51-1.59-1.11-2.22-1.8v-1.58c.3.35.66.71,1.09,1.08.42.38.8.67,1.13.89v-1.86l-.35-.36c-.68-.71-1.17-1.33-1.46-1.86-.29-.53-.43-1.07-.43-1.6,0-.58.2-.94.59-1.09.39-.15.94-.06,1.64.27v-.92l.71.41v.89c.79.5,1.51,1.09,2.15,1.79l-.49,1.12c-.54-.57-1.09-1.04-1.66-1.43v1.77c.67.69,1.15,1.23,1.44,1.61.29.38.49.75.63,1.09.13.34.2.69.2,1.04Zm-3.65-5.66c0,.18.05.35.16.53.11.17.28.39.51.65v-1.41c-.45-.18-.67-.1-.67.24Zm2.09,4.84c0-.17-.06-.34-.18-.53-.12-.18-.29-.41-.53-.67v1.49c.47.18.71.08.71-.3Z"/><g><path class="cls-1" d="m360.6,218.37v4.06c0,.16.11.35.25.43l12.57,7.26c.14.08.25.01.25-.14v-3.29c0-.25-.24-.54-.42-.5-.55.12-1.66.13-3.3-.9-2.43-1.53-5.49-7.04-9.2-7.1-.09,0-.15.08-.15.2Z"/><path class="cls-1" d="m373.53,230.39c-.08,0-.15-.02-.23-.07l-12.57-7.26c-.21-.12-.37-.39-.37-.63v-4.06c0-.13.04-.25.13-.33.07-.07.16-.11.27-.11h0c2.52.04,4.69,2.43,6.6,4.54.98,1.07,1.9,2.09,2.72,2.6,1.59,1,2.64.98,3.13.87.13-.03.27.01.4.11.18.15.31.4.31.62v3.29c0,.16-.07.3-.19.37-.06.03-.12.05-.18.05Zm-12.69-11.97v4.01c0,.07.06.18.13.22l12.46,7.19v-3.16c0-.11-.11-.25-.16-.26-.65.15-1.8.1-3.45-.94-.87-.55-1.82-1.59-2.82-2.69-1.83-2.01-3.89-4.28-6.17-4.38Z"/></g></g></g></g><g><g><g><g><path class="cls-3" d="m348.45,267.41l-38.13-22.02c-2.17-1.26-4.15-1.41-5.62-.68l-1.5.91-10.97,6.77c-.06.04-.09.1-.06.17.56,1.16,5.73,11.99,6.2,13.98.2.84,1.82,9.12,3.7,18.76,0,0,0,.02,0,.03v4.83c0,2.71.99,5.72,2.56,8.36,0,.01.01.03.02.04,1.95,10.05,3.61,18.64,3.65,18.86,0,0,0,0,0,.02l5.65,13.34c.03.08.12.11.2.07l12.92-7.53c.06-.03.08-.1.06-.16l-.96-2.72s0-.01,0-.02c-.25-1.3-.45-2.76-.53-4.21l16.46,18.31s.12.06.17.03l12.02-7.43c.06-.04.12-.08.19-.12h0c1.42-.89,2.29-2.7,2.29-5.25v-39.92c0-5.28-3.74-11.76-8.31-14.4Z"/><path class="cls-2" d="m342.19,335.46c-.28,0-.57-.12-.78-.34l-14.58-16.23c.07.44.14.89.23,1.33l.93,2.61c.17.47-.02,1.01-.47,1.26l-13.27,7.73-.51-.12c-.29-.1-.52-.31-.64-.59l-5.7-13.49c-.05-.27-1.7-8.78-3.64-18.77-1.69-2.87-2.62-5.96-2.62-8.71v-4.78c-2.28-11.68-3.51-17.93-3.67-18.63-.31-1.34-3.31-7.89-6.13-13.8-.23-.47-.06-1.05.4-1.34l12.47-7.68c1.89-.95,4.19-.7,6.55.67l38.13,22.02c4.84,2.79,8.77,9.61,8.77,15.19v39.93c0,2.78-.97,4.92-2.72,6.03-.12.07-.17.11-.23.14l-11.98,7.4c-.17.11-.36.16-.55.16Zm-17.62-21.82l17.76,19.76,11.47-7.08.61.7-.49-.77c1.27-.8,1.93-2.39,1.93-4.52v-39.93c0-4.92-3.6-11.15-7.86-13.61l-38.13-22.02c-1.81-1.05-3.5-1.28-4.75-.65l-11.8,7.27c1.62,3.4,5.52,11.68,5.96,13.53.17.74,1.39,6.89,3.7,18.79l.02.2v4.83c0,2.42.89,5.3,2.43,7.89l.09.15.04.21c1.87,9.64,3.48,17.94,3.64,18.77l5.27,12.42,11.59-6.76-.79-2.29c-.28-1.43-.46-2.93-.54-4.31l-.14-2.59Z"/></g><g><path class="cls-1" d="m348.41,267.41l-35.74-20.56-17.97,11.28,38.26,20.14,8.04,1.27,12.37-7.35c-1.39-2-3.1-3.71-4.96-4.78Z"/><path class="cls-2" d="m341.18,280.5l-8.65-1.42-39.67-20.88,19.79-12.42,36.22,20.83c1.91,1.1,3.72,2.85,5.25,5.05l.56.81-13.5,8.02Zm-7.93-3.11l7.56,1.2,11.22-6.67c-1.24-1.61-2.64-2.88-4.08-3.72l-35.26-20.28-16.16,10.14,36.72,19.32Z"/></g><path class="cls-2" d="m344.1,286.1s-15.44,3.64-16.44,4.02c-.83.31-15.95,12.51-21.12,18.22,1.02,5.28,1.73,8.93,1.76,9.08,0,0,0,0,0,.02l5.65,13.34c.03.08.12.11.2.07l12.92-7.53c.06-.03.08-.1.06-.16l-.96-2.72s0-.01,0-.02c-.25-1.3-.45-2.76-.53-4.21l16.46,18.31s.12.06.17.03l12.02-7.43c.06-.04.12-.08.19-.12h0c1.42-.89,2.29-2.7,2.29-5.25v-39.92c0-.98-.13-1.99-.37-3.02l-12.3,7.32Z"/><rect class="cls-3" x="345.62" y="287.34" width="10.69" height="1.22" transform="translate(-98.38 223.28) rotate(-31.18)"/><rect class="cls-3" x="345.33" y="323.14" width="10.68" height="1.22" transform="translate(-116.95 228.26) rotate(-31.17)"/><rect class="cls-3" x="315.43" y="326.39" width="10.68" height="1.22" transform="translate(-122.94 213.25) rotate(-31.17)"/></g><g><path class="cls-11" d="m336.26,275.02l-38.2-22.05c-4.55-2.63-8.25-.5-8.25,4.76v40c0,5.26,3.69,11.65,8.25,14.28l4.35,2.51c.79.45,1.46,1.47,1.61,2.45.47,2.94,2.18,9.28,8.38,13.88,1.2.89,2.17.13,1.81-1.42-.43-1.88-.87-4.36-.88-6.72,0-1.05.75-1.46,1.66-.94l21.28,12.28c4.55,2.63,8.25.5,8.25-4.76v-40c0-5.26-3.69-11.65-8.25-14.28Z"/><path class="cls-2" d="m339.94,336.11c-1.29,0-2.7-.42-4.14-1.25l-21.28-12.28c-.13-.08-.22-.1-.26-.1,0,.03-.02.1-.02.24.01,1.86.31,4.11.86,6.52.27,1.16-.02,2.15-.77,2.64-.7.46-1.63.35-2.48-.28-6.34-4.72-8.2-11.09-8.74-14.47-.11-.71-.62-1.49-1.17-1.8l-4.35-2.51c-4.8-2.77-8.7-9.53-8.7-15.07v-40c0-2.88,1.02-5.06,2.87-6.13,1.86-1.07,4.25-.86,6.75.58l38.2,22.05c4.8,2.77,8.7,9.53,8.7,15.07v40c0,2.88-1.02,5.06-2.87,6.13-.78.45-1.66.68-2.6.68Zm-25.71-15.47c.39,0,.8.12,1.21.35l21.28,12.28c1.91,1.1,3.65,1.3,4.91.58,1.26-.73,1.96-2.34,1.96-4.55v-40c0-4.96-3.49-11.01-7.79-13.49l-38.2-22.05c-1.91-1.1-3.65-1.31-4.91-.58-1.26.73-1.96,2.34-1.96,4.54v40c0,4.96,3.49,11.01,7.79,13.49l4.35,2.51c1.03.59,1.86,1.84,2.06,3.1.5,3.11,2.2,8.97,8.02,13.3.24.17.37.2.42.2-.03,0,.05-.23-.05-.68-.59-2.57-.9-4.9-.91-6.92,0-.83.34-1.51.93-1.85.27-.16.57-.23.89-.23Z"/></g></g><g><g><ellipse class="cls-11" cx="316.73" cy="293.51" rx="13.17" ry="22.81" transform="translate(-104.32 197.69) rotate(-30)"/><path class="cls-7" d="m323.94,315.14c-2.35,0-4.94-.78-7.6-2.32-9.11-5.26-16.53-18.1-16.53-28.63,0-5.27,1.82-9.22,5.12-11.13,3.3-1.91,7.63-1.51,12.2,1.13,9.11,5.26,16.53,18.1,16.53,28.63,0,5.27-1.82,9.22-5.12,11.13-1.37.79-2.93,1.19-4.6,1.19Zm-14.41-41.67c-1.4,0-2.68.32-3.81.97-2.79,1.61-4.33,5.07-4.33,9.75,0,10.02,7.06,22.24,15.73,27.25,4.05,2.34,7.82,2.74,10.61,1.13,2.79-1.61,4.33-5.08,4.33-9.76,0-10.02-7.06-22.24-15.73-27.25-2.42-1.4-4.74-2.1-6.8-2.1Z"/></g><g><path class="cls-11" d="m311.92,292.8l-.3-.17c-1.1-.64-1.99-2.34-1.99-3.81v-5.52c0-1.47.89-2.14,1.99-1.51l.3.17c1.1.64,1.99,2.34,1.99,3.81v5.52c0,1.47-.89,2.14-1.99,1.51Z"/><path class="cls-7" d="m312.71,293.83c-.39,0-.8-.11-1.19-.34l-.3-.17c-1.34-.77-2.39-2.75-2.39-4.5v-5.52c0-1.06.4-1.9,1.09-2.3.61-.35,1.38-.31,2.1.11l.3.17c1.34.78,2.39,2.75,2.39,4.5v5.52c0,1.06-.4,1.9-1.09,2.3-.28.16-.58.24-.91.24Zm-1.88-11.49s-.09,0-.12.03c-.14.08-.29.4-.29.93v5.52c0,1.17.75,2.63,1.6,3.12l.3.17c.22.13.41.16.51.1.15-.08.29-.4.29-.93v-5.52c0-1.17-.75-2.63-1.6-3.12l-.3-.17c-.15-.09-.29-.13-.39-.13Z"/></g><g><path class="cls-11" d="m321.84,298.53l-.3-.17c-1.1-.64-1.99-2.34-1.99-3.81v-5.52c0-1.47.89-2.14,1.99-1.51l.3.17c1.1.64,1.99,2.34,1.99,3.81v5.52c0,1.47-.89,2.14-1.99,1.51Z"/><path class="cls-7" d="m322.64,299.57c-.39,0-.8-.12-1.19-.34l-.3-.17c-1.34-.77-2.39-2.75-2.39-4.5v-5.52c0-1.06.4-1.9,1.09-2.3.61-.35,1.38-.31,2.1.11l.3.17c1.34.78,2.39,2.75,2.39,4.5v5.52c0,1.06-.4,1.9-1.09,2.3-.28.16-.58.24-.91.24Zm-1.88-11.49s-.09,0-.12.03c-.14.08-.29.4-.29.93v5.52c0,1.17.75,2.63,1.6,3.12l.3.17c.22.13.41.17.51.11.15-.08.29-.4.29-.93v-5.52c0-1.17-.75-2.63-1.6-3.12l-.3-.17c-.15-.09-.29-.13-.39-.13Z"/></g><path class="cls-7" d="m319.62,305.69c-4.74,0-8.36-6.31-8.54-6.63l1.38-.78c.04.08,4.36,7.58,8.89,5.41l.68,1.43c-.83.4-1.64.57-2.42.57Z"/></g></g><g><g><g><g><path class="cls-11" d="m275.33,98.17l-26.54-15.32c-1.51-.87-2.89-.98-3.91-.47l-1.04.63-7.64,4.71s-.06.07-.04.12c.39.81,3.99,8.34,4.31,9.73.14.59,1.27,6.35,2.57,13.05,0,0,0,.01,0,.02v3.36c0,1.89.69,3.98,1.78,5.82,0,0,0,.02.01.03,1.36,7,2.51,12.97,2.54,13.13,0,0,0,0,0,.01l3.93,9.28c.02.05.09.07.14.05l8.99-5.24s.06-.07.04-.11l-.67-1.89s0,0,0-.01c-.17-.91-.31-1.92-.37-2.93l11.45,12.74s.08.04.12.02l8.37-5.17s.09-.05.13-.08h0c.99-.62,1.6-1.88,1.6-3.66v-27.79c0-3.68-2.6-8.19-5.79-10.02Z"/><path class="cls-2" d="m270.97,145.54c-.2,0-.4-.08-.54-.24l-10.15-11.29c.05.31.1.62.16.93l.65,1.82c.12.33-.02.7-.32.88l-9.24,5.38-.35-.08c-.2-.07-.36-.22-.44-.41l-3.97-9.39c-.04-.19-1.18-6.11-2.53-13.07-1.18-2.02-1.82-4.16-1.82-6.06v-3.32c-1.59-8.13-2.44-12.48-2.56-12.97-.22-.93-2.3-5.5-4.27-9.6-.16-.34-.04-.74.29-.94l8.67-5.34c1.31-.66,2.92-.49,4.56.46l26.54,15.32c3.37,1.94,6.11,6.69,6.11,10.57v27.79c0,1.94-.67,3.43-1.89,4.2-.08.05-.12.08-.16.1l-8.34,5.15c-.12.07-.25.11-.39.11Zm-12.26-15.19l12.36,13.75,7.98-4.93.44.48-.35-.54c.87-.55,1.33-1.66,1.33-3.14v-27.79c0-3.42-2.5-7.76-5.47-9.47l-26.54-15.32c-1.26-.73-2.44-.89-3.31-.45l-8.21,5.06c1.12,2.35,3.84,8.13,4.15,9.42.12.52.96,4.79,2.58,13.08v.14s.01,3.36.01,3.36c0,1.69.62,3.69,1.69,5.49l.06.1.03.15c1.29,6.66,2.4,12.4,2.53,13.05l3.67,8.66,8.07-4.7-.55-1.6c-.19-.98-.32-2.03-.37-2.99l-.1-1.81Z"/></g><g><path class="cls-1" d="m275.3,98.17l-24.87-14.31-12.51,7.85,26.63,14.02,5.6.89,8.61-5.12c-.97-1.39-2.16-2.58-3.45-3.33Z"/><path class="cls-2" d="m270.27,107.28l-6.02-.99-27.61-14.53,13.77-8.64,25.21,14.5c1.33.77,2.59,1.98,3.66,3.52l.39.56-9.4,5.58Zm-5.52-2.16l5.27.83,7.81-4.64c-.86-1.12-1.84-2.01-2.84-2.59l-24.54-14.12-11.25,7.06,25.56,13.45Z"/></g><path class="cls-2" d="m272.3,111.18s-10.75,2.54-11.44,2.8c-.58.22-11.1,8.71-14.7,12.68.71,3.67,1.2,6.22,1.22,6.32,0,0,0,0,0,.01l3.93,9.28c.02.05.09.07.14.05l8.99-5.24s.06-.07.04-.11l-.67-1.89s0,0,0-.01c-.17-.91-.31-1.92-.37-2.93l11.45,12.74s.08.04.12.02l8.37-5.17s.09-.05.13-.08h0c.99-.62,1.6-1.88,1.6-3.66v-27.79c0-.68-.09-1.39-.26-2.1l-8.56,5.09Z"/><rect class="cls-11" x="273.36" y="112.04" width="7.44" height=".85" transform="translate(-18.21 159.66) rotate(-31.17)"/><rect class="cls-11" x="273.15" y="136.96" width="7.44" height=".85" transform="translate(-31.13 163.15) rotate(-31.17)"/></g><g><path class="cls-3" d="m266.84,103.46l-26.59-15.35c-3.17-1.83-5.74-.35-5.74,3.31v27.84c0,3.66,2.57,8.11,5.74,9.94l3.03,1.75c.55.32,1.01,1.03,1.12,1.71.33,2.05,1.52,6.46,5.83,9.66.84.62,1.51.09,1.26-.99-.3-1.31-.61-3.03-.62-4.68,0-.73.52-1.02,1.15-.65l14.81,8.55c3.17,1.83,5.74.35,5.74-3.31v-27.84c0-3.66-2.57-8.11-5.74-9.94Z"/><path class="cls-2" d="m269.41,145.99c-.9,0-1.88-.29-2.88-.87l-14.81-8.55c-.09-.05-.15-.07-.18-.07,0,.02-.01.07-.01.17,0,1.64.33,3.37.6,4.54.19.81-.01,1.5-.54,1.84-.49.32-1.13.25-1.73-.19-4.41-3.28-5.7-7.72-6.08-10.08-.08-.49-.43-1.03-.81-1.26l-3.03-1.75c-3.34-1.93-6.06-6.64-6.06-10.49v-27.84c0-2.01.71-3.52,2-4.27,1.29-.74,2.96-.6,4.7.4l26.59,15.35c3.34,1.93,6.06,6.64,6.06,10.49v27.84c0,2.01-.71,3.52-2,4.27-.54.31-1.16.47-1.81.47Zm-17.89-10.77c.27,0,.56.08.84.24l14.81,8.55c1.33.77,2.54.91,3.42.4.88-.51,1.36-1.63,1.36-3.16v-27.84c0-3.45-2.43-7.66-5.42-9.39l-26.59-15.35c-1.33-.77-2.54-.91-3.42-.4-.88.51-1.36,1.63-1.36,3.16v27.84c0,3.45,2.43,7.66,5.42,9.39l3.03,1.75c.72.41,1.29,1.28,1.43,2.16.35,2.16,1.53,6.24,5.58,9.25.16.12.26.15.29.14-.02,0,.04-.16-.04-.47-.28-1.23-.62-3.06-.63-4.81,0-.58.23-1.05.65-1.29.19-.11.4-.16.62-.16Z"/></g></g><g><g><path class="cls-3" d="m264.18,126.43l-1.95-2.43c.19-.74.31-1.55.31-2.47s-.11-1.87-.31-2.83l1.95-.17c.28-.03.38-.39.22-.8l-1.77-4.55c-.16-.42-.52-.74-.8-.71l-1.95.17c-1.09-1.88-2.45-3.58-3.98-4.94v-2.6c0-.38-.26-.83-.59-1.02l-3.53-2.04c-.33-.19-.59-.04-.59.34v2.6c-1.52-.4-2.89-.27-3.98.35l-1.95-2.42c-.28-.35-.64-.45-.8-.22l-1.77,2.51c-.16.23-.07.7.22,1.05l1.95,2.43c-.19.74-.31,1.55-.31,2.47s.11,1.87.31,2.83l-1.95.17c-.28.03-.38.39-.22.8l1.77,4.55c.16.42.52.74.8.71l1.95-.17c1.09,1.88,2.45,3.58,3.98,4.94v2.6c0,.38.26.83.59,1.02l3.53,2.04c.33.19.59.04.59-.34v-2.6c1.52.4,2.89.27,3.98-.35l1.95,2.42c.28.35.64.45.8.22l1.77-2.51c.16-.23.07-.7-.22-1.05Z"/><path class="cls-1" d="m255.58,131.28c-.18,0-.36-.05-.54-.15l-3.53-2.04c-.49-.29-.87-.93-.87-1.5v-2.36c-1.39-1.28-2.67-2.86-3.72-4.61l-1.6.14c-.6.05-1.15-.49-1.37-1.06l-1.77-4.55c-.17-.43-.15-.85.03-1.16.14-.23.38-.38.65-.4l1.35-.12c-.14-.82-.21-1.6-.21-2.33,0-.81.09-1.6.26-2.34l-1.78-2.22c-.38-.48-.59-1.22-.24-1.72l1.77-2.51c.16-.22.4-.35.67-.36.32-.03.73.19,1.02.55l1.67,2.07c.96-.43,2.07-.54,3.27-.34v-1.92c0-.38.16-.7.45-.86.29-.16.64-.15.97.04l3.53,2.04c.49.28.87.93.87,1.5v2.36c1.4,1.28,2.68,2.86,3.72,4.61l1.6-.14c.6-.05,1.15.49,1.37,1.06l1.77,4.55c.17.43.15.85-.04,1.16-.14.23-.38.38-.65.4l-1.35.12c.14.82.21,1.6.21,2.33,0,.81-.09,1.6-.26,2.34l1.78,2.21c.38.48.59,1.22.24,1.72l-1.77,2.51c-.15.22-.4.35-.67.36-.38.02-.73-.19-1.02-.55l-1.67-2.07c-.96.43-2.07.54-3.27.34v1.92c0,.38-.16.69-.45.86-.13.08-.28.11-.43.11Zm-8.06-11.82l.18.3c1.07,1.84,2.41,3.51,3.87,4.81l.19.16v2.85c0,.18.16.45.31.54l3.29,1.9v-3.04s.69.18.69.18c1.36.36,2.6.26,3.56-.29l.41-.23,2.24,2.79s.04.04.05.06l1.64-2.33s-.05-.2-.19-.39h0s-2.13-2.65-2.13-2.65l.07-.27c.19-.73.29-1.51.29-2.33s-.1-1.74-.3-2.72l-.12-.6,2.34-.21s-.01-.05-.02-.07l-1.77-4.55c-.08-.22-.24-.35-.29-.37l-2.24.21-.18-.3c-1.07-1.84-2.41-3.5-3.87-4.81l-.19-.16v-2.85c0-.18-.16-.45-.31-.54l-3.29-1.9v3.04s-.69-.18-.69-.18c-1.36-.36-2.59-.26-3.56.29l-.41.23-2.24-2.79s-.04-.04-.05-.06l-1.64,2.33s.05.21.19.39l2.13,2.65-.07.27c-.19.73-.29,1.51-.29,2.33s.1,1.74.29,2.72l.12.6-2.34.21s.01.05.02.07l1.77,4.55c.08.22.24.35.29.37l2.25-.21Z"/></g><g><path class="cls-3" d="m257.81,118.8c0,2.72-1.91,3.82-4.26,2.46-2.35-1.36-4.26-4.66-4.26-7.38s1.91-3.82,4.26-2.46c2.35,1.36,4.26,4.66,4.26,7.38Z"/><path class="cls-1" d="m255.45,122.39c-.68,0-1.42-.22-2.18-.66-2.54-1.47-4.54-4.92-4.54-7.86,0-1.52.54-2.67,1.52-3.24.98-.57,2.25-.46,3.56.3,2.54,1.47,4.54,4.92,4.54,7.86,0,1.52-.54,2.67-1.52,3.24-.42.24-.88.36-1.38.36Zm-3.8-11c-.31,0-.59.07-.84.21-.63.36-.97,1.17-.97,2.28,0,2.54,1.79,5.63,3.98,6.9.96.55,1.83.66,2.46.3.63-.36.97-1.17.97-2.28,0-2.54-1.79-5.63-3.98-6.9-.59-.34-1.14-.51-1.62-.51Z"/></g></g></g><g><g><path class="cls-11" d="m64.54,162.47v-21.16s29.96-17.36,29.96-17.36v21.16s-.43,10.64,4.08,13.16l4.51,2.52-29.96,17.36-4.51-2.52c-4.51-2.52-4.08-13.16-4.08-13.16Z"/><path class="cls-8" d="m68.23,176.32c-4.83-2.7-4.51-13.22-4.48-13.87v-21.61s31.55-18.28,31.55-18.28v22.58c-.11,2.82.32,10.56,3.67,12.43l5.73,3.2-31.56,18.28-4.9-2.74Zm29.96-17.36c-4.88-2.73-4.5-13.43-4.49-13.85v-19.78s-28.36,16.44-28.36,16.44v20.74c-.12,2.82.32,10.56,3.67,12.43l4.11,2.3,28.35-16.43-3.29-1.84Z"/></g><g><path class="cls-7" d="m80.89,152.86l-2.02-8.13c.65-.56,1.32-1.06,2.02-1.47,4.59-2.65,8.31-.5,8.31,4.8,0,5.3-3.72,11.74-8.31,14.39-4.59,2.65-8.31.5-8.31-4.8,0-.72.07-1.47.21-2.22l8.1-2.58Z"/><g><path class="cls-3" d="m78.13,151.5l-8.1,2.58c.68-3.93,3.05-8.08,6.08-10.71l2.02,8.13Z"/><path class="cls-8" d="m69.01,153.56c.72-4.11,3.14-8.37,6.32-11.12l.88-.77,2.47,9.91-9.87,3.14.2-1.17Zm6.39-9.22c-2.19,2.22-3.93,5.29-4.71,8.28l6.28-2-1.56-6.29Z"/></g><path class="cls-8" d="m74.53,163.47c-1.8-1.04-2.79-3.17-2.79-6,0-.73.07-1.52.22-2.34l.07-.43,7.87-2.5-1.97-7.9.33-.29c.72-.62,1.43-1.14,2.13-1.55,2.45-1.42,4.79-1.62,6.59-.58,1.8,1.04,2.79,3.17,2.79,6,0,5.52-3.89,12.25-8.67,15.01-1.42.82-2.81,1.24-4.07,1.24-.91,0-1.77-.22-2.52-.65Zm6.59-19.77c-.51.3-1.04.67-1.58,1.11l2.08,8.35-8.32,2.65c-.09.59-.13,1.15-.13,1.67,0,2.3.74,3.99,2.07,4.76,1.34.77,3.17.57,5.16-.58,4.38-2.53,7.95-8.71,7.95-13.77,0-2.3-.74-3.99-2.07-4.76-.53-.31-1.14-.46-1.81-.46-1.01,0-2.15.35-3.35,1.04Z"/></g></g></g></g></svg>