<?xml version="1.0" encoding="UTF-8"?><svg xmlns="http://www.w3.org/2000/svg" xmlns:xlink="http://www.w3.org/1999/xlink" viewBox="0 0 487.91 430.53"><defs><style>.cls-1{fill:#2167b1;}.cls-2{fill:#fff;}.cls-3{fill:#1a1432;}.cls-4{isolation:isolate;}.cls-5{fill:#e61a6c;}.cls-6{fill:#166eb3;}.cls-7{fill:#3384c2;}.cls-8{fill:#15110e;}.cls-9{mix-blend-mode:multiply;opacity:.8;}.cls-10{fill:#969c9c;}.cls-11{fill:#a5a4a4;}.cls-12{fill:none;stroke:#1a1432;stroke-miterlimit:10;}.cls-13{fill:#f8c01a;}.cls-14{fill:#16110f;}.cls-15{fill:url(#linear-gradient);}.cls-16{fill:#0c0f10;}</style><linearGradient id="linear-gradient" x1="135.21" y1="208.05" x2="313.82" y2="208.05" gradientUnits="userSpaceOnUse"><stop offset=".02" stop-color="#442680"/><stop offset=".29" stop-color="#3a235a"/><stop offset="1" stop-color="#25204e"/></linearGradient></defs><g class="cls-4"><g id="Layer_1"><g class="cls-9"><path class="cls-16" d="m159.55,371.82c-.9,0-1.8-.02-2.7-.05l.07-2c.88.03,1.75.05,2.63.05h.33s0,2,0,2h-.34Zm3.38-.08l-.1-2c.98-.05,1.97-.12,2.95-.21l.19,1.99c-1,.09-2.03.17-3.04.22Zm-9.13-.15c-1.01-.08-2.01-.18-3.02-.3l.23-1.99c.98.12,1.96.21,2.95.29l-.16,1.99Zm15.19-.43l-.28-1.98c.98-.14,1.96-.3,2.91-.48l.37,1.96c-.99.19-2,.36-3.01.5Zm-21.23-.29c-1-.16-1.99-.33-2.99-.53l.38-1.96c.97.19,1.95.36,2.92.51l-.31,1.98Zm27.21-.86l-.47-1.94c.96-.23,1.92-.49,2.85-.77l.57,1.92c-.96.29-1.95.55-2.95.79Zm-33.17-.3c-.98-.23-1.96-.47-2.94-.74l.52-1.93c.96.26,1.92.5,2.88.72l-.45,1.95Zm39.02-1.43l-.67-1.89c.92-.33,1.85-.68,2.75-1.05l.76,1.85c-.93.39-1.89.75-2.85,1.09Zm-44.88-.14c-.96-.29-1.93-.6-2.89-.93l.64-1.89c.94.32,1.88.62,2.82.91l-.58,1.91Zm-5.74-1.95c-.94-.35-1.88-.72-2.82-1.11l.76-1.85c.92.38,1.84.74,2.76,1.09l-.7,1.87Zm56.26-.23l-.86-1.81c.88-.42,1.76-.87,2.62-1.33l.95,1.76c-.89.48-1.81.95-2.72,1.38Zm-61.87-2.07c-.92-.41-1.84-.84-2.75-1.28l.87-1.8c.89.43,1.79.85,2.69,1.25l-.82,1.83Zm67.23-.83l-1.04-1.71c.83-.51,1.66-1.05,2.47-1.6l1.13,1.65c-.84.58-1.7,1.13-2.56,1.66Zm-72.68-1.8c-.9-.47-1.79-.95-2.68-1.44l.97-1.75c.87.48,1.74.95,2.62,1.41l-.92,1.78Zm77.72-1.65l-1.21-1.59c.78-.59,1.55-1.22,2.3-1.85l1.29,1.53c-.77.65-1.57,1.3-2.38,1.91Zm-83.03-1.3c-.87-.52-1.73-1.04-2.59-1.59l1.07-1.69c.84.53,1.69,1.05,2.54,1.56l-1.02,1.72Zm87.68-2.64l-1.37-1.46c.71-.66,1.42-1.36,2.11-2.07l1.43,1.39c-.71.73-1.44,1.45-2.18,2.13Zm-92.81-.61c-.84-.56-1.67-1.14-2.49-1.73l1.16-1.63c.81.58,1.63,1.14,2.45,1.69l-1.12,1.66Zm191.76-1.03h-.74s.02-2,.02-2h.72c.75,0,1.5,0,2.25-.02l.04,2c-.76.02-1.53.03-2.29.03Zm-3.76-.07c-1.01-.04-2.02-.09-3.03-.16l.13-2c.99.07,1.98.12,2.97.15l-.07,2Zm9.08-.07l-.1-2c.99-.05,1.98-.12,2.97-.19l.16,1.99c-1.01.08-2.01.15-3.02.2Zm-15.13-.33c-1.01-.1-2.01-.21-3.01-.34l.25-1.98c.98.13,1.96.24,2.95.33l-.19,1.99Zm21.17-.15l-.22-1.99c.99-.11,1.97-.23,2.95-.36l.27,1.98c-1,.14-2,.26-3.01.37Zm-27.18-.62c-1-.16-1.99-.33-2.98-.52l.38-1.96c.97.19,1.95.36,2.93.51l-.32,1.97Zm33.18-.2l-.33-1.97c.98-.16,1.95-.34,2.93-.53l.38,1.96c-.99.19-1.98.37-2.98.54Zm-39.13-.94c-.99-.22-1.97-.46-2.95-.71l.5-1.94c.96.25,1.92.48,2.89.69l-.44,1.95Zm-174.92-.11c-.8-.61-1.6-1.23-2.39-1.86l1.25-1.56c.78.62,1.56,1.23,2.35,1.82l-1.21,1.6Zm220-.11l-.44-1.95c.97-.22,1.93-.44,2.89-.69l.49,1.94c-.98.25-1.96.48-2.95.7Zm-118-.14l-1.5-1.33c.65-.73,1.28-1.48,1.91-2.25l1.55,1.26c-.64.79-1.3,1.57-1.97,2.32Zm67.05-1.15c-.97-.28-1.94-.58-2.9-.89l.62-1.9c.94.31,1.89.6,2.84.87l-.56,1.92Zm56.82-.19l-.54-1.92c.95-.27,1.9-.55,2.85-.85l.6,1.91c-.96.3-1.93.59-2.9.86Zm-62.59-1.69c-.95-.34-1.9-.7-2.83-1.08l.74-1.86c.92.37,1.84.72,2.77,1.05l-.68,1.88Zm68.37-.12l-.65-1.89c.94-.32,1.87-.65,2.8-1l.7,1.87c-.95.35-1.9.69-2.85,1.02Zm-236.39-.39c-.77-.65-1.53-1.31-2.29-1.98l1.33-1.49c.74.66,1.49,1.31,2.24,1.95l-1.29,1.53Zm110.56-1.19l-1.61-1.19c.59-.8,1.17-1.61,1.75-2.42l1.63,1.16c-.58.82-1.17,1.64-1.77,2.45Zm131.5-.54l-.75-1.85c.92-.37,1.83-.76,2.74-1.15l.8,1.83c-.92.4-1.86.8-2.79,1.18Zm-79.69-.07c-.88-.42-1.77-.88-2.72-1.41l.97-1.75c.91.51,1.76.95,2.61,1.35l-.87,1.8Zm-166.88-2.24c-.73-.69-1.46-1.4-2.17-2.11l1.41-1.42c.7.7,1.41,1.39,2.13,2.07l-1.37,1.46Zm252.12-.12l-.85-1.81c.9-.42,1.79-.86,2.67-1.31l.91,1.78c-.9.46-1.81.9-2.73,1.33Zm-90.58-.59c-.86-.52-1.71-1.07-2.56-1.61l1.08-1.68c.84.54,1.68,1.07,2.52,1.59l-1.04,1.71Zm-42.95-1.31l-1.61-1.19c.68-.92,1.3-1.7,1.88-2.41l1.54,1.28c-.56.67-1.16,1.43-1.81,2.32Zm138.94-.85l-.96-1.76c.87-.48,1.74-.96,2.59-1.46l1.01,1.73c-.87.51-1.75,1.01-2.64,1.49Zm-101.07-1.1c-.84-.55-1.67-1.09-2.51-1.63l1.08-1.68c.84.54,1.68,1.09,2.53,1.64l-1.09,1.67Zm-160.74-.31c-.69-.73-1.38-1.48-2.05-2.23l1.49-1.33c.66.74,1.33,1.46,2.01,2.18l-1.45,1.37Zm267.06-1.66l-1.06-1.7c.84-.53,1.68-1.06,2.5-1.61l1.11,1.67c-.84.56-1.69,1.11-2.55,1.65Zm-140.41-.55l-1.41-1.42c.61-.6,1.24-1.16,1.86-1.66.17-.13.33-.26.5-.39l1.2,1.6c-.15.12-.3.23-.45.35-.57.46-1.15.97-1.71,1.53Zm29.06-.68c-.91-.55-1.75-1.03-2.57-1.46l.95-1.76c.84.45,1.71.95,2.65,1.51l-1.03,1.72Zm-159.74-1.62c-.65-.77-1.29-1.55-1.91-2.34l1.57-1.24c.61.77,1.24,1.54,1.87,2.3l-1.53,1.29Zm276.13-.52l-1.16-1.63c.81-.58,1.61-1.16,2.4-1.76l1.21,1.59c-.8.61-1.62,1.21-2.45,1.8Zm-140.9-.59l-.95-1.76c.92-.49,1.88-.93,2.87-1.29l.69,1.88c-.9.33-1.77.72-2.6,1.17Zm19.31-.04c-.92-.42-1.82-.78-2.7-1.09l.66-1.89c.93.33,1.89.72,2.86,1.16l-.83,1.82Zm-5.46-1.9c-.92-.21-1.86-.35-2.82-.42l.15-1.99c1.05.08,2.1.23,3.11.46l-.44,1.95Zm-8.5-.02l-.42-1.96c1.02-.22,2.07-.37,3.11-.44l.14,2c-.95.07-1.9.2-2.83.4Zm140.38-1.12l-1.26-1.56c.77-.62,1.53-1.26,2.29-1.9l1.3,1.52c-.77.66-1.54,1.31-2.33,1.94Zm-284.72-.56c-.6-.81-1.19-1.63-1.77-2.46l1.64-1.14c.56.81,1.14,1.62,1.73,2.41l-1.61,1.19Zm289.32-3.4l-1.35-1.48c.73-.67,1.45-1.35,2.16-2.04l1.39,1.43c-.72.71-1.46,1.4-2.21,2.08Zm-292.78-1.58c-.55-.85-1.09-1.71-1.61-2.57l1.71-1.03c.51.85,1.03,1.68,1.57,2.52l-1.68,1.09Zm297.13-2.66l-1.44-1.39c.69-.71,1.36-1.44,2.03-2.17l1.48,1.34c-.68.75-1.37,1.49-2.07,2.22Zm-300.26-2.54c-.49-.88-.97-1.78-1.43-2.68l1.78-.91c.45.88.92,1.75,1.4,2.61l-1.75.97Zm304.33-1.97l-1.53-1.29c.64-.76,1.27-1.52,1.88-2.3l1.57,1.24c-.63.79-1.27,1.57-1.92,2.35Zm-307.1-3.44c-.43-.92-.84-1.84-1.24-2.77l1.84-.78c.38.91.79,1.81,1.21,2.71l-1.81.85Zm310.87-1.32l-1.61-1.19c.59-.8,1.17-1.6,1.73-2.42l1.64,1.14c-.58.83-1.16,1.65-1.77,2.47Zm-313.24-4.28c-.36-.95-.7-1.9-1.02-2.86l1.9-.63c.31.93.64,1.86.99,2.79l-1.87.71Zm316.69-.72l-1.68-1.08c.53-.83,1.05-1.67,1.56-2.52l1.72,1.02c-.52.87-1.05,1.73-1.6,2.58Zm-318.61-5.05c-.28-.97-.54-1.95-.78-2.93l1.94-.47c.23.95.49,1.9.76,2.85l-1.92.55Zm321.71-.17l-1.75-.96c.48-.87.94-1.74,1.38-2.62l1.78.9c-.46.9-.93,1.8-1.42,2.68Zm2.74-5.41l-1.81-.84c.42-.9.81-1.8,1.2-2.71l1.84.78c-.39.93-.8,1.86-1.23,2.77Zm-325.89-.31c-.2-.99-.37-1.99-.52-2.99l1.98-.3c.15.97.32,1.94.51,2.91l-1.96.39Zm328.24-5.28l-1.87-.71c.35-.92.68-1.85,1-2.79l1.89.64c-.33.96-.67,1.91-1.03,2.85Zm-329.15-.73c-.11-1-.19-2.02-.25-3.03l2-.12c.06.98.14,1.97.24,2.94l-1.99.21Zm331.1-5.01l-1.92-.57c.28-.94.55-1.89.8-2.85l1.94.5c-.25.98-.53,1.95-.82,2.92Zm-331.46-1.07v-.71c0-.78.01-1.56.04-2.34l2,.07c-.03.76-.04,1.51-.04,2.27v.68s-2,.03-2,.03Zm332.98-4.79l-1.95-.43c.21-.96.41-1.93.59-2.9l1.97.36c-.18.99-.38,1.98-.6,2.97Zm-330.76-1.13l-1.99-.17c.04-.43.08-.86.12-1.28.06-.58.13-1.17.21-1.75l1.98.26c-.08.56-.14,1.13-.21,1.69-.04.41-.08.83-.12,1.24Zm331.86-4.83l-1.98-.29c.14-.97.27-1.95.38-2.94l1.99.22c-.11,1.01-.24,2.01-.39,3.01Zm-331.08-1.02l-1.97-.35c.18-1,.37-1.99.58-2.98l1.96.42c-.21.97-.4,1.94-.57,2.91Zm331.74-5.01l-1.99-.14c.07-.98.12-1.97.16-2.96l2,.07c-.04,1.01-.09,2.03-.16,3.03Zm-330.51-.79l-1.94-.48c.24-.98.49-1.95.76-2.93l1.93.52c-.26.96-.51,1.92-.74,2.88Zm330.73-5.27h-2c0-.98-.02-1.97-.05-2.96l2-.07c.04,1.02.06,2.03.06,3.04Zm-329.17-.48l-1.92-.56c.28-.96.57-1.93.86-2.89l1.91.58c-.29.95-.58,1.91-.85,2.86Zm326.96-5.44l-.06-.76c-.06-.73-.13-1.46-.21-2.19l1.99-.22c.08.75.15,1.5.21,2.25l.06.77-1.99.14Zm-325.22-.28l-1.91-.6.9-2.86,1.91.6-.9,2.86Zm324.58-5.61c-.14-.98-.3-1.95-.48-2.93l1.97-.36c.18.99.35,1.99.49,3l-1.98.29Zm-322.79-.11l-1.91-.59c.29-.95.59-1.91.87-2.86l1.92.57c-.29.96-.58,1.92-.88,2.88Zm321.72-5.72c-.21-.97-.44-1.93-.68-2.89l1.94-.49c.25.98.48,1.96.7,2.95l-1.95.43Zm-319.99-.06l-1.93-.54c.27-.96.53-1.91.78-2.88l1.94.51c-.25.97-.52,1.94-.79,2.91Zm318.53-5.7c-.27-.95-.56-1.9-.87-2.84l1.9-.61c.31.96.6,1.93.88,2.9l-1.92.55Zm-317.01-.15l-1.95-.46c.1-.43.2-.87.3-1.3.12-.53.23-1.06.33-1.59l1.96.38c-.11.55-.22,1.09-.34,1.64-.1.44-.2.89-.3,1.33Zm315.19-5.5c-.33-.93-.67-1.86-1.03-2.79l1.87-.72c.36.94.71,1.89,1.05,2.84l-1.88.67Zm-314.02-.46l-1.98-.31c.15-.98.29-1.96.4-2.93l1.99.24c-.12,1-.26,2-.41,3.01Zm311.89-5.09c-.38-.91-.77-1.83-1.17-2.73l1.83-.81c.41.92.81,1.85,1.19,2.78l-1.85.77Zm-311.17-.94l-1.99-.17c.08-.99.15-1.98.2-2.96l2,.1c-.05,1.01-.12,2.02-.2,3.03Zm308.75-4.5c-.42-.9-.86-1.79-1.3-2.68l1.79-.89c.45.9.89,1.81,1.32,2.72l-1.81.86Zm-308.44-1.56l-2-.04c.02-.77.02-1.54.02-2.3v-.67s2,0,2,0v.68c0,.78,0,1.56-.02,2.35Zm305.77-3.77c-.46-.88-.93-1.75-1.42-2.62l1.75-.97c.49.88.97,1.77,1.44,2.66l-1.77.93Zm-307.81-2.22c-.03-.99-.07-1.99-.12-2.98l2-.1c.05,1,.09,2.01.12,3.02l-2,.06Zm304.92-3c-.5-.86-1-1.72-1.51-2.57l1.72-1.03c.52.86,1.03,1.73,1.53,2.6l-1.73,1Zm-305.22-2.96c-.07-.99-.14-1.99-.22-2.98l1.99-.16c.08,1,.16,2,.22,3.01l-2,.13Zm302.15-2.16c-.53-.84-1.06-1.69-1.6-2.52l1.68-1.08c.54.84,1.08,1.69,1.61,2.55l-1.7,1.06Zm-302.63-3.8c-.09-.99-.19-1.99-.29-2.98l1.99-.2c.1,1,.2,2,.29,2.99l-1.99.18Zm299.4-1.23c-.55-.83-1.11-1.66-1.67-2.48l1.65-1.13c.57.83,1.13,1.66,1.68,2.5l-1.67,1.11Zm-299.99-4.73l-.31-2.98,1.99-.21.31,2.99-1.99.21Zm296.62-.2c-.48-.68-.96-1.37-1.45-2.04l-.29-.4,1.63-1.16.28.39c.49.69.98,1.37,1.46,2.06l-1.64,1.15Zm-3.48-4.86c-.59-.8-1.18-1.61-1.78-2.4l1.6-1.2c.6.8,1.2,1.61,1.79,2.42l-1.61,1.18Zm-293.75-.91c-.1-1-.2-1.99-.29-2.99l1.99-.19c.09.99.19,1.99.29,2.98l-1.99.2Zm290.17-3.88c-.6-.79-1.21-1.58-1.83-2.37l1.58-1.23c.62.79,1.23,1.59,1.84,2.38l-1.59,1.21Zm-290.73-2.11c-.08-1-.16-2-.23-3.01l1.99-.14c.07.99.15,1.99.23,2.98l-1.99.17Zm287.06-2.61c-.62-.78-1.24-1.56-1.87-2.33l1.55-1.26c.63.78,1.26,1.56,1.88,2.35l-1.57,1.24Zm-287.48-3.4c-.05-1-.1-2.01-.13-3.02l2-.07c.03.99.08,1.99.13,2.98l-2,.11Zm283.72-1.25c-.63-.77-1.27-1.54-1.91-2.3l1.53-1.29c.64.77,1.29,1.54,1.93,2.31l-1.54,1.27Zm-3.85-4.58c-.65-.76-1.3-1.51-1.96-2.26l1.51-1.32c.66.76,1.32,1.51,1.97,2.28l-1.52,1.3Zm-280.07-.22c0-.46,0-.91,0-1.37,0-.55,0-1.1.01-1.65l2,.03c0,.54-.01,1.08-.01,1.62,0,.45,0,.9,0,1.35l-2,.02Zm276.13-4.29c-.66-.74-1.33-1.49-2-2.22l1.48-1.34c.67.74,1.35,1.49,2.01,2.24l-1.49,1.33Zm-274.04-1.68l-2-.09c.05-1.01.11-2.02.2-3.03l1.99.17c-.08.99-.15,1.97-.19,2.96Zm270.03-2.75c-.68-.73-1.36-1.46-2.04-2.19l1.46-1.37c.69.73,1.37,1.46,2.05,2.2l-1.47,1.36Zm-269.53-3.15l-1.99-.24c.12-1,.26-2.01.42-3.01l1.97.31c-.16.98-.29,1.96-.41,2.94Zm265.43-1.21c-.69-.72-1.38-1.44-2.08-2.15l1.43-1.4c.7.72,1.4,1.44,2.09,2.16l-1.45,1.38Zm-4.18-4.28c-.7-.71-1.41-1.41-2.12-2.11l1.41-1.42c.71.71,1.42,1.41,2.13,2.12l-1.42,1.41Zm-260.33-.37l-1.96-.38c.19-.99.4-1.98.63-2.97l1.95.45c-.22.97-.43,1.93-.62,2.9Zm256.07-3.83c-.71-.69-1.43-1.39-2.15-2.07l1.38-1.45c.73.69,1.45,1.39,2.17,2.09l-1.39,1.43Zm-254.75-1.96l-1.93-.51c.26-.98.53-1.95.82-2.92l1.92.57c-.28.95-.55,1.9-.8,2.86Zm250.42-2.17c-.73-.68-1.46-1.36-2.19-2.04l1.36-1.47c.74.68,1.47,1.36,2.2,2.05l-1.37,1.46Zm-248.73-3.52l-1.9-.63c.32-.96.65-1.91,1-2.86l1.88.69c-.34.93-.67,1.87-.98,2.81Zm244.33-.54c-.74-.67-1.48-1.34-2.23-2l1.33-1.49c.75.67,1.5,1.34,2.24,2.01l-1.34,1.48Zm-4.47-3.98c-.75-.66-1.5-1.31-2.26-1.96l1.3-1.52c.76.65,1.52,1.31,2.27,1.97l-1.32,1.51Zm-237.82-1.07l-1.86-.74c.38-.94.76-1.87,1.16-2.8l1.84.79c-.39.91-.77,1.83-1.14,2.75Zm233.28-2.83c-.76-.64-1.53-1.28-2.29-1.92l1.28-1.54c.77.64,1.54,1.28,2.31,1.93l-1.29,1.53Zm-230.92-2.63l-1.81-.85c.43-.92.87-1.82,1.32-2.73l1.79.9c-.44.89-.88,1.78-1.29,2.68Zm226.32-1.19c-.77-.63-1.55-1.26-2.33-1.88l1.25-1.56c.78.63,1.56,1.26,2.34,1.89l-1.26,1.55Zm-4.67-3.74c-.78-.62-1.57-1.23-2.36-1.84l1.22-1.58c.79.61,1.58,1.23,2.37,1.85l-1.24,1.57Zm-218.98-.38l-1.76-.94c.48-.89.97-1.77,1.47-2.65l1.74.99c-.49.86-.97,1.73-1.44,2.6Zm214.25-3.29c-.79-.6-1.59-1.21-2.39-1.8l1.2-1.6c.8.6,1.6,1.21,2.4,1.81l-1.21,1.59Zm-211.31-1.87l-1.71-1.04c.53-.86,1.06-1.72,1.61-2.56l1.68,1.09c-.54.83-1.06,1.67-1.58,2.52Zm206.51-1.71c-.8-.59-1.61-1.18-2.42-1.76l1.17-1.62c.81.59,1.62,1.18,2.43,1.77l-1.19,1.61Zm-203.28-3.28l-1.65-1.13c.57-.83,1.15-1.66,1.75-2.47l1.62,1.18c-.58.8-1.15,1.61-1.71,2.42Zm198.43-.23c-.81-.58-1.63-1.15-2.45-1.72l1.14-1.64c.82.57,1.64,1.15,2.46,1.73l-1.16,1.63Zm-4.91-3.43c-.82-.56-1.65-1.13-2.48-1.68l1.12-1.66c.83.56,1.66,1.12,2.49,1.69l-1.13,1.65Zm-190.03-1.15l-1.58-1.22c.62-.8,1.25-1.59,1.88-2.37l1.55,1.27c-.62.76-1.24,1.54-1.85,2.32Zm185.07-2.2c-.83-.55-1.67-1.1-2.5-1.64l1.09-1.68c.84.55,1.68,1.1,2.51,1.65l-1.1,1.67Zm-181.31-2.39l-1.51-1.31c.67-.77,1.34-1.52,2.02-2.26l1.54,1.28-.08.09c-.65.71-1.31,1.45-1.97,2.2Zm176.29-.87l-.09-.06c-.8-.51-1.62-1.03-2.43-1.54l1.06-1.69c.82.52,1.64,1.03,2.46,1.56l.08.06-1.08,1.68Zm-5.06-3.18c-.85-.52-1.7-1.04-2.55-1.55l1.03-1.71c.86.52,1.72,1.04,2.57,1.56l-1.05,1.7Zm-167.13-.39l-1.43-1.4c.71-.72,1.42-1.43,2.15-2.13l1.39,1.44c-.71.69-1.42,1.38-2.11,2.09Zm162.01-2.69c-.86-.5-1.72-1.01-2.58-1.5l1-1.73c.87.5,1.74,1,2.6,1.51l-1.01,1.72Zm-157.73-1.43l-1.35-1.48c.75-.68,1.5-1.35,2.27-2l1.3,1.52c-.75.64-1.5,1.3-2.23,1.97Zm152.55-1.55c-.87-.49-1.74-.97-2.62-1.45l.96-1.75c.88.48,1.76.97,2.63,1.46l-.98,1.74Zm-148.03-2.32l-1.26-1.56c.79-.63,1.58-1.26,2.38-1.87l1.21,1.59c-.79.6-1.57,1.21-2.34,1.83Zm142.79-.55c-.88-.47-1.76-.93-2.65-1.39l.92-1.78c.89.46,1.78.93,2.67,1.4l-.94,1.77Zm-5.31-2.75c-.89-.45-1.78-.89-2.68-1.33l.88-1.8c.9.44,1.8.89,2.7,1.34l-.9,1.79Zm-132.75-.3l-1.16-1.63c.82-.59,1.65-1.16,2.49-1.73l1.12,1.66c-.82.55-1.64,1.12-2.44,1.7Zm127.38-2.32c-.9-.42-1.81-.84-2.71-1.26l.83-1.82c.92.42,1.83.84,2.74,1.27l-.85,1.81Zm-122.45-1l-1.07-1.69c.85-.54,1.71-1.07,2.58-1.58l1.02,1.72c-.85.51-1.7,1.02-2.54,1.55Zm117.01-1.48c-.91-.4-1.83-.79-2.75-1.18l.78-1.84c.92.39,1.85.79,2.77,1.19l-.8,1.83Zm-111.89-1.55l-.97-1.75c.88-.49,1.78-.97,2.67-1.43l.92,1.78c-.88.46-1.76.92-2.62,1.4Zm106.39-.77c-.92-.37-1.85-.74-2.78-1.1l.72-1.87c.94.36,1.87.73,2.81,1.11l-.75,1.85Zm-101.1-1.95l-.87-1.8c.91-.44,1.83-.86,2.75-1.27l.81,1.83c-.91.4-1.81.82-2.7,1.25Zm95.53-.21c-.93-.35-1.87-.68-2.81-1.01l.66-1.89c.95.33,1.89.67,2.84,1.02l-.69,1.88Zm-5.63-1.98c-.94-.31-1.89-.62-2.84-.92l.6-1.91c.96.3,1.92.61,2.87.93l-.63,1.9Zm-84.46-.23l-.76-1.85c.93-.38,1.88-.75,2.82-1.11l.71,1.87c-.93.35-1.85.71-2.77,1.09Zm78.77-1.56c-.95-.28-1.91-.56-2.87-.82l.53-1.93c.97.27,1.94.54,2.9.83l-.57,1.92Zm-73.2-.53l-.65-1.89c.96-.33,1.92-.64,2.88-.94l.59,1.91c-.95.29-1.89.6-2.83.92Zm67.45-1.06c-.96-.25-1.93-.48-2.9-.71l.46-1.95c.98.23,1.96.47,2.93.72l-.5,1.94Zm-61.77-.71l-.54-1.93c.97-.27,1.95-.53,2.93-.77l.48,1.94c-.96.24-1.92.49-2.88.76Zm55.97-.66c-.97-.21-1.94-.41-2.92-.6l.38-1.96c.99.19,1.98.39,2.96.61l-.42,1.96Zm-50.19-.77l-.43-1.95c.99-.21,1.98-.42,2.97-.6l.37,1.97c-.98.18-1.95.38-2.92.59Zm44.34-.36c-.98-.17-1.96-.33-2.94-.48l.3-1.98c.99.15,1.99.31,2.98.48l-.34,1.97Zm-38.49-.73l-.31-1.98c1-.16,2-.3,3-.43l.25,1.98c-.99.13-1.97.27-2.95.42Zm32.6-.16c-.98-.13-1.97-.25-2.96-.35l.21-1.99c1,.11,2,.23,3,.36l-.26,1.98Zm-26.7-.6l-.2-1.99c1-.1,2.01-.18,3.02-.25l.14,2c-.99.07-1.98.15-2.96.25Zm20.78-.04c-.99-.08-1.98-.16-2.97-.22l.12-2c1.01.06,2.01.14,3.01.22l-.17,1.99Zm-5.94-.37c-.92-.04-1.84-.06-2.76-.08h-.21s.04-2,.04-2h.21c.93.02,1.87.05,2.8.08l-.08,2Zm-8.92,0l-.08-2c1-.04,2.01-.07,3.03-.08l.03,2c-.99.01-1.98.04-2.97.08Z"/></g><g id="_4"><g><path class="cls-13" d="m135.24,173.98l162.54-92.69c2.04-1.16,3.88-1.1,5.19-.08l7.97,4.77-5.9,8.39v126.01c0,5.28-3.25,11.42-7.26,13.71l-151.78,86.56-7.81,11.12-7.52-4.51c-1.64-.82-2.69-2.89-2.69-5.89v-133.68c0-5.28,3.25-11.42,7.26-13.71Z"/><path class="cls-2" d="m173.7,167.29l135.08-75.59,2.16-4.95-6-3.59c-1.32-1.03-3.16-1.09-5.19.08l-162.54,92.69c-2.23,1.27-4.22,3.73-5.55,6.58l-.2.82,9.63,5.77,32.62-21.82Z"/><polygon class="cls-2" points="130.39 188.21 139.13 193.41 138.36 196.68 130.39 191.77 130.39 188.21"/><path class="cls-14" d="m312.05,85.75l-6.24,8.87v125.77c0,5.52-3.43,11.97-7.65,14.37l-151.63,86.47-8.13,11.56-8.14-4.88c-1.93-.96-3.06-3.36-3.06-6.55v-133.68c0-5.52,3.43-11.97,7.65-14.37l162.54-92.69c2.23-1.27,4.43-1.27,6.05-.01l8.6,5.15Zm-2.21.47l-7.26-4.35c-1.19-.92-2.74-.87-4.42.08l-162.54,92.69c-3.79,2.16-6.87,8.01-6.87,13.04v133.68s0,.01,0,.02c0,.95.55,1.82,1.36,2.32l5.94,3.67.3,2.4,1.62.97,7.65-10.76,151.77-86.55c3.79-2.16,6.87-8.01,6.87-13.04v-126.26s5.56-7.92,5.56-7.92Z"/></g><g id="_18"><path class="cls-14" d="m258.34,287.86l-32.96-18.71c-3.19-1.82-8.55-1.61-12.21.47l-20.05,11.44-9.53,4.26v4.36s.06,0,.06,0c.22,1.13,1.01,2.13,2.3,2.86l40.61,23.07c1.46.83,3.37,1.24,5.36,1.24,2.37,0,4.86-.58,6.85-1.71l26.39-15.05c1.92-1.1,3.05-2.55,3.18-4.2,0-.14,0-.27,0-.35v-3.54s-10.01-4.14-10.01-4.14Z"/><g><path class="cls-2" d="m186.35,288.53l40.61,23.07c2.93,1.67,8.06,1.46,11.44-.47l26.39-15.05c3.39-1.93,3.75-4.85.82-6.53l-40.61-23.07c-2.93-1.67-8.06-1.46-11.44.47l-26.39,15.05c-3.39,1.93-3.75,4.85-.82,6.53Z"/><path class="cls-2" d="m261.16,292.93l-11.03-6.53c-3.6-2.13-8.07-2.17-11.71-.1l-27.64,15.81,16.71,9.49c2.93,1.67,8.06,1.46,11.44-.47l21.42-11.67c3.39-1.93,3.75-4.85.82-6.53Z"/><path class="cls-14" d="m238.78,311.8l26.39-15.05c2.03-1.16,3.19-2.74,3.19-4.36,0-1.39-.84-2.63-2.37-3.5l-40.61-23.07c-3.19-1.82-8.55-1.61-12.21.47l-26.39,15.05c-2.03,1.16-3.19,2.75-3.19,4.36,0,1.39.84,2.63,2.37,3.5l40.61,23.07c1.46.83,3.37,1.24,5.36,1.24,2.37,0,4.86-.58,6.84-1.71Zm-52.05-23.94c-.73-.41-1.59-1.12-1.59-2.17s.88-2.15,2.41-3.02l26.39-15.05c3.17-1.81,7.96-2.02,10.68-.47l40.61,23.07c.73.41,1.59,1.12,1.59,2.17,0,1.05-.88,2.15-2.41,3.02l-26.39,15.05c-3.17,1.81-7.96,2.02-10.68.47l-40.61-23.07h0Z"/></g></g><path class="cls-15" d="m310.95,85.06c-1.57-.91-3.54-.78-5.55.36l-162.54,92.69c-4.22,2.4-7.65,8.85-7.65,14.37v133.68c0,2.99,1.21,4.32,2.22,4.91.66.38,1.44.57,2.31.57,1.38,0,2.97-.48,4.62-1.42l161.8-90.66c4.22-2.41,7.65-8.85,7.65-14.37V91.51c0-3.04-1.05-5.39-2.87-6.45Z"/><g><path class="cls-13" d="m313.05,209.65v16.2c0,4.92-3.49,10.89-7.8,13.35l-161.45,92.08c-4.31,2.46-7.8.47-7.8-4.45v-16.2s177.06-100.98,177.06-100.98Z"/><path class="cls-14" d="m144.17,331.95l161.45-92.08c4.52-2.58,8.19-8.87,8.19-14.02v-17.53s-178.22,101.63-178.22,101.63l-.39.22v16.65c0,2.65.94,4.65,2.64,5.64.73.42,1.56.63,2.44.63,1.2,0,2.52-.39,3.87-1.16Zm168.11-120.97v14.88c0,4.66-3.33,10.35-7.42,12.68l-161.45,92.07c-1.85,1.06-3.55,1.25-4.77.53-1.21-.7-1.88-2.23-1.88-4.31v-15.76s175.52-100.1,175.52-100.1Z"/></g><g><path class="cls-2" d="m146.55,294.51l155.93-88.93c1.41-.81,2.56-2.97,2.56-4.83v-102.11c0-1.86-1.15-2.72-2.56-1.91l-155.93,88.93c-1.41.81-2.56,2.97-2.56,4.83v102.11c0,1.86,1.15,2.72,2.56,1.91Z"/><path class="cls-14" d="m146.93,295.18l155.93-88.93c1.65-.94,2.95-3.36,2.95-5.5v-102.11c0-1.25-.46-2.24-1.26-2.71-.71-.41-1.58-.37-2.45.13l-155.93,88.93c-1.65.94-2.95,3.36-2.95,5.5v102.11c0,1.26.46,2.24,1.26,2.71.32.19.68.28,1.05.28.45,0,.93-.14,1.4-.41Zm156.85-197.91c.3.18.49.7.49,1.38v102.11c0,1.59-.99,3.49-2.17,4.17l-155.93,88.93c-.22.12-.62.3-.91.13-.3-.18-.49-.7-.49-1.38v-102.11c0-1.59.99-3.49,2.17-4.16l155.93-88.93c.15-.09.4-.2.63-.2.1,0,.19.02.28.07Z"/></g></g><g><path class="cls-1" d="m204.99,193.19c-.61-.45-1.4-.39-2.27.19s-1.62,1.51-2.26,2.77c-.67,1.31-1.03,2.67-1.05,3.94-.02,1.19.3,2.06.93,2.52.61.46,1.4.4,2.27-.18s1.68-1.54,2.31-2.81c.64-1.29.99-2.61,1-3.8.01-1.26-.31-2.17-.93-2.64Z"/><path class="cls-11" d="m191.02,218.06l.11-7.5.05-.66c.76-10.63,4.41-22.49,13.32-26.63,5.8-2.67,9.92,2.09,9.96,10.8l3.86-2.58c.25-12.04-5.31-17.82-13.2-14.15-7.88,3.7-15.43,16.22-17.79,28.86-.66,3.51-.86,7.63-.9,11.33-.65,1.25-1.26,2.58-1.83,3.98-1.83,4.49-2.79,8.89-2.86,13.11-.11,6.49,1.72,10.53,5.46,12.03,1.43.53,2.96.57,4.55.13,1.56-.43,3.71-1.49,6.57-3.23l5.23-3.19.25-.15,8.57-5.22.07-6.93h-.02s.02-2.03.02-2.03l.07-5.74h.02s.07-5.67.07-5.67c.04-2.95-.06-5.1-.3-6.56-.24-1.49-.71-2.78-1.39-3.83-1.85-2.7-4.41-3-7.63-.93-.03.02-.05.04-.07.05-.04.02-.07.04-.11.07-2.12,1.37-4.07,3.54-5.79,6.45-2.69,4.57-4.1,9.34-4.18,14.18-.05,3.12.54,5.58,1.74,7.32,1.85,2.69,4.47,3.02,7.78.98,1.72-1.06,3.32-2.66,4.8-4.78l-.04,3.58-3.53,2.18h0s-8.18,5.04-8.18,5.04c-2.07,1.27-3.87,1.59-5.52.97-2.49-.94-3.67-3.48-3.61-7.78.04-2.79.66-5.59,1.88-8.58.76-1.87,1.61-3.52,2.55-4.95Zm11.87,8.09c-3,1.86-5.38-.26-5.31-4.75.07-4.49,2.55-9.67,5.54-11.58,2.99-1.91,5.37.22,5.31,4.75-.06,4.53-2.54,9.71-5.54,11.58Z"/><path class="cls-1" d="m266.9,172.36h0c-.04-.06-.08-.11-.12-.17l-.04-.06c-2.06-2.8-4.83-3.1-8.25-.89-2.26,1.46-4.33,3.81-6.16,7-2.19,3.79-3.59,8.03-4.06,12.27l-7.2,4.56,2.3-7.91c.78-2.69,1.15-4.48,1.16-5.6,0-2.11-.52-3.45-1.57-3.98-.98-.49-2.32-.19-3.97.88l-4.53,2.95c-1.65,1.07-2.99,2.51-3.99,4.27-1.07,1.89-1.62,3.9-1.63,5.98,0,1.11.34,2.41,1.08,4.09l2.23,4.96-4.84,3.06c-.22-3.47-1.06-6.24-2.52-8.26-1.7-2.34-3.84-3.36-6.34-3.03l-.33.04-.08,8.4.11.03c.88.27,1.67.88,2.35,1.83,1.11,1.51,1.64,3.61,1.62,6.41-.04,4.31-1.24,8.36-3.67,12.38-.24.39-.49.78-.78,1.2l-.12.18-.08,8.29.33-.35c1.3-1.4,2.56-3.08,3.75-5,2.9-4.83,4.72-9.88,5.45-15.04l21.39-13.37c.74,4.14,2.59,6.4,5.52,6.72.66.07,1.34.03,2.03-.13l.69-.2c.57-.2,1.15-.48,1.74-.83.63-.39,1.28-.87,1.92-1.45,2.41-2.18,4.38-5.05,5.84-8.52,1.83-4.02,2.76-8.25,2.76-12.58,0-3.47-.66-6.2-1.97-8.12Zm-1.71,10.5c0,5.18-3.03,11.27-6.74,13.57s-6.72.01-6.71-5.11,3.04-11.21,6.74-13.57,6.71-.07,6.71,5.11Zm-32.2,5.11c.29-.49.73-.92,1.31-1.3l4.77-3.08c.58-.38,1.02-.51,1.31-.39.2.08.28.27.28.68,0,.44-.12,1.05-.34,1.81l-3.63,12.14-.16.1-3.51-7.55c-.22-.47-.33-.93-.32-1.37,0-.41.08-.69.29-1.04Z"/></g><g><g><g><g><path class="cls-3" d="m318.69,133.96l-6-3.88c-.05-.03-.06-.11-.02-.16l7.62-9.25c.06-.07.17-.04.19.05l1.21,5.63s0,0,0,.01l.29,3.86s0,.06-.03.08l-3.12,3.64s-.09.05-.14.02Z"/><path class="cls-3" d="m318.34,134.5l-6-3.88c-.18-.12-.31-.31-.34-.52l-.02-.37,7.8-9.47c.18-.22.48-.32.76-.25l.48.18,1.32,6.13.29,3.87v.34s-3.3,3.83-3.3,3.83c-.15.18-.36.27-.58.27-.14,0-.28-.04-.41-.12Zm2.71-8.02l-.98-4.53-6.52,7.91,5.09,3.29,2.67-3.11-.26-3.56Z"/></g><g><path class="cls-2" d="m295.97,106.02l28.63-16.53c.72-.41,1.37-.48,1.87-.26h0l5.6,3.35c.09.05.1.17.04.24l-6.69,7.08s-.04.07-.04.11v11.69c0,1.86-1.32,4.15-2.93,5.08l-4.27,2.47c-.1.15-.2.27-.3.42-.21,1.23-1.39,6.4-6.64,9.98-.21.14-.34-.06-.21-.32.69-1.31,1.99-4.16,1.59-6.4-.22-.09-.25-.11-.47-.2l-8.83,5.1s-.05.05-.07.08l-3.69,9.84c-.03.09-.14.13-.22.08l-5.54-3.33h0c-.47-.32-.76-.93-.76-1.79v-21.59c0-1.86,1.32-4.15,2.93-5.08Z"/><path class="cls-3" d="m293.43,135.02c-.67-.46-1.05-1.28-1.05-2.33v-21.59c0-2.11,1.43-4.59,3.26-5.64l28.63-16.53c.86-.5,1.73-.6,2.53-.26l5.59,3.35c.22.12.36.33.4.58.04.25-.04.49-.21.67l-6.56,6.93v11.49c0,2.11-1.43,4.59-3.26,5.64l-4.15,2.39-.13.19c-.31,1.68-1.67,6.69-6.88,10.25-.33.23-.73.21-1.01-.03-.3-.27-.36-.72-.14-1.12.54-1.02,1.69-3.48,1.58-5.48l-8.24,4.76-3.63,9.67c-.08.22-.26.39-.48.48l-.42.1-5.83-3.51Zm19.76-12.56l.06.35c.3,1.66-.24,3.58-.86,5.1,3.79-3.35,4.68-7.48,4.83-8.36l.41-.69,4.47-2.65c1.41-.82,2.61-2.89,2.61-4.52v-11.69s.04-.37.04-.37l6.45-6.82-4.99-3c-.33-.14-.79-.06-1.29.23l-28.63,16.53c-1.41.82-2.61,2.89-2.61,4.52v21.59c0,.6.17,1.05.45,1.24l5.03,3.03,3.48-9.29.15-.29,9.31-5.38,1.09.47Z"/></g><g><path class="cls-7" d="m301.59,109.49l28.71-16.58c1.58-.91,2.86-.17,2.86,1.65v21.68c0,1.82-1.28,4.04-2.86,4.95l-4.42,2.55c-.11.06-.2.2-.22.34-.19,1.15-1.34,6.4-6.65,10.02-.21.14-.34-.06-.21-.32.71-1.35,2.08-4.36,1.54-6.63-.03-.11-.13-.14-.24-.08l-18.53,10.7c-1.58.91-2.86.17-2.86-1.65v-21.68c0-1.82,1.28-4.04,2.86-4.95Z"/><path class="cls-3" d="m299.24,138.52c-.75-.43-1.16-1.29-1.16-2.41v-21.68c0-2.06,1.4-4.48,3.18-5.51l28.71-16.58c.97-.56,1.92-.63,2.67-.2.75.43,1.16,1.29,1.16,2.41v21.68c0,2.06-1.4,4.48-3.18,5.51l-4.33,2.5c-.22,1.23-1.46,6.66-6.91,10.38-.33.22-.73.21-1.01-.03-.3-.27-.36-.72-.14-1.13.55-1.04,1.7-3.48,1.58-5.48l-17.9,10.34c-.55.32-1.1.48-1.6.48-.38,0-.74-.09-1.07-.28Zm21.29-12.08l.38.23.08.32c.41,1.72-.15,3.76-.8,5.37,3.82-3.37,4.69-7.52,4.84-8.4.06-.33.26-.64.54-.79l4.42-2.55c1.37-.79,2.53-2.8,2.53-4.39v-21.68c0-.63-.19-1.1-.51-1.29-.32-.19-.83-.11-1.37.2l-28.71,16.58c-1.37.79-2.53,2.8-2.53,4.39v21.68c0,.63.19,1.1.51,1.29.33.19.83.11,1.37-.2l18.53-10.7c.14-.08.29-.12.43-.12.11,0,.21.02.31.06Z"/></g><polygon class="cls-3" points="299.95 110.36 301.18 109.67 295.63 106.21 294.95 107.32 299.95 110.36"/><rect class="cls-3" x="323.92" y="90" width="1.3" height="5.85" transform="translate(76.67 322.11) rotate(-58.73)"/><rect class="cls-3" x="295.33" y="110.69" width="1.3" height="6.52" transform="translate(41.42 303.13) rotate(-57.68)"/></g><polygon class="cls-3" points="293.03 115.2 298.73 118.65 298.73 137.45 293.22 134.43 293.03 133.08 293.03 115.2"/></g><g><path class="cls-2" d="m308.01,123.07c-.97-.56-1.5-1.69-1.5-3.19,0-2.89,1.96-6.29,4.47-7.74,1.3-.75,2.55-.85,3.51-.29.97.56,1.5,1.69,1.5,3.19,0,2.89-1.96,6.29-4.47,7.74-.75.43-1.48.65-2.15.65-.49,0-.95-.12-1.36-.35Zm3.51-9.98c-2.16,1.25-3.92,4.29-3.92,6.79,0,1.09.34,1.88.95,2.24.61.36,1.47.25,2.42-.29,2.16-1.25,3.92-4.29,3.92-6.79,0-1.09-.34-1.88-.95-2.24-.24-.14-.52-.21-.82-.21-.48,0-1.02.17-1.6.5Z"/><polygon class="cls-2" points="315.71 115.51 324.29 110.56 324.29 112.29 325.38 112.29 325.38 108.66 315.16 114.57 315.71 115.51"/><rect class="cls-2" x="322.23" y="110.8" width="1.1" height="2.67"/><rect class="cls-2" x="320.25" y="111.94" width="1.1" height="2.67"/></g></g><g><g><path class="cls-5" d="m32.57,184.99h0l.18-9.31h84.09s-.11,9.05-.11,9.05c.03.25,0,0-.03.26h0s0,0,0,0c-.19,1.47-1.35,2.98-3.44,4.19l-31.38,18.12c-4.19,2.42-10.53,2.68-14.15.59l-32.74-18.9c-1.82-1.05-2.61-2.5-2.42-3.98Z"/><path class="cls-8" d="m67.48,208.31l-32.74-18.9c-1.91-1.1-2.88-2.72-2.67-4.45l.14-8.78,85.14-1-.12,9.5c.01.14.03.27-.04.4-.23,1.69-1.54,3.29-3.68,4.53l-31.38,18.12c-2.36,1.36-5.38,2.06-8.26,2.06-2.4,0-4.69-.48-6.4-1.47Zm48.75-23.59l.11-8.55H33.23s-.17,8.82-.17,8.82v.05c-.18,1.34.59,2.58,2.17,3.49l32.74,18.9c3.49,2.01,9.61,1.75,13.65-.59l31.38-18.12c1.88-1.08,3.01-2.44,3.19-3.82,0-.06.02-.11.03-.16v-.04Z"/></g><g><path class="cls-2" d="m35.11,179.92l32.74,18.9c3.63,2.09,9.96,1.83,14.15-.59l31.38-18.11c4.19-2.42,4.64-6.08,1.02-8.17l-32.74-18.9c-3.63-2.09-9.96-1.83-14.15.59l-31.38,18.11c-4.19,2.42-4.64,6.08-1.02,8.17Z"/><path class="cls-2" d="m36.13,171.62l31.38-18.11c4.19-2.42,10.53-2.68,14.15-.59l32.74,18.9c.87.5,1.5,1.1,1.9,1.74v3.69c-.55.98-1.52,1.93-2.92,2.74l-31.38,18.11c-4.19,2.42-10.53,2.68-14.15.59l-32.74-18.9c-3.63-2.09-3.17-5.75,1.02-8.17Z"/><path class="cls-8" d="m67.6,199.25l-32.74-18.9c-1.74-1-2.7-2.42-2.7-3.98,0-1.85,1.35-3.69,3.71-5.05l31.38-18.12c4.32-2.5,10.89-2.76,14.65-.59l32.74,18.9c1.74,1,2.7,2.42,2.7,3.98,0,1.85-1.35,3.69-3.71,5.05l-31.38,18.12c-2.36,1.36-5.38,2.06-8.26,2.06-2.4,0-4.69-.48-6.39-1.47Zm.15-45.19l-31.38,18.12c-2.04,1.18-3.22,2.71-3.22,4.19,0,1.19.78,2.3,2.2,3.12l32.74,18.9c3.49,2.01,9.61,1.75,13.65-.59l31.38-18.12c2.04-1.18,3.22-2.71,3.22-4.19,0-1.19-.78-2.3-2.2-3.12l-32.74-18.9c-1.57-.91-3.68-1.35-5.9-1.35-2.69,0-5.54.66-7.76,1.94Z"/></g><polygon class="cls-8" points="73.62 200.24 73.62 209.29 70.71 209.29 34.01 188.1 32.66 186.3 32.2 177.88 37.09 181.2 69.37 199.5 73.62 200.24"/></g><g><g><g><path class="cls-3" d="m415.78,208.12l-26.67-18.13c-1.72-.99-3.12-3.66-3.12-5.95l-2.38-30.58c0-2.29,3.81-3.7,5.53-2.71l28.81,16.74c1.72.99,3.12,3.66,3.12,5.95l-.04,30.94c0,2.29-3.53,4.73-5.25,3.74Z"/><path class="cls-3" d="m416.72,208.99c-.46,0-.89-.1-1.25-.32l-.04-.02-26.67-18.13c-1.89-1.09-3.4-3.94-3.4-6.48l-2.38-30.53c0-1.17.71-2.23,1.95-2.94,1.53-.88,3.39-1.03,4.54-.37l28.81,16.74c1.92,1.11,3.43,3.97,3.43,6.5l-.04,30.94c0,1.63-1.37,3.15-2.73,3.93-.78.45-1.54.68-2.22.68Zm-.6-1.41c.49.27,1.32.13,2.18-.37,1.23-.71,2.09-1.88,2.09-2.83l.04-30.94c0-2.05-1.28-4.53-2.8-5.4l-28.81-16.74c-.73-.42-2.17-.26-3.26.37-.39.23-1.31.86-1.31,1.79l2.38,30.53c0,2.1,1.28,4.58,2.8,5.45l26.69,18.14Z"/></g><g><path class="cls-7" d="m415.43,207.94l-28.81-16.74c-1.72-.99-3.12-3.66-3.12-5.95l.04-30.94c0-2.29,1.4-3.35,3.12-2.36l28.81,16.74c1.72.99,3.12,3.66,3.12,5.95l-.04,30.94c0,2.29-1.39,3.35-3.12,2.36Z"/><path class="cls-3" d="m416.67,208.96c-.5,0-1.03-.15-1.56-.46h0s-28.81-16.74-28.81-16.74c-1.92-1.11-3.43-3.97-3.43-6.5l.04-30.94c0-1.44.51-2.56,1.4-3.07.77-.45,1.72-.39,2.68.16l28.81,16.74c1.92,1.11,3.43,3.97,3.43,6.5l-.04,30.94c0,1.44-.51,2.56-1.4,3.07-.34.2-.72.3-1.12.3Zm-.92-1.56c.39.22.94.43,1.4.16.48-.27.76-1.01.76-1.97l.04-30.94c0-2.05-1.28-4.53-2.8-5.4l-28.81-16.74c-.38-.22-.94-.43-1.4-.16-.48.27-.76,1.01-.76,1.97l-.04,30.94c0,2.05,1.28,4.53,2.8,5.4l28.81,16.74Z"/></g><rect class="cls-13" x="417.43" y="170.04" width="2.76" height=".73" transform="translate(-26.79 247.1) rotate(-31.91)"/><rect class="cls-13" x="388.11" y="151.94" width="2.76" height=".73" transform="translate(-21.65 228.87) rotate(-31.91)"/><rect class="cls-13" x="418.56" y="203.32" width="2.76" height=".73" transform="translate(-44.21 252.73) rotate(-31.91)"/></g><g><path class="cls-2" d="m402.78,190.78l-2.51-1.55-.04-1.36-6.24-3.84.03,1.35,2.49,1.54.03,1.36-1.25-.77.03,1.36h0c-.83-.52-1.67-1.03-2.51-1.56l.03,1.35-1.25-.78-.06-2.7-3.75-2.32-.03-1.34,2.5,1.54-.03-1.35h0c.41.26.83.51,1.24.77l-.06-2.71-1.24-.76-.06-2.69h0c.41.25.83.51,1.25.77-.02-.91-.04-1.81-.06-2.71h0c.41.25.82.5,1.24.76l-.03-1.36-1.24-.75h0c0-.44-.02-.89-.03-1.35l1.24.76-.03-1.35,6.2,3.76-.04-1.36h0c.41.25.82.5,1.25.76l-.07-2.73,1.23.75.08,2.72,1.24.75c0-.05,0-.1,0-.15-.04-1.32-.07-2.63-.11-3.95h0c.41.25.82.5,1.24.75.11,3.66.21,7.31.32,10.97l3.73,2.28.04,1.37-3.73-2.29.04,1.37-1.25-.76-.04-1.37-1.24-.76-.04-1.36,1.23.75-.08-2.74-2.47-1.51-.04-1.36-3.73-2.27.07,2.7-2.49-1.52.03,1.36-1.24-.76.03,1.34,1.24.76-.03-1.35c1.19.73,2.39,1.46,3.58,2.19.05.03.11.07.16.1h0c.02.9.05,1.8.07,2.71l1.25.77-.04-1.35,1.24.76.04,1.36,2.5,1.53c.01.46.02.91.04,1.37h0c-.41-.25-.82-.51-1.24-.76l.04,1.37,1.24.76h0c.03.91.05,1.82.08,2.73h0Zm-10.09-10.23l.03,1.34,2.49,1.53-.03-1.35,1.24.76-.03-1.35-1.24-.76.03,1.35-2.49-1.53Zm5.02,4.42l1.24.76-.04-1.35-1.23-.76.03,1.35Zm-2.74-11.03l-1.23-.75.03,1.34,1.23.75-.03-1.34Z"/><path class="cls-2" d="m404.84,177.23c-.1-3.2-.19-6.4-.29-9.59,2.87,1.72,5.74,3.44,8.61,5.16.11,3.23.23,6.45.34,9.69-2.89-1.75-5.78-3.5-8.66-5.25Zm.98-7.48c.07,2.29.14,4.57.21,6.86l6.18,3.74-.24-6.91-6.15-3.69Z"/><path class="cls-2" d="m387.3,157.31l8.61,5.16.24,9.5c-2.89-1.75-5.77-3.5-8.66-5.25l-.18-9.4Zm1.39,8.8c2.06,1.25,4.11,2.49,6.18,3.74-.05-2.25-.11-4.51-.16-6.77l-6.15-3.69c.05,2.24.09,4.48.14,6.72Z"/><path class="cls-2" d="m414.18,201.88c-2.93-1.82-5.85-3.63-8.77-5.44-.1-3.2-.19-6.39-.29-9.59,2.91,1.78,5.81,3.56,8.71,5.34l.34,9.69Zm-7.56-6.03l6.25,3.87c-.08-2.3-.16-4.6-.24-6.91l-6.23-3.82c.07,2.29.14,4.57.21,6.86Z"/><path class="cls-2" d="m402.24,171.62c-.41-.25-.82-.5-1.24-.75l-.04-1.36-1.23-.74.04,1.36-1.23-.74.04,1.35-1.23-.74-.07-2.72,1.22.74-.04-1.36-1.22-.73-.07-2.71,6.15,3.68.08,2.73-1.23-.74.08,2.74h0Zm-1.36-4.84l-1.22-.73.04,1.35,1.22.73-.04-1.35Z"/><path class="cls-2" d="m407.4,181.48l.04,1.38-2.48-1.51.04,1.37,3.72,2.27c.03.92.06,1.84.09,2.76l4.98,3.05-.1-2.76-1.23-.75.05,1.37-2.5-1.52-.14-4.13h0c-.83-.5-1.66-1-2.49-1.51h0Z"/><path class="cls-2" d="m402.78,190.78l.04,1.37-1.25-.77.04,1.36-1.25-.77.04,1.36,3.75,2.32-.12-4.1-1.24-.77h0Z"/><path class="cls-2" d="m409.88,182.99l2.48,1.51.05,1.38,1.24.75-.1-2.76-3.71-2.25.05,1.37h0Z"/><path class="cls-2" d="m387.59,172.09l1.23.75-.05-2.69,1.24.75-.03-1.35-2.47-1.5.08,4.03Z"/><path class="cls-2" d="m407.4,181.48l-.04-1.37-2.47-1.5.04,1.36,2.48,1.51s0,0,0,0Z"/><path class="cls-2" d="m390.13,176.31l-.03-1.34-1.24-.76.03,1.34,1.24.76h0Z"/><path class="cls-2" d="m388.91,176.9l-1.23-.76.03,1.33,1.23.76-.03-1.34Z"/><path class="cls-2" d="m398.63,173.47l-.04-1.36-1.23-.74.03,1.35,1.23.75h0Z"/><path class="cls-2" d="m402.7,188.04l1.24.76-.04-1.37-1.24-.76h0c.01.46.03.91.04,1.37h0Z"/><path class="cls-2" d="m390.24,181.71l-.03-1.34-1.24-.76.03,1.34,1.24.77h0Z"/><path class="cls-2" d="m391.29,173.02l-1.24-.75.03,1.35,1.24.76h0c0-.45-.02-.9-.03-1.35h0Z"/><path class="cls-2" d="m397.86,190.41l1.24.77-.04-1.35-1.24-.77.03,1.35Z"/><path class="cls-2" d="m395.34,188.86l.03,1.35,1.25.77-.03-1.35c-.42-.26-.83-.52-1.25-.77h0Z"/><path class="cls-2" d="m387.86,185.55l1.24.77-.03-1.33-1.24-.77.03,1.33Z"/><path class="cls-2" d="m397.57,179.52l1.24.76-.04-1.35-1.23-.75.03,1.36s0,0,0,0Z"/><path class="cls-2" d="m407.23,175.98l3.7,2.23-.14-4.13-3.69-2.22c.04,1.37.09,2.74.13,4.11Z"/><path class="cls-2" d="m393.61,167.75l-.09-4.05-3.69-2.22.09,4.03,3.7,2.23Z"/><path class="cls-2" d="m411.58,197.56l-.14-4.13-3.73-2.3.13,4.11,3.74,2.31Z"/></g></g><g><g><g><g><path class="cls-13" d="m400.65,174.98l-51.13-31.65c-1.01-.63-1.94-.69-2.67-.3h0c-.1.05-.19.12-.28.19l-7.4,4.78c-.29.19-.39.59-.22.91l4,7.74v29.99c0,3.34,1.9,7.23,4.24,8.68l40.28,24.94,7.9,10.72,7.96-5.16c.95-.52,1.56-1.83,1.56-3.73v-38.45c0-3.35-1.9-7.23-4.24-8.68Z"/><path class="cls-13" d="m400.36,178.3l-51.13-31.65c-1.01-.63-1.94-.69-2.67-.3h0c-.1.05-.19.12-.28.19l-7.4,4.78c-.29.19-.39.59-.22.91l4,7.74v29.99c0,3.34,1.9,7.23,4.24,8.68l40.28,24.94,4.22,3.79,8.51-1.79c.95-.52,4.7,1.72,4.7-.17v-38.45c0-3.34-1.9-7.23-4.24-8.68Z"/><path class="cls-8" d="m395.15,232.27l-8.29-11.25-40.13-24.84c-2.63-1.63-4.69-5.81-4.69-9.52v-29.74s-3.88-7.52-3.88-7.52c-.4-.78-.16-1.75.54-2.21l7.41-4.79c.07-.06.2-.15.34-.22,1.03-.56,2.29-.45,3.54.32l51.13,31.65c2.63,1.63,4.69,5.81,4.69,9.52v38.45c0,2.2-.75,3.87-2.05,4.59l-8.59,5.57Zm-55.29-83.58l3.99,7.72v30.25c0,2.98,1.73,6.57,3.78,7.84l40.54,25.17,7.41,10.05,7.27-4.71c.72-.4,1.12-1.47,1.12-2.89v-38.45c0-2.98-1.73-6.57-3.78-7.84l-51.13-31.65c-.49-.31-1.21-.6-1.81-.27-.06.03-.12.07-.17.11l-7.23,4.68Z"/></g><g><path class="cls-2" d="m392.57,230.78l-51.13-31.65c-2.34-1.45-4.24-5.33-4.24-8.68v-38.45c0-3.34,1.9-4.88,4.24-3.43l51.13,31.65c2.34,1.45,4.24,5.33,4.24,8.68v38.45c0,3.34-1.9,4.88-4.24,3.43Z"/><path class="cls-8" d="m394.26,232.3c-.68,0-1.41-.23-2.14-.68h0s-51.13-31.65-51.13-31.65c-2.63-1.63-4.69-5.81-4.69-9.52v-38.45c0-2.12.7-3.76,1.92-4.52,1.06-.65,2.37-.57,3.68.24l51.13,31.65c2.63,1.63,4.69,5.81,4.69,9.52v38.45c0,2.12-.7,3.76-1.92,4.51-.47.29-.99.44-1.54.44Zm-1.23-2.36c.51.32,1.25.62,1.87.24.63-.39,1.01-1.45,1.01-2.83v-38.45c0-2.98-1.73-6.57-3.78-7.84l-51.13-31.65c-.51-.32-1.25-.62-1.86-.24-.63.39-1.01,1.45-1.01,2.83v38.45c0,2.98,1.73,6.57,3.78,7.84l51.13,31.65h0Z"/></g></g><polygon class="cls-14" points="395.93 185.12 404.01 179.88 404.92 184.18 404.8 223.97 403.36 226.35 396.22 230.63 396.84 192.19 395.93 185.12"/></g><g><path class="cls-1" d="m358.98,183.14c-.63-1.46-1.09-2.9-1.37-4.29-.32-1.61-.34-2.35-.32-2.65.24-4.19,3.51-5.75,7.43-3.54.1.05.19.11.29.17,2.01,1.21,3.92,3.24,5.37,5.7.11.19.22.38.32.57l1.49-1.73c-2.05-3.46-4.73-6.22-7.57-7.8-2.57-1.43-5.01-1.72-6.87-.82-1.86.89-2.98,2.88-3.14,5.62-.05.83.09,2.04.4,3.61.35,1.76.93,3.59,1.73,5.43l2.27,5.26,1.59-1.74-1.64-3.79Z"/><path class="cls-11" d="m375.42,187.96c0-2.4-.6-5.04-1.73-7.66l-1.64,1.91c.46,1.41.7,2.81.7,4.1,0,.1,0,.2,0,.3-.05,1.48-.48,2.74-1.25,3.62l-6.38,7.2-3.16-7.39-1.59,1.74,3.65,8.55c.25.59.66,1.11,1.11,1.4h0s0,0,0,0c.45.29.87.31,1.11.03l7.49-8.45c.68-.79,1.16-1.8,1.43-2.98.06-.25.11-.51.16-.78,0,0,0,0-.01-.01.05-.38.09-.77.1-1.18,0-.14,0-.28,0-.41Z"/><path class="cls-1" d="m377.08,194.51c-.25.77-.57,1.47-.96,2.09,1.97,2.81,3.17,6.17,3.17,8.94,0,4.64-3.28,6.25-7.32,3.58l-13.36-8.84c-4.04-2.67-7.32-8.43-7.32-12.83,0-1.9.6-3.29,1.66-4.02l.03.02.09-.06c.61-.4,1.35-.58,2.18-.54.01,0,.02,0,.03,0,.38.02.77.09,1.18.21l.33.09-.17-.44c-.3-.8-.55-1.6-.74-2.37l-.09-.36-.27-.07c-.32-.08-.63-.14-.94-.18h0s-.3-.03-.3-.03c-3.39-.3-5.49,2.04-5.49,6.14,0,5.89,4.41,13.62,9.82,17.22l13.36,8.9c5.42,3.61,9.82,1.45,9.82-4.81,0-3.97-1.8-8.76-4.72-12.65Z"/><g><path class="cls-1" d="m364.45,185.45c0-.34,0-.68,0-1.03h0c.15.1.3.19.46.29v-.51l-.46-.28h0c0-.17,0-.34,0-.51l.92.57v-.51l.46.28v.51l.46.29v-1.03h0s.04.02.06.04c.44.27.88.54,1.32.82v.51l.45.28v-.51l-.46-.28v-.52l-.92-.57v-1.03l-1.37-.85v.51l-.91-.56v1.03l.45.28v.51l-.46-.28v.51l-.46-.29v-.51l-1.37-.85v-.51l1.37.85v-4.1l.46.28h0c0,.49,0,.99,0,1.48,0,.02,0,.03,0,.05l.46.28v-1.02l.46.28v1.03l.46.28h0v.51l2.29,1.41v.52l.46.28v.52h0c-.15-.09-.3-.19-.46-.28v.52l.46.28h0v1.03l.46.29h0v1.03l-.45-.28v1.04l.46.29h0v.52l.91.57v.52l-1.37-.86v1.03l-.46-.29v-.51l-.92-.58h0v-.51l-.46-.29v-.51l.91.57v-.52l-2.29-1.43v.51l-.92-.58h0Zm2.75.18v-.51l-.45-.28v.51l.46.28v.51l.91.57v-.51l-.91-.57Zm-.92-.57l-.45-.28v.51l.45.28v-.51Zm.92-2.01l.45.28v-.51l-.45-.28v.51Z"/><path class="cls-1" d="m360.33,177.26v-3.56l3.2,1.95v3.58l-3.2-1.97Zm.46-2.77v2.54l2.29,1.41v-2.55l-2.29-1.4Z"/><path class="cls-1" d="m369.94,183.19l-3.2-1.97v-3.6l3.2,1.95v3.62Zm-.46-3.38l-2.29-1.4v2.57l2.29,1.41v-2.58Z"/><path class="cls-1" d="m360.33,180.83l3.2,1.99v3.58l-3.2-2.02v-3.56Zm2.74,2.22l-2.29-1.43v2.54l2.29,1.44v-2.55Z"/><path class="cls-1" d="m364.45,178.27v-1.03l-.46-.28v-1.02l2.29,1.39v1.03l-.45-.28v.52l.45.28v1.03l-.46-.28v-.51l-.46-.28v-.51l-.46-.28v.51c-.16-.1-.31-.19-.46-.28h0Zm.46-.75l.45.28v-.51l-.45-.28v.51Z"/><path class="cls-1" d="m362.62,179.7v.51l.92.57v.51l-1.37-.85v1.02l-1.83-1.14v-1.01l.45.28v.5l.92.57v-1.53h0c.31.19.61.38.92.57h0Z"/><path class="cls-1" d="m364.45,185.45v.51l.46.29v.51l.46.29v.51l-1.37-.86v-1.54l.46.29h0Z"/><path class="cls-1" d="m361.7,179.13l-.92-.57v.51l-.46-.28v-1.01l1.37.85v.51h0Z"/><path class="cls-1" d="m369.94,185.26l-.45-.28v-1.03l-.46-.28v-.52l.91.56v1.55Z"/><path class="cls-1" d="m362.62,179.7v-.51l.91.56v.51l-.91-.57s0,0,0,0Z"/><path class="cls-1" d="m369.03,185.74v-.52l.46.28v.51l-.46-.28h0Z"/><path class="cls-1" d="m369.49,186.54l.45.28v.51l-.45-.28v-.51Z"/><path class="cls-1" d="m365.82,180.65v-.51l.46.28v.51l-.46-.28h0Z"/><path class="cls-1" d="m364.45,184.42l-.46-.28v-.51l.46.28h0v.51h0Z"/><path class="cls-1" d="m369.03,187.81v-.52l.46.28v.51l-.46-.29h0Z"/><path class="cls-1" d="m368.57,183.9l.46.28v.52l-.46-.28h0v-.52h0Z"/><path class="cls-1" d="m366.28,187.63l-.45-.28v-.51l.45.28v.51Z"/><path class="cls-1" d="m367.2,188.2v.51l-.46-.29v-.51c.15.1.3.19.46.29h0Z"/><path class="cls-1" d="m369.94,190.45l-.45-.29v-.51l.45.28v.51Z"/><path class="cls-1" d="m366.28,183.51l-.46-.28v-.51l.45.28v.51s0,0,0,0Z"/><path class="cls-1" d="m362.61,177.65l-1.37-.84v-1.53l1.37.84v1.53Z"/><path class="cls-1" d="m367.66,180.75v-1.54l1.37.84v1.55l-1.37-.84Z"/><path class="cls-1" d="m361.24,183.95v-1.53l1.37.86v1.53l-1.37-.86Z"/></g></g></g><g><g><g><path class="cls-3" d="m102.48,286.54c.05-.11.01-.24-.1-.3l-9.48-5.33c-.36-.23-1.12-.63-1.12-.63h0c-3.95-1.84-9.37-.99-15.24,3.14-9.07,6.39-16.33,19.11-17.18,30.09-.43,5.61.77,9.92,3.09,12.67h0s12.03,13.44,12.03,13.44c.11.12,8.46,4.73,9.62,5.37.06.03.14-.01.14-.08l.62-22.65c7.17-6.88,12.49-17.37,13.24-26.78l.4-.54,3.98-8.41Z"/><path class="cls-3" d="m83.78,345.57l-.16-.09c-9.45-5.22-9.53-5.3-9.64-5.42l-12.03-13.44-.34-.38v-.02c-2.32-3.02-3.33-7.41-2.92-12.76.87-11.21,8.21-24.08,17.46-30.58,5.85-4.12,11.5-5.25,15.93-3.19.03.02.79.42,1.14.64l9.49,5.33c.41.23.57.74.37,1.16l-3.98,8.41-.36.5c-.8,9.27-5.97,19.75-13.23,26.82l-.61,22.38c0,.26-.15.5-.38.63-.12.07-.24.1-.37.1s-.25-.03-.37-.09Zm17.93-58.96l-9.17-5.16c-.29-.19-.93-.53-1.05-.59-3.9-1.81-9.2-.69-14.57,3.09-8.95,6.3-16.06,18.75-16.9,29.6-.4,5.22.61,9.44,2.94,12.19l11.96,13.37c.28.17,1.76,1.02,8.69,4.84l.6-21.99.2-.19c7.2-6.91,12.32-17.25,13.04-26.35l.02-.19.48-.64,3.78-7.98Z"/></g><g><path class="cls-2" d="m94.27,307.86l.53-1.21h0c2.26-5.29,3.43-10.84,3.01-15.82-.03-.4-.08-.78-.14-1.16l3.72-3.52c.11-.1.09-.27-.04-.35l-8.74-5.01c-.22-.14-.69-.4-.69-.4-2.91-1.49-6.68-1.43-10.84.44-4.96,2.24-9.59,6.5-13.24,11.66l26.43,15.36Z"/><path class="cls-3" d="m66.89,292.71l.42-.59c3.88-5.48,8.67-9.7,13.51-11.88,4.2-1.89,8.25-2.05,11.43-.42,0,0,.5.27.7.4l8.74,5.01c.24.14.4.38.44.66.03.28-.07.55-.27.74l-3.47,3.29c.04.28.07.56.09.85.4,4.73-.57,10.1-2.82,15.56h.01s-1.09,2.47-1.09,2.47l-27.69-16.1Zm27.31,13.68c2.33-5.46,3.36-10.82,2.96-15.5-.03-.38-.08-.75-.13-1.12l-.05-.34,3.53-3.35-8.24-4.73c-.2-.13-.64-.37-.64-.37h0c-2.84-1.45-6.39-1.29-10.27.46-4.45,2.01-8.88,5.84-12.55,10.85l25.15,14.62.16-.36.07-.17Z"/></g><g><path class="cls-7" d="m72.2,331.63h0c-2.32-2.75-3.52-7.07-3.09-12.67.85-10.99,8.1-23.71,17.18-30.09,11.73-8.25,21.65-3.42,21.65,9.83,0,12.41-8.71,27.5-19.46,33.7-.31.18-.61.34-.92.5h0c-.99,3.1-1,6.54-.68,9.5.18,1.64-1.81,3.63-2.66,2.67l-12.03-13.44Z"/><path class="cls-3" d="m83.74,345.51l-12.03-13.44-.34-.38v-.02c-2.32-3.02-3.33-7.42-2.92-12.76.87-11.21,8.21-24.08,17.46-30.58,5.96-4.19,11.89-5.29,16.28-3.01,4.14,2.15,6.42,6.9,6.42,13.38,0,12.6-8.88,27.98-19.79,34.28-.23.13-.47.26-.7.39-.75,2.52-.95,5.54-.57,8.97.16,1.45-.94,3-2.02,3.49-.25.11-.5.17-.74.17-.4,0-.77-.16-1.05-.47Zm2.94-56.11c-8.95,6.3-16.06,18.75-16.9,29.6-.4,5.23.61,9.44,2.94,12.19l12.01,13.43s.06.07.26-.02c.64-.28,1.34-1.32,1.25-2.13-.41-3.74-.17-7.02.7-9.77l.14-.29.19-.1c.3-.15.59-.31.89-.49,10.55-6.09,19.13-20.95,19.13-33.13,0-5.96-2.03-10.3-5.7-12.21-1.31-.68-2.79-1.02-4.38-1.02-3.19,0-6.83,1.34-10.52,3.94Z"/></g><rect class="cls-7" x="63.55" y="313.31" width="1.32" height="9.26" transform="translate(-245.16 220.48) rotate(-61.1)"/><g><path class="cls-7" d="m80.88,280.64l9.99,5.61-9.99-5.61Z"/><rect class="cls-3" x="85.22" y="277.72" width="1.32" height="11.45" transform="translate(-203.31 219.52) rotate(-60.68)"/></g><rect class="cls-7" x="65.43" y="322.27" width="1.33" height="8.44" transform="translate(-250.97 224.35) rotate(-60.7)"/></g><g><path class="cls-2" d="m89.74,318.29l.79-1.12c-.16-.12-4.02-2.93-3.74-9.37,0-.13.11-2.84,2.52-4.07.51-.26.92-.35,1.12-.25.36.19.48,1.16.56,1.8.05.37.09.71.16.96.6,2.19,1.46,5.41,4.78,5.33l-.02-1.37c-2.12.06-2.75-1.82-3.41-4.24-.08-.28-.11-.55-.15-.85-.13-1.03-.29-2.32-1.28-2.84-.64-.33-1.41-.25-2.38.24-3.14,1.62-3.25,5.1-3.26,5.24-.32,7.21,4.13,10.41,4.32,10.54Z"/><path class="cls-2" d="m91.26,313.62l.62-1.22-.31.61.32-.61c-.09-.05-2.32-1.31-2.37-6.31h-1.37c.06,5.93,2.99,7.47,3.11,7.53Z"/><path class="cls-2" d="m82.14,322.32c3.07-3.05,2.5-6.58,2.47-6.72-.02-.1-1.26-5.04-.02-9.38.47-1.62,1.36-3.07,2.65-4.29,1.54-1.45,3.24-2.17,4.56-1.91,2.17.42,2.06,3.49,2.05,3.62l1.37.07c.07-1.51-.49-4.51-3.16-5.03-1.77-.34-3.87.48-5.76,2.26-1.47,1.39-2.49,3.04-3.03,4.91-1.35,4.71-.06,9.83,0,10.04,0,.06.45,2.94-2.1,5.47l.96.97Z"/><path class="cls-2" d="m97.26,308.01c1.46,0,2.79-.75,2.86-.8l-.68-1.19c-.48.28-1.96.9-3,.46-.59-.25-.99-.8-1.23-1.69l-1.32.35c.35,1.32,1.04,2.19,2.04,2.61.44.18.9.25,1.34.25Z"/><path class="cls-2" d="m80.25,327.89c4.65-4.19,5.68-8.56,5.72-8.74l-1.34-.3s-.99,4.14-5.3,8.02l.92,1.02Z"/><path class="cls-2" d="m98.51,304.2l.26-1.35c.08.01.12.04.12.04,0,0-.62-.4-1.03-2.85-.39-2.32-1.57-3.55-2.49-4.18-1.28-.87-2.61-1-3.37-.84l.28,1.34c.43-.09,1.4,0,2.32.63,1.01.69,1.67,1.82,1.91,3.28.55,3.31,1.59,3.85,2,3.93Z"/><path class="cls-2" d="m101.3,306.54c2.23-1.17,3.04-3.11,3.08-3.19l-1.27-.52s-.67,1.57-2.45,2.5l.64,1.21Z"/><path class="cls-2" d="m94.94,315.14s.04,0,.06,0c1.8-.01,3.82-.66,6.01-1.92l.58-.34-.69-1.19-.58.33c-1.95,1.13-3.8,1.73-5.33,1.74-.86-.01-1.64-.17-2.2-.52l-.73,1.16c.77.49,1.74.73,2.88.73Z"/><path class="cls-2" d="m92.33,322.62c1.57,0,2.82-.3,2.93-.33l-.33-1.33c-.05.01-5.17,1.24-7.26-1.52l-1.09.83c1.45,1.91,3.84,2.35,5.75,2.35Z"/><path class="cls-2" d="m82.29,328.59c1.96-1.32,3.05-2.89,3.61-3.92,1.41,1.33,3.89,1.7,4.21,1.75l.18-1.36c-.84-.11-3.17-.67-3.83-1.85l-.21-.38-.5-.02c-.33.02-.62.24-.76.58-.3.72-1.24,2.57-3.47,4.07l.76,1.14Z"/><path class="cls-2" d="m92.76,319.05c2.77,0,5.97-1.27,6.13-1.34l-.51-1.27s-4.61,1.83-7.07,1.05l-.41,1.31c.56.18,1.2.25,1.86.25Z"/><path class="cls-2" d="m97.22,311.45c1.68-.16,3.74-1.43,3.83-1.48l-.72-1.17s-1.88,1.15-3.24,1.28l.13,1.36Z"/><path class="cls-2" d="m77.35,325.86c1.8-.37,3.5-2.31,3.57-2.39l-1.03-.9c-.4.46-1.69,1.72-2.81,1.95l.28,1.34Z"/><path class="cls-2" d="m99.96,303.86c3.8-1.02,4.38-4.33,4.4-4.47l-1.35-.22.68.11-.67-.11c-.02.1-.48,2.58-3.41,3.37l.36,1.32Z"/><path class="cls-2" d="m101.38,299.99c.08-3.11-1.34-9.07-7.3-9.33l-.06,1.37c6.12.26,6,7.61,5.99,7.92l1.37.04Z"/><path class="cls-2" d="m76.34,323.89c4.11-1.28,5.38-4.95,5.2-7.96-.02-.38-.05-.76-.09-1.16-.22-2.65-.46-5.66,1.46-10.49,2.15-5.4,7.5-7.73,7.56-7.75l-.54-1.26c-.24.1-5.93,2.58-8.29,8.51-2.04,5.13-1.77,8.45-1.56,11.11.03.39.06.76.08,1.13.07,1.21-.02,5.26-4.24,6.57l.41,1.31Z"/><path class="cls-2" d="m77.21,320.13l1.37-.03-.11-5.87c-.11-5.65,2.54-11.74,2.56-11.8l-1.25-.55c-.11.26-2.79,6.42-2.68,12.38l.11,5.87Z"/><path class="cls-2" d="m83.7,298.92c3.13-3.9,6.74-5.54,6.78-5.55l-.55-1.25c-.16.07-3.95,1.78-7.29,5.95l1.07.86Z"/><path class="cls-2" d="m102.74,297.88l1.31-.39c-.08-.28-.82-2.72-1.64-3.71l-1.05.87c.49.59,1.11,2.29,1.39,3.23Z"/><path class="cls-2" d="m74.82,321.16l1.37-.08c-.31-5.01-.08-7.7-.08-7.72l-1.36-.12c-.01.11-.24,2.8.08,7.93Z"/><path class="cls-2" d="m101.84,309.4s1.12-.68,1.81-1.94l-1.2-.66c-.5.92-1.31,1.42-1.31,1.42l.71,1.17Z"/><rect class="cls-2" x="84.96" y="326.24" width="1.37" height="1.54"/><rect class="cls-2" x="91.31" y="291.12" width="1.49" height="1.37" transform="translate(-83.13 40.94) rotate(-17.42)"/><rect class="cls-2" x="85.13" y="316.2" width="1.44" height="1.37" transform="translate(-242.34 308.27) rotate(-73.34)"/><rect class="cls-2" x="100.41" y="292.25" width="1.37" height="1.19" transform="translate(-170.59 143.96) rotate(-42.23)"/><rect class="cls-2" x="80.71" y="299.55" width="2" height="1.37" transform="translate(-211.6 196.36) rotate(-55.27)"/><rect class="cls-2" x="75.16" y="309.23" width="1.95" height="1.37" transform="translate(-242.97 313.89) rotate(-76.91)"/></g></g><g><g><path class="cls-13" d="m301.34,314.68h0l.25-13.32h120.25s-.16,12.94-.16,12.94c.04.36,0,0-.05.37h0s0,0,0,0c-.27,2.11-1.93,4.27-4.91,5.99l-44.87,25.9c-5.99,3.46-15.05,3.83-20.24.84l-46.82-27.03c-2.61-1.5-3.74-3.57-3.46-5.7Z"/><path class="cls-8" d="m351.26,348.02l-46.82-27.03c-2.73-1.58-4.12-3.9-3.82-6.37l.19-12.55,121.75-1.43-.17,13.59c.02.2.04.38-.06.57-.33,2.41-2.2,4.71-5.26,6.48l-44.87,25.9c-3.37,1.95-7.7,2.94-11.81,2.94-3.43,0-6.7-.69-9.15-2.1Zm69.71-33.73l.15-12.22h-118.83s-.24,12.62-.24,12.62v.08c-.26,1.92.85,3.69,3.1,4.99l46.82,27.03c4.99,2.88,13.74,2.5,19.53-.84l44.87-25.9c2.68-1.55,4.3-3.49,4.56-5.46.01-.08.03-.16.05-.23v-.06Z"/></g><g><path class="cls-13" d="m304.98,307.42l46.82,27.03c5.19,3,14.25,2.62,20.24-.84l44.87-25.9c5.99-3.46,6.64-8.69,1.45-11.69l-46.82-27.03c-5.19-3-14.25-2.62-20.24.84l-44.87,25.9c-5.99,3.46-6.64,8.69-1.45,11.69Z"/><path class="cls-2" d="m306.43,296.56l44.87-25.9c5.99-3.46,15.05-3.83,20.24-.84l46.82,27.03c1.24.72,2.14,1.57,2.72,2.49v5.28c-.78,1.4-2.17,2.76-4.18,3.91l-44.87,25.9c-5.99,3.46-15.05,3.83-20.24.84l-46.82-27.03c-5.19-3-4.54-8.23,1.45-11.69Z"/><path class="cls-8" d="m351.44,335.07l-46.82-27.03c-2.49-1.44-3.86-3.46-3.86-5.69,0-2.64,1.94-5.28,5.31-7.23l44.87-25.9c6.18-3.57,15.58-3.94,20.95-.84l46.82,27.03c2.49,1.44,3.86,3.46,3.86,5.69,0,2.64-1.94,5.28-5.31,7.23l-44.87,25.9c-3.37,1.95-7.7,2.94-11.81,2.94-3.42,0-6.7-.69-9.14-2.1Zm.21-64.62l-44.87,25.9c-2.92,1.69-4.6,3.87-4.6,5.99,0,1.7,1.12,3.29,3.15,4.46l46.82,27.03c4.98,2.87,13.74,2.5,19.53-.84l44.87-25.9c2.92-1.69,4.6-3.87,4.6-5.99,0-1.7-1.12-3.29-3.14-4.46l-46.82-27.03c-2.25-1.3-5.27-1.93-8.43-1.93-3.85,0-7.92.94-11.09,2.77Z"/></g><polygon class="cls-8" points="360.04 336.48 360.04 349.43 355.88 349.43 303.41 319.13 301.47 316.55 300.82 304.51 307.81 309.25 353.97 335.43 360.04 336.48"/></g><g><path class="cls-6" d="m85.84,167.1c.46.83.82,1.69,1.08,2.55,3.27.03,6.54,1.27,8.68,3.33,3.59,3.45,3.03,8.06-1.24,10.27l-14.13,7.34c-4.27,2.22-10.59,1.39-14.1-1.85-1.51-1.39-2.29-3.04-2.29-4.68l.03-.02v-.13c.02-.93.28-1.83.76-2.66,0-.01.01-.02.02-.03.22-.38.49-.73.81-1.07l.26-.28-.44-.15c-.8-.28-1.57-.6-2.29-.97l-.33-.17-.21.23c-.24.27-.46.56-.66.85h0s-.18.29-.18.29c-2.09,3.3-1.37,7.21,1.89,10.21,4.69,4.32,13.18,5.43,18.92,2.48l14.16-7.28c5.74-2.95,6.48-9.14,1.66-13.79-3.06-2.95-7.76-4.64-12.4-4.47Z"/><path class="cls-6" d="m68,178.58c-1.5-.42-2.89-1-4.14-1.74-1.45-.85-2.05-1.38-2.27-1.62-3.18-3.34-2.57-7.89,1.38-10.37.1-.06.2-.12.3-.18,2.09-1.21,4.76-1.71,7.5-1.4.21.02.42.05.62.09l-.5-2.85c-3.86-.42-7.55.35-10.4,2.15-2.58,1.63-4.19,3.97-4.53,6.57-.35,2.6.61,5.23,2.69,7.41.63.66,1.66,1.41,3.08,2.24,1.59.93,3.35,1.67,5.25,2.19l5.4,1.51-.5-2.93-3.89-1.09Z"/><path class="cls-10" d="m80.95,165.01c-1.86-1.78-4.25-3.11-6.93-3.87l.55,3.13c1.36.57,2.58,1.35,3.58,2.31.08.08.16.15.23.23,1.13,1.15,1.86,2.52,2.12,3.98l2.09,11.96-7.53-2.17.5,2.93,8.7,2.52c.59.17,1.23.13,1.7-.12h0s0,0,0,0c.47-.25.71-.67.63-1.13l-2.46-14.04c-.23-1.29-.74-2.55-1.51-3.7-.16-.25-.33-.5-.52-.74,0,0-.01,0-.02,0-.26-.34-.55-.66-.86-.98-.1-.11-.21-.21-.32-.31Z"/><g><g><path class="cls-6" d="m66.47,175.16c.08-.16.28-.75-.8-1.76-.3-.28-.55-.58-.75-.89-.07-.12-.26-.17-.41-.12-.15.05-.21.18-.14.29.22.35.5.68.83.98.84.78.73,1.21.7,1.29-.08.09-.15.19-.21.28.17.1.34.19.52.27.07-.11.15-.21.24-.32,0-.01.02-.02.02-.03Z"/><path class="cls-6" d="m68.15,172.79c-.09-.11-.28-.15-.42-.09-.14.06-.18.2-.08.31,1.47,1.7.56,2.81.52,2.85-.09.09-.16.19-.22.29.2.05.4.1.6.14.04-.06.08-.12.13-.17.05-.06,1.15-1.39-.54-3.34Z"/><path class="cls-6" d="m67.58,175.64c.14-.19.77-1.21-.92-2.8-1.29-1.21-1.43-2.83-.35-4.02.09-.1.05-.24-.09-.32-.14-.08-.33-.06-.42.04-1.23,1.36-1.07,3.19.4,4.56s.94,2.18.85,2.29c-.11.12-.2.25-.27.37.18.08.37.15.56.21.07-.11.14-.22.24-.32,0,0,0,0,0-.01Z"/><path class="cls-6" d="m69.65,169.25c.16-.03.25-.15.2-.27-.05-.12-.22-.2-.38-.17-.35.06-.67.17-.95.33-1.16.65-1.3,1.93-.33,2.84.48.45.86.91,1.12,1.36.07.12.25.18.4.14.03,0,.05-.02.07-.03.1-.06.14-.16.08-.26-.29-.49-.69-.99-1.21-1.48-.76-.71-.64-1.7.26-2.21.22-.12.47-.21.74-.26Z"/><path class="cls-6" d="m72.96,172.29s.04-.02.06-.03c.11-.06.14-.17.08-.27-.41-.64-.94-1.27-1.59-1.88-.54-.51-1.5-.63-2.15-.27s-.73,1.07-.18,1.58c.11.1.3.13.43.05s.15-.21.04-.32c-.32-.31-.28-.73.11-.95s.96-.14,1.29.16c.62.58,1.12,1.18,1.51,1.78.07.12.26.17.41.13Z"/><path class="cls-6" d="m74.33,170.69s.02,0,.03-.02c.12-.06.14-.19.06-.29-.34-.42-.73-.84-1.16-1.24-1.41-1.34-3.91-1.65-5.58-.7-1.45.82-1.83,2.35-.91,3.63.08.11.27.16.41.11.15-.05.2-.19.12-.3-.78-1.08-.46-2.37.77-3.07,1.41-.8,3.53-.53,4.72.6.41.39.79.79,1.12,1.19.09.11.28.15.42.1Z"/><path class="cls-6" d="m71.81,166.91c.1.03.21.02.29-.03.04-.02.08-.06.09-.1.05-.12-.04-.25-.2-.3-2.1-.61-4.35-.41-6.01.54-1.58.9-2.42,2.36-2.25,3.91.01.12.16.23.33.22.17,0,.29-.1.28-.23-.16-1.4.6-2.72,2.03-3.53,1.51-.86,3.54-1.05,5.44-.49Z"/><path class="cls-6" d="m65.28,166.24s-.08.05-.13.07h-.01c-3.18,1.84-3.59,5.35-.91,7.86.29.27.6.52.94.74.01-.02.02-.03.03-.05.03-.04.05-.1.03-.15-.04-.14-.17-.39-.56-.76-2.48-2.32-2.1-5.58.85-7.26s7.38-1.13,9.88,1.24c.87.83,1.57,1.65,2.11,2.44-.23-.94-.78-1.88-1.65-2.71h-.01c-2.67-2.55-7.37-3.17-10.56-1.43Z"/></g><g><path class="cls-6" d="m70.32,174.33c-.03-.12-.19-.21-.36-.2-.17.01-.27.12-.24.25.2.77,0,1.36-.14,1.67l.78-.43c.07-.35.09-.78-.04-1.28Z"/><path class="cls-6" d="m71.19,173.13c-.18-.34-.4-.69-.67-1.04-.09-.11-.28-.16-.42-.1-.14.06-.19.19-.1.3.25.32.46.64.62.96.39.76.47,1.43.42,1.98l.62-.34c-.01-.52-.14-1.12-.47-1.77Z"/><path class="cls-6" d="m70.58,170.64c-.12-.11-.35-.13-.47-.02-.09.08-.08.2.01.29,1.14,1.08,1.83,2.17,2.06,3.26.04.17.31.27.49.17h0c.08-.04.12-.12.1-.2-.22-1-.82-2.2-2.2-3.49Z"/><path class="cls-6" d="m73.49,172.66c-.06-.12-.23-.19-.39-.16-.16.03-.24.16-.18.28.19.4.33.8.41,1.19l.54-.3c-.09-.34-.22-.68-.38-1.01Z"/><path class="cls-6" d="m72.39,169.63c-.27-.26-.61-.47-1-.62-.15-.06-.33-.02-.4.09-.07.11,0,.25.16.31.3.12.56.28.78.48,1.34,1.26,2.06,2.46,2.42,3.52l.52-.29c-.4-1.06-1.16-2.25-2.47-3.49Z"/><path class="cls-6" d="m74.99,171.05c-.08-.12-.26-.17-.41-.12-.15.05-.2.18-.13.3.37.54.66,1.09.87,1.64l.51-.28c-.21-.52-.49-1.03-.84-1.54Z"/><path class="cls-6" d="m74.13,168.65c-.8-.76-1.92-1.3-3.15-1.53-1.21-.22-2.46-.11-3.5.3-.14.06-.19.19-.1.31.09.11.27.16.42.1,1.9-.75,4.43-.28,5.87,1.09,1.27,1.2,2.09,2.37,2.59,3.44l.5-.28c-.53-1.08-1.36-2.23-2.62-3.43Z"/><path class="cls-6" d="m77.64,171.5c-.58-1.06-1.42-2.18-2.64-3.34-.11-.1-.3-.13-.43-.06s-.14.21-.04.32c1.25,1.19,2.09,2.34,2.65,3.41l.45-.25s0-.06,0-.09Z"/></g></g></g><g><g><path class="cls-5" d="m341.16,264.09l4.23-.02,3.48-3.54-.02-1.98s0,0,0,0l5.07-.81,7.51,4.11,5.41-1.18c.07-.02.14.04.14.11l.02,5.67s0,.03,0,.05v.03s2.54-.39,2.54-.39c0,0,0,0,0,0l.02,5.75s0,.22-.06.34l-.74,1.61c-.27.59-1.32.94-2.34.79l-1.46-.22c-.44.4-.95.79-1.56,1.14-.47.27-.98.51-1.51.72v1.24s0,.07,0,.07c.06.52-.51.93-1.41,1.08l-2.78.44c-1.02.16-2.07-.18-2.35-.77l-.4-.85c-1.66-.03-3.32-.27-4.83-.72l-1.06.62c-.74.43-1.96.44-2.71.01l-2.04-1.17c-.37-.21-.55-.4-.55-.68v-.1s0,0,0,0v-4.24s-1.14-.17-1.14-.17c-.92-.14-1.5-.64-1.41-1.17l-.03-5.79s0,0,0,0Z"/><path class="cls-3" d="m354.77,278.61l-.23-.49c-1.53-.06-2.99-.28-4.34-.66l-.83.48c-.93.55-2.4.55-3.34.01l-2.04-1.17c-.26-.15-.86-.49-.87-1.17l-.02-3.85-.59-.09c-.74-.11-1.36-.44-1.69-.89-.21-.29-.3-.62-.26-.95l-.03-5.75v-.64s4.6-.02,4.6-.02l3.11-3.16-.02-1.71v-.27s.33-.33.33-.33l5.48-.87,7.49,4.1,5.18-1.13c.22-.05.45,0,.62.15l.28.28.02,5.32,1.91-.29h.63s.02,6.41.02,6.41c0,.13-.03.38-.12.57l-.74,1.61c-.39.85-1.68,1.35-3.01,1.15l-1.17-.18c-.44.37-.92.72-1.44,1.02-.35.2-.74.4-1.2.6v.82c.11.87-.65,1.57-1.94,1.78l-2.78.44c-.21.03-.41.05-.61.05-1.09,0-2.06-.46-2.4-1.18Zm11.74-4.59c.83.12,1.56-.18,1.67-.43l.73-1.58s.02-.09.02-.1l-.02-5.02-1.82.28-.72.04-.02-5.76-5.01,1.09-7.53-4.12-4.32.69.02,1.7-3.84,3.91-3.86.02.03,5.17.03.11v.05c.09.13.37.31.84.38l1.66.25v4.73s.01.11.01.11c0,0,.05.06.25.18l2.04,1.17c.56.32,1.53.31,2.08,0l1.3-.76.26.08c1.41.42,3.02.66,4.66.69h.39s.56,1.21.56,1.21c.12.25.85.55,1.68.42l2.78-.44c.61-.1.86-.31.88-.38v-1.81s.38-.16.38-.16c.58-.24,1.04-.45,1.43-.68.53-.31,1.02-.67,1.45-1.06l.22-.2,1.76.27Z"/></g><g><path class="cls-2" d="m344.29,261.47l1.46.22c.44-.4.95-.79,1.56-1.14.61-.35,1.27-.65,1.96-.91l-.4-.84c-.28-.59.33-1.2,1.35-1.36l2.78-.44c1.02-.16,2.07.18,2.35.77l.4.85c1.66.03,3.32.27,4.83.72l1.06-.62c.75-.43,1.96-.44,2.71-.01l2.04,1.17c.75.43.75,1.13,0,1.56l-1.06.62c.8.87,1.22,1.82,1.29,2.78l1.47.22c1.02.15,1.63.76,1.36,1.35l-.74,1.61c-.27.59-1.32.94-2.34.79l-1.46-.22c-.44.4-.95.79-1.56,1.14-.61.35-1.27.65-1.96.91l.4.84c.28.59-.33,1.2-1.35,1.36l-2.78.44c-1.02.16-2.07-.18-2.35-.77l-.4-.85c-1.66-.03-3.32-.27-4.83-.72l-1.06.62c-.75.43-1.96.44-2.71.01l-2.04-1.17c-.75-.43-.75-1.13,0-1.56l1.06-.62c-.8-.87-1.22-1.82-1.29-2.78l-1.47-.22c-1.02-.15-1.63-.76-1.36-1.35l.74-1.61c.27-.59,1.32-.94,2.34-.79Z"/><path class="cls-3" d="m354.75,272.78l-.23-.49c-1.53-.06-2.99-.28-4.34-.66l-.83.48c-.93.54-2.4.55-3.34.01l-2.04-1.17c-.56-.32-.88-.8-.88-1.32,0-.52.32-1.01.87-1.33l.43-.25c-.46-.65-.77-1.34-.9-2.06l-1-.15c-.85-.13-1.5-.51-1.8-1.06-.2-.37-.22-.79-.04-1.17l.74-1.61c.39-.86,1.69-1.35,3.01-1.15l1.17.18c.43-.37.92-.72,1.44-1.02.44-.25.91-.49,1.42-.71l-.11-.24c-.18-.38-.17-.8.03-1.17.29-.55.94-.94,1.79-1.08l2.78-.44c1.32-.21,2.62.28,3.02,1.13l.23.49c1.53.06,2.99.28,4.34.66l.83-.48c.94-.54,2.4-.55,3.34-.01l2.04,1.17c.56.32.88.8.88,1.32,0,.52-.32,1.01-.87,1.33l-.43.25c.46.64.77,1.34.9,2.05l1,.15c.85.13,1.5.51,1.8,1.06.2.37.22.79.04,1.18l-.74,1.61c-.39.86-1.69,1.35-3.01,1.15l-1.17-.18c-.43.37-.92.72-1.44,1.02-.43.25-.91.49-1.42.7l.11.24c.18.38.17.8-.03,1.17-.29.55-.94.94-1.79,1.07l-2.78.44c-.21.03-.41.05-.61.05-1.09,0-2.07-.46-2.4-1.18Zm11.74-4.59c.83.12,1.56-.18,1.67-.43l.74-1.66c-.06-.11-.31-.33-.88-.41l-1.97-.3-.04-.5c-.06-.85-.44-1.65-1.13-2.4l-.53-.58,1.74-1.01c.2-.12.24-.22.24-.24,0-.02-.04-.12-.25-.23l-2.04-1.17c-.55-.32-1.52-.31-2.08,0l-1.3.76-.26-.08c-1.41-.42-3.02-.66-4.66-.69h-.39s-.56-1.21-.56-1.21c-.12-.25-.85-.55-1.68-.42l-2.78.44c-.56.09-.82.31-.88.47l.69,1.47-.64.24c-.69.25-1.31.54-1.86.86-.54.31-1.02.67-1.45,1.06l-.22.2-1.76-.27c-.83-.13-1.56.18-1.67.43l-.74,1.66c.06.11.31.33.88.41l1.97.3.04.5c.06.85.44,1.65,1.13,2.4l.53.58-1.74,1.01c-.2.12-.24.22-.24.24,0,.02.04.12.25.23l2.04,1.17c.56.32,1.52.31,2.08,0l1.3-.76.26.08c1.41.42,3.02.66,4.66.69h.39s.56,1.21.56,1.21c.12.25.84.55,1.68.42l2.78-.44c.56-.09.82-.31.88-.47l-.69-1.46.64-.24c.69-.26,1.32-.55,1.86-.86.54-.31,1.03-.67,1.45-1.06l.22-.2,1.76.27Z"/></g><rect class="cls-3" x="364.41" y="268.48" width="1.26" height="5.83" transform="translate(-1.21 1.63) rotate(-.26)"/><rect class="cls-3" x="361.22" y="272.09" width="1.26" height="5.83" transform="translate(-1.25 1.65) rotate(-.26)"/><rect class="cls-3" x="354.37" y="272.14" width="1.26" height="5.83" transform="translate(-1.22 1.59) rotate(-.26)"/><rect class="cls-3" x="349.64" y="271.15" width="1.26" height="5.83" transform="translate(-1.22 1.57) rotate(-.26)"/><g><path class="cls-5" d="m350.88,262.56c-2.47,1.43-2.47,3.74,0,5.17s6.48,1.43,8.96,0c2.47-1.43,2.47-3.74,0-5.17-2.47-1.43-6.48-1.43-8.96,0Z"/><path class="cls-3" d="m350.56,268.27c-1.4-.81-2.17-1.92-2.17-3.13s.77-2.32,2.17-3.13h0c2.69-1.55,6.9-1.55,9.59,0,1.4.81,2.17,1.92,2.17,3.13s-.77,2.32-2.17,3.13c-1.34.78-3.07,1.17-4.79,1.17s-3.45-.39-4.79-1.17Zm.63-5.17c-.99.57-1.54,1.3-1.54,2.04,0,.74.55,1.47,1.54,2.04,2.3,1.32,6.03,1.32,8.33,0,.99-.57,1.54-1.3,1.54-2.04s-.55-1.47-1.54-2.04c-1.15-.66-2.66-.99-4.16-.99s-3.02.33-4.16.99Z"/></g><g><path class="cls-2" d="m359.83,267.37c.1.06.1.06.19.12-.09.06-.09.18-.19.24-2.47,1.43-6.48,1.43-8.96,0-.1-.06-.1-.18-.19-.24.09-.06.09-.06.19-.12,2.47-1.43,6.48-1.43,8.96,0Z"/><path class="cls-3" d="m350.56,268.27c-.17-.1-.27-.24-.32-.34l-.64-.48.78-.53c.06-.04.08-.06.18-.11,2.69-1.55,6.9-1.55,9.59,0,.1.06.12.07.22.14l.8.53-.71.46c-.05.09-.14.22-.31.32-1.34.78-3.07,1.17-4.79,1.17s-3.45-.39-4.79-1.16Zm1.38-.73c2.04.84,4.79.84,6.83,0-2.04-.84-4.79-.84-6.83,0Z"/></g><rect class="cls-3" x="357.04" y="261.74" width="1.26" height="4.56"/></g><g><path class="cls-6" d="m382.25,308.42c-1.41.7-2.89,1.31-4.44,1.83,1.23,3.2.15,6.76-2.92,9.47-5.16,4.54-14.14,5.42-20.03,1.98l-19.5-11.42c-5.89-3.45-6.8-9.9-2.04-14.37,2.05-1.93,4.88-3.22,7.98-3.75l.05.03.25-.04c1.78-.28,3.59-.31,5.35-.1.02,0,.04,0,.07,0,.8.1,1.59.25,2.36.46l.63.17.12-.48c.21-.87.53-1.73.94-2.55l.19-.38-.53-.13c-.62-.15-1.24-.28-1.87-.38h0s-.62-.1-.62-.1c-7.1-1.01-14.23.95-18.64,5.12-6.34,6-5.11,14.65,2.74,19.29l19.38,11.44c7.85,4.64,19.91,3.45,26.88-2.65,4.42-3.87,5.78-8.95,3.65-13.43Z"/><path class="cls-6" d="m353.37,294.5c.2-1.6.76-3.15,1.67-4.61,1.05-1.69,1.81-2.44,2.18-2.74,5.09-4.17,14-4.98,20.27-1.84.15.08.31.16.46.24,3.13,1.69,5.14,4.16,5.63,6.95.04.21.06.42.08.64l5.22-1.35c-.73-3.92-3.65-7.32-8.21-9.59-4.13-2.05-9.21-2.92-14.31-2.46-5.08.46-9.7,2.22-13.02,4.96-1,.83-2.02,2.08-3.04,3.73-1.14,1.85-1.84,3.82-2.09,5.85l-.74,5.77,5.37-1.41.54-4.16Z"/><path class="cls-10" d="m384.3,303c2.65-2.35,4.24-5.1,4.64-7.95l-5.75,1.49c-.55,1.5-1.55,2.94-2.98,4.21-.11.1-.23.2-.35.3-1.74,1.45-4.07,2.59-6.75,3.29l-21.93,5.76,1.17-8.03-5.37,1.41-1.36,9.29c-.1.63.23,1.24.89,1.62h.01s0,0,0,0c.66.38,1.56.48,2.39.26l25.73-6.76c2.37-.62,4.55-1.5,6.46-2.6.42-.23.82-.48,1.21-.73,0,0,0,0-.01-.02.54-.36,1.04-.74,1.52-1.13.16-.13.32-.27.47-.4Z"/><g><path class="cls-6" d="m362.77,290.44c-.19.18-.38.36-.57.55-.19.19-.39.38-.59.57-.07.06-.12.11-.17.15-.05.04-.1.09-.17.15l.59.33-.81.75-.71-.4c-.28.17-.58.3-.88.41-.31.11-.63.18-.96.2-.33.03-.67,0-1.02-.08-.35-.08-.71-.22-1.08-.42l.81-.75c.23.13.45.21.67.25.22.04.42.05.63.03.2-.02.4-.07.59-.15.19-.08.37-.17.55-.28.18-.11.35-.24.51-.37.16-.14.32-.28.48-.42.2-.19.41-.38.61-.58.2-.2.4-.39.6-.57l1.03.57-.07.05Z"/><path class="cls-6" d="m361.77,292.14l.85.47,1.94-1.77,1.03.57-1.94,1.78.74.41,1.94-1.78,1.02.56-1.95,1.78.74.41,1.95-1.78,1.02.56-2.36,2.15c-.06.05-.12.09-.2.12-.08.03-.16.05-.24.06-.08,0-.17,0-.25-.01-.08-.02-.16-.04-.23-.08l-4.86-2.7.81-.75Zm4.62-1.43c.06-.06.13-.1.21-.13.08-.03.17-.05.26-.06.09,0,.18,0,.27.01.09.02.17.04.24.09s.14.09.18.15c.04.06.07.12.08.18.01.06,0,.13-.02.19-.03.06-.07.12-.13.18s-.13.1-.21.13c-.08.03-.16.05-.25.06-.09,0-.18,0-.27-.01-.09-.02-.17-.05-.25-.09s-.13-.09-.18-.15c-.04-.06-.07-.12-.08-.18-.01-.06,0-.13.02-.19.02-.06.07-.12.12-.18Zm1.48-.4c.06-.06.13-.1.21-.13.08-.03.17-.05.25-.06.09,0,.18,0,.27.01.09.02.17.04.24.09s.14.09.18.15c.04.06.07.12.08.18.01.06,0,.13-.02.19-.02.06-.07.12-.13.18s-.13.1-.21.13c-.08.03-.17.05-.26.06-.09,0-.18,0-.27-.01-.09-.02-.17-.05-.25-.09s-.13-.09-.18-.15c-.04-.06-.07-.12-.08-.18-.01-.06,0-.13.02-.19.03-.06.07-.12.13-.18Zm-.19,1.11c.06-.06.13-.1.21-.13.08-.03.17-.05.25-.06.09,0,.18,0,.27.01.09.02.17.04.24.09s.14.09.18.15c.04.06.07.12.08.18,0,.06,0,.13-.02.19-.03.06-.07.12-.13.18s-.13.1-.21.13c-.08.03-.17.05-.25.06-.09,0-.18,0-.27-.01-.09-.02-.17-.05-.25-.09s-.13-.09-.18-.15c-.04-.06-.07-.12-.08-.18,0-.06,0-.13.02-.19.03-.06.07-.12.13-.18Z"/><path class="cls-6" d="m368.8,297.25l-1.29-.72c-.07-.04-.13-.09-.17-.14-.04-.05-.07-.11-.07-.17,0-.06,0-.12.02-.18.02-.06.06-.12.12-.17,0,0,0,0,.01-.01,0,0,.01-.01.03-.02l3.58-3.25,1.02.56-3.21,2.91.79.44-.82.75Z"/><path class="cls-6" d="m368.74,297.21l.82-.75.81.45,1.97-1.78,1.02.56-1.97,1.78.73.4-.83.75-2.54-1.41Zm-.09,1.25c.06-.06.13-.1.21-.13.08-.03.17-.05.25-.06.09,0,.18,0,.27.01.09.02.17.05.24.09s.14.09.18.15c.04.06.07.12.08.18,0,.06,0,.13-.02.19-.02.06-.07.12-.13.18s-.13.1-.21.13c-.08.03-.17.05-.26.06-.09,0-.18,0-.27,0-.09-.02-.17-.04-.25-.09s-.13-.09-.17-.15c-.04-.06-.07-.12-.08-.18,0-.06,0-.13.03-.19.03-.06.07-.12.13-.18Z"/><path class="cls-6" d="m372.05,297.85l.67.37.73-.66c.16-.14.37-.27.62-.36.25-.1.52-.16.8-.2.28-.03.57-.03.85.01.29.04.54.13.77.27.2.11.4.23.6.34.2.11.4.23.6.34.07.04.12.08.16.14.04.05.06.11.07.17,0,.06,0,.12-.02.18-.02.06-.06.11-.12.17l-2.05,1.84c-.06.05-.13.1-.21.14-.08.04-.16.06-.24.07-.08.01-.17.01-.26,0-.09-.01-.17-.04-.24-.08l-3.56-1.98.83-.75Zm1.69.94l1.36.75,1.25-1.12c-.14-.08-.26-.15-.36-.2-.1-.06-.17-.1-.22-.12-.03-.02-.06-.03-.07-.04-.02-.01-.03-.02-.04-.02h-.02s0-.01,0-.01c-.08-.04-.17-.07-.28-.09-.11-.02-.22-.02-.33,0-.11.01-.21.03-.31.07-.1.04-.18.08-.25.14l-.73.66Z"/></g></g><g><g><g><path class="cls-3" d="m163.38,389.41l31.68-21.53c2.04-1.18,3.7-4.35,3.7-7.07l2.82-36.32c0-2.72-4.53-4.4-6.57-3.22l-34.21,19.88c-2.04,1.18-3.7,4.34-3.7,7.07l.04,36.74c0,2.72,4.19,5.62,6.23,4.44Z"/><path class="cls-5" d="m156.97,389.11c-1.69-.96-3.39-2.82-3.39-4.81l-.05-37.9c0-3.11,1.88-6.61,4.27-7.97l35.8-20.51c1.43-.81,3.75-.64,5.64.45,3.33,1.92,3.17,5.77,3.17,7.2l-3.7,33.8c0,3.1-1.88,6.6-4.22,7.94l-29.84,20.82,1.28.48c-.46.26-2.95,1.92-3.52,1.92-.85,0-4.47-.88-5.43-1.43Zm36.67-23.11c1.88-1.07,3.48-4.1,3.48-6.68l2.95-37.4c0-1.14-2.62,6.18-3.11,5.9-1.36-.77-2.13-1.16-3.04-.64l-29.28,18.24c-1.88,1.07-3.36,3.09-3.36,5.6l-.16,29.44c0,1.17.87,1.85,2.4,2.72,1.07.61-3.66,5.36-3.05,5.03l33.17-22.22Z"/></g><g><path class="cls-2" d="m163.81,389.2l34.21-19.88c2.04-1.18,3.7-4.35,3.7-7.07l-.04-36.74c0-2.72-1.66-3.98-3.7-2.8l-34.21,19.88c-2.04,1.18-3.7,4.34-3.7,7.07l.04,36.74c0,2.72,1.66,3.98,3.7,2.8Z"/><path class="cls-3" d="m161.01,390.05c-1.05-.61-1.66-1.94-1.66-3.65l-.04-36.74c0-3.01,1.79-6.4,4.08-7.72l34.21-19.88c1.13-.66,2.26-.72,3.18-.2,1.05.61,1.66,1.94,1.66,3.65l.04,36.74c0,3.01-1.79,6.4-4.08,7.72l-34.21,19.88h0c-.63.37-1.26.55-1.85.55-.47,0-.92-.12-1.33-.35Zm36.63-21.39c1.8-1.04,3.32-3.98,3.32-6.41l-.04-36.74c0-1.14-.34-2.01-.9-2.34-.55-.32-1.21-.07-1.66.19l-34.21,19.88c-1.8,1.04-3.32,3.98-3.32,6.41l.04,36.74c0,1.14.34,2.01.9,2.34.55.31,1.21.07,1.66-.19l34.21-19.88Z"/></g><rect class="cls-2" x="159.35" y="342.99" width=".87" height="3.28" transform="translate(-217.22 298.12) rotate(-58.09)"/><rect class="cls-2" x="194.18" y="321.5" width=".87" height="3.28" transform="translate(-182.56 317.56) rotate(-58.09)"/><rect class="cls-2" x="158.01" y="382.51" width=".87" height="3.28" transform="translate(-251.4 315.61) rotate(-58.09)"/></g><path class="cls-7" d="m197.11,368.59l-3.99-5.8c-1.07-1.56-3.08-1.75-5.25-.5l-2.98,1.72c2.44-3.78,4.08-9.14,4.08-14.21,0-7.57-3.66-11.59-8.17-8.99-4.51,2.6-8.17,10.85-8.17,18.41,0,5.07,1.64,8.53,4.08,9.49l-2.31,1.33c-2.16,1.25-4.16,3.74-5.24,6.53l-3.76,10.66,31.69-18.66Z"/><g><path class="cls-12" d="m190.33,359.55c1.14-.66,2.07-2.42,2.07-3.95v-6.56"/><path class="cls-12" d="m169.16,363.38v5.7c0,1.52.93,2.22,2.07,1.56"/><path class="cls-12" d="m176.07,341.81l-4.86,2.83c-1.14.66-2.06,2.42-2.06,3.95v4.81"/><path class="cls-12" d="m192.38,342.09v-7c0-1.52-.93-2.22-2.07-1.56l-5.15,2.99"/></g></g><g><g><g><path class="cls-3" d="m111.31,123.42l36.13-24.56c2.33-1.35,4.22-4.96,4.22-8.06l3.22-41.43c0-3.11-5.16-5.02-7.49-3.67l-39.02,22.68c-2.33,1.35-4.22,4.96-4.22,8.06l.05,41.91c0,3.11,4.78,6.41,7.11,5.07Z"/><path class="cls-3" d="m107.04,123.68c-1.84-1.06-3.7-3.12-3.7-5.32l-.05-41.91c0-3.43,2.04-7.3,4.65-8.81l39.02-22.68c1.55-.9,4.08-.69,6.15.5,1.68.97,2.64,2.4,2.64,3.98l-3.22,41.36c0,3.43-2.04,7.3-4.6,8.78l-36.13,24.56-.05.03c-.5.29-1.07.43-1.7.43-.92,0-1.96-.31-3.01-.92Zm39.97-25.56c2.05-1.19,3.79-4.54,3.79-7.38l3.22-41.36c0-1.26-1.24-2.11-1.78-2.42-1.48-.86-3.43-1.08-4.42-.5l-39.02,22.68c-2.05,1.19-3.79,4.54-3.79,7.32l.05,41.91c0,1.29,1.17,2.87,2.84,3.83,1.17.67,2.3.86,2.96.5l36.15-24.57Z"/></g><g><path class="cls-5" d="m111.8,123.18l39.02-22.68c2.33-1.35,4.22-4.96,4.22-8.06l-.05-41.91c0-3.11-1.89-4.54-4.22-3.19l-39.02,22.68c-2.33,1.35-4.22,4.96-4.22,8.06l.05,41.91c0,3.11,1.89,4.54,4.22,3.19Z"/><path class="cls-3" d="m108.6,124.15c-1.2-.69-1.89-2.21-1.89-4.16l-.05-41.91c0-3.43,2.04-7.3,4.65-8.81l39.02-22.68c1.29-.75,2.58-.83,3.62-.22,1.2.69,1.89,2.21,1.89,4.16l.05,41.91c0,3.43-2.04,7.31-4.65,8.81l-39.02,22.68h0c-.72.42-1.44.63-2.11.63-.54,0-1.05-.13-1.51-.4Zm41.78-24.4c2.05-1.19,3.79-4.54,3.79-7.32l-.05-41.91c0-1.3-.38-2.3-1.03-2.67-.63-.36-1.38-.08-1.9.22l-39.02,22.68c-2.05,1.19-3.79,4.54-3.79,7.32l.05,41.91c0,1.3.38,2.29,1.03,2.67.62.36,1.37.08,1.9-.22l39.02-22.68Z"/></g><rect class="cls-2" x="106.71" y="70.46" width=".99" height="3.74" transform="translate(-10.86 125.11) rotate(-58.09)"/><rect class="cls-2" x="146.44" y="45.95" width=".99" height="3.74" transform="translate(28.68 147.28) rotate(-58.09)"/><rect class="cls-2" x="105.18" y="115.54" width=".99" height="3.74" transform="translate(-49.85 145.06) rotate(-58.09)"/></g><g><path class="cls-2" d="m129.55,102.15c0-1.34.01-2.67.02-4.01h0c.52-.29,1.04-.58,1.56-.88v-2.01c-.52.3-1.04.59-1.55.89h0c0-.67,0-1.33,0-2l3.15-1.79v-2c.54-.3,1.05-.59,1.58-.89v1.99c.52-.3,1.04-.6,1.56-.89l.03-4.01h0c.07-.03.13-.07.2-.11,1.51-.86,3.02-1.72,4.53-2.59l-.02,2.01,1.56-.89.02-2.01-1.57.89.02-2.03-3.16,1.8.03-4.01-4.74,2.72v2c-1.07.6-2.11,1.2-3.15,1.8l-.02,4.01,1.56-.89v2c-.54.3-1.05.59-1.58.89v2c-.53.3-1.05.59-1.58.89v-2c-1.57.9-3.14,1.79-4.71,2.69v-1.99c1.57-.89,3.14-1.79,4.72-2.69l.07-16.01,1.59-.92h0c0,1.93-.02,3.85-.03,5.78,0,.07,0,.13,0,.21l1.58-.91.02-3.99,1.58-.91-.02,4.01,1.59-.91h0c0,.66,0,1.32-.01,2l7.9-4.53-.02,2.02,1.58-.91-.02,2.03h0c-.52.29-1.05.59-1.57.89l-.02,2.03,1.57-.9h0c-.01,1.34-.03,2.68-.04,4.05l1.58-.9h0c-.01,1.34-.03,2.68-.04,4.04l-1.56.89-.04,4.06,1.56-.88h0c0,.67-.01,1.33-.02,2.02l3.13-1.77-.02,2.02-4.69,2.64-.04,4.04-1.56.88.02-2.01-3.14,1.77h0c0-.66.01-1.33.02-2.01l-1.56.88.02-2.01,3.12-1.76.02-2.02-7.84,4.43v2c-1.07.6-2.11,1.19-3.16,1.78h0Zm9.46-11.36l.02-2.01-1.56.89v2c.51-.3,1.03-.59,1.55-.89l-.02,2.01,3.13-1.77.02-2.01-3.14,1.78Zm-3.15,1.8l-1.56.88v1.99c.51-.3,1.02-.59,1.54-.88v-1.99Zm3.25-11.9l1.56-.89.02-2-1.56.9-.02,1.99Z"/><path class="cls-2" d="m115.44,88.28v-13.87l11.1-6.46c-.02,4.65-.04,9.3-.05,13.97l-11.05,6.36Zm1.59-12.81v9.91c2.63-1.52,5.26-3.03,7.89-4.55l.03-9.96-7.92,4.6Z"/><path class="cls-2" d="m148.62,69.2l-11.05,6.36.11-14.08,11.1-6.46c-.05,4.72-.11,9.44-.16,14.18Zm-1.45-11.23l-7.92,4.6c-.03,3.36-.05,6.71-.08,10.06l7.89-4.55.11-10.11Z"/><path class="cls-2" d="m115.44,102.19l11-6.25-.05,13.97-10.94,6.15c0-4.61,0-9.23,0-13.87Zm9.42-3.36l-7.84,4.45v9.91c2.61-1.47,5.21-2.93,7.81-4.4l.03-9.96Z"/><path class="cls-2" d="m129.69,74.11l.02-4.01-1.58.92.02-3.99,7.93-4.61-.03,4.01-1.57.91v2.01c.51-.3,1.03-.6,1.56-.91l-.03,4.01-1.58.91v-1.99c-.52.31-1.04.61-1.57.91v-2c-.52.31-1.04.61-1.57.92v1.99c-.55.31-1.08.62-1.6.92h0Zm1.61-4.94l1.57-.91v-1.99c-.52.31-1.03.61-1.56.91v1.98Z"/><path class="cls-2" d="m123.32,87.74v1.99c1.05-.6,2.09-1.2,3.15-1.8v1.99c-1.58.9-3.14,1.79-4.73,2.7v3.98c-2.11,1.2-4.2,2.39-6.3,3.58v-3.95c.52-.29,1.03-.59,1.56-.89v1.96c1.05-.6,2.09-1.19,3.16-1.8v-5.96s0,0,0,0c1.05-.6,2.11-1.21,3.16-1.81h0Z"/><path class="cls-2" d="m129.55,102.15v2c.52-.3,1.03-.59,1.56-.88v2c.51-.29,1.03-.58,1.55-.88v2.01c-1.57.88-3.13,1.75-4.69,2.63l.03-5.99,1.56-.88h0Z"/><path class="cls-2" d="m120.17,89.55l-3.16,1.81v1.98c-.53.3-1.05.6-1.57.9v-3.95c1.57-.9,3.14-1.8,4.73-2.71v1.98s0,0,0,0Z"/><path class="cls-2" d="m148.53,77.32l-1.56.89.04-4.04-1.57.9.02-2.02,3.14-1.8-.07,6.07Z"/><path class="cls-2" d="m123.33,87.74v-1.99c1.06-.6,2.1-1.2,3.15-1.81v1.99c-1.06.6-2.11,1.2-3.16,1.81,0,0,0,0,0,0Z"/><path class="cls-2" d="m145.35,83.17l.02-2.02,1.57-.89-.02,2.01-1.57.89h0Z"/><path class="cls-2" d="m146.91,84.3l1.56-.88-.02,2.01-1.56.88.02-2.01Z"/><path class="cls-2" d="m134.4,77.39v-2c.54-.3,1.06-.6,1.58-.91v2c-.54.3-1.06.6-1.59.91h0Z"/><path class="cls-2" d="m129.57,98.14l-1.56.89v-2c.53-.3,1.05-.59,1.57-.89h0c0,.67,0,1.34,0,2.01h0Z"/><path class="cls-2" d="m145.27,91.27l.02-2.02,1.56-.88-.02,2.01-1.56.88h0Z"/><path class="cls-2" d="m143.83,78l1.57-.9-.02,2.02-1.57.9h0c0-.67.01-1.35.02-2.02h0Z"/><path class="cls-2" d="m135.79,102.63l-1.55.87v-1.99c.53-.29,1.04-.58,1.56-.87v1.99Z"/><path class="cls-2" d="m138.93,100.87l-.02,2.01-1.56.87v-2c.54-.29,1.06-.59,1.58-.88h0Z"/><path class="cls-2" d="m148.3,97.61l-1.55.87.02-2.01,1.55-.87-.02,2.01Z"/><path class="cls-2" d="m135.91,86.53l-1.57.89v-2c.53-.29,1.05-.59,1.58-.89v2s-.01,0-.01,0Z"/><path class="cls-2" d="m123.34,79.76l-4.73,2.73v-5.94c1.58-.91,3.16-1.83,4.75-2.75l-.02,5.96Z"/><path class="cls-2" d="m140.77,69.7l.05-6.03,4.74-2.75-.06,6.05-4.73,2.73Z"/><path class="cls-2" d="m118.57,110.32v-5.94c1.57-.89,3.13-1.77,4.7-2.66l-.02,5.96-4.69,2.64Z"/></g></g><g><g><g><g><path class="cls-13" d="m150.38,76.57l48.95-28.26c.97-.56,1.86-.62,2.56-.26h0c.09.05.19.1.27.17l7.08,4.27c.28.17.37.53.21.81l-3.83,6.91v26.78c0,2.99-1.82,6.46-4.06,7.75l-38.57,22.27-7.57,9.57-7.62-4.61c-.91-.47-1.49-1.64-1.49-3.33v-34.33c0-2.99,1.82-6.46,4.06-7.75Z"/><path class="cls-13" d="m150.65,79.54l48.95-28.26c.97-.56,1.86-.62,2.56-.26h0c.09.05.19.1.27.17l7.08,4.27c.28.17.37.53.21.81l-3.83,6.91v26.78c0,2.99-1.82,6.46-4.06,7.75l-38.57,22.27-4.04,3.38-8.14-1.6c-.91-.47-4.5,1.54-4.5-.15v-34.33c0-2.99,1.82-6.46,4.06-7.75Z"/><path class="cls-8" d="m147.42,122.76c-1.25-.64-1.96-2.14-1.96-4.1v-34.33c0-3.31,1.97-7.05,4.49-8.5l48.95-28.26c1.19-.69,2.4-.79,3.39-.29.13.07.26.15.33.2l7.09,4.28c.67.41.9,1.28.52,1.98l-3.72,6.72v26.56c0,3.31-1.97,7.05-4.49,8.5l-38.42,22.18-7.94,10.04-8.22-4.97Zm54.24-73.83c-.05-.04-.11-.07-.16-.1-.57-.29-1.26-.03-1.73.24l-48.95,28.26c-1.96,1.13-3.62,4.34-3.62,7v34.33c0,1.27.38,2.23,1.07,2.58l6.96,4.21,7.09-8.97,38.82-22.48c1.96-1.13,3.62-4.34,3.62-7v-27.01s3.82-6.89,3.82-6.89l-6.92-4.18Z"/></g><g><path class="cls-2" d="m158.11,126.4l48.95-28.26c2.24-1.29,4.06-4.76,4.06-7.75v-34.33c0-2.99-1.82-4.36-4.06-3.07l-48.95,28.26c-2.24,1.29-4.06,4.76-4.06,7.75v34.33c0,2.99,1.82,4.36,4.06,3.07Z"/><path class="cls-8" d="m155.02,127.36c-1.17-.67-1.84-2.14-1.84-4.03v-34.33c0-3.32,1.97-7.05,4.49-8.5l48.95-28.26c1.26-.73,2.51-.8,3.52-.21,1.17.67,1.84,2.14,1.84,4.03v34.33c0,3.31-1.97,7.05-4.49,8.5l-48.95,28.26h0c-.7.4-1.39.61-2.05.61-.53,0-1.03-.13-1.48-.39Zm2.66-1.72l48.95-28.26c1.96-1.13,3.62-4.34,3.62-7v-34.33c0-1.23-.36-2.18-.97-2.53-.59-.34-1.29-.07-1.79.21l-48.95,28.26c-1.96,1.13-3.62,4.34-3.62,7v34.33c0,1.23.36,2.18.97,2.53.59.34,1.3.07,1.79-.21h0Z"/></g></g><polygon class="cls-14" points="154.89 85.62 147.16 80.95 146.29 84.79 146.41 120.32 147.78 122.44 154.62 126.26 154.02 91.94 154.89 85.62"/></g><g><g><path class="cls-6" d="m181.84,90.11c0-.42,0-.84,0-1.25h0c.16-.09.33-.19.49-.28v-.63c-.16.1-.32.19-.49.28h0c0-.21,0-.42,0-.63l.99-.57v-.62c.17-.1.33-.19.5-.28v.62c.16-.1.32-.19.49-.28v-1.25s0,0,0,0c.02-.01.04-.02.06-.04.47-.27.95-.55,1.42-.82v.63c.16-.1.32-.19.49-.28v-.62c-.16.1-.32.19-.49.28v-.63c-.33.19-.65.38-.98.57v-1.25c-.49.29-.98.57-1.47.86v.63c-.33.19-.66.38-.99.57v1.25c.16-.09.32-.19.48-.28v.63c-.17.09-.33.19-.49.28v.63c-.17.09-.33.19-.5.28v-.63c-.49.29-.98.57-1.48.85v-.62c.49-.28.99-.57,1.48-.85l.03-5.01.5-.29h0c0,.6,0,1.21,0,1.81,0,.02,0,.04,0,.07l.49-.29v-1.25c.17-.1.33-.19.5-.29v1.25c.16-.1.33-.19.49-.29h0c0,.21,0,.41,0,.63l2.47-1.43v.63c.16-.1.32-.19.49-.29v.63s0,0,0,0l-.49.28v.63c.16-.1.32-.19.49-.28h0c0,.42,0,.83,0,1.26l.49-.28h0c0,.42,0,.83,0,1.26l-.49.28v1.26c.15-.09.32-.19.48-.28h0c0,.21,0,.41,0,.63l.98-.56v.63c-.49.28-.99.56-1.48.85v1.26c-.17.09-.34.19-.5.28v-.63c-.33.19-.66.38-.98.57h0c0-.21,0-.41,0-.63l-.49.28v-.63c.33-.19.66-.37.98-.56v-.63c-.82.47-1.63.94-2.46,1.41v.62c-.34.19-.66.38-.99.57h0Zm2.97-3.58v-.63c-.16.1-.32.19-.49.28v.62c.16-.1.32-.19.49-.28v.63c.33-.19.65-.38.98-.56v-.62c-.33.19-.65.38-.98.57Zm-.99.57l-.49.28v.62c.16-.09.32-.19.48-.28v-.62Zm1.01-3.72l.49-.28v-.62c-.16.09-.32.19-.48.28v.62Z"/><path class="cls-6" d="m177.43,85.78l.02-4.37,3.46-2.01-.02,4.38-3.45,1.99Zm.51-4.03v3.12c.81-.48,1.63-.95,2.45-1.43l.02-3.12-2.47,1.43Z"/><path class="cls-6" d="m187.8,79.79l-3.45,1.99.03-4.39,3.46-2.01-.03,4.4Zm-.47-3.49l-2.47,1.43-.02,3.13,2.47-1.43.02-3.14Z"/><path class="cls-6" d="m177.41,90.16l3.45-1.98-.02,4.38-3.44,1.97.02-4.37Zm2.95-1.07l-2.46,1.41v3.12c.81-.47,1.63-.94,2.45-1.41l.02-3.12Z"/><path class="cls-6" d="m181.89,81.34v-1.25c-.16.1-.32.19-.49.29v-1.25c.83-.48,1.65-.95,2.48-1.43v1.25c-.17.09-.33.19-.5.28v.63c.16-.09.32-.19.49-.28v1.25c-.17.09-.33.19-.5.28v-.62c-.16.1-.32.19-.49.29v-.63c-.16.1-.32.19-.49.29v.62c-.17.1-.34.19-.5.29h0Zm.5-1.54l.49-.28v-.62c-.16.1-.32.19-.49.28v.62Z"/><path class="cls-6" d="m179.89,85.61v.63c.33-.19.65-.38.98-.57v.63c-.49.28-.99.57-1.48.85v1.25c-.66.38-1.32.76-1.98,1.13v-1.24c.17-.09.33-.19.49-.28v.62c.33-.19.65-.38.99-.57v-1.87s0,0,0,0c.33-.19.66-.38.99-.57h0Z"/><path class="cls-6" d="m181.84,90.11v.63c.16-.09.32-.19.49-.28v.63c.16-.09.32-.19.49-.28v.63c-.49.28-.98.56-1.48.84v-1.88c.17-.09.34-.19.5-.28h0Z"/><path class="cls-6" d="m178.91,86.18l-.99.57v.62c-.17.1-.33.19-.49.28v-1.24c.49-.28.99-.57,1.48-.85v.62s0,0,0,0Z"/><path class="cls-6" d="m187.79,82.31l-.49.28v-1.25c-.16.1-.32.19-.48.28v-.63c.33-.19.66-.38.99-.57v1.88Z"/><path class="cls-6" d="m179.89,85.61v-.62c.33-.19.66-.38.99-.57v.62c-.33.19-.66.38-.99.57,0,0,0,0,0,0Z"/><path class="cls-6" d="m186.79,84.14v-.63c.17-.09.33-.19.49-.28v.62c-.17.09-.33.19-.5.28h0Z"/><path class="cls-6" d="m187.28,84.49l.49-.28v.62c-.17.09-.33.19-.49.28v-.62Z"/><path class="cls-6" d="m183.36,82.36v-.62c.17-.09.33-.19.49-.28v.62c-.17.09-.33.19-.5.28h0Z"/><path class="cls-6" d="m181.85,88.86l-.49.28v-.63c.17-.09.33-.19.49-.28h0c0,.21,0,.42,0,.63h0Z"/><path class="cls-6" d="m186.77,86.66v-.63c.17-.09.33-.19.49-.28v.62c-.17.09-.33.19-.5.28h0Z"/><path class="cls-6" d="m186.31,82.54l.49-.28v.63c-.17.09-.33.19-.5.28h0c0-.21,0-.42,0-.63h0Z"/><path class="cls-6" d="m183.8,90.24l-.49.28v-.62c.16-.09.33-.19.49-.28v.62Z"/><path class="cls-6" d="m184.79,89.67v.63c-.17.09-.33.19-.49.28v-.62c.17-.09.33-.19.49-.28h0Z"/><path class="cls-6" d="m187.74,88.61l-.49.28v-.62c.17-.09.33-.18.49-.28v.62Z"/><path class="cls-6" d="m183.83,85.21l-.49.28v-.62c.17-.09.33-.19.49-.28v.63s0,0,0,0Z"/><path class="cls-6" d="m179.9,83.11l-1.48.85v-1.87c.5-.28.99-.57,1.49-.86v1.87Z"/><path class="cls-6" d="m185.35,79.96v-1.88c.51-.29,1-.57,1.49-.86v1.88c-.5.28-1,.57-1.49.85Z"/><path class="cls-6" d="m178.39,92.71v-1.87c.5-.28.99-.56,1.48-.85v1.87c-.5.28-.99.56-1.48.84Z"/></g><g><path class="cls-6" d="m177.47,102.9l1.99-5.02-2.85,1.62s-.03,0-.03-.02l.08-22.71s.01-.04.03-.05l12.19-7.1s.03,0,.03.02l-.04,4.53,1.28-3.22.02-2.4c0-1.07-.67-1.54-1.51-1.05l-11.72,6.84c-.84.49-1.53,1.75-1.53,2.81l-.07,25.06c0,1.06.67,1.53,1.5,1.06l.64-.36Z"/><path class="cls-10" d="m188.96,78.44l-.11,14.05s-.01.04-.03.05l-7.05,4.02-1.99,5.03,8.78-4.99c.83-.47,1.52-1.73,1.53-2.8l.16-18.59-1.28,3.22Zm-6.14,20.86c-.59.34-1.07,0-1.06-.76s.49-1.64,1.08-1.97,1.07,0,1.06.76-.49,1.64-1.08,1.97Z"/></g><g><path class="cls-6" d="m193.05,81.92c-.23,1.06-.53,2.12-.88,3.19,1.74.55,2.79,2.52,2.76,5.29-.05,4.63-3,10.04-6.58,12.06l-11.86,6.7c-3.58,2.02-6.49-.02-6.49-4.56,0-1.95.54-4.1,1.49-6.08l.03-.02.08-.16c.55-1.13,1.21-2.17,1.95-3.08,0-.01.02-.02.03-.03.34-.41.69-.8,1.05-1.15l.3-.29-.15-.26c-.27-.47-.49-1-.66-1.57l-.08-.26-.25.25c-.29.29-.57.59-.84.9h0s-.26.31-.26.31c-3.03,3.62-4.91,8.49-4.91,12.72,0,6.08,3.91,8.83,8.71,6.13l11.85-6.67c4.8-2.7,8.76-9.97,8.83-16.19.04-3.94-1.52-6.66-4.11-7.21Z"/><path class="cls-6" d="m173.38,93.02l.41-1.1s2.27-2.27,2.6-1.42c.33.85-.4.94-.4.94l-.07,1.5-1,.83-1.11.46-.43-1.21Z"/><polygon class="cls-6" points="192.16 85.11 192.19 81.87 193.05 81.92 193.52 83.04 192.16 85.11"/></g></g></g></g></g></svg>