<?xml version="1.0" encoding="iso-8859-1"?>
<!-- Uploaded to: SVG Repo, www.svgrepo.com, Transformed by: SVG Repo Tools -->
<svg height="800px" width="800px" version="1.1" id="Capa_1" xmlns="http://www.w3.org/2000/svg" xmlns:xlink="http://www.w3.org/1999/xlink" 
	 viewBox="0 0 48.768 48.768" xml:space="preserve">
<g>
	<g>
		<path style="fill:#010002;" d="M24.384,0C10.939,0,0,10.938,0,24.384s10.938,24.384,24.384,24.384S48.768,37.83,48.768,24.384
			S37.829,0,24.384,0z M24.384,46.446c-12.165,0-22.062-9.897-22.062-22.062S12.219,2.323,24.384,2.323s22.061,9.897,22.061,22.061
			S36.548,46.446,24.384,46.446z"/>
		<path style="fill:#010002;" d="M25.134,9.259c0-0.553-0.448-1-1-1s-1,0.447-1,1v15.25h-10.5c-0.553,0-1,0.447-1,1
			c0,0.276,0.112,0.526,0.293,0.707s0.431,0.292,0.707,0.292h11.5c0.553,0,1-0.447,1-1V9.259z"/>
	</g>
</g>
<g>
</g>
<g>
</g>
<g>
</g>
<g>
</g>
<g>
</g>
<g>
</g>
<g>
</g>
<g>
</g>
<g>
</g>
<g>
</g>
<g>
</g>
<g>
</g>
<g>
</g>
<g>
</g>
<g>
</g>
</svg>