<?xml version="1.0" encoding="iso-8859-1"?>
<!-- Uploaded to: SVG Repo, www.svgrepo.com, Transformed by: SVG Repo Tools -->
<!DOCTYPE svg PUBLIC "-//W3C//DTD SVG 1.1//EN" "http://www.w3.org/Graphics/SVG/1.1/DTD/svg11.dtd">
<svg fill="#000000" version="1.1" id="Capa_1" xmlns="http://www.w3.org/2000/svg" xmlns:xlink="http://www.w3.org/1999/xlink" 
	 width="800px" height="800px" viewBox="0 0 317.409 317.409"
	 xml:space="preserve">
<g>
	<g>
		<path d="M139.508,223.662c0.424,0.086,0.812,0.079,2.019-0.842c0.539-0.407,1.328-1.099,2.067-2.073l0.315-0.418
			c2.738-3.654,9.158-12.187,18.419-11.718c7.637,0.552,13.051,6.331,15.651,16.687c0.096,0.359,0.144,0.575,0.216,0.732
			c0.394,1.688,1.071,3.806,2.026,4.504c0.229,0.171,0.51,0.25,0.797,0.25c0.414,0,0.818-0.192,1.088-0.559
			c0.425-0.574,0.315-1.386-0.239-1.83c-0.273-0.346-0.767-1.797-1.061-3.073c-0.021-0.082-0.048-0.15-0.075-0.226
			c-0.027-0.09-0.072-0.281-0.117-0.452c-0.417-1.643-1.512-6.003-4.164-10.103c-3.439-5.301-8.128-8.199-13.93-8.617
			c-0.014,0-0.027,0-0.027,0c-10.707-0.554-17.736,8.795-20.739,12.775l-0.308,0.418c-0.821,1.098-1.788,1.759-2.135,1.967
			c-0.101,0.041-0.214,0.106-0.315,0.179c-0.424,0.314-0.625,0.862-0.512,1.376C138.594,223.146,138.989,223.543,139.508,223.662z"
			/>
		<path d="M173.291,228.833c1.014-2.539,1.041-5.174,0.072-7.207c-0.869-1.813-2.498-3.135-4.698-3.812
			c-3.217-0.985-7.129,0.801-10.71,4.922c-0.05,0.041-5.156,5.399-10.506,8.686c-0.036,0.027-3.956,2.375-8.049,3.483
			c-0.726,0.198-1.143,0.938-0.95,1.656c0.199,0.726,0.946,1.149,1.656,0.951c4.454-1.211,8.569-3.683,8.747-3.792
			c5.811-3.552,11.088-9.164,11.115-9.212c2.184-2.491,5.4-4.88,7.915-4.106c1.472,0.444,2.506,1.249,3.043,2.389
			c0.653,1.361,0.599,3.196-0.134,5.037c-1.379,3.436-5.653,7.584-12.054,11.677c-3.202,2.06-11.287,7.11-16.988,9.544
			c-0.685,0.295-0.999,1.085-0.712,1.766c0.224,0.517,0.719,0.825,1.244,0.825c0.171,0,0.357-0.041,0.525-0.106
			c5.895-2.529,14.113-7.662,17.377-9.746C165.054,238.675,171.259,233.905,173.291,228.833z"/>
		<path d="M151.569,218.759c-0.616,0.684-1.164,1.402-1.759,2.087c-0.773,0.914-1.615,1.759-2.505,2.557
			c-0.912,0.817-1.645,1.41-2.715,2.026c-1.143,0.66-2.3,1.313-3.47,1.889c-0.409,0.202-0.76,0.332-1.211,0.458
			c-0.705,0.223-1.143,0.948-0.946,1.667c0.191,0.698,0.95,1.156,1.656,0.938c1.384-0.41,2.635-1.115,3.879-1.82
			c1.049-0.609,2.096-1.143,3.06-1.883c1.882-1.43,3.498-3.1,4.998-4.935c0.603-0.739,1.251-1.444,1.923-2.121
			c0.368-0.37,0.746-0.726,1.136-1.075c0.198-0.185,0.402-0.355,0.616-0.54c0.103-0.075,0.221-0.172,0.324-0.261
			c0.027-0.014,0.238-0.185,0.294-0.223c0.938-0.718,1.93-1.365,2.993-1.902c0.99-0.51,1.982-0.869,3.194-1.122
			c0.411-0.079,0.494-0.093,0.789-0.113c0.732-0.082,1.356-0.562,1.356-1.352c0-0.688-0.617-1.427-1.356-1.355
			C158.946,212.174,154.786,215.22,151.569,218.759z"/>
		<path d="M141.07,244.596c2.931-1.013,17.982-6.625,26.404-18.438c0.432-0.609,0.287-1.451-0.321-1.883
			c-0.603-0.431-1.444-0.287-1.876,0.315c-7.946,11.136-22.288,16.488-25.083,17.446c-0.062,0.03-0.101,0.044-0.108,0.051
			c-0.691,0.261-1.047,1.044-0.789,1.732c0.214,0.537,0.712,0.869,1.264,0.869c0.159,0,0.31-0.014,0.46-0.079L141.07,244.596z"/>
		<path d="M177.774,252.624c-1.868-0.63-4.154-2.252-6.372-3.826c-3.21-2.286-5.976-4.257-8.22-3.867
			c-1.696,0.288-4.661,2.177-9.32,5.264c-3.376,2.218-7.195,4.736-8.85,5.182c-0.726,0.191-1.148,0.931-0.957,1.649
			c0.166,0.602,0.712,0.999,1.308,0.999c0.109,0,0.224-0.014,0.344-0.041c2.089-0.562,5.751-2.984,9.644-5.544
			c3.123-2.061,7.029-4.634,8.295-4.853c1.135-0.199,3.951,1.8,6.203,3.401c2.368,1.697,4.825,3.442,7.077,4.188
			c0.712,0.24,1.472-0.144,1.704-0.849S178.482,252.86,177.774,252.624z"/>
		<path d="M174.396,259.229c-1.085-0.387-2.851-1.485-4.568-2.539c-3.604-2.231-5.898-3.593-7.539-3.299
			c-1.679,0.287-5.183,2.673-11.059,6.961c-0.719,0.52-1.343,0.972-1.768,1.279c-0.609,0.438-0.753,1.28-0.329,1.883
			c0.258,0.369,0.676,0.567,1.1,0.567c0.274,0,0.546-0.082,0.782-0.239c0.452-0.321,1.074-0.78,1.807-1.313
			c2.343-1.705,8.562-6.242,9.904-6.482c0.842-0.055,3.877,1.814,5.688,2.937c1.916,1.177,3.72,2.3,5.068,2.786
			c0.69,0.253,1.475-0.11,1.725-0.814C175.461,260.249,175.108,259.482,174.396,259.229z"/>
		<path d="M169.845,265.937c-0.763-0.5-1.457-0.992-2.135-1.472c-2.204-1.581-4.12-2.95-6.22-2.58
			c-2.354,0.41-6.119,4.188-6.838,4.935c-0.525,0.533-0.506,1.396,0.029,1.909c0.258,0.254,0.603,0.377,0.939,0.377
			c0.357,0,0.703-0.13,0.963-0.404c1.815-1.868,4.374-3.983,5.373-4.154c0.984-0.178,2.476,0.883,4.195,2.115
			c0.661,0.465,1.414,1.013,2.218,1.536c0.63,0.407,1.458,0.223,1.861-0.394C170.636,267.179,170.465,266.347,169.845,265.937z"/>
		<path d="M181.71,238.087c-1.123-0.473-2.3-0.962-3.244-1.752c-1.041-0.866-1.533-2.002-1.745-3.323
			c-0.281-1.708-2.889-0.982-2.602,0.726c0.575,3.497,3.148,5.387,6.222,6.684c0.691,0.287,1.444,0.215,1.855-0.479
			C182.531,239.359,182.388,238.374,181.71,238.087z"/>
		<path d="M179.096,245.133c-1.014-0.308-1.787-0.705-2.854-1.345c-1.965-1.16-3.761-2.834-4.623-4.989
			c-0.274-0.675-0.89-1.157-1.66-0.938c-0.65,0.172-1.218,0.979-0.947,1.657c1.607,3.963,5.301,6.953,9.362,8.213
			C180.047,248.243,180.752,245.643,179.096,245.133z"/>
		<path d="M253.309,0H64.092C51.991,0,42.147,9.848,42.147,21.952v273.504c0,12.101,9.844,21.953,21.944,21.953h189.217
			c12.101,0,21.953-9.853,21.953-21.953V21.952C275.262,9.848,265.409,0,253.309,0z M262.716,295.456
			c0,5.188-4.216,9.407-9.407,9.407H64.092c-5.186,0-9.406-4.216-9.406-9.407V21.952c0-5.186,4.216-9.409,9.406-9.409h189.217
			c5.188,0,9.407,4.219,9.407,9.409V295.456z"/>
		<path d="M117.914,289.755h84.336V185.252h-84.336V289.755z M130.453,197.798h59.258v79.418h-59.258V197.798z"/>
		<rect x="80.643" y="28.245" width="36.391" height="36.396"/>
		<rect x="140.926" y="28.245" width="36.393" height="36.396"/>
		<rect x="199.573" y="28.245" width="36.392" height="36.396"/>
		<rect x="81.032" y="79.295" width="36.4" height="36.396"/>
		<rect x="141.316" y="79.295" width="36.39" height="36.396"/>
		<rect x="199.971" y="79.295" width="36.391" height="36.396"/>
		<rect x="81.162" y="131.772" width="36.398" height="36.396"/>
		<rect x="141.446" y="131.772" width="36.39" height="36.396"/>
		<rect x="200.101" y="131.772" width="36.392" height="36.396"/>
	</g>
</g>
<g>
</g>
<g>
</g>
<g>
</g>
<g>
</g>
<g>
</g>
<g>
</g>
<g>
</g>
<g>
</g>
<g>
</g>
<g>
</g>
<g>
</g>
<g>
</g>
<g>
</g>
<g>
</g>
<g>
</g>
</svg>